;TYPE=PLATED
;Layer: PTH_Through
;EasyEDA Pro v3.2.149.88089769, 2026-08-12 00:03:07
;Gerber Generator version 0.3
M48
METRIC,LZ,0000.00000
;Hole size 1 = 0.25400 METRIC
T01C0.25400
;Hole size 2 = 0.30000 METRIC
T02C0.30000
;Hole size 3 = 0.60000 METRIC
T03C0.60000
;Hole size 4 = 0.90002 METRIC
T04C0.90002
%
G05
G90
T01
X-14.43786Y1.08715
X-0.43785Y7.08715
X3.56215Y-0.91286
X5.56215Y-4.91286
X11.56216Y-4.91286
X11.56216Y-2.91286
X11.56216Y-0.91286
X11.56216Y1.08715
X13.56216Y-6.91286
X13.56216Y-2.91286
X13.56216Y-0.91286
X13.56216Y1.08715
X13.56216Y3.08715
X13.56216Y7.08715
X15.56216Y-4.91286
X15.56216Y-2.91286
X15.56216Y-0.91286
X15.56216Y1.08715
X15.56216Y3.08715
X15.56216Y5.08715
T02
X-15.58141Y-3.72334
X-11.22782Y-5.715
X-3.2409Y-7.4995
X-15.58733Y-4.38259
X-14.94997Y-3.09999
X-4.84999Y-7.54998
X-10.24998Y-5.59999
X3.63906Y5.04999
X4.14999Y4.59999
X3.14999Y4.59847
X2.63906Y5.04847
X2.12167Y4.59847
X1.63906Y5.04847
X1.15Y4.59847
X0.63906Y5.04847
X0.15Y4.59847
X-0.36093Y5.04847
X-0.85Y4.59847
X-1.36093Y5.04847
X-1.85Y4.59847
X-2.36093Y5.04847
X-2.44566Y-5.12919
X-3.08627Y-4.83782
X-1.49198Y-4.62007
X-0.38503Y-4.89673
X0.21806Y-5.22759
X0.66398Y-4.63445
X1.1454Y-5.30807
X1.628Y-4.59847
X2.14473Y-5.04914
X2.628Y-4.59847
X3.13893Y-5.04847
X3.628Y-4.59847
X4.13893Y-5.04847
X-17.69996Y-8.04998
X-1.05099Y-5.11303
X-3.69999Y8.49998
X5.61802Y-7.93598
X9.075Y-6.52389
X-16.43482Y0.46916
X-3.30635Y0.3788
X-6.84439Y-0.4
X-17.06103Y-1.79847
X-17.06545Y-1.00305
X-17.06545Y-5.00304
X-14.33794Y-5.9053
X-13.5381Y-5.9053
X-12.738Y-5.9053
X-11.93815Y-5.9053
X-11.13805Y-7.5669
X-7.65024Y-5.42501
X-7.13806Y-7.45053
X-8.12498Y-0.275
X-8.44998Y-0.9
X-8.34998Y-3.85699
X-17.02716Y-4.19999
X-2.54999Y-5.78959
X-2.59999Y-6.44999
X-8.44998Y-8.71728
X2.45Y-7.44999
X10.44998Y0.8
X10.44998Y-0.65
X5.24999Y-3.34999
X-4.09999Y-2.84999
X11.29998Y-8.59998
X6.99999Y-4.14999
X6.99999Y-2.54999
X-15.07497Y-1.575
X8.24998Y3.29999
X11.68979Y8.3242
X6.29999Y2.3
X1.1Y-1.1
X4.445Y-1.92902
X-13.19997Y1.85
X-14.19997Y2.1
X-13.64997Y-4.44999
X4.14999Y1.22007
X-9.55639Y-5.87151
X-12.2554Y-7.51019
X-4.26659Y-4.82382
X-5.72481Y-7.55635
X1.65926Y-8.15848
X3.14999Y7.94998
X10.15343Y7.55419
T03
X9.53588Y-4.32498G85X10.43588Y-4.32498
X9.53588Y4.32499G85X10.43588Y4.32499
X13.88603Y-4.32498G85X14.48603Y-4.32498
X13.88603Y4.32499G85X14.48603Y4.32499
T04
X3.032Y0.508
X1.032Y0.508
M30