G04 Layer: DrillDrawingLayer*
G04 EasyEDA Pro v3.2.149.88089769, 2026-08-12 00:03:06*
G04 Gerber Generator version 0.3*
G04 Scale: 100 percent, Rotated: No, Reflected: No*
G04 Dimensions in millimeters*
G04 Leading zeros omitted, absolute positions, 4 integers and 5 decimals*
G04 Generated by one-click*
G04 Object Configs: Pad,Via,Track,Text,Image,Dimension,BoardOutline,BoardCutout,CopperFilled,SolidRegion,FPCStiffener,Line,PlaneZone,ComponentProperty,ComponentSilkscreen,TearDrop*
G04 Layer Configs: 1,15,16,2,3,4,5,6,7,8,9,10,11,13,14,56*
G04 Copper Areas: 0*
%FSLAX45Y45*%
%MOMM*%
%AMIconRect*4,1,4,0.28,-0.28,-0.28,-0.28,-0.28,0.28,0.28,0.28,0.28,-0.28,0*4,0,4,0.233333,-0.233333,0.233333,0.233333,-0.233333,0.233333,-0.233333,-0.233333,0.233333,-0.233333,0*%
%AMIconTriangle*4,1,3,-0.339593,0.240473,0.339593,0.240473,0,-0.37884,-0.339593,0.240473,0*4,0,3,-0.265673,0.19404,0,-0.27342,0.266233,0.19404,-0.265673,0.19404,0*%
%AMIconStar6*4,1,12,0.12068,0.20888,0.298527,0.172713,0.241313,0,0.298527,-0.17206,0.12068,-0.208227,0,-0.344073,-0.120073,-0.208227,-0.298573,-0.17206,-0.240707,0,-0.298573,0.17206,-0.120073,0.20888,0,0.344073,0.12068,0.20888,0*4,0,12,-0.000467,0.273467,-0.090067,0.171733,-0.237533,0.136733,-0.193667,-0.007467,-0.237533,-0.1372,-0.090067,-0.171733,-0.000467,-0.273933,0.090067,-0.171733,0.237533,-0.1372,0.194133,0.007,0.237533,0.1372,0.090067,0.171267,-0.000467,0.273467,0*%
%AMIconStar4*4,1,8,-0.311733,0.311733,0,0.202533,0.311733,0.311733,0.202533,0,0.311733,-0.311733,0,-0.202533,-0.304407,-0.311733,-0.202533,0,-0.311733,0.311733,0*4,0,8,0.233333,-0.233333,0.1512,0,0.233333,0.233333,0,0.1512,-0.233333,0.233333,-0.1512,0,-0.233333,-0.233333,0,-0.1512,0.233333,-0.233333,0*%
%AMIconPlus*4,1,12,0.1736,-0.28,-0.1736,-0.28,-0.1736,-0.1736,-0.28,-0.1736,-0.28,0.1736,-0.1736,0.1736,-0.1736,0.28,0.1736,0.28,0.1736,0.1736,0.28,0.1736,0.28,-0.1736,0.1736,-0.1736,0.1736,-0.28,0*4,0,12,0.126933,-0.233333,0.126933,-0.126933,0.233333,-0.126933,0.233333,0.126933,0.126933,0.126933,0.126933,0.233333,-0.126933,0.233333,-0.126933,0.126933,-0.233333,0.126933,-0.233333,-0.126933,-0.126933,-0.126933,-0.126933,-0.233333,0.126933,-0.233333,0*%
%ADD10IconRect*%
%ADD11C,0.616X0.522667*%
%ADD12IconTriangle*%
%ADD13IconStar6*%
%ADD14IconStar4*%
%ADD15IconPlus*%
%ADD16C,0.2032*%
%ADD17C,0.254*%
G75*


G04 Drill Drawing Start*
G54D10*
G01X103200Y50800D03*
G01X303200Y50800D03*
G54D11*
G01X998588Y-432498D03*
G01X998588Y432499D03*
G54D12*
G01X1418603Y-432498D03*
G01X1418603Y432499D03*
G54D13*
G01X1050608Y-288988D03*
G01X1050608Y289014D03*
G54D14*
G01X-1443786Y108715D03*
G01X-43785Y708715D03*
G01X356215Y-91286D03*
G01X556215Y-491286D03*
G01X1156216Y-491286D03*
G01X1156216Y-291286D03*
G01X1156216Y-91286D03*
G01X1156216Y108715D03*
G01X1356216Y-691286D03*
G01X1356216Y-291286D03*
G01X1356216Y-91286D03*
G01X1356216Y108715D03*
G01X1356216Y308715D03*
G01X1356216Y708715D03*
G01X1556216Y-491286D03*
G01X1556216Y-291286D03*
G01X1556216Y-91286D03*
G01X1556216Y108715D03*
G01X1556216Y308715D03*
G01X1556216Y508715D03*
G54D15*
G01X-1769996Y-804998D03*
G01X-1706545Y-500304D03*
G01X-1706545Y-100305D03*
G01X-1706103Y-179847D03*
G01X-1702716Y-419999D03*
G01X-1643482Y46916D03*
G01X-1558733Y-438259D03*
G01X-1558141Y-372334D03*
G01X-1507497Y-157500D03*
G01X-1494997Y-309999D03*
G01X-1433794Y-590530D03*
G01X-1419997Y210000D03*
G01X-1364997Y-444999D03*
G01X-1353810Y-590530D03*
G01X-1319997Y185000D03*
G01X-1273800Y-590530D03*
G01X-1225540Y-751019D03*
G01X-1193815Y-590530D03*
G01X-1122782Y-571500D03*
G01X-1113805Y-756690D03*
G01X-1024998Y-559999D03*
G01X-955639Y-587151D03*
G01X-844998Y-871728D03*
G01X-844998Y-90000D03*
G01X-834998Y-385699D03*
G01X-812498Y-27500D03*
G01X-765024Y-542501D03*
G01X-713806Y-745053D03*
G01X-684439Y-40000D03*
G01X-572481Y-755635D03*
G01X-484999Y-754998D03*
G01X-426659Y-482382D03*
G01X-409999Y-284999D03*
G01X-369999Y849998D03*
G01X-330635Y37880D03*
G01X-324090Y-749950D03*
G01X-308627Y-483782D03*
G01X-259999Y-644999D03*
G01X-254999Y-578959D03*
G01X-244566Y-512919D03*
G01X-236093Y504847D03*
G01X-185000Y459847D03*
G01X-149198Y-462007D03*
G01X-136093Y504847D03*
G01X-105099Y-511303D03*
G01X-85000Y459847D03*
G01X-38503Y-489673D03*
G01X-36093Y504847D03*
G01X15000Y459847D03*
G01X21806Y-522759D03*
G01X63906Y504847D03*
G01X66398Y-463445D03*
G01X110000Y-110000D03*
G01X114540Y-530807D03*
G01X115000Y459847D03*
G01X162800Y-459847D03*
G01X163906Y504847D03*
G01X165926Y-815848D03*
G01X212167Y459847D03*
G01X214473Y-504914D03*
G01X245000Y-744999D03*
G01X262800Y-459847D03*
G01X263906Y504847D03*
G01X313893Y-504847D03*
G01X314999Y459847D03*
G01X314999Y794998D03*
G01X362800Y-459847D03*
G01X363906Y504999D03*
G01X413893Y-504847D03*
G01X414999Y122007D03*
G01X414999Y459999D03*
G01X444500Y-192902D03*
G01X524999Y-334999D03*
G01X561802Y-793598D03*
G01X629999Y230000D03*
G01X699999Y-414999D03*
G01X699999Y-254999D03*
G01X824998Y329999D03*
G01X907500Y-652389D03*
G01X1015343Y755419D03*
G01X1044998Y-65000D03*
G01X1044998Y80000D03*
G01X1129998Y-859998D03*
G01X1168979Y832420D03*
G04 Drill Drawing End*

G04 Text Start*
G54D16*
G01X4002246Y705394D02*
G01X4002246Y585252D01*
G01X4002246Y705394D02*
G01X4047966Y585252D01*
G01X4093686Y705394D02*
G01X4047966Y585252D01*
G01X4093686Y705394D02*
G01X4093686Y585252D01*
G01X4210018Y665262D02*
G01X4210018Y585252D01*
G01X4210018Y648244D02*
G01X4198588Y659674D01*
G01X4187158Y665262D01*
G01X4170140Y665262D01*
G01X4158710Y659674D01*
G01X4147280Y648244D01*
G01X4141438Y630972D01*
G01X4141438Y619542D01*
G01X4147280Y602524D01*
G01X4158710Y591094D01*
G01X4170140Y585252D01*
G01X4187158Y585252D01*
G01X4198588Y591094D01*
G01X4210018Y602524D01*
G01X4257770Y665262D02*
G01X4257770Y585252D01*
G01X4257770Y630972D02*
G01X4263612Y648244D01*
G01X4275042Y659674D01*
G01X4286472Y665262D01*
G01X4303490Y665262D01*
G01X4351242Y705394D02*
G01X4351242Y585252D01*
G01X4408392Y665262D02*
G01X4351242Y608112D01*
G01X4374102Y630972D02*
G01X4414234Y585252D01*
G01X5539526Y676692D02*
G01X5533684Y688122D01*
G01X5522254Y699552D01*
G01X5510824Y705394D01*
G01X5487964Y705394D01*
G01X5476534Y699552D01*
G01X5465104Y688122D01*
G01X5459516Y676692D01*
G01X5453674Y659674D01*
G01X5453674Y630972D01*
G01X5459516Y613954D01*
G01X5465104Y602524D01*
G01X5476534Y591094D01*
G01X5487964Y585252D01*
G01X5510824Y585252D01*
G01X5522254Y591094D01*
G01X5533684Y602524D01*
G01X5539526Y613954D01*
G01X5615980Y665262D02*
G01X5604550Y659674D01*
G01X5593120Y648244D01*
G01X5587278Y630972D01*
G01X5587278Y619542D01*
G01X5593120Y602524D01*
G01X5604550Y591094D01*
G01X5615980Y585252D01*
G01X5632998Y585252D01*
G01X5644428Y591094D01*
G01X5655858Y602524D01*
G01X5661700Y619542D01*
G01X5661700Y630972D01*
G01X5655858Y648244D01*
G01X5644428Y659674D01*
G01X5632998Y665262D01*
G01X5615980Y665262D01*
G01X5709452Y665262D02*
G01X5709452Y608112D01*
G01X5715294Y591094D01*
G01X5726724Y585252D01*
G01X5743742Y585252D01*
G01X5755172Y591094D01*
G01X5772444Y608112D01*
G01X5772444Y665262D02*
G01X5772444Y585252D01*
G01X5820196Y665262D02*
G01X5820196Y585252D01*
G01X5820196Y642402D02*
G01X5837468Y659674D01*
G01X5848898Y665262D01*
G01X5865916Y665262D01*
G01X5877346Y659674D01*
G01X5883188Y642402D01*
G01X5883188Y585252D01*
G01X5948212Y705394D02*
G01X5948212Y608112D01*
G01X5953800Y591094D01*
G01X5965230Y585252D01*
G01X5976660Y585252D01*
G01X5930940Y665262D02*
G01X5971072Y665262D01*
G01X6947847Y688122D02*
G01X6936417Y699552D01*
G01X6919399Y705394D01*
G01X6896539Y705394D01*
G01X6879267Y699552D01*
G01X6867837Y688122D01*
G01X6867837Y676692D01*
G01X6873679Y665262D01*
G01X6879267Y659674D01*
G01X6890697Y653832D01*
G01X6924987Y642402D01*
G01X6936417Y636814D01*
G01X6942259Y630972D01*
G01X6947847Y619542D01*
G01X6947847Y602524D01*
G01X6936417Y591094D01*
G01X6919399Y585252D01*
G01X6896539Y585252D01*
G01X6879267Y591094D01*
G01X6867837Y602524D01*
G01X6995599Y705394D02*
G01X7001441Y699552D01*
G01X7007029Y705394D01*
G01X7001441Y710982D01*
G01X6995599Y705394D01*
G01X7001441Y665262D02*
G01X7001441Y585252D01*
G01X7117773Y665262D02*
G01X7054781Y585252D01*
G01X7054781Y665262D02*
G01X7117773Y665262D01*
G01X7054781Y585252D02*
G01X7117773Y585252D01*
G01X7165525Y630972D02*
G01X7234105Y630972D01*
G01X7234105Y642402D01*
G01X7228517Y653832D01*
G01X7222675Y659674D01*
G01X7211245Y665262D01*
G01X7194227Y665262D01*
G01X7182797Y659674D01*
G01X7171367Y648244D01*
G01X7165525Y630972D01*
G01X7165525Y619542D01*
G01X7171367Y602524D01*
G01X7182797Y591094D01*
G01X7194227Y585252D01*
G01X7211245Y585252D01*
G01X7222675Y591094D01*
G01X7234105Y602524D01*
G01X10761803Y705394D02*
G01X10761803Y585252D01*
G01X10761803Y705394D02*
G01X10813365Y705394D01*
G01X10830383Y699552D01*
G01X10836225Y693964D01*
G01X10841813Y682534D01*
G01X10841813Y665262D01*
G01X10836225Y653832D01*
G01X10830383Y648244D01*
G01X10813365Y642402D01*
G01X10761803Y642402D01*
G01X10889565Y705394D02*
G01X10889565Y585252D01*
G01X11005897Y665262D02*
G01X11005897Y585252D01*
G01X11005897Y648244D02*
G01X10994467Y659674D01*
G01X10983037Y665262D01*
G01X10966019Y665262D01*
G01X10954589Y659674D01*
G01X10943159Y648244D01*
G01X10937317Y630972D01*
G01X10937317Y619542D01*
G01X10943159Y602524D01*
G01X10954589Y591094D01*
G01X10966019Y585252D01*
G01X10983037Y585252D01*
G01X10994467Y591094D01*
G01X11005897Y602524D01*
G01X11070921Y705394D02*
G01X11070921Y608112D01*
G01X11076509Y591094D01*
G01X11087939Y585252D01*
G01X11099369Y585252D01*
G01X11053649Y665262D02*
G01X11093781Y665262D01*
G01X11147121Y630972D02*
G01X11215701Y630972D01*
G01X11215701Y642402D01*
G01X11210113Y653832D01*
G01X11204271Y659674D01*
G01X11192841Y665262D01*
G01X11175823Y665262D01*
G01X11164393Y659674D01*
G01X11152963Y648244D01*
G01X11147121Y630972D01*
G01X11147121Y619542D01*
G01X11152963Y602524D01*
G01X11164393Y591094D01*
G01X11175823Y585252D01*
G01X11192841Y585252D01*
G01X11204271Y591094D01*
G01X11215701Y602524D01*
G01X11332033Y705394D02*
G01X11332033Y585252D01*
G01X11332033Y648244D02*
G01X11320603Y659674D01*
G01X11309173Y665262D01*
G01X11292155Y665262D01*
G01X11280725Y659674D01*
G01X11269295Y648244D01*
G01X11263453Y630972D01*
G01X11263453Y619542D01*
G01X11269295Y602524D01*
G01X11280725Y591094D01*
G01X11292155Y585252D01*
G01X11309173Y585252D01*
G01X11320603Y591094D01*
G01X11332033Y602524D01*
G01X12303220Y688122D02*
G01X12291790Y699552D01*
G01X12274772Y705394D01*
G01X12251912Y705394D01*
G01X12234640Y699552D01*
G01X12223210Y688122D01*
G01X12223210Y676692D01*
G01X12229052Y665262D01*
G01X12234640Y659674D01*
G01X12246070Y653832D01*
G01X12280360Y642402D01*
G01X12291790Y636814D01*
G01X12297632Y630972D01*
G01X12303220Y619542D01*
G01X12303220Y602524D01*
G01X12291790Y591094D01*
G01X12274772Y585252D01*
G01X12251912Y585252D01*
G01X12234640Y591094D01*
G01X12223210Y602524D01*
G01X12350972Y705394D02*
G01X12350972Y585252D01*
G01X12350972Y642402D02*
G01X12368244Y659674D01*
G01X12379674Y665262D01*
G01X12396692Y665262D01*
G01X12408122Y659674D01*
G01X12413964Y642402D01*
G01X12413964Y585252D01*
G01X12530296Y665262D02*
G01X12530296Y585252D01*
G01X12530296Y648244D02*
G01X12518866Y659674D01*
G01X12507436Y665262D01*
G01X12490418Y665262D01*
G01X12478988Y659674D01*
G01X12467558Y648244D01*
G01X12461716Y630972D01*
G01X12461716Y619542D01*
G01X12467558Y602524D01*
G01X12478988Y591094D01*
G01X12490418Y585252D01*
G01X12507436Y585252D01*
G01X12518866Y591094D01*
G01X12530296Y602524D01*
G01X12578048Y665262D02*
G01X12578048Y545374D01*
G01X12578048Y648244D02*
G01X12589478Y659674D01*
G01X12600908Y665262D01*
G01X12618180Y665262D01*
G01X12629610Y659674D01*
G01X12641040Y648244D01*
G01X12646628Y630972D01*
G01X12646628Y619542D01*
G01X12641040Y602524D01*
G01X12629610Y591094D01*
G01X12618180Y585252D01*
G01X12600908Y585252D01*
G01X12589478Y591094D01*
G01X12578048Y602524D01*
G01X12694380Y630972D02*
G01X12762960Y630972D01*
G01X12762960Y642402D01*
G01X12757372Y653832D01*
G01X12751530Y659674D01*
G01X12740100Y665262D01*
G01X12723082Y665262D01*
G01X12711652Y659674D01*
G01X12700222Y648244D01*
G01X12694380Y630972D01*
G01X12694380Y619542D01*
G01X12700222Y602524D01*
G01X12711652Y591094D01*
G01X12723082Y585252D01*
G01X12740100Y585252D01*
G01X12751530Y591094D01*
G01X12762960Y602524D01*
G01X13654391Y705394D02*
G01X13700111Y585252D01*
G01X13745831Y705394D02*
G01X13700111Y585252D01*
G01X13793583Y705394D02*
G01X13799425Y699552D01*
G01X13805013Y705394D01*
G01X13799425Y710982D01*
G01X13793583Y705394D01*
G01X13799425Y665262D02*
G01X13799425Y585252D01*
G01X13921345Y665262D02*
G01X13921345Y585252D01*
G01X13921345Y648244D02*
G01X13909915Y659674D01*
G01X13898485Y665262D01*
G01X13881467Y665262D01*
G01X13870037Y659674D01*
G01X13858607Y648244D01*
G01X13852765Y630972D01*
G01X13852765Y619542D01*
G01X13858607Y602524D01*
G01X13870037Y591094D01*
G01X13881467Y585252D01*
G01X13898485Y585252D01*
G01X13909915Y591094D01*
G01X13921345Y602524D01*
G01X14071967Y728254D02*
G01X13969097Y545374D01*
G01X14119719Y705394D02*
G01X14119719Y585252D01*
G01X14119719Y705394D02*
G01X14171281Y705394D01*
G01X14188299Y699552D01*
G01X14194141Y693964D01*
G01X14199729Y682534D01*
G01X14199729Y665262D01*
G01X14194141Y653832D01*
G01X14188299Y648244D01*
G01X14171281Y642402D01*
G01X14119719Y642402D01*
G01X14316061Y665262D02*
G01X14316061Y585252D01*
G01X14316061Y648244D02*
G01X14304631Y659674D01*
G01X14293201Y665262D01*
G01X14276183Y665262D01*
G01X14264753Y659674D01*
G01X14253323Y648244D01*
G01X14247481Y630972D01*
G01X14247481Y619542D01*
G01X14253323Y602524D01*
G01X14264753Y591094D01*
G01X14276183Y585252D01*
G01X14293201Y585252D01*
G01X14304631Y591094D01*
G01X14316061Y602524D01*
G01X14432393Y705394D02*
G01X14432393Y585252D01*
G01X14432393Y648244D02*
G01X14420963Y659674D01*
G01X14409533Y665262D01*
G01X14392515Y665262D01*
G01X14381085Y659674D01*
G01X14369655Y648244D01*
G01X14363813Y630972D01*
G01X14363813Y619542D01*
G01X14369655Y602524D01*
G01X14381085Y591094D01*
G01X14392515Y585252D01*
G01X14409533Y585252D01*
G01X14420963Y591094D01*
G01X14432393Y602524D01*
G01X15323570Y705394D02*
G01X15323570Y585252D01*
G01X15323570Y705394D02*
G01X15375132Y705394D01*
G01X15392150Y699552D01*
G01X15397992Y693964D01*
G01X15403580Y682534D01*
G01X15403580Y665262D01*
G01X15397992Y653832D01*
G01X15392150Y648244D01*
G01X15375132Y642402D01*
G01X15323570Y642402D01*
G01X15519912Y665262D02*
G01X15519912Y585252D01*
G01X15519912Y648244D02*
G01X15508482Y659674D01*
G01X15497052Y665262D01*
G01X15480034Y665262D01*
G01X15468604Y659674D01*
G01X15457174Y648244D01*
G01X15451332Y630972D01*
G01X15451332Y619542D01*
G01X15457174Y602524D01*
G01X15468604Y591094D01*
G01X15480034Y585252D01*
G01X15497052Y585252D01*
G01X15508482Y591094D01*
G01X15519912Y602524D01*
G01X15636244Y705394D02*
G01X15636244Y585252D01*
G01X15636244Y648244D02*
G01X15624814Y659674D01*
G01X15613384Y665262D01*
G01X15596366Y665262D01*
G01X15584936Y659674D01*
G01X15573506Y648244D01*
G01X15567664Y630972D01*
G01X15567664Y619542D01*
G01X15573506Y602524D01*
G01X15584936Y591094D01*
G01X15596366Y585252D01*
G01X15613384Y585252D01*
G01X15624814Y591094D01*
G01X15636244Y602524D01*
G01X15892022Y688122D02*
G01X15880592Y699552D01*
G01X15863574Y705394D01*
G01X15840714Y705394D01*
G01X15823442Y699552D01*
G01X15812012Y688122D01*
G01X15812012Y676692D01*
G01X15817854Y665262D01*
G01X15823442Y659674D01*
G01X15834872Y653832D01*
G01X15869162Y642402D01*
G01X15880592Y636814D01*
G01X15886434Y630972D01*
G01X15892022Y619542D01*
G01X15892022Y602524D01*
G01X15880592Y591094D01*
G01X15863574Y585252D01*
G01X15840714Y585252D01*
G01X15823442Y591094D01*
G01X15812012Y602524D01*
G01X15939774Y705394D02*
G01X15939774Y585252D01*
G01X15939774Y642402D02*
G01X15957046Y659674D01*
G01X15968476Y665262D01*
G01X15985494Y665262D01*
G01X15996924Y659674D01*
G01X16002766Y642402D01*
G01X16002766Y585252D01*
G01X16119098Y665262D02*
G01X16119098Y585252D01*
G01X16119098Y648244D02*
G01X16107668Y659674D01*
G01X16096238Y665262D01*
G01X16079220Y665262D01*
G01X16067790Y659674D01*
G01X16056360Y648244D01*
G01X16050518Y630972D01*
G01X16050518Y619542D01*
G01X16056360Y602524D01*
G01X16067790Y591094D01*
G01X16079220Y585252D01*
G01X16096238Y585252D01*
G01X16107668Y591094D01*
G01X16119098Y602524D01*
G01X16166850Y665262D02*
G01X16166850Y545374D01*
G01X16166850Y648244D02*
G01X16178280Y659674D01*
G01X16189710Y665262D01*
G01X16206982Y665262D01*
G01X16218412Y659674D01*
G01X16229842Y648244D01*
G01X16235430Y630972D01*
G01X16235430Y619542D01*
G01X16229842Y602524D01*
G01X16218412Y591094D01*
G01X16206982Y585252D01*
G01X16189710Y585252D01*
G01X16178280Y591094D01*
G01X16166850Y602524D01*
G01X16283182Y630972D02*
G01X16351762Y630972D01*
G01X16351762Y642402D01*
G01X16346174Y653832D01*
G01X16340332Y659674D01*
G01X16328902Y665262D01*
G01X16311884Y665262D01*
G01X16300454Y659674D01*
G01X16289024Y648244D01*
G01X16283182Y630972D01*
G01X16283182Y619542D01*
G01X16289024Y602524D01*
G01X16300454Y591094D01*
G01X16311884Y585252D01*
G01X16328902Y585252D01*
G01X16340332Y591094D01*
G01X16351762Y602524D01*
G01X17242939Y705394D02*
G01X17242939Y585252D01*
G01X17242939Y585252D02*
G01X17311519Y585252D01*
G01X17427851Y665262D02*
G01X17427851Y585252D01*
G01X17427851Y648244D02*
G01X17416421Y659674D01*
G01X17404991Y665262D01*
G01X17387973Y665262D01*
G01X17376543Y659674D01*
G01X17365113Y648244D01*
G01X17359271Y630972D01*
G01X17359271Y619542D01*
G01X17365113Y602524D01*
G01X17376543Y591094D01*
G01X17387973Y585252D01*
G01X17404991Y585252D01*
G01X17416421Y591094D01*
G01X17427851Y602524D01*
G01X17481445Y665262D02*
G01X17515735Y585252D01*
G01X17550025Y665262D02*
G01X17515735Y585252D01*
G01X17504305Y562392D01*
G01X17492875Y550962D01*
G01X17481445Y545374D01*
G01X17475603Y545374D01*
G01X17597777Y630972D02*
G01X17666357Y630972D01*
G01X17666357Y642402D01*
G01X17660769Y653832D01*
G01X17654927Y659674D01*
G01X17643497Y665262D01*
G01X17626479Y665262D01*
G01X17615049Y659674D01*
G01X17603619Y648244D01*
G01X17597777Y630972D01*
G01X17597777Y619542D01*
G01X17603619Y602524D01*
G01X17615049Y591094D01*
G01X17626479Y585252D01*
G01X17643497Y585252D01*
G01X17654927Y591094D01*
G01X17666357Y602524D01*
G01X17714109Y665262D02*
G01X17714109Y585252D01*
G01X17714109Y630972D02*
G01X17719951Y648244D01*
G01X17731381Y659674D01*
G01X17742811Y665262D01*
G01X17759829Y665262D01*
G01X17935597Y705394D02*
G01X17935597Y585252D01*
G01X17935597Y705394D02*
G01X17987159Y705394D01*
G01X18004177Y699552D01*
G01X18010019Y693964D01*
G01X18015607Y682534D01*
G01X18015607Y665262D01*
G01X18010019Y653832D01*
G01X18004177Y648244D01*
G01X17987159Y642402D01*
G01X17935597Y642402D01*
G01X18131939Y665262D02*
G01X18131939Y585252D01*
G01X18131939Y648244D02*
G01X18120509Y659674D01*
G01X18109079Y665262D01*
G01X18092061Y665262D01*
G01X18080631Y659674D01*
G01X18069201Y648244D01*
G01X18063359Y630972D01*
G01X18063359Y619542D01*
G01X18069201Y602524D01*
G01X18080631Y591094D01*
G01X18092061Y585252D01*
G01X18109079Y585252D01*
G01X18120509Y591094D01*
G01X18131939Y602524D01*
G01X18179691Y705394D02*
G01X18185533Y699552D01*
G01X18191121Y705394D01*
G01X18185533Y710982D01*
G01X18179691Y705394D01*
G01X18185533Y665262D02*
G01X18185533Y585252D01*
G01X18238873Y665262D02*
G01X18238873Y585252D01*
G01X18238873Y630972D02*
G01X18244715Y648244D01*
G01X18256145Y659674D01*
G01X18267575Y665262D01*
G01X18284593Y665262D01*
G01X5459516Y96121D02*
G01X5459516Y101963D01*
G01X5465104Y113393D01*
G01X5470946Y118981D01*
G01X5482376Y124823D01*
G01X5505236Y124823D01*
G01X5516666Y118981D01*
G01X5522254Y113393D01*
G01X5528096Y101963D01*
G01X5528096Y90533D01*
G01X5522254Y79103D01*
G01X5510824Y61831D01*
G01X5453674Y4681D01*
G01X5533684Y4681D01*
G01X6879267Y124823D02*
G01X6942259Y124823D01*
G01X6907969Y79103D01*
G01X6924987Y79103D01*
G01X6936417Y73261D01*
G01X6942259Y67673D01*
G01X6947847Y50401D01*
G01X6947847Y38971D01*
G01X6942259Y21953D01*
G01X6930829Y10523D01*
G01X6913557Y4681D01*
G01X6896539Y4681D01*
G01X6879267Y10523D01*
G01X6873679Y16111D01*
G01X6867837Y27541D01*
G01X7064179Y124823D02*
G01X7007029Y124823D01*
G01X7001441Y73261D01*
G01X7007029Y79103D01*
G01X7024301Y84691D01*
G01X7041319Y84691D01*
G01X7058591Y79103D01*
G01X7070021Y67673D01*
G01X7075609Y50401D01*
G01X7075609Y38971D01*
G01X7070021Y21953D01*
G01X7058591Y10523D01*
G01X7041319Y4681D01*
G01X7024301Y4681D01*
G01X7007029Y10523D01*
G01X7001441Y16111D01*
G01X6995599Y27541D01*
G01X7129203Y33383D02*
G01X7123361Y27541D01*
G01X7129203Y21953D01*
G01X7134791Y27541D01*
G01X7129203Y33383D01*
G01X7239693Y124823D02*
G01X7182543Y44813D01*
G01X7268395Y44813D01*
G01X7239693Y124823D02*
G01X7239693Y4681D01*
G01X7316147Y84691D02*
G01X7379139Y4681D01*
G01X7379139Y84691D02*
G01X7316147Y4681D01*
G01X7438321Y124823D02*
G01X7501313Y124823D01*
G01X7467023Y79103D01*
G01X7484041Y79103D01*
G01X7495471Y73261D01*
G01X7501313Y67673D01*
G01X7506901Y50401D01*
G01X7506901Y38971D01*
G01X7501313Y21953D01*
G01X7489883Y10523D01*
G01X7472611Y4681D01*
G01X7455593Y4681D01*
G01X7438321Y10523D01*
G01X7432733Y16111D01*
G01X7426891Y27541D01*
G01X7623233Y124823D02*
G01X7566083Y124823D01*
G01X7560495Y73261D01*
G01X7566083Y79103D01*
G01X7583355Y84691D01*
G01X7600373Y84691D01*
G01X7617645Y79103D01*
G01X7629075Y67673D01*
G01X7634663Y50401D01*
G01X7634663Y38971D01*
G01X7629075Y21953D01*
G01X7617645Y10523D01*
G01X7600373Y4681D01*
G01X7583355Y4681D01*
G01X7566083Y10523D01*
G01X7560495Y16111D01*
G01X7554653Y27541D01*
G01X7688257Y33383D02*
G01X7682415Y27541D01*
G01X7688257Y21953D01*
G01X7693845Y27541D01*
G01X7688257Y33383D01*
G01X7798747Y124823D02*
G01X7741597Y44813D01*
G01X7827449Y44813D01*
G01X7798747Y124823D02*
G01X7798747Y4681D01*
G01X7875201Y84691D02*
G01X7875201Y4681D01*
G01X7875201Y61831D02*
G01X7892473Y79103D01*
G01X7903903Y84691D01*
G01X7920921Y84691D01*
G01X7932351Y79103D01*
G01X7938193Y61831D01*
G01X7938193Y4681D01*
G01X7938193Y61831D02*
G01X7955211Y79103D01*
G01X7966641Y84691D01*
G01X7983913Y84691D01*
G01X7995343Y79103D01*
G01X8000931Y61831D01*
G01X8000931Y4681D01*
G01X8048683Y124823D02*
G01X8054525Y118981D01*
G01X8060113Y124823D01*
G01X8054525Y130411D01*
G01X8048683Y124823D01*
G01X8054525Y84691D02*
G01X8054525Y4681D01*
G01X8107865Y124823D02*
G01X8107865Y4681D01*
G01X8195749Y147683D02*
G01X8184319Y136253D01*
G01X8172889Y118981D01*
G01X8161459Y96121D01*
G01X8155617Y67673D01*
G01X8155617Y44813D01*
G01X8161459Y16111D01*
G01X8172889Y-6749D01*
G01X8184319Y-23767D01*
G01X8195749Y-35197D01*
G01X8277791Y124823D02*
G01X8260773Y118981D01*
G01X8249343Y101963D01*
G01X8243501Y73261D01*
G01X8243501Y56243D01*
G01X8249343Y27541D01*
G01X8260773Y10523D01*
G01X8277791Y4681D01*
G01X8289221Y4681D01*
G01X8306493Y10523D01*
G01X8317923Y27541D01*
G01X8323511Y56243D01*
G01X8323511Y73261D01*
G01X8317923Y101963D01*
G01X8306493Y118981D01*
G01X8289221Y124823D01*
G01X8277791Y124823D01*
G01X8377105Y33383D02*
G01X8371263Y27541D01*
G01X8377105Y21953D01*
G01X8382693Y27541D01*
G01X8377105Y33383D01*
G01X8504867Y84691D02*
G01X8499025Y67673D01*
G01X8487595Y56243D01*
G01X8470577Y50401D01*
G01X8464735Y50401D01*
G01X8447717Y56243D01*
G01X8436287Y67673D01*
G01X8430445Y84691D01*
G01X8430445Y90533D01*
G01X8436287Y107551D01*
G01X8447717Y118981D01*
G01X8464735Y124823D01*
G01X8470577Y124823D01*
G01X8487595Y118981D01*
G01X8499025Y107551D01*
G01X8504867Y84691D01*
G01X8504867Y56243D01*
G01X8499025Y27541D01*
G01X8487595Y10523D01*
G01X8470577Y4681D01*
G01X8459147Y4681D01*
G01X8441875Y10523D01*
G01X8436287Y21953D01*
G01X8586909Y124823D02*
G01X8569891Y118981D01*
G01X8558461Y101963D01*
G01X8552619Y73261D01*
G01X8552619Y56243D01*
G01X8558461Y27541D01*
G01X8569891Y10523D01*
G01X8586909Y4681D01*
G01X8598339Y4681D01*
G01X8615611Y10523D01*
G01X8627041Y27541D01*
G01X8632629Y56243D01*
G01X8632629Y73261D01*
G01X8627041Y101963D01*
G01X8615611Y118981D01*
G01X8598339Y124823D01*
G01X8586909Y124823D01*
G01X8714671Y124823D02*
G01X8697653Y118981D01*
G01X8686223Y101963D01*
G01X8680381Y73261D01*
G01X8680381Y56243D01*
G01X8686223Y27541D01*
G01X8697653Y10523D01*
G01X8714671Y4681D01*
G01X8726101Y4681D01*
G01X8743373Y10523D01*
G01X8754803Y27541D01*
G01X8760391Y56243D01*
G01X8760391Y73261D01*
G01X8754803Y101963D01*
G01X8743373Y118981D01*
G01X8726101Y124823D01*
G01X8714671Y124823D01*
G01X8808143Y84691D02*
G01X8871135Y4681D01*
G01X8871135Y84691D02*
G01X8808143Y4681D01*
G01X8953177Y124823D02*
G01X8936159Y118981D01*
G01X8924729Y101963D01*
G01X8918887Y73261D01*
G01X8918887Y56243D01*
G01X8924729Y27541D01*
G01X8936159Y10523D01*
G01X8953177Y4681D01*
G01X8964607Y4681D01*
G01X8981879Y10523D01*
G01X8993309Y27541D01*
G01X8998897Y56243D01*
G01X8998897Y73261D01*
G01X8993309Y101963D01*
G01X8981879Y118981D01*
G01X8964607Y124823D01*
G01X8953177Y124823D01*
G01X9052491Y33383D02*
G01X9046649Y27541D01*
G01X9052491Y21953D01*
G01X9058079Y27541D01*
G01X9052491Y33383D01*
G01X9180253Y84691D02*
G01X9174411Y67673D01*
G01X9162981Y56243D01*
G01X9145963Y50401D01*
G01X9140121Y50401D01*
G01X9123103Y56243D01*
G01X9111673Y67673D01*
G01X9105831Y84691D01*
G01X9105831Y90533D01*
G01X9111673Y107551D01*
G01X9123103Y118981D01*
G01X9140121Y124823D01*
G01X9145963Y124823D01*
G01X9162981Y118981D01*
G01X9174411Y107551D01*
G01X9180253Y84691D01*
G01X9180253Y56243D01*
G01X9174411Y27541D01*
G01X9162981Y10523D01*
G01X9145963Y4681D01*
G01X9134533Y4681D01*
G01X9117261Y10523D01*
G01X9111673Y21953D01*
G01X9262295Y124823D02*
G01X9245277Y118981D01*
G01X9233847Y101963D01*
G01X9228005Y73261D01*
G01X9228005Y56243D01*
G01X9233847Y27541D01*
G01X9245277Y10523D01*
G01X9262295Y4681D01*
G01X9273725Y4681D01*
G01X9290997Y10523D01*
G01X9302427Y27541D01*
G01X9308015Y56243D01*
G01X9308015Y73261D01*
G01X9302427Y101963D01*
G01X9290997Y118981D01*
G01X9273725Y124823D01*
G01X9262295Y124823D01*
G01X9390057Y124823D02*
G01X9373039Y118981D01*
G01X9361609Y101963D01*
G01X9355767Y73261D01*
G01X9355767Y56243D01*
G01X9361609Y27541D01*
G01X9373039Y10523D01*
G01X9390057Y4681D01*
G01X9401487Y4681D01*
G01X9418759Y10523D01*
G01X9430189Y27541D01*
G01X9435777Y56243D01*
G01X9435777Y73261D01*
G01X9430189Y101963D01*
G01X9418759Y118981D01*
G01X9401487Y124823D01*
G01X9390057Y124823D01*
G01X9483529Y84691D02*
G01X9483529Y4681D01*
G01X9483529Y61831D02*
G01X9500801Y79103D01*
G01X9512231Y84691D01*
G01X9529249Y84691D01*
G01X9540679Y79103D01*
G01X9546521Y61831D01*
G01X9546521Y4681D01*
G01X9546521Y61831D02*
G01X9563539Y79103D01*
G01X9574969Y84691D01*
G01X9592241Y84691D01*
G01X9603671Y79103D01*
G01X9609259Y61831D01*
G01X9609259Y4681D01*
G01X9657011Y84691D02*
G01X9657011Y4681D01*
G01X9657011Y61831D02*
G01X9674283Y79103D01*
G01X9685713Y84691D01*
G01X9702731Y84691D01*
G01X9714161Y79103D01*
G01X9720003Y61831D01*
G01X9720003Y4681D01*
G01X9720003Y61831D02*
G01X9737021Y79103D01*
G01X9748451Y84691D01*
G01X9765723Y84691D01*
G01X9777153Y79103D01*
G01X9782741Y61831D01*
G01X9782741Y4681D01*
G01X9830493Y147683D02*
G01X9841923Y136253D01*
G01X9853353Y118981D01*
G01X9864783Y96121D01*
G01X9870625Y67673D01*
G01X9870625Y44813D01*
G01X9864783Y16111D01*
G01X9853353Y-6749D01*
G01X9841923Y-23767D01*
G01X9830493Y-35197D01*
G01X10761803Y124823D02*
G01X10761803Y4681D01*
G01X10761803Y124823D02*
G01X10813365Y124823D01*
G01X10830383Y118981D01*
G01X10836225Y113393D01*
G01X10841813Y101963D01*
G01X10841813Y84691D01*
G01X10836225Y73261D01*
G01X10830383Y67673D01*
G01X10813365Y61831D01*
G01X10761803Y61831D01*
G01X10929697Y124823D02*
G01X10929697Y4681D01*
G01X10889565Y124823D02*
G01X10969575Y124823D01*
G01X11017327Y124823D02*
G01X11017327Y4681D01*
G01X11097337Y124823D02*
G01X11097337Y4681D01*
G01X11017327Y67673D02*
G01X11097337Y67673D01*
G01X12223210Y124823D02*
G01X12223210Y4681D01*
G01X12223210Y124823D02*
G01X12274772Y124823D01*
G01X12291790Y118981D01*
G01X12297632Y113393D01*
G01X12303220Y101963D01*
G01X12303220Y90533D01*
G01X12297632Y79103D01*
G01X12291790Y73261D01*
G01X12274772Y67673D01*
G01X12223210Y67673D01*
G01X12263342Y67673D02*
G01X12303220Y4681D01*
G01X12379674Y84691D02*
G01X12368244Y79103D01*
G01X12356814Y67673D01*
G01X12350972Y50401D01*
G01X12350972Y38971D01*
G01X12356814Y21953D01*
G01X12368244Y10523D01*
G01X12379674Y4681D01*
G01X12396692Y4681D01*
G01X12408122Y10523D01*
G01X12419552Y21953D01*
G01X12425394Y38971D01*
G01X12425394Y50401D01*
G01X12419552Y67673D01*
G01X12408122Y79103D01*
G01X12396692Y84691D01*
G01X12379674Y84691D01*
G01X12473146Y84691D02*
G01X12473146Y27541D01*
G01X12478988Y10523D01*
G01X12490418Y4681D01*
G01X12507436Y4681D01*
G01X12518866Y10523D01*
G01X12536138Y27541D01*
G01X12536138Y84691D02*
G01X12536138Y4681D01*
G01X12583890Y84691D02*
G01X12583890Y4681D01*
G01X12583890Y61831D02*
G01X12601162Y79103D01*
G01X12612592Y84691D01*
G01X12629610Y84691D01*
G01X12641040Y79103D01*
G01X12646882Y61831D01*
G01X12646882Y4681D01*
G01X12763214Y124823D02*
G01X12763214Y4681D01*
G01X12763214Y67673D02*
G01X12751784Y79103D01*
G01X12740354Y84691D01*
G01X12723336Y84691D01*
G01X12711906Y79103D01*
G01X12700476Y67673D01*
G01X12694634Y50401D01*
G01X12694634Y38971D01*
G01X12700476Y21953D01*
G01X12711906Y10523D01*
G01X12723336Y4681D01*
G01X12740354Y4681D01*
G01X12751784Y10523D01*
G01X12763214Y21953D01*
G01X13654391Y124823D02*
G01X13654391Y4681D01*
G01X13654391Y124823D02*
G01X13705953Y124823D01*
G01X13722971Y118981D01*
G01X13728813Y113393D01*
G01X13734401Y101963D01*
G01X13734401Y84691D01*
G01X13728813Y73261D01*
G01X13722971Y67673D01*
G01X13705953Y61831D01*
G01X13654391Y61831D01*
G01X13850733Y84691D02*
G01X13850733Y4681D01*
G01X13850733Y67673D02*
G01X13839303Y79103D01*
G01X13827873Y84691D01*
G01X13810855Y84691D01*
G01X13799425Y79103D01*
G01X13787995Y67673D01*
G01X13782153Y50401D01*
G01X13782153Y38971D01*
G01X13787995Y21953D01*
G01X13799425Y10523D01*
G01X13810855Y4681D01*
G01X13827873Y4681D01*
G01X13839303Y10523D01*
G01X13850733Y21953D01*
G01X13967065Y124823D02*
G01X13967065Y4681D01*
G01X13967065Y67673D02*
G01X13955635Y79103D01*
G01X13944205Y84691D01*
G01X13927187Y84691D01*
G01X13915757Y79103D01*
G01X13904327Y67673D01*
G01X13898485Y50401D01*
G01X13898485Y38971D01*
G01X13904327Y21953D01*
G01X13915757Y10523D01*
G01X13927187Y4681D01*
G01X13944205Y4681D01*
G01X13955635Y10523D01*
G01X13967065Y21953D01*
G01X15323570Y124823D02*
G01X15323570Y4681D01*
G01X15323570Y124823D02*
G01X15375132Y124823D01*
G01X15392150Y118981D01*
G01X15397992Y113393D01*
G01X15403580Y101963D01*
G01X15403580Y90533D01*
G01X15397992Y79103D01*
G01X15392150Y73261D01*
G01X15375132Y67673D01*
G01X15323570Y67673D01*
G01X15363702Y67673D02*
G01X15403580Y4681D01*
G01X15480034Y84691D02*
G01X15468604Y79103D01*
G01X15457174Y67673D01*
G01X15451332Y50401D01*
G01X15451332Y38971D01*
G01X15457174Y21953D01*
G01X15468604Y10523D01*
G01X15480034Y4681D01*
G01X15497052Y4681D01*
G01X15508482Y10523D01*
G01X15519912Y21953D01*
G01X15525754Y38971D01*
G01X15525754Y50401D01*
G01X15519912Y67673D01*
G01X15508482Y79103D01*
G01X15497052Y84691D01*
G01X15480034Y84691D01*
G01X15573506Y84691D02*
G01X15573506Y27541D01*
G01X15579348Y10523D01*
G01X15590778Y4681D01*
G01X15607796Y4681D01*
G01X15619226Y10523D01*
G01X15636498Y27541D01*
G01X15636498Y84691D02*
G01X15636498Y4681D01*
G01X15684250Y84691D02*
G01X15684250Y4681D01*
G01X15684250Y61831D02*
G01X15701522Y79103D01*
G01X15712952Y84691D01*
G01X15729970Y84691D01*
G01X15741400Y79103D01*
G01X15747242Y61831D01*
G01X15747242Y4681D01*
G01X15863574Y124823D02*
G01X15863574Y4681D01*
G01X15863574Y67673D02*
G01X15852144Y79103D01*
G01X15840714Y84691D01*
G01X15823696Y84691D01*
G01X15812266Y79103D01*
G01X15800836Y67673D01*
G01X15794994Y50401D01*
G01X15794994Y38971D01*
G01X15800836Y21953D01*
G01X15812266Y10523D01*
G01X15823696Y4681D01*
G01X15840714Y4681D01*
G01X15852144Y10523D01*
G01X15863574Y21953D01*
G01X17283071Y124823D02*
G01X17283071Y4681D01*
G01X17242939Y124823D02*
G01X17322949Y124823D01*
G01X17399403Y84691D02*
G01X17387973Y79103D01*
G01X17376543Y67673D01*
G01X17370701Y50401D01*
G01X17370701Y38971D01*
G01X17376543Y21953D01*
G01X17387973Y10523D01*
G01X17399403Y4681D01*
G01X17416421Y4681D01*
G01X17427851Y10523D01*
G01X17439281Y21953D01*
G01X17445123Y38971D01*
G01X17445123Y50401D01*
G01X17439281Y67673D01*
G01X17427851Y79103D01*
G01X17416421Y84691D01*
G01X17399403Y84691D01*
G01X17492875Y84691D02*
G01X17492875Y-35197D01*
G01X17492875Y67673D02*
G01X17504305Y79103D01*
G01X17515735Y84691D01*
G01X17533007Y84691D01*
G01X17544437Y79103D01*
G01X17555867Y67673D01*
G01X17561455Y50401D01*
G01X17561455Y38971D01*
G01X17555867Y21953D01*
G01X17544437Y10523D01*
G01X17533007Y4681D01*
G01X17515735Y4681D01*
G01X17504305Y10523D01*
G01X17492875Y21953D01*
G01X17737223Y124823D02*
G01X17737223Y4681D01*
G01X17737223Y4681D02*
G01X17805803Y4681D01*
G01X17922135Y84691D02*
G01X17922135Y4681D01*
G01X17922135Y67673D02*
G01X17910705Y79103D01*
G01X17899275Y84691D01*
G01X17882257Y84691D01*
G01X17870827Y79103D01*
G01X17859397Y67673D01*
G01X17853555Y50401D01*
G01X17853555Y38971D01*
G01X17859397Y21953D01*
G01X17870827Y10523D01*
G01X17882257Y4681D01*
G01X17899275Y4681D01*
G01X17910705Y10523D01*
G01X17922135Y21953D01*
G01X17975729Y84691D02*
G01X18010019Y4681D01*
G01X18044309Y84691D02*
G01X18010019Y4681D01*
G01X17998589Y-18179D01*
G01X17987159Y-29609D01*
G01X17975729Y-35197D01*
G01X17969887Y-35197D01*
G01X18092061Y50401D02*
G01X18160641Y50401D01*
G01X18160641Y61831D01*
G01X18155053Y73261D01*
G01X18149211Y79103D01*
G01X18137781Y84691D01*
G01X18120763Y84691D01*
G01X18109333Y79103D01*
G01X18097903Y67673D01*
G01X18092061Y50401D01*
G01X18092061Y38971D01*
G01X18097903Y21953D01*
G01X18109333Y10523D01*
G01X18120763Y4681D01*
G01X18137781Y4681D01*
G01X18149211Y10523D01*
G01X18160641Y21953D01*
G01X18208393Y84691D02*
G01X18208393Y4681D01*
G01X18208393Y50401D02*
G01X18214235Y67673D01*
G01X18225665Y79103D01*
G01X18237095Y84691D01*
G01X18254113Y84691D01*
G01X18301865Y56243D02*
G01X18404735Y56243D01*
G01X18452487Y124823D02*
G01X18452487Y4681D01*
G01X18452487Y124823D02*
G01X18504049Y124823D01*
G01X18521067Y118981D01*
G01X18526909Y113393D01*
G01X18532497Y101963D01*
G01X18532497Y90533D01*
G01X18526909Y79103D01*
G01X18521067Y73261D01*
G01X18504049Y67673D01*
G01X18452487Y67673D02*
G01X18504049Y67673D01*
G01X18521067Y61831D01*
G01X18526909Y56243D01*
G01X18532497Y44813D01*
G01X18532497Y27541D01*
G01X18526909Y16111D01*
G01X18521067Y10523D01*
G01X18504049Y4681D01*
G01X18452487Y4681D01*
G01X18608951Y84691D02*
G01X18597521Y79103D01*
G01X18586091Y67673D01*
G01X18580249Y50401D01*
G01X18580249Y38971D01*
G01X18586091Y21953D01*
G01X18597521Y10523D01*
G01X18608951Y4681D01*
G01X18625969Y4681D01*
G01X18637399Y10523D01*
G01X18648829Y21953D01*
G01X18654671Y38971D01*
G01X18654671Y50401D01*
G01X18648829Y67673D01*
G01X18637399Y79103D01*
G01X18625969Y84691D01*
G01X18608951Y84691D01*
G01X18719695Y124823D02*
G01X18719695Y27541D01*
G01X18725283Y10523D01*
G01X18736713Y4681D01*
G01X18748143Y4681D01*
G01X18702423Y84691D02*
G01X18742555Y84691D01*
G01X18813167Y124823D02*
G01X18813167Y27541D01*
G01X18818755Y10523D01*
G01X18830185Y4681D01*
G01X18841615Y4681D01*
G01X18795895Y84691D02*
G01X18836027Y84691D01*
G01X18918069Y84691D02*
G01X18906639Y79103D01*
G01X18895209Y67673D01*
G01X18889367Y50401D01*
G01X18889367Y38971D01*
G01X18895209Y21953D01*
G01X18906639Y10523D01*
G01X18918069Y4681D01*
G01X18935087Y4681D01*
G01X18946517Y10523D01*
G01X18957947Y21953D01*
G01X18963789Y38971D01*
G01X18963789Y50401D01*
G01X18957947Y67673D01*
G01X18946517Y79103D01*
G01X18935087Y84691D01*
G01X18918069Y84691D01*
G01X19011541Y84691D02*
G01X19011541Y4681D01*
G01X19011541Y61831D02*
G01X19028813Y79103D01*
G01X19040243Y84691D01*
G01X19057261Y84691D01*
G01X19068691Y79103D01*
G01X19074533Y61831D01*
G01X19074533Y4681D01*
G01X19074533Y61831D02*
G01X19091551Y79103D01*
G01X19102981Y84691D01*
G01X19120253Y84691D01*
G01X19131683Y79103D01*
G01X19137271Y61831D01*
G01X19137271Y4681D01*
G01X19313039Y124823D02*
G01X19313039Y4681D01*
G01X19313039Y4681D02*
G01X19381619Y4681D01*
G01X19497951Y84691D02*
G01X19497951Y4681D01*
G01X19497951Y67673D02*
G01X19486521Y79103D01*
G01X19475091Y84691D01*
G01X19458073Y84691D01*
G01X19446643Y79103D01*
G01X19435213Y67673D01*
G01X19429371Y50401D01*
G01X19429371Y38971D01*
G01X19435213Y21953D01*
G01X19446643Y10523D01*
G01X19458073Y4681D01*
G01X19475091Y4681D01*
G01X19486521Y10523D01*
G01X19497951Y21953D01*
G01X19551545Y84691D02*
G01X19585835Y4681D01*
G01X19620125Y84691D02*
G01X19585835Y4681D01*
G01X19574405Y-18179D01*
G01X19562975Y-29609D01*
G01X19551545Y-35197D01*
G01X19545703Y-35197D01*
G01X19667877Y50401D02*
G01X19736457Y50401D01*
G01X19736457Y61831D01*
G01X19730869Y73261D01*
G01X19725027Y79103D01*
G01X19713597Y84691D01*
G01X19696579Y84691D01*
G01X19685149Y79103D01*
G01X19673719Y67673D01*
G01X19667877Y50401D01*
G01X19667877Y38971D01*
G01X19673719Y21953D01*
G01X19685149Y10523D01*
G01X19696579Y4681D01*
G01X19713597Y4681D01*
G01X19725027Y10523D01*
G01X19736457Y21953D01*
G01X19784209Y84691D02*
G01X19784209Y4681D01*
G01X19784209Y50401D02*
G01X19790051Y67673D01*
G01X19801481Y79103D01*
G01X19812911Y84691D01*
G01X19829929Y84691D01*
G01X5459516Y-484451D02*
G01X5459516Y-478609D01*
G01X5465104Y-467179D01*
G01X5470946Y-461591D01*
G01X5482376Y-455749D01*
G01X5505236Y-455749D01*
G01X5516666Y-461591D01*
G01X5522254Y-467179D01*
G01X5528096Y-478609D01*
G01X5528096Y-490039D01*
G01X5522254Y-501469D01*
G01X5510824Y-518741D01*
G01X5453674Y-575891D01*
G01X5533684Y-575891D01*
G01X6873679Y-484451D02*
G01X6873679Y-478609D01*
G01X6879267Y-467179D01*
G01X6885109Y-461591D01*
G01X6896539Y-455749D01*
G01X6919399Y-455749D01*
G01X6930829Y-461591D01*
G01X6936417Y-467179D01*
G01X6942259Y-478609D01*
G01X6942259Y-490039D01*
G01X6936417Y-501469D01*
G01X6924987Y-518741D01*
G01X6867837Y-575891D01*
G01X6947847Y-575891D01*
G01X7007029Y-455749D02*
G01X7070021Y-455749D01*
G01X7035731Y-501469D01*
G01X7052749Y-501469D01*
G01X7064179Y-507311D01*
G01X7070021Y-512899D01*
G01X7075609Y-530171D01*
G01X7075609Y-541601D01*
G01X7070021Y-558619D01*
G01X7058591Y-570049D01*
G01X7041319Y-575891D01*
G01X7024301Y-575891D01*
G01X7007029Y-570049D01*
G01X7001441Y-564461D01*
G01X6995599Y-553031D01*
G01X7129203Y-547189D02*
G01X7123361Y-553031D01*
G01X7129203Y-558619D01*
G01X7134791Y-553031D01*
G01X7129203Y-547189D01*
G01X7251123Y-473021D02*
G01X7245535Y-461591D01*
G01X7228263Y-455749D01*
G01X7216833Y-455749D01*
G01X7199815Y-461591D01*
G01X7188385Y-478609D01*
G01X7182543Y-507311D01*
G01X7182543Y-535759D01*
G01X7188385Y-558619D01*
G01X7199815Y-570049D01*
G01X7216833Y-575891D01*
G01X7222675Y-575891D01*
G01X7239693Y-570049D01*
G01X7251123Y-558619D01*
G01X7256965Y-541601D01*
G01X7256965Y-535759D01*
G01X7251123Y-518741D01*
G01X7239693Y-507311D01*
G01X7222675Y-501469D01*
G01X7216833Y-501469D01*
G01X7199815Y-507311D01*
G01X7188385Y-518741D01*
G01X7182543Y-535759D01*
G01X7304717Y-495881D02*
G01X7367709Y-575891D01*
G01X7367709Y-495881D02*
G01X7304717Y-575891D01*
G01X7484041Y-455749D02*
G01X7426891Y-455749D01*
G01X7421303Y-507311D01*
G01X7426891Y-501469D01*
G01X7444163Y-495881D01*
G01X7461181Y-495881D01*
G01X7478453Y-501469D01*
G01X7489883Y-512899D01*
G01X7495471Y-530171D01*
G01X7495471Y-541601D01*
G01X7489883Y-558619D01*
G01X7478453Y-570049D01*
G01X7461181Y-575891D01*
G01X7444163Y-575891D01*
G01X7426891Y-570049D01*
G01X7421303Y-564461D01*
G01X7415461Y-553031D01*
G01X7617645Y-495881D02*
G01X7611803Y-512899D01*
G01X7600373Y-524329D01*
G01X7583355Y-530171D01*
G01X7577513Y-530171D01*
G01X7560495Y-524329D01*
G01X7549065Y-512899D01*
G01X7543223Y-495881D01*
G01X7543223Y-490039D01*
G01X7549065Y-473021D01*
G01X7560495Y-461591D01*
G01X7577513Y-455749D01*
G01X7583355Y-455749D01*
G01X7600373Y-461591D01*
G01X7611803Y-473021D01*
G01X7617645Y-495881D01*
G01X7617645Y-524329D01*
G01X7611803Y-553031D01*
G01X7600373Y-570049D01*
G01X7583355Y-575891D01*
G01X7571925Y-575891D01*
G01X7554653Y-570049D01*
G01X7549065Y-558619D01*
G01X7671239Y-547189D02*
G01X7665397Y-553031D01*
G01X7671239Y-558619D01*
G01X7676827Y-553031D01*
G01X7671239Y-547189D01*
G01X7724579Y-478609D02*
G01X7736009Y-473021D01*
G01X7753281Y-455749D01*
G01X7753281Y-575891D01*
G01X7801033Y-495881D02*
G01X7801033Y-575891D01*
G01X7801033Y-518741D02*
G01X7818305Y-501469D01*
G01X7829735Y-495881D01*
G01X7846753Y-495881D01*
G01X7858183Y-501469D01*
G01X7864025Y-518741D01*
G01X7864025Y-575891D01*
G01X7864025Y-518741D02*
G01X7881043Y-501469D01*
G01X7892473Y-495881D01*
G01X7909745Y-495881D01*
G01X7921175Y-501469D01*
G01X7926763Y-518741D01*
G01X7926763Y-575891D01*
G01X7974515Y-455749D02*
G01X7980357Y-461591D01*
G01X7985945Y-455749D01*
G01X7980357Y-450161D01*
G01X7974515Y-455749D01*
G01X7980357Y-495881D02*
G01X7980357Y-575891D01*
G01X8033697Y-455749D02*
G01X8033697Y-575891D01*
G01X8121581Y-432889D02*
G01X8110151Y-444319D01*
G01X8098721Y-461591D01*
G01X8087291Y-484451D01*
G01X8081449Y-512899D01*
G01X8081449Y-535759D01*
G01X8087291Y-564461D01*
G01X8098721Y-587321D01*
G01X8110151Y-604339D01*
G01X8121581Y-615769D01*
G01X8203623Y-455749D02*
G01X8186605Y-461591D01*
G01X8175175Y-478609D01*
G01X8169333Y-507311D01*
G01X8169333Y-524329D01*
G01X8175175Y-553031D01*
G01X8186605Y-570049D01*
G01X8203623Y-575891D01*
G01X8215053Y-575891D01*
G01X8232325Y-570049D01*
G01X8243755Y-553031D01*
G01X8249343Y-524329D01*
G01X8249343Y-507311D01*
G01X8243755Y-478609D01*
G01X8232325Y-461591D01*
G01X8215053Y-455749D01*
G01X8203623Y-455749D01*
G01X8302937Y-547189D02*
G01X8297095Y-553031D01*
G01X8302937Y-558619D01*
G01X8308525Y-553031D01*
G01X8302937Y-547189D01*
G01X8424857Y-473021D02*
G01X8419269Y-461591D01*
G01X8401997Y-455749D01*
G01X8390567Y-455749D01*
G01X8373549Y-461591D01*
G01X8362119Y-478609D01*
G01X8356277Y-507311D01*
G01X8356277Y-535759D01*
G01X8362119Y-558619D01*
G01X8373549Y-570049D01*
G01X8390567Y-575891D01*
G01X8396409Y-575891D01*
G01X8413427Y-570049D01*
G01X8424857Y-558619D01*
G01X8430699Y-541601D01*
G01X8430699Y-535759D01*
G01X8424857Y-518741D01*
G01X8413427Y-507311D01*
G01X8396409Y-501469D01*
G01X8390567Y-501469D01*
G01X8373549Y-507311D01*
G01X8362119Y-518741D01*
G01X8356277Y-535759D01*
G01X8512741Y-455749D02*
G01X8495723Y-461591D01*
G01X8484293Y-478609D01*
G01X8478451Y-507311D01*
G01X8478451Y-524329D01*
G01X8484293Y-553031D01*
G01X8495723Y-570049D01*
G01X8512741Y-575891D01*
G01X8524171Y-575891D01*
G01X8541443Y-570049D01*
G01X8552873Y-553031D01*
G01X8558461Y-524329D01*
G01X8558461Y-507311D01*
G01X8552873Y-478609D01*
G01X8541443Y-461591D01*
G01X8524171Y-455749D01*
G01X8512741Y-455749D01*
G01X8640503Y-455749D02*
G01X8623485Y-461591D01*
G01X8612055Y-478609D01*
G01X8606213Y-507311D01*
G01X8606213Y-524329D01*
G01X8612055Y-553031D01*
G01X8623485Y-570049D01*
G01X8640503Y-575891D01*
G01X8651933Y-575891D01*
G01X8669205Y-570049D01*
G01X8680635Y-553031D01*
G01X8686223Y-524329D01*
G01X8686223Y-507311D01*
G01X8680635Y-478609D01*
G01X8669205Y-461591D01*
G01X8651933Y-455749D01*
G01X8640503Y-455749D01*
G01X8733975Y-495881D02*
G01X8796967Y-575891D01*
G01X8796967Y-495881D02*
G01X8733975Y-575891D01*
G01X8844719Y-478609D02*
G01X8856149Y-473021D01*
G01X8873421Y-455749D01*
G01X8873421Y-575891D01*
G01X8927015Y-547189D02*
G01X8921173Y-553031D01*
G01X8927015Y-558619D01*
G01X8932603Y-553031D01*
G01X8927015Y-547189D01*
G01X9048935Y-455749D02*
G01X8991785Y-455749D01*
G01X8986197Y-507311D01*
G01X8991785Y-501469D01*
G01X9009057Y-495881D01*
G01X9026075Y-495881D01*
G01X9043347Y-501469D01*
G01X9054777Y-512899D01*
G01X9060365Y-530171D01*
G01X9060365Y-541601D01*
G01X9054777Y-558619D01*
G01X9043347Y-570049D01*
G01X9026075Y-575891D01*
G01X9009057Y-575891D01*
G01X8991785Y-570049D01*
G01X8986197Y-564461D01*
G01X8980355Y-553031D01*
G01X9142407Y-455749D02*
G01X9125389Y-461591D01*
G01X9113959Y-478609D01*
G01X9108117Y-507311D01*
G01X9108117Y-524329D01*
G01X9113959Y-553031D01*
G01X9125389Y-570049D01*
G01X9142407Y-575891D01*
G01X9153837Y-575891D01*
G01X9171109Y-570049D01*
G01X9182539Y-553031D01*
G01X9188127Y-524329D01*
G01X9188127Y-507311D01*
G01X9182539Y-478609D01*
G01X9171109Y-461591D01*
G01X9153837Y-455749D01*
G01X9142407Y-455749D01*
G01X9270169Y-455749D02*
G01X9253151Y-461591D01*
G01X9241721Y-478609D01*
G01X9235879Y-507311D01*
G01X9235879Y-524329D01*
G01X9241721Y-553031D01*
G01X9253151Y-570049D01*
G01X9270169Y-575891D01*
G01X9281599Y-575891D01*
G01X9298871Y-570049D01*
G01X9310301Y-553031D01*
G01X9315889Y-524329D01*
G01X9315889Y-507311D01*
G01X9310301Y-478609D01*
G01X9298871Y-461591D01*
G01X9281599Y-455749D01*
G01X9270169Y-455749D01*
G01X9363641Y-495881D02*
G01X9363641Y-575891D01*
G01X9363641Y-518741D02*
G01X9380913Y-501469D01*
G01X9392343Y-495881D01*
G01X9409361Y-495881D01*
G01X9420791Y-501469D01*
G01X9426633Y-518741D01*
G01X9426633Y-575891D01*
G01X9426633Y-518741D02*
G01X9443651Y-501469D01*
G01X9455081Y-495881D01*
G01X9472353Y-495881D01*
G01X9483783Y-501469D01*
G01X9489371Y-518741D01*
G01X9489371Y-575891D01*
G01X9537123Y-495881D02*
G01X9537123Y-575891D01*
G01X9537123Y-518741D02*
G01X9554395Y-501469D01*
G01X9565825Y-495881D01*
G01X9582843Y-495881D01*
G01X9594273Y-501469D01*
G01X9600115Y-518741D01*
G01X9600115Y-575891D01*
G01X9600115Y-518741D02*
G01X9617133Y-501469D01*
G01X9628563Y-495881D01*
G01X9645835Y-495881D01*
G01X9657265Y-501469D01*
G01X9662853Y-518741D01*
G01X9662853Y-575891D01*
G01X9710605Y-432889D02*
G01X9722035Y-444319D01*
G01X9733465Y-461591D01*
G01X9744895Y-484451D01*
G01X9750737Y-512899D01*
G01X9750737Y-535759D01*
G01X9744895Y-564461D01*
G01X9733465Y-587321D01*
G01X9722035Y-604339D01*
G01X9710605Y-615769D01*
G01X10761803Y-455749D02*
G01X10761803Y-575891D01*
G01X10761803Y-455749D02*
G01X10813365Y-455749D01*
G01X10830383Y-461591D01*
G01X10836225Y-467179D01*
G01X10841813Y-478609D01*
G01X10841813Y-495881D01*
G01X10836225Y-507311D01*
G01X10830383Y-512899D01*
G01X10813365Y-518741D01*
G01X10761803Y-518741D01*
G01X10929697Y-455749D02*
G01X10929697Y-575891D01*
G01X10889565Y-455749D02*
G01X10969575Y-455749D01*
G01X11017327Y-455749D02*
G01X11017327Y-575891D01*
G01X11097337Y-455749D02*
G01X11097337Y-575891D01*
G01X11017327Y-512899D02*
G01X11097337Y-512899D01*
G01X12303220Y-473021D02*
G01X12291790Y-461591D01*
G01X12274772Y-455749D01*
G01X12251912Y-455749D01*
G01X12234640Y-461591D01*
G01X12223210Y-473021D01*
G01X12223210Y-484451D01*
G01X12229052Y-495881D01*
G01X12234640Y-501469D01*
G01X12246070Y-507311D01*
G01X12280360Y-518741D01*
G01X12291790Y-524329D01*
G01X12297632Y-530171D01*
G01X12303220Y-541601D01*
G01X12303220Y-558619D01*
G01X12291790Y-570049D01*
G01X12274772Y-575891D01*
G01X12251912Y-575891D01*
G01X12234640Y-570049D01*
G01X12223210Y-558619D01*
G01X12350972Y-455749D02*
G01X12350972Y-575891D01*
G01X12427426Y-495881D02*
G01X12415996Y-501469D01*
G01X12404566Y-512899D01*
G01X12398724Y-530171D01*
G01X12398724Y-541601D01*
G01X12404566Y-558619D01*
G01X12415996Y-570049D01*
G01X12427426Y-575891D01*
G01X12444444Y-575891D01*
G01X12455874Y-570049D01*
G01X12467304Y-558619D01*
G01X12473146Y-541601D01*
G01X12473146Y-530171D01*
G01X12467304Y-512899D01*
G01X12455874Y-501469D01*
G01X12444444Y-495881D01*
G01X12427426Y-495881D01*
G01X12538170Y-455749D02*
G01X12538170Y-553031D01*
G01X12543758Y-570049D01*
G01X12555188Y-575891D01*
G01X12566618Y-575891D01*
G01X12520898Y-495881D02*
G01X12561030Y-495881D01*
G01X13654391Y-455749D02*
G01X13654391Y-575891D01*
G01X13654391Y-455749D02*
G01X13705953Y-455749D01*
G01X13722971Y-461591D01*
G01X13728813Y-467179D01*
G01X13734401Y-478609D01*
G01X13734401Y-495881D01*
G01X13728813Y-507311D01*
G01X13722971Y-512899D01*
G01X13705953Y-518741D01*
G01X13654391Y-518741D01*
G01X13850733Y-495881D02*
G01X13850733Y-575891D01*
G01X13850733Y-512899D02*
G01X13839303Y-501469D01*
G01X13827873Y-495881D01*
G01X13810855Y-495881D01*
G01X13799425Y-501469D01*
G01X13787995Y-512899D01*
G01X13782153Y-530171D01*
G01X13782153Y-541601D01*
G01X13787995Y-558619D01*
G01X13799425Y-570049D01*
G01X13810855Y-575891D01*
G01X13827873Y-575891D01*
G01X13839303Y-570049D01*
G01X13850733Y-558619D01*
G01X13967065Y-455749D02*
G01X13967065Y-575891D01*
G01X13967065Y-512899D02*
G01X13955635Y-501469D01*
G01X13944205Y-495881D01*
G01X13927187Y-495881D01*
G01X13915757Y-501469D01*
G01X13904327Y-512899D01*
G01X13898485Y-530171D01*
G01X13898485Y-541601D01*
G01X13904327Y-558619D01*
G01X13915757Y-570049D01*
G01X13927187Y-575891D01*
G01X13944205Y-575891D01*
G01X13955635Y-570049D01*
G01X13967065Y-558619D01*
G01X15357860Y-455749D02*
G01X15346430Y-461591D01*
G01X15335000Y-473021D01*
G01X15329412Y-484451D01*
G01X15323570Y-501469D01*
G01X15323570Y-530171D01*
G01X15329412Y-547189D01*
G01X15335000Y-558619D01*
G01X15346430Y-570049D01*
G01X15357860Y-575891D01*
G01X15380720Y-575891D01*
G01X15392150Y-570049D01*
G01X15403580Y-558619D01*
G01X15409422Y-547189D01*
G01X15415010Y-530171D01*
G01X15415010Y-501469D01*
G01X15409422Y-484451D01*
G01X15403580Y-473021D01*
G01X15392150Y-461591D01*
G01X15380720Y-455749D01*
G01X15357860Y-455749D01*
G01X15462762Y-495881D02*
G01X15497052Y-575891D01*
G01X15531342Y-495881D02*
G01X15497052Y-575891D01*
G01X15647674Y-495881D02*
G01X15647674Y-575891D01*
G01X15647674Y-512899D02*
G01X15636244Y-501469D01*
G01X15624814Y-495881D01*
G01X15607796Y-495881D01*
G01X15596366Y-501469D01*
G01X15584936Y-512899D01*
G01X15579094Y-530171D01*
G01X15579094Y-541601D01*
G01X15584936Y-558619D01*
G01X15596366Y-570049D01*
G01X15607796Y-575891D01*
G01X15624814Y-575891D01*
G01X15636244Y-570049D01*
G01X15647674Y-558619D01*
G01X15695426Y-455749D02*
G01X15695426Y-575891D01*
G01X17283071Y-455749D02*
G01X17283071Y-575891D01*
G01X17242939Y-455749D02*
G01X17322949Y-455749D01*
G01X17399403Y-495881D02*
G01X17387973Y-501469D01*
G01X17376543Y-512899D01*
G01X17370701Y-530171D01*
G01X17370701Y-541601D01*
G01X17376543Y-558619D01*
G01X17387973Y-570049D01*
G01X17399403Y-575891D01*
G01X17416421Y-575891D01*
G01X17427851Y-570049D01*
G01X17439281Y-558619D01*
G01X17445123Y-541601D01*
G01X17445123Y-530171D01*
G01X17439281Y-512899D01*
G01X17427851Y-501469D01*
G01X17416421Y-495881D01*
G01X17399403Y-495881D01*
G01X17492875Y-495881D02*
G01X17492875Y-615769D01*
G01X17492875Y-512899D02*
G01X17504305Y-501469D01*
G01X17515735Y-495881D01*
G01X17533007Y-495881D01*
G01X17544437Y-501469D01*
G01X17555867Y-512899D01*
G01X17561455Y-530171D01*
G01X17561455Y-541601D01*
G01X17555867Y-558619D01*
G01X17544437Y-570049D01*
G01X17533007Y-575891D01*
G01X17515735Y-575891D01*
G01X17504305Y-570049D01*
G01X17492875Y-558619D01*
G01X17737223Y-455749D02*
G01X17737223Y-575891D01*
G01X17737223Y-575891D02*
G01X17805803Y-575891D01*
G01X17922135Y-495881D02*
G01X17922135Y-575891D01*
G01X17922135Y-512899D02*
G01X17910705Y-501469D01*
G01X17899275Y-495881D01*
G01X17882257Y-495881D01*
G01X17870827Y-501469D01*
G01X17859397Y-512899D01*
G01X17853555Y-530171D01*
G01X17853555Y-541601D01*
G01X17859397Y-558619D01*
G01X17870827Y-570049D01*
G01X17882257Y-575891D01*
G01X17899275Y-575891D01*
G01X17910705Y-570049D01*
G01X17922135Y-558619D01*
G01X17975729Y-495881D02*
G01X18010019Y-575891D01*
G01X18044309Y-495881D02*
G01X18010019Y-575891D01*
G01X17998589Y-598751D01*
G01X17987159Y-610181D01*
G01X17975729Y-615769D01*
G01X17969887Y-615769D01*
G01X18092061Y-530171D02*
G01X18160641Y-530171D01*
G01X18160641Y-518741D01*
G01X18155053Y-507311D01*
G01X18149211Y-501469D01*
G01X18137781Y-495881D01*
G01X18120763Y-495881D01*
G01X18109333Y-501469D01*
G01X18097903Y-512899D01*
G01X18092061Y-530171D01*
G01X18092061Y-541601D01*
G01X18097903Y-558619D01*
G01X18109333Y-570049D01*
G01X18120763Y-575891D01*
G01X18137781Y-575891D01*
G01X18149211Y-570049D01*
G01X18160641Y-558619D01*
G01X18208393Y-495881D02*
G01X18208393Y-575891D01*
G01X18208393Y-530171D02*
G01X18214235Y-512899D01*
G01X18225665Y-501469D01*
G01X18237095Y-495881D01*
G01X18254113Y-495881D01*
G01X18301865Y-524329D02*
G01X18404735Y-524329D01*
G01X18452487Y-455749D02*
G01X18452487Y-575891D01*
G01X18452487Y-455749D02*
G01X18504049Y-455749D01*
G01X18521067Y-461591D01*
G01X18526909Y-467179D01*
G01X18532497Y-478609D01*
G01X18532497Y-490039D01*
G01X18526909Y-501469D01*
G01X18521067Y-507311D01*
G01X18504049Y-512899D01*
G01X18452487Y-512899D02*
G01X18504049Y-512899D01*
G01X18521067Y-518741D01*
G01X18526909Y-524329D01*
G01X18532497Y-535759D01*
G01X18532497Y-553031D01*
G01X18526909Y-564461D01*
G01X18521067Y-570049D01*
G01X18504049Y-575891D01*
G01X18452487Y-575891D01*
G01X18608951Y-495881D02*
G01X18597521Y-501469D01*
G01X18586091Y-512899D01*
G01X18580249Y-530171D01*
G01X18580249Y-541601D01*
G01X18586091Y-558619D01*
G01X18597521Y-570049D01*
G01X18608951Y-575891D01*
G01X18625969Y-575891D01*
G01X18637399Y-570049D01*
G01X18648829Y-558619D01*
G01X18654671Y-541601D01*
G01X18654671Y-530171D01*
G01X18648829Y-512899D01*
G01X18637399Y-501469D01*
G01X18625969Y-495881D01*
G01X18608951Y-495881D01*
G01X18719695Y-455749D02*
G01X18719695Y-553031D01*
G01X18725283Y-570049D01*
G01X18736713Y-575891D01*
G01X18748143Y-575891D01*
G01X18702423Y-495881D02*
G01X18742555Y-495881D01*
G01X18813167Y-455749D02*
G01X18813167Y-553031D01*
G01X18818755Y-570049D01*
G01X18830185Y-575891D01*
G01X18841615Y-575891D01*
G01X18795895Y-495881D02*
G01X18836027Y-495881D01*
G01X18918069Y-495881D02*
G01X18906639Y-501469D01*
G01X18895209Y-512899D01*
G01X18889367Y-530171D01*
G01X18889367Y-541601D01*
G01X18895209Y-558619D01*
G01X18906639Y-570049D01*
G01X18918069Y-575891D01*
G01X18935087Y-575891D01*
G01X18946517Y-570049D01*
G01X18957947Y-558619D01*
G01X18963789Y-541601D01*
G01X18963789Y-530171D01*
G01X18957947Y-512899D01*
G01X18946517Y-501469D01*
G01X18935087Y-495881D01*
G01X18918069Y-495881D01*
G01X19011541Y-495881D02*
G01X19011541Y-575891D01*
G01X19011541Y-518741D02*
G01X19028813Y-501469D01*
G01X19040243Y-495881D01*
G01X19057261Y-495881D01*
G01X19068691Y-501469D01*
G01X19074533Y-518741D01*
G01X19074533Y-575891D01*
G01X19074533Y-518741D02*
G01X19091551Y-501469D01*
G01X19102981Y-495881D01*
G01X19120253Y-495881D01*
G01X19131683Y-501469D01*
G01X19137271Y-518741D01*
G01X19137271Y-575891D01*
G01X19313039Y-455749D02*
G01X19313039Y-575891D01*
G01X19313039Y-575891D02*
G01X19381619Y-575891D01*
G01X19497951Y-495881D02*
G01X19497951Y-575891D01*
G01X19497951Y-512899D02*
G01X19486521Y-501469D01*
G01X19475091Y-495881D01*
G01X19458073Y-495881D01*
G01X19446643Y-501469D01*
G01X19435213Y-512899D01*
G01X19429371Y-530171D01*
G01X19429371Y-541601D01*
G01X19435213Y-558619D01*
G01X19446643Y-570049D01*
G01X19458073Y-575891D01*
G01X19475091Y-575891D01*
G01X19486521Y-570049D01*
G01X19497951Y-558619D01*
G01X19551545Y-495881D02*
G01X19585835Y-575891D01*
G01X19620125Y-495881D02*
G01X19585835Y-575891D01*
G01X19574405Y-598751D01*
G01X19562975Y-610181D01*
G01X19551545Y-615769D01*
G01X19545703Y-615769D01*
G01X19667877Y-530171D02*
G01X19736457Y-530171D01*
G01X19736457Y-518741D01*
G01X19730869Y-507311D01*
G01X19725027Y-501469D01*
G01X19713597Y-495881D01*
G01X19696579Y-495881D01*
G01X19685149Y-501469D01*
G01X19673719Y-512899D01*
G01X19667877Y-530171D01*
G01X19667877Y-541601D01*
G01X19673719Y-558619D01*
G01X19685149Y-570049D01*
G01X19696579Y-575891D01*
G01X19713597Y-575891D01*
G01X19725027Y-570049D01*
G01X19736457Y-558619D01*
G01X19784209Y-495881D02*
G01X19784209Y-575891D01*
G01X19784209Y-530171D02*
G01X19790051Y-512899D01*
G01X19801481Y-501469D01*
G01X19812911Y-495881D01*
G01X19829929Y-495881D01*
G01X5459516Y-1065022D02*
G01X5459516Y-1059180D01*
G01X5465104Y-1047750D01*
G01X5470946Y-1042162D01*
G01X5482376Y-1036320D01*
G01X5505236Y-1036320D01*
G01X5516666Y-1042162D01*
G01X5522254Y-1047750D01*
G01X5528096Y-1059180D01*
G01X5528096Y-1070610D01*
G01X5522254Y-1082040D01*
G01X5510824Y-1099312D01*
G01X5453674Y-1156462D01*
G01X5533684Y-1156462D01*
G01X6873679Y-1065022D02*
G01X6873679Y-1059180D01*
G01X6879267Y-1047750D01*
G01X6885109Y-1042162D01*
G01X6896539Y-1036320D01*
G01X6919399Y-1036320D01*
G01X6930829Y-1042162D01*
G01X6936417Y-1047750D01*
G01X6942259Y-1059180D01*
G01X6942259Y-1070610D01*
G01X6936417Y-1082040D01*
G01X6924987Y-1099312D01*
G01X6867837Y-1156462D01*
G01X6947847Y-1156462D01*
G01X7007029Y-1036320D02*
G01X7070021Y-1036320D01*
G01X7035731Y-1082040D01*
G01X7052749Y-1082040D01*
G01X7064179Y-1087882D01*
G01X7070021Y-1093470D01*
G01X7075609Y-1110742D01*
G01X7075609Y-1122172D01*
G01X7070021Y-1139190D01*
G01X7058591Y-1150620D01*
G01X7041319Y-1156462D01*
G01X7024301Y-1156462D01*
G01X7007029Y-1150620D01*
G01X7001441Y-1145032D01*
G01X6995599Y-1133602D01*
G01X7129203Y-1127760D02*
G01X7123361Y-1133602D01*
G01X7129203Y-1139190D01*
G01X7134791Y-1133602D01*
G01X7129203Y-1127760D01*
G01X7251123Y-1053592D02*
G01X7245535Y-1042162D01*
G01X7228263Y-1036320D01*
G01X7216833Y-1036320D01*
G01X7199815Y-1042162D01*
G01X7188385Y-1059180D01*
G01X7182543Y-1087882D01*
G01X7182543Y-1116330D01*
G01X7188385Y-1139190D01*
G01X7199815Y-1150620D01*
G01X7216833Y-1156462D01*
G01X7222675Y-1156462D01*
G01X7239693Y-1150620D01*
G01X7251123Y-1139190D01*
G01X7256965Y-1122172D01*
G01X7256965Y-1116330D01*
G01X7251123Y-1099312D01*
G01X7239693Y-1087882D01*
G01X7222675Y-1082040D01*
G01X7216833Y-1082040D01*
G01X7199815Y-1087882D01*
G01X7188385Y-1099312D01*
G01X7182543Y-1116330D01*
G01X7304717Y-1076452D02*
G01X7367709Y-1156462D01*
G01X7367709Y-1076452D02*
G01X7304717Y-1156462D01*
G01X7472611Y-1036320D02*
G01X7415461Y-1116330D01*
G01X7501313Y-1116330D01*
G01X7472611Y-1036320D02*
G01X7472611Y-1156462D01*
G01X7629075Y-1036320D02*
G01X7571925Y-1156462D01*
G01X7549065Y-1036320D02*
G01X7629075Y-1036320D01*
G01X7682669Y-1127760D02*
G01X7676827Y-1133602D01*
G01X7682669Y-1139190D01*
G01X7688257Y-1133602D01*
G01X7682669Y-1127760D01*
G01X7741851Y-1065022D02*
G01X7741851Y-1059180D01*
G01X7747439Y-1047750D01*
G01X7753281Y-1042162D01*
G01X7764711Y-1036320D01*
G01X7787571Y-1036320D01*
G01X7799001Y-1042162D01*
G01X7804589Y-1047750D01*
G01X7810431Y-1059180D01*
G01X7810431Y-1070610D01*
G01X7804589Y-1082040D01*
G01X7793159Y-1099312D01*
G01X7736009Y-1156462D01*
G01X7816019Y-1156462D01*
G01X7863771Y-1076452D02*
G01X7863771Y-1156462D01*
G01X7863771Y-1099312D02*
G01X7881043Y-1082040D01*
G01X7892473Y-1076452D01*
G01X7909491Y-1076452D01*
G01X7920921Y-1082040D01*
G01X7926763Y-1099312D01*
G01X7926763Y-1156462D01*
G01X7926763Y-1099312D02*
G01X7943781Y-1082040D01*
G01X7955211Y-1076452D01*
G01X7972483Y-1076452D01*
G01X7983913Y-1082040D01*
G01X7989501Y-1099312D01*
G01X7989501Y-1156462D01*
G01X8037253Y-1036320D02*
G01X8043095Y-1042162D01*
G01X8048683Y-1036320D01*
G01X8043095Y-1030732D01*
G01X8037253Y-1036320D01*
G01X8043095Y-1076452D02*
G01X8043095Y-1156462D01*
G01X8096435Y-1036320D02*
G01X8096435Y-1156462D01*
G01X8184319Y-1013460D02*
G01X8172889Y-1024890D01*
G01X8161459Y-1042162D01*
G01X8150029Y-1065022D01*
G01X8144187Y-1093470D01*
G01X8144187Y-1116330D01*
G01X8150029Y-1145032D01*
G01X8161459Y-1167892D01*
G01X8172889Y-1184910D01*
G01X8184319Y-1196340D01*
G01X8266361Y-1036320D02*
G01X8249343Y-1042162D01*
G01X8237913Y-1059180D01*
G01X8232071Y-1087882D01*
G01X8232071Y-1104900D01*
G01X8237913Y-1133602D01*
G01X8249343Y-1150620D01*
G01X8266361Y-1156462D01*
G01X8277791Y-1156462D01*
G01X8295063Y-1150620D01*
G01X8306493Y-1133602D01*
G01X8312081Y-1104900D01*
G01X8312081Y-1087882D01*
G01X8306493Y-1059180D01*
G01X8295063Y-1042162D01*
G01X8277791Y-1036320D01*
G01X8266361Y-1036320D01*
G01X8365675Y-1127760D02*
G01X8359833Y-1133602D01*
G01X8365675Y-1139190D01*
G01X8371263Y-1133602D01*
G01X8365675Y-1127760D01*
G01X8487595Y-1053592D02*
G01X8482007Y-1042162D01*
G01X8464735Y-1036320D01*
G01X8453305Y-1036320D01*
G01X8436287Y-1042162D01*
G01X8424857Y-1059180D01*
G01X8419015Y-1087882D01*
G01X8419015Y-1116330D01*
G01X8424857Y-1139190D01*
G01X8436287Y-1150620D01*
G01X8453305Y-1156462D01*
G01X8459147Y-1156462D01*
G01X8476165Y-1150620D01*
G01X8487595Y-1139190D01*
G01X8493437Y-1122172D01*
G01X8493437Y-1116330D01*
G01X8487595Y-1099312D01*
G01X8476165Y-1087882D01*
G01X8459147Y-1082040D01*
G01X8453305Y-1082040D01*
G01X8436287Y-1087882D01*
G01X8424857Y-1099312D01*
G01X8419015Y-1116330D01*
G01X8575479Y-1036320D02*
G01X8558461Y-1042162D01*
G01X8547031Y-1059180D01*
G01X8541189Y-1087882D01*
G01X8541189Y-1104900D01*
G01X8547031Y-1133602D01*
G01X8558461Y-1150620D01*
G01X8575479Y-1156462D01*
G01X8586909Y-1156462D01*
G01X8604181Y-1150620D01*
G01X8615611Y-1133602D01*
G01X8621199Y-1104900D01*
G01X8621199Y-1087882D01*
G01X8615611Y-1059180D01*
G01X8604181Y-1042162D01*
G01X8586909Y-1036320D01*
G01X8575479Y-1036320D01*
G01X8703241Y-1036320D02*
G01X8686223Y-1042162D01*
G01X8674793Y-1059180D01*
G01X8668951Y-1087882D01*
G01X8668951Y-1104900D01*
G01X8674793Y-1133602D01*
G01X8686223Y-1150620D01*
G01X8703241Y-1156462D01*
G01X8714671Y-1156462D01*
G01X8731943Y-1150620D01*
G01X8743373Y-1133602D01*
G01X8748961Y-1104900D01*
G01X8748961Y-1087882D01*
G01X8743373Y-1059180D01*
G01X8731943Y-1042162D01*
G01X8714671Y-1036320D01*
G01X8703241Y-1036320D01*
G01X8796713Y-1076452D02*
G01X8859705Y-1156462D01*
G01X8859705Y-1076452D02*
G01X8796713Y-1156462D01*
G01X8907457Y-1059180D02*
G01X8918887Y-1053592D01*
G01X8936159Y-1036320D01*
G01X8936159Y-1156462D01*
G01X8989753Y-1127760D02*
G01X8983911Y-1133602D01*
G01X8989753Y-1139190D01*
G01X8995341Y-1133602D01*
G01X8989753Y-1127760D01*
G01X9048935Y-1065022D02*
G01X9048935Y-1059180D01*
G01X9054523Y-1047750D01*
G01X9060365Y-1042162D01*
G01X9071795Y-1036320D01*
G01X9094655Y-1036320D01*
G01X9106085Y-1042162D01*
G01X9111673Y-1047750D01*
G01X9117515Y-1059180D01*
G01X9117515Y-1070610D01*
G01X9111673Y-1082040D01*
G01X9100243Y-1099312D01*
G01X9043093Y-1156462D01*
G01X9123103Y-1156462D01*
G01X9205145Y-1036320D02*
G01X9188127Y-1042162D01*
G01X9176697Y-1059180D01*
G01X9170855Y-1087882D01*
G01X9170855Y-1104900D01*
G01X9176697Y-1133602D01*
G01X9188127Y-1150620D01*
G01X9205145Y-1156462D01*
G01X9216575Y-1156462D01*
G01X9233847Y-1150620D01*
G01X9245277Y-1133602D01*
G01X9250865Y-1104900D01*
G01X9250865Y-1087882D01*
G01X9245277Y-1059180D01*
G01X9233847Y-1042162D01*
G01X9216575Y-1036320D01*
G01X9205145Y-1036320D01*
G01X9332907Y-1036320D02*
G01X9315889Y-1042162D01*
G01X9304459Y-1059180D01*
G01X9298617Y-1087882D01*
G01X9298617Y-1104900D01*
G01X9304459Y-1133602D01*
G01X9315889Y-1150620D01*
G01X9332907Y-1156462D01*
G01X9344337Y-1156462D01*
G01X9361609Y-1150620D01*
G01X9373039Y-1133602D01*
G01X9378627Y-1104900D01*
G01X9378627Y-1087882D01*
G01X9373039Y-1059180D01*
G01X9361609Y-1042162D01*
G01X9344337Y-1036320D01*
G01X9332907Y-1036320D01*
G01X9426379Y-1076452D02*
G01X9426379Y-1156462D01*
G01X9426379Y-1099312D02*
G01X9443651Y-1082040D01*
G01X9455081Y-1076452D01*
G01X9472099Y-1076452D01*
G01X9483529Y-1082040D01*
G01X9489371Y-1099312D01*
G01X9489371Y-1156462D01*
G01X9489371Y-1099312D02*
G01X9506389Y-1082040D01*
G01X9517819Y-1076452D01*
G01X9535091Y-1076452D01*
G01X9546521Y-1082040D01*
G01X9552109Y-1099312D01*
G01X9552109Y-1156462D01*
G01X9599861Y-1076452D02*
G01X9599861Y-1156462D01*
G01X9599861Y-1099312D02*
G01X9617133Y-1082040D01*
G01X9628563Y-1076452D01*
G01X9645581Y-1076452D01*
G01X9657011Y-1082040D01*
G01X9662853Y-1099312D01*
G01X9662853Y-1156462D01*
G01X9662853Y-1099312D02*
G01X9679871Y-1082040D01*
G01X9691301Y-1076452D01*
G01X9708573Y-1076452D01*
G01X9720003Y-1082040D01*
G01X9725591Y-1099312D01*
G01X9725591Y-1156462D01*
G01X9773343Y-1013460D02*
G01X9784773Y-1024890D01*
G01X9796203Y-1042162D01*
G01X9807633Y-1065022D01*
G01X9813475Y-1093470D01*
G01X9813475Y-1116330D01*
G01X9807633Y-1145032D01*
G01X9796203Y-1167892D01*
G01X9784773Y-1184910D01*
G01X9773343Y-1196340D01*
G01X10761803Y-1036320D02*
G01X10761803Y-1156462D01*
G01X10761803Y-1036320D02*
G01X10813365Y-1036320D01*
G01X10830383Y-1042162D01*
G01X10836225Y-1047750D01*
G01X10841813Y-1059180D01*
G01X10841813Y-1076452D01*
G01X10836225Y-1087882D01*
G01X10830383Y-1093470D01*
G01X10813365Y-1099312D01*
G01X10761803Y-1099312D01*
G01X10929697Y-1036320D02*
G01X10929697Y-1156462D01*
G01X10889565Y-1036320D02*
G01X10969575Y-1036320D01*
G01X11017327Y-1036320D02*
G01X11017327Y-1156462D01*
G01X11097337Y-1036320D02*
G01X11097337Y-1156462D01*
G01X11017327Y-1093470D02*
G01X11097337Y-1093470D01*
G01X12303220Y-1053592D02*
G01X12291790Y-1042162D01*
G01X12274772Y-1036320D01*
G01X12251912Y-1036320D01*
G01X12234640Y-1042162D01*
G01X12223210Y-1053592D01*
G01X12223210Y-1065022D01*
G01X12229052Y-1076452D01*
G01X12234640Y-1082040D01*
G01X12246070Y-1087882D01*
G01X12280360Y-1099312D01*
G01X12291790Y-1104900D01*
G01X12297632Y-1110742D01*
G01X12303220Y-1122172D01*
G01X12303220Y-1139190D01*
G01X12291790Y-1150620D01*
G01X12274772Y-1156462D01*
G01X12251912Y-1156462D01*
G01X12234640Y-1150620D01*
G01X12223210Y-1139190D01*
G01X12350972Y-1036320D02*
G01X12350972Y-1156462D01*
G01X12427426Y-1076452D02*
G01X12415996Y-1082040D01*
G01X12404566Y-1093470D01*
G01X12398724Y-1110742D01*
G01X12398724Y-1122172D01*
G01X12404566Y-1139190D01*
G01X12415996Y-1150620D01*
G01X12427426Y-1156462D01*
G01X12444444Y-1156462D01*
G01X12455874Y-1150620D01*
G01X12467304Y-1139190D01*
G01X12473146Y-1122172D01*
G01X12473146Y-1110742D01*
G01X12467304Y-1093470D01*
G01X12455874Y-1082040D01*
G01X12444444Y-1076452D01*
G01X12427426Y-1076452D01*
G01X12538170Y-1036320D02*
G01X12538170Y-1133602D01*
G01X12543758Y-1150620D01*
G01X12555188Y-1156462D01*
G01X12566618Y-1156462D01*
G01X12520898Y-1076452D02*
G01X12561030Y-1076452D01*
G01X13654391Y-1036320D02*
G01X13654391Y-1156462D01*
G01X13654391Y-1036320D02*
G01X13705953Y-1036320D01*
G01X13722971Y-1042162D01*
G01X13728813Y-1047750D01*
G01X13734401Y-1059180D01*
G01X13734401Y-1076452D01*
G01X13728813Y-1087882D01*
G01X13722971Y-1093470D01*
G01X13705953Y-1099312D01*
G01X13654391Y-1099312D01*
G01X13850733Y-1076452D02*
G01X13850733Y-1156462D01*
G01X13850733Y-1093470D02*
G01X13839303Y-1082040D01*
G01X13827873Y-1076452D01*
G01X13810855Y-1076452D01*
G01X13799425Y-1082040D01*
G01X13787995Y-1093470D01*
G01X13782153Y-1110742D01*
G01X13782153Y-1122172D01*
G01X13787995Y-1139190D01*
G01X13799425Y-1150620D01*
G01X13810855Y-1156462D01*
G01X13827873Y-1156462D01*
G01X13839303Y-1150620D01*
G01X13850733Y-1139190D01*
G01X13967065Y-1036320D02*
G01X13967065Y-1156462D01*
G01X13967065Y-1093470D02*
G01X13955635Y-1082040D01*
G01X13944205Y-1076452D01*
G01X13927187Y-1076452D01*
G01X13915757Y-1082040D01*
G01X13904327Y-1093470D01*
G01X13898485Y-1110742D01*
G01X13898485Y-1122172D01*
G01X13904327Y-1139190D01*
G01X13915757Y-1150620D01*
G01X13927187Y-1156462D01*
G01X13944205Y-1156462D01*
G01X13955635Y-1150620D01*
G01X13967065Y-1139190D01*
G01X15357860Y-1036320D02*
G01X15346430Y-1042162D01*
G01X15335000Y-1053592D01*
G01X15329412Y-1065022D01*
G01X15323570Y-1082040D01*
G01X15323570Y-1110742D01*
G01X15329412Y-1127760D01*
G01X15335000Y-1139190D01*
G01X15346430Y-1150620D01*
G01X15357860Y-1156462D01*
G01X15380720Y-1156462D01*
G01X15392150Y-1150620D01*
G01X15403580Y-1139190D01*
G01X15409422Y-1127760D01*
G01X15415010Y-1110742D01*
G01X15415010Y-1082040D01*
G01X15409422Y-1065022D01*
G01X15403580Y-1053592D01*
G01X15392150Y-1042162D01*
G01X15380720Y-1036320D01*
G01X15357860Y-1036320D01*
G01X15462762Y-1076452D02*
G01X15497052Y-1156462D01*
G01X15531342Y-1076452D02*
G01X15497052Y-1156462D01*
G01X15647674Y-1076452D02*
G01X15647674Y-1156462D01*
G01X15647674Y-1093470D02*
G01X15636244Y-1082040D01*
G01X15624814Y-1076452D01*
G01X15607796Y-1076452D01*
G01X15596366Y-1082040D01*
G01X15584936Y-1093470D01*
G01X15579094Y-1110742D01*
G01X15579094Y-1122172D01*
G01X15584936Y-1139190D01*
G01X15596366Y-1150620D01*
G01X15607796Y-1156462D01*
G01X15624814Y-1156462D01*
G01X15636244Y-1150620D01*
G01X15647674Y-1139190D01*
G01X15695426Y-1036320D02*
G01X15695426Y-1156462D01*
G01X17283071Y-1036320D02*
G01X17283071Y-1156462D01*
G01X17242939Y-1036320D02*
G01X17322949Y-1036320D01*
G01X17399403Y-1076452D02*
G01X17387973Y-1082040D01*
G01X17376543Y-1093470D01*
G01X17370701Y-1110742D01*
G01X17370701Y-1122172D01*
G01X17376543Y-1139190D01*
G01X17387973Y-1150620D01*
G01X17399403Y-1156462D01*
G01X17416421Y-1156462D01*
G01X17427851Y-1150620D01*
G01X17439281Y-1139190D01*
G01X17445123Y-1122172D01*
G01X17445123Y-1110742D01*
G01X17439281Y-1093470D01*
G01X17427851Y-1082040D01*
G01X17416421Y-1076452D01*
G01X17399403Y-1076452D01*
G01X17492875Y-1076452D02*
G01X17492875Y-1196340D01*
G01X17492875Y-1093470D02*
G01X17504305Y-1082040D01*
G01X17515735Y-1076452D01*
G01X17533007Y-1076452D01*
G01X17544437Y-1082040D01*
G01X17555867Y-1093470D01*
G01X17561455Y-1110742D01*
G01X17561455Y-1122172D01*
G01X17555867Y-1139190D01*
G01X17544437Y-1150620D01*
G01X17533007Y-1156462D01*
G01X17515735Y-1156462D01*
G01X17504305Y-1150620D01*
G01X17492875Y-1139190D01*
G01X17737223Y-1036320D02*
G01X17737223Y-1156462D01*
G01X17737223Y-1156462D02*
G01X17805803Y-1156462D01*
G01X17922135Y-1076452D02*
G01X17922135Y-1156462D01*
G01X17922135Y-1093470D02*
G01X17910705Y-1082040D01*
G01X17899275Y-1076452D01*
G01X17882257Y-1076452D01*
G01X17870827Y-1082040D01*
G01X17859397Y-1093470D01*
G01X17853555Y-1110742D01*
G01X17853555Y-1122172D01*
G01X17859397Y-1139190D01*
G01X17870827Y-1150620D01*
G01X17882257Y-1156462D01*
G01X17899275Y-1156462D01*
G01X17910705Y-1150620D01*
G01X17922135Y-1139190D01*
G01X17975729Y-1076452D02*
G01X18010019Y-1156462D01*
G01X18044309Y-1076452D02*
G01X18010019Y-1156462D01*
G01X17998589Y-1179322D01*
G01X17987159Y-1190752D01*
G01X17975729Y-1196340D01*
G01X17969887Y-1196340D01*
G01X18092061Y-1110742D02*
G01X18160641Y-1110742D01*
G01X18160641Y-1099312D01*
G01X18155053Y-1087882D01*
G01X18149211Y-1082040D01*
G01X18137781Y-1076452D01*
G01X18120763Y-1076452D01*
G01X18109333Y-1082040D01*
G01X18097903Y-1093470D01*
G01X18092061Y-1110742D01*
G01X18092061Y-1122172D01*
G01X18097903Y-1139190D01*
G01X18109333Y-1150620D01*
G01X18120763Y-1156462D01*
G01X18137781Y-1156462D01*
G01X18149211Y-1150620D01*
G01X18160641Y-1139190D01*
G01X18208393Y-1076452D02*
G01X18208393Y-1156462D01*
G01X18208393Y-1110742D02*
G01X18214235Y-1093470D01*
G01X18225665Y-1082040D01*
G01X18237095Y-1076452D01*
G01X18254113Y-1076452D01*
G01X18301865Y-1104900D02*
G01X18404735Y-1104900D01*
G01X18452487Y-1036320D02*
G01X18452487Y-1156462D01*
G01X18452487Y-1036320D02*
G01X18504049Y-1036320D01*
G01X18521067Y-1042162D01*
G01X18526909Y-1047750D01*
G01X18532497Y-1059180D01*
G01X18532497Y-1070610D01*
G01X18526909Y-1082040D01*
G01X18521067Y-1087882D01*
G01X18504049Y-1093470D01*
G01X18452487Y-1093470D02*
G01X18504049Y-1093470D01*
G01X18521067Y-1099312D01*
G01X18526909Y-1104900D01*
G01X18532497Y-1116330D01*
G01X18532497Y-1133602D01*
G01X18526909Y-1145032D01*
G01X18521067Y-1150620D01*
G01X18504049Y-1156462D01*
G01X18452487Y-1156462D01*
G01X18608951Y-1076452D02*
G01X18597521Y-1082040D01*
G01X18586091Y-1093470D01*
G01X18580249Y-1110742D01*
G01X18580249Y-1122172D01*
G01X18586091Y-1139190D01*
G01X18597521Y-1150620D01*
G01X18608951Y-1156462D01*
G01X18625969Y-1156462D01*
G01X18637399Y-1150620D01*
G01X18648829Y-1139190D01*
G01X18654671Y-1122172D01*
G01X18654671Y-1110742D01*
G01X18648829Y-1093470D01*
G01X18637399Y-1082040D01*
G01X18625969Y-1076452D01*
G01X18608951Y-1076452D01*
G01X18719695Y-1036320D02*
G01X18719695Y-1133602D01*
G01X18725283Y-1150620D01*
G01X18736713Y-1156462D01*
G01X18748143Y-1156462D01*
G01X18702423Y-1076452D02*
G01X18742555Y-1076452D01*
G01X18813167Y-1036320D02*
G01X18813167Y-1133602D01*
G01X18818755Y-1150620D01*
G01X18830185Y-1156462D01*
G01X18841615Y-1156462D01*
G01X18795895Y-1076452D02*
G01X18836027Y-1076452D01*
G01X18918069Y-1076452D02*
G01X18906639Y-1082040D01*
G01X18895209Y-1093470D01*
G01X18889367Y-1110742D01*
G01X18889367Y-1122172D01*
G01X18895209Y-1139190D01*
G01X18906639Y-1150620D01*
G01X18918069Y-1156462D01*
G01X18935087Y-1156462D01*
G01X18946517Y-1150620D01*
G01X18957947Y-1139190D01*
G01X18963789Y-1122172D01*
G01X18963789Y-1110742D01*
G01X18957947Y-1093470D01*
G01X18946517Y-1082040D01*
G01X18935087Y-1076452D01*
G01X18918069Y-1076452D01*
G01X19011541Y-1076452D02*
G01X19011541Y-1156462D01*
G01X19011541Y-1099312D02*
G01X19028813Y-1082040D01*
G01X19040243Y-1076452D01*
G01X19057261Y-1076452D01*
G01X19068691Y-1082040D01*
G01X19074533Y-1099312D01*
G01X19074533Y-1156462D01*
G01X19074533Y-1099312D02*
G01X19091551Y-1082040D01*
G01X19102981Y-1076452D01*
G01X19120253Y-1076452D01*
G01X19131683Y-1082040D01*
G01X19137271Y-1099312D01*
G01X19137271Y-1156462D01*
G01X19313039Y-1036320D02*
G01X19313039Y-1156462D01*
G01X19313039Y-1156462D02*
G01X19381619Y-1156462D01*
G01X19497951Y-1076452D02*
G01X19497951Y-1156462D01*
G01X19497951Y-1093470D02*
G01X19486521Y-1082040D01*
G01X19475091Y-1076452D01*
G01X19458073Y-1076452D01*
G01X19446643Y-1082040D01*
G01X19435213Y-1093470D01*
G01X19429371Y-1110742D01*
G01X19429371Y-1122172D01*
G01X19435213Y-1139190D01*
G01X19446643Y-1150620D01*
G01X19458073Y-1156462D01*
G01X19475091Y-1156462D01*
G01X19486521Y-1150620D01*
G01X19497951Y-1139190D01*
G01X19551545Y-1076452D02*
G01X19585835Y-1156462D01*
G01X19620125Y-1076452D02*
G01X19585835Y-1156462D01*
G01X19574405Y-1179322D01*
G01X19562975Y-1190752D01*
G01X19551545Y-1196340D01*
G01X19545703Y-1196340D01*
G01X19667877Y-1110742D02*
G01X19736457Y-1110742D01*
G01X19736457Y-1099312D01*
G01X19730869Y-1087882D01*
G01X19725027Y-1082040D01*
G01X19713597Y-1076452D01*
G01X19696579Y-1076452D01*
G01X19685149Y-1082040D01*
G01X19673719Y-1093470D01*
G01X19667877Y-1110742D01*
G01X19667877Y-1122172D01*
G01X19673719Y-1139190D01*
G01X19685149Y-1150620D01*
G01X19696579Y-1156462D01*
G01X19713597Y-1156462D01*
G01X19725027Y-1150620D01*
G01X19736457Y-1139190D01*
G01X19784209Y-1076452D02*
G01X19784209Y-1156462D01*
G01X19784209Y-1110742D02*
G01X19790051Y-1093470D01*
G01X19801481Y-1082040D01*
G01X19812911Y-1076452D01*
G01X19829929Y-1076452D01*
G01X5459516Y-1645593D02*
G01X5459516Y-1639751D01*
G01X5465104Y-1628321D01*
G01X5470946Y-1622733D01*
G01X5482376Y-1616891D01*
G01X5505236Y-1616891D01*
G01X5516666Y-1622733D01*
G01X5522254Y-1628321D01*
G01X5528096Y-1639751D01*
G01X5528096Y-1651181D01*
G01X5522254Y-1662611D01*
G01X5510824Y-1679883D01*
G01X5453674Y-1737033D01*
G01X5533684Y-1737033D01*
G01X6873679Y-1645593D02*
G01X6873679Y-1639751D01*
G01X6879267Y-1628321D01*
G01X6885109Y-1622733D01*
G01X6896539Y-1616891D01*
G01X6919399Y-1616891D01*
G01X6930829Y-1622733D01*
G01X6936417Y-1628321D01*
G01X6942259Y-1639751D01*
G01X6942259Y-1651181D01*
G01X6936417Y-1662611D01*
G01X6924987Y-1679883D01*
G01X6867837Y-1737033D01*
G01X6947847Y-1737033D01*
G01X7075609Y-1616891D02*
G01X7018459Y-1737033D01*
G01X6995599Y-1616891D02*
G01X7075609Y-1616891D01*
G01X7129203Y-1708331D02*
G01X7123361Y-1714173D01*
G01X7129203Y-1719761D01*
G01X7134791Y-1714173D01*
G01X7129203Y-1708331D01*
G01X7251123Y-1634163D02*
G01X7245535Y-1622733D01*
G01X7228263Y-1616891D01*
G01X7216833Y-1616891D01*
G01X7199815Y-1622733D01*
G01X7188385Y-1639751D01*
G01X7182543Y-1668453D01*
G01X7182543Y-1696901D01*
G01X7188385Y-1719761D01*
G01X7199815Y-1731191D01*
G01X7216833Y-1737033D01*
G01X7222675Y-1737033D01*
G01X7239693Y-1731191D01*
G01X7251123Y-1719761D01*
G01X7256965Y-1702743D01*
G01X7256965Y-1696901D01*
G01X7251123Y-1679883D01*
G01X7239693Y-1668453D01*
G01X7222675Y-1662611D01*
G01X7216833Y-1662611D01*
G01X7199815Y-1668453D01*
G01X7188385Y-1679883D01*
G01X7182543Y-1696901D01*
G01X7304717Y-1657023D02*
G01X7304717Y-1737033D01*
G01X7304717Y-1679883D02*
G01X7321989Y-1662611D01*
G01X7333419Y-1657023D01*
G01X7350437Y-1657023D01*
G01X7361867Y-1662611D01*
G01X7367709Y-1679883D01*
G01X7367709Y-1737033D01*
G01X7367709Y-1679883D02*
G01X7384727Y-1662611D01*
G01X7396157Y-1657023D01*
G01X7413429Y-1657023D01*
G01X7424859Y-1662611D01*
G01X7430447Y-1679883D01*
G01X7430447Y-1737033D01*
G01X7478199Y-1616891D02*
G01X7484041Y-1622733D01*
G01X7489629Y-1616891D01*
G01X7484041Y-1611303D01*
G01X7478199Y-1616891D01*
G01X7484041Y-1657023D02*
G01X7484041Y-1737033D01*
G01X7537381Y-1616891D02*
G01X7537381Y-1737033D01*
G01X7625265Y-1594031D02*
G01X7613835Y-1605461D01*
G01X7602405Y-1622733D01*
G01X7590975Y-1645593D01*
G01X7585133Y-1674041D01*
G01X7585133Y-1696901D01*
G01X7590975Y-1725603D01*
G01X7602405Y-1748463D01*
G01X7613835Y-1765481D01*
G01X7625265Y-1776911D01*
G01X7707307Y-1616891D02*
G01X7690289Y-1622733D01*
G01X7678859Y-1639751D01*
G01X7673017Y-1668453D01*
G01X7673017Y-1685471D01*
G01X7678859Y-1714173D01*
G01X7690289Y-1731191D01*
G01X7707307Y-1737033D01*
G01X7718737Y-1737033D01*
G01X7736009Y-1731191D01*
G01X7747439Y-1714173D01*
G01X7753027Y-1685471D01*
G01X7753027Y-1668453D01*
G01X7747439Y-1639751D01*
G01X7736009Y-1622733D01*
G01X7718737Y-1616891D01*
G01X7707307Y-1616891D01*
G01X7806621Y-1708331D02*
G01X7800779Y-1714173D01*
G01X7806621Y-1719761D01*
G01X7812209Y-1714173D01*
G01X7806621Y-1708331D01*
G01X7939971Y-1616891D02*
G01X7882821Y-1737033D01*
G01X7859961Y-1616891D02*
G01X7939971Y-1616891D01*
G01X8022013Y-1616891D02*
G01X8004995Y-1622733D01*
G01X7993565Y-1639751D01*
G01X7987723Y-1668453D01*
G01X7987723Y-1685471D01*
G01X7993565Y-1714173D01*
G01X8004995Y-1731191D01*
G01X8022013Y-1737033D01*
G01X8033443Y-1737033D01*
G01X8050715Y-1731191D01*
G01X8062145Y-1714173D01*
G01X8067733Y-1685471D01*
G01X8067733Y-1668453D01*
G01X8062145Y-1639751D01*
G01X8050715Y-1622733D01*
G01X8033443Y-1616891D01*
G01X8022013Y-1616891D01*
G01X8149775Y-1616891D02*
G01X8132757Y-1622733D01*
G01X8121327Y-1639751D01*
G01X8115485Y-1668453D01*
G01X8115485Y-1685471D01*
G01X8121327Y-1714173D01*
G01X8132757Y-1731191D01*
G01X8149775Y-1737033D01*
G01X8161205Y-1737033D01*
G01X8178477Y-1731191D01*
G01X8189907Y-1714173D01*
G01X8195495Y-1685471D01*
G01X8195495Y-1668453D01*
G01X8189907Y-1639751D01*
G01X8178477Y-1622733D01*
G01X8161205Y-1616891D01*
G01X8149775Y-1616891D01*
G01X8243247Y-1657023D02*
G01X8243247Y-1737033D01*
G01X8243247Y-1679883D02*
G01X8260519Y-1662611D01*
G01X8271949Y-1657023D01*
G01X8288967Y-1657023D01*
G01X8300397Y-1662611D01*
G01X8306239Y-1679883D01*
G01X8306239Y-1737033D01*
G01X8306239Y-1679883D02*
G01X8323257Y-1662611D01*
G01X8334687Y-1657023D01*
G01X8351959Y-1657023D01*
G01X8363389Y-1662611D01*
G01X8368977Y-1679883D01*
G01X8368977Y-1737033D01*
G01X8416729Y-1657023D02*
G01X8416729Y-1737033D01*
G01X8416729Y-1679883D02*
G01X8434001Y-1662611D01*
G01X8445431Y-1657023D01*
G01X8462449Y-1657023D01*
G01X8473879Y-1662611D01*
G01X8479721Y-1679883D01*
G01X8479721Y-1737033D01*
G01X8479721Y-1679883D02*
G01X8496739Y-1662611D01*
G01X8508169Y-1657023D01*
G01X8525441Y-1657023D01*
G01X8536871Y-1662611D01*
G01X8542459Y-1679883D01*
G01X8542459Y-1737033D01*
G01X8590211Y-1594031D02*
G01X8601641Y-1605461D01*
G01X8613071Y-1622733D01*
G01X8624501Y-1645593D01*
G01X8630343Y-1674041D01*
G01X8630343Y-1696901D01*
G01X8624501Y-1725603D01*
G01X8613071Y-1748463D01*
G01X8601641Y-1765481D01*
G01X8590211Y-1776911D01*
G01X10761803Y-1616891D02*
G01X10761803Y-1737033D01*
G01X10761803Y-1616891D02*
G01X10841813Y-1737033D01*
G01X10841813Y-1616891D02*
G01X10841813Y-1737033D01*
G01X10889565Y-1616891D02*
G01X10889565Y-1737033D01*
G01X10889565Y-1616891D02*
G01X10941127Y-1616891D01*
G01X10958145Y-1622733D01*
G01X10963987Y-1628321D01*
G01X10969575Y-1639751D01*
G01X10969575Y-1657023D01*
G01X10963987Y-1668453D01*
G01X10958145Y-1674041D01*
G01X10941127Y-1679883D01*
G01X10889565Y-1679883D01*
G01X11057459Y-1616891D02*
G01X11057459Y-1737033D01*
G01X11017327Y-1616891D02*
G01X11097337Y-1616891D01*
G01X11145089Y-1616891D02*
G01X11145089Y-1737033D01*
G01X11225099Y-1616891D02*
G01X11225099Y-1737033D01*
G01X11145089Y-1674041D02*
G01X11225099Y-1674041D01*
G01X12223210Y-1616891D02*
G01X12223210Y-1737033D01*
G01X12223210Y-1616891D02*
G01X12274772Y-1616891D01*
G01X12291790Y-1622733D01*
G01X12297632Y-1628321D01*
G01X12303220Y-1639751D01*
G01X12303220Y-1651181D01*
G01X12297632Y-1662611D01*
G01X12291790Y-1668453D01*
G01X12274772Y-1674041D01*
G01X12223210Y-1674041D01*
G01X12263342Y-1674041D02*
G01X12303220Y-1737033D01*
G01X12379674Y-1657023D02*
G01X12368244Y-1662611D01*
G01X12356814Y-1674041D01*
G01X12350972Y-1691313D01*
G01X12350972Y-1702743D01*
G01X12356814Y-1719761D01*
G01X12368244Y-1731191D01*
G01X12379674Y-1737033D01*
G01X12396692Y-1737033D01*
G01X12408122Y-1731191D01*
G01X12419552Y-1719761D01*
G01X12425394Y-1702743D01*
G01X12425394Y-1691313D01*
G01X12419552Y-1674041D01*
G01X12408122Y-1662611D01*
G01X12396692Y-1657023D01*
G01X12379674Y-1657023D01*
G01X12473146Y-1657023D02*
G01X12473146Y-1714173D01*
G01X12478988Y-1731191D01*
G01X12490418Y-1737033D01*
G01X12507436Y-1737033D01*
G01X12518866Y-1731191D01*
G01X12536138Y-1714173D01*
G01X12536138Y-1657023D02*
G01X12536138Y-1737033D01*
G01X12583890Y-1657023D02*
G01X12583890Y-1737033D01*
G01X12583890Y-1679883D02*
G01X12601162Y-1662611D01*
G01X12612592Y-1657023D01*
G01X12629610Y-1657023D01*
G01X12641040Y-1662611D01*
G01X12646882Y-1679883D01*
G01X12646882Y-1737033D01*
G01X12763214Y-1616891D02*
G01X12763214Y-1737033D01*
G01X12763214Y-1674041D02*
G01X12751784Y-1662611D01*
G01X12740354Y-1657023D01*
G01X12723336Y-1657023D01*
G01X12711906Y-1662611D01*
G01X12700476Y-1674041D01*
G01X12694634Y-1691313D01*
G01X12694634Y-1702743D01*
G01X12700476Y-1719761D01*
G01X12711906Y-1731191D01*
G01X12723336Y-1737033D01*
G01X12740354Y-1737033D01*
G01X12751784Y-1731191D01*
G01X12763214Y-1719761D01*
G01X13654391Y-1616891D02*
G01X13700111Y-1737033D01*
G01X13745831Y-1616891D02*
G01X13700111Y-1737033D01*
G01X13793583Y-1616891D02*
G01X13799425Y-1622733D01*
G01X13805013Y-1616891D01*
G01X13799425Y-1611303D01*
G01X13793583Y-1616891D01*
G01X13799425Y-1657023D02*
G01X13799425Y-1737033D01*
G01X13921345Y-1657023D02*
G01X13921345Y-1737033D01*
G01X13921345Y-1674041D02*
G01X13909915Y-1662611D01*
G01X13898485Y-1657023D01*
G01X13881467Y-1657023D01*
G01X13870037Y-1662611D01*
G01X13858607Y-1674041D01*
G01X13852765Y-1691313D01*
G01X13852765Y-1702743D01*
G01X13858607Y-1719761D01*
G01X13870037Y-1731191D01*
G01X13881467Y-1737033D01*
G01X13898485Y-1737033D01*
G01X13909915Y-1731191D01*
G01X13921345Y-1719761D01*
G01X17283071Y-1616891D02*
G01X17283071Y-1737033D01*
G01X17242939Y-1616891D02*
G01X17322949Y-1616891D01*
G01X17399403Y-1657023D02*
G01X17387973Y-1662611D01*
G01X17376543Y-1674041D01*
G01X17370701Y-1691313D01*
G01X17370701Y-1702743D01*
G01X17376543Y-1719761D01*
G01X17387973Y-1731191D01*
G01X17399403Y-1737033D01*
G01X17416421Y-1737033D01*
G01X17427851Y-1731191D01*
G01X17439281Y-1719761D01*
G01X17445123Y-1702743D01*
G01X17445123Y-1691313D01*
G01X17439281Y-1674041D01*
G01X17427851Y-1662611D01*
G01X17416421Y-1657023D01*
G01X17399403Y-1657023D01*
G01X17492875Y-1657023D02*
G01X17492875Y-1776911D01*
G01X17492875Y-1674041D02*
G01X17504305Y-1662611D01*
G01X17515735Y-1657023D01*
G01X17533007Y-1657023D01*
G01X17544437Y-1662611D01*
G01X17555867Y-1674041D01*
G01X17561455Y-1691313D01*
G01X17561455Y-1702743D01*
G01X17555867Y-1719761D01*
G01X17544437Y-1731191D01*
G01X17533007Y-1737033D01*
G01X17515735Y-1737033D01*
G01X17504305Y-1731191D01*
G01X17492875Y-1719761D01*
G01X17737223Y-1616891D02*
G01X17737223Y-1737033D01*
G01X17737223Y-1737033D02*
G01X17805803Y-1737033D01*
G01X17922135Y-1657023D02*
G01X17922135Y-1737033D01*
G01X17922135Y-1674041D02*
G01X17910705Y-1662611D01*
G01X17899275Y-1657023D01*
G01X17882257Y-1657023D01*
G01X17870827Y-1662611D01*
G01X17859397Y-1674041D01*
G01X17853555Y-1691313D01*
G01X17853555Y-1702743D01*
G01X17859397Y-1719761D01*
G01X17870827Y-1731191D01*
G01X17882257Y-1737033D01*
G01X17899275Y-1737033D01*
G01X17910705Y-1731191D01*
G01X17922135Y-1719761D01*
G01X17975729Y-1657023D02*
G01X18010019Y-1737033D01*
G01X18044309Y-1657023D02*
G01X18010019Y-1737033D01*
G01X17998589Y-1759893D01*
G01X17987159Y-1771323D01*
G01X17975729Y-1776911D01*
G01X17969887Y-1776911D01*
G01X18092061Y-1691313D02*
G01X18160641Y-1691313D01*
G01X18160641Y-1679883D01*
G01X18155053Y-1668453D01*
G01X18149211Y-1662611D01*
G01X18137781Y-1657023D01*
G01X18120763Y-1657023D01*
G01X18109333Y-1662611D01*
G01X18097903Y-1674041D01*
G01X18092061Y-1691313D01*
G01X18092061Y-1702743D01*
G01X18097903Y-1719761D01*
G01X18109333Y-1731191D01*
G01X18120763Y-1737033D01*
G01X18137781Y-1737033D01*
G01X18149211Y-1731191D01*
G01X18160641Y-1719761D01*
G01X18208393Y-1657023D02*
G01X18208393Y-1737033D01*
G01X18208393Y-1691313D02*
G01X18214235Y-1674041D01*
G01X18225665Y-1662611D01*
G01X18237095Y-1657023D01*
G01X18254113Y-1657023D01*
G01X18301865Y-1685471D02*
G01X18404735Y-1685471D01*
G01X18452487Y-1616891D02*
G01X18452487Y-1737033D01*
G01X18452487Y-1616891D02*
G01X18504049Y-1616891D01*
G01X18521067Y-1622733D01*
G01X18526909Y-1628321D01*
G01X18532497Y-1639751D01*
G01X18532497Y-1651181D01*
G01X18526909Y-1662611D01*
G01X18521067Y-1668453D01*
G01X18504049Y-1674041D01*
G01X18452487Y-1674041D02*
G01X18504049Y-1674041D01*
G01X18521067Y-1679883D01*
G01X18526909Y-1685471D01*
G01X18532497Y-1696901D01*
G01X18532497Y-1714173D01*
G01X18526909Y-1725603D01*
G01X18521067Y-1731191D01*
G01X18504049Y-1737033D01*
G01X18452487Y-1737033D01*
G01X18608951Y-1657023D02*
G01X18597521Y-1662611D01*
G01X18586091Y-1674041D01*
G01X18580249Y-1691313D01*
G01X18580249Y-1702743D01*
G01X18586091Y-1719761D01*
G01X18597521Y-1731191D01*
G01X18608951Y-1737033D01*
G01X18625969Y-1737033D01*
G01X18637399Y-1731191D01*
G01X18648829Y-1719761D01*
G01X18654671Y-1702743D01*
G01X18654671Y-1691313D01*
G01X18648829Y-1674041D01*
G01X18637399Y-1662611D01*
G01X18625969Y-1657023D01*
G01X18608951Y-1657023D01*
G01X18719695Y-1616891D02*
G01X18719695Y-1714173D01*
G01X18725283Y-1731191D01*
G01X18736713Y-1737033D01*
G01X18748143Y-1737033D01*
G01X18702423Y-1657023D02*
G01X18742555Y-1657023D01*
G01X18813167Y-1616891D02*
G01X18813167Y-1714173D01*
G01X18818755Y-1731191D01*
G01X18830185Y-1737033D01*
G01X18841615Y-1737033D01*
G01X18795895Y-1657023D02*
G01X18836027Y-1657023D01*
G01X18918069Y-1657023D02*
G01X18906639Y-1662611D01*
G01X18895209Y-1674041D01*
G01X18889367Y-1691313D01*
G01X18889367Y-1702743D01*
G01X18895209Y-1719761D01*
G01X18906639Y-1731191D01*
G01X18918069Y-1737033D01*
G01X18935087Y-1737033D01*
G01X18946517Y-1731191D01*
G01X18957947Y-1719761D01*
G01X18963789Y-1702743D01*
G01X18963789Y-1691313D01*
G01X18957947Y-1674041D01*
G01X18946517Y-1662611D01*
G01X18935087Y-1657023D01*
G01X18918069Y-1657023D01*
G01X19011541Y-1657023D02*
G01X19011541Y-1737033D01*
G01X19011541Y-1679883D02*
G01X19028813Y-1662611D01*
G01X19040243Y-1657023D01*
G01X19057261Y-1657023D01*
G01X19068691Y-1662611D01*
G01X19074533Y-1679883D01*
G01X19074533Y-1737033D01*
G01X19074533Y-1679883D02*
G01X19091551Y-1662611D01*
G01X19102981Y-1657023D01*
G01X19120253Y-1657023D01*
G01X19131683Y-1662611D01*
G01X19137271Y-1679883D01*
G01X19137271Y-1737033D01*
G01X19313039Y-1616891D02*
G01X19313039Y-1737033D01*
G01X19313039Y-1737033D02*
G01X19381619Y-1737033D01*
G01X19497951Y-1657023D02*
G01X19497951Y-1737033D01*
G01X19497951Y-1674041D02*
G01X19486521Y-1662611D01*
G01X19475091Y-1657023D01*
G01X19458073Y-1657023D01*
G01X19446643Y-1662611D01*
G01X19435213Y-1674041D01*
G01X19429371Y-1691313D01*
G01X19429371Y-1702743D01*
G01X19435213Y-1719761D01*
G01X19446643Y-1731191D01*
G01X19458073Y-1737033D01*
G01X19475091Y-1737033D01*
G01X19486521Y-1731191D01*
G01X19497951Y-1719761D01*
G01X19551545Y-1657023D02*
G01X19585835Y-1737033D01*
G01X19620125Y-1657023D02*
G01X19585835Y-1737033D01*
G01X19574405Y-1759893D01*
G01X19562975Y-1771323D01*
G01X19551545Y-1776911D01*
G01X19545703Y-1776911D01*
G01X19667877Y-1691313D02*
G01X19736457Y-1691313D01*
G01X19736457Y-1679883D01*
G01X19730869Y-1668453D01*
G01X19725027Y-1662611D01*
G01X19713597Y-1657023D01*
G01X19696579Y-1657023D01*
G01X19685149Y-1662611D01*
G01X19673719Y-1674041D01*
G01X19667877Y-1691313D01*
G01X19667877Y-1702743D01*
G01X19673719Y-1719761D01*
G01X19685149Y-1731191D01*
G01X19696579Y-1737033D01*
G01X19713597Y-1737033D01*
G01X19725027Y-1731191D01*
G01X19736457Y-1719761D01*
G01X19784209Y-1657023D02*
G01X19784209Y-1737033D01*
G01X19784209Y-1691313D02*
G01X19790051Y-1674041D01*
G01X19801481Y-1662611D01*
G01X19812911Y-1657023D01*
G01X19829929Y-1657023D01*
G01X5459516Y-2226165D02*
G01X5459516Y-2220323D01*
G01X5465104Y-2208893D01*
G01X5470946Y-2203305D01*
G01X5482376Y-2197463D01*
G01X5505236Y-2197463D01*
G01X5516666Y-2203305D01*
G01X5522254Y-2208893D01*
G01X5528096Y-2220323D01*
G01X5528096Y-2231753D01*
G01X5522254Y-2243183D01*
G01X5510824Y-2260455D01*
G01X5453674Y-2317605D01*
G01X5533684Y-2317605D01*
G01X5615726Y-2197463D02*
G01X5598708Y-2203305D01*
G01X5587278Y-2220323D01*
G01X5581436Y-2249025D01*
G01X5581436Y-2266043D01*
G01X5587278Y-2294745D01*
G01X5598708Y-2311763D01*
G01X5615726Y-2317605D01*
G01X5627156Y-2317605D01*
G01X5644428Y-2311763D01*
G01X5655858Y-2294745D01*
G01X5661446Y-2266043D01*
G01X5661446Y-2249025D01*
G01X5655858Y-2220323D01*
G01X5644428Y-2203305D01*
G01X5627156Y-2197463D01*
G01X5615726Y-2197463D01*
G01X6867837Y-2220323D02*
G01X6879267Y-2214735D01*
G01X6896539Y-2197463D01*
G01X6896539Y-2317605D01*
G01X6978581Y-2197463D02*
G01X6961563Y-2203305D01*
G01X6950133Y-2220323D01*
G01X6944291Y-2249025D01*
G01X6944291Y-2266043D01*
G01X6950133Y-2294745D01*
G01X6961563Y-2311763D01*
G01X6978581Y-2317605D01*
G01X6990011Y-2317605D01*
G01X7007283Y-2311763D01*
G01X7018713Y-2294745D01*
G01X7024301Y-2266043D01*
G01X7024301Y-2249025D01*
G01X7018713Y-2220323D01*
G01X7007283Y-2203305D01*
G01X6990011Y-2197463D01*
G01X6978581Y-2197463D01*
G01X7077895Y-2288903D02*
G01X7072053Y-2294745D01*
G01X7077895Y-2300333D01*
G01X7083483Y-2294745D01*
G01X7077895Y-2288903D01*
G01X7165525Y-2197463D02*
G01X7148507Y-2203305D01*
G01X7137077Y-2220323D01*
G01X7131235Y-2249025D01*
G01X7131235Y-2266043D01*
G01X7137077Y-2294745D01*
G01X7148507Y-2311763D01*
G01X7165525Y-2317605D01*
G01X7176955Y-2317605D01*
G01X7194227Y-2311763D01*
G01X7205657Y-2294745D01*
G01X7211245Y-2266043D01*
G01X7211245Y-2249025D01*
G01X7205657Y-2220323D01*
G01X7194227Y-2203305D01*
G01X7176955Y-2197463D01*
G01X7165525Y-2197463D01*
G01X7258997Y-2237595D02*
G01X7258997Y-2317605D01*
G01X7258997Y-2260455D02*
G01X7276269Y-2243183D01*
G01X7287699Y-2237595D01*
G01X7304717Y-2237595D01*
G01X7316147Y-2243183D01*
G01X7321989Y-2260455D01*
G01X7321989Y-2317605D01*
G01X7321989Y-2260455D02*
G01X7339007Y-2243183D01*
G01X7350437Y-2237595D01*
G01X7367709Y-2237595D01*
G01X7379139Y-2243183D01*
G01X7384727Y-2260455D01*
G01X7384727Y-2317605D01*
G01X7432479Y-2197463D02*
G01X7438321Y-2203305D01*
G01X7443909Y-2197463D01*
G01X7438321Y-2191875D01*
G01X7432479Y-2197463D01*
G01X7438321Y-2237595D02*
G01X7438321Y-2317605D01*
G01X7491661Y-2197463D02*
G01X7491661Y-2317605D01*
G01X7579545Y-2174603D02*
G01X7568115Y-2186033D01*
G01X7556685Y-2203305D01*
G01X7545255Y-2226165D01*
G01X7539413Y-2254613D01*
G01X7539413Y-2277473D01*
G01X7545255Y-2306175D01*
G01X7556685Y-2329035D01*
G01X7568115Y-2346053D01*
G01X7579545Y-2357483D01*
G01X7661587Y-2197463D02*
G01X7644569Y-2203305D01*
G01X7633139Y-2220323D01*
G01X7627297Y-2249025D01*
G01X7627297Y-2266043D01*
G01X7633139Y-2294745D01*
G01X7644569Y-2311763D01*
G01X7661587Y-2317605D01*
G01X7673017Y-2317605D01*
G01X7690289Y-2311763D01*
G01X7701719Y-2294745D01*
G01X7707307Y-2266043D01*
G01X7707307Y-2249025D01*
G01X7701719Y-2220323D01*
G01X7690289Y-2203305D01*
G01X7673017Y-2197463D01*
G01X7661587Y-2197463D01*
G01X7760901Y-2288903D02*
G01X7755059Y-2294745D01*
G01X7760901Y-2300333D01*
G01X7766489Y-2294745D01*
G01X7760901Y-2288903D01*
G01X7820083Y-2226165D02*
G01X7820083Y-2220323D01*
G01X7825671Y-2208893D01*
G01X7831513Y-2203305D01*
G01X7842943Y-2197463D01*
G01X7865803Y-2197463D01*
G01X7877233Y-2203305D01*
G01X7882821Y-2208893D01*
G01X7888663Y-2220323D01*
G01X7888663Y-2231753D01*
G01X7882821Y-2243183D01*
G01X7871391Y-2260455D01*
G01X7814241Y-2317605D01*
G01X7894251Y-2317605D01*
G01X8010583Y-2197463D02*
G01X7953433Y-2197463D01*
G01X7947845Y-2249025D01*
G01X7953433Y-2243183D01*
G01X7970705Y-2237595D01*
G01X7987723Y-2237595D01*
G01X8004995Y-2243183D01*
G01X8016425Y-2254613D01*
G01X8022013Y-2271885D01*
G01X8022013Y-2283315D01*
G01X8016425Y-2300333D01*
G01X8004995Y-2311763D01*
G01X7987723Y-2317605D01*
G01X7970705Y-2317605D01*
G01X7953433Y-2311763D01*
G01X7947845Y-2306175D01*
G01X7942003Y-2294745D01*
G01X8126915Y-2197463D02*
G01X8069765Y-2277473D01*
G01X8155617Y-2277473D01*
G01X8126915Y-2197463D02*
G01X8126915Y-2317605D01*
G01X8203369Y-2237595D02*
G01X8203369Y-2317605D01*
G01X8203369Y-2260455D02*
G01X8220641Y-2243183D01*
G01X8232071Y-2237595D01*
G01X8249089Y-2237595D01*
G01X8260519Y-2243183D01*
G01X8266361Y-2260455D01*
G01X8266361Y-2317605D01*
G01X8266361Y-2260455D02*
G01X8283379Y-2243183D01*
G01X8294809Y-2237595D01*
G01X8312081Y-2237595D01*
G01X8323511Y-2243183D01*
G01X8329099Y-2260455D01*
G01X8329099Y-2317605D01*
G01X8376851Y-2237595D02*
G01X8376851Y-2317605D01*
G01X8376851Y-2260455D02*
G01X8394123Y-2243183D01*
G01X8405553Y-2237595D01*
G01X8422571Y-2237595D01*
G01X8434001Y-2243183D01*
G01X8439843Y-2260455D01*
G01X8439843Y-2317605D01*
G01X8439843Y-2260455D02*
G01X8456861Y-2243183D01*
G01X8468291Y-2237595D01*
G01X8485563Y-2237595D01*
G01X8496993Y-2243183D01*
G01X8502581Y-2260455D01*
G01X8502581Y-2317605D01*
G01X8550333Y-2174603D02*
G01X8561763Y-2186033D01*
G01X8573193Y-2203305D01*
G01X8584623Y-2226165D01*
G01X8590465Y-2254613D01*
G01X8590465Y-2277473D01*
G01X8584623Y-2306175D01*
G01X8573193Y-2329035D01*
G01X8561763Y-2346053D01*
G01X8550333Y-2357483D01*
G01X10761803Y-2197463D02*
G01X10761803Y-2317605D01*
G01X10761803Y-2197463D02*
G01X10813365Y-2197463D01*
G01X10830383Y-2203305D01*
G01X10836225Y-2208893D01*
G01X10841813Y-2220323D01*
G01X10841813Y-2237595D01*
G01X10836225Y-2249025D01*
G01X10830383Y-2254613D01*
G01X10813365Y-2260455D01*
G01X10761803Y-2260455D01*
G01X10929697Y-2197463D02*
G01X10929697Y-2317605D01*
G01X10889565Y-2197463D02*
G01X10969575Y-2197463D01*
G01X11017327Y-2197463D02*
G01X11017327Y-2317605D01*
G01X11097337Y-2197463D02*
G01X11097337Y-2317605D01*
G01X11017327Y-2254613D02*
G01X11097337Y-2254613D01*
G01X12223210Y-2197463D02*
G01X12223210Y-2317605D01*
G01X12223210Y-2197463D02*
G01X12274772Y-2197463D01*
G01X12291790Y-2203305D01*
G01X12297632Y-2208893D01*
G01X12303220Y-2220323D01*
G01X12303220Y-2231753D01*
G01X12297632Y-2243183D01*
G01X12291790Y-2249025D01*
G01X12274772Y-2254613D01*
G01X12223210Y-2254613D01*
G01X12263342Y-2254613D02*
G01X12303220Y-2317605D01*
G01X12379674Y-2237595D02*
G01X12368244Y-2243183D01*
G01X12356814Y-2254613D01*
G01X12350972Y-2271885D01*
G01X12350972Y-2283315D01*
G01X12356814Y-2300333D01*
G01X12368244Y-2311763D01*
G01X12379674Y-2317605D01*
G01X12396692Y-2317605D01*
G01X12408122Y-2311763D01*
G01X12419552Y-2300333D01*
G01X12425394Y-2283315D01*
G01X12425394Y-2271885D01*
G01X12419552Y-2254613D01*
G01X12408122Y-2243183D01*
G01X12396692Y-2237595D01*
G01X12379674Y-2237595D01*
G01X12473146Y-2237595D02*
G01X12473146Y-2294745D01*
G01X12478988Y-2311763D01*
G01X12490418Y-2317605D01*
G01X12507436Y-2317605D01*
G01X12518866Y-2311763D01*
G01X12536138Y-2294745D01*
G01X12536138Y-2237595D02*
G01X12536138Y-2317605D01*
G01X12583890Y-2237595D02*
G01X12583890Y-2317605D01*
G01X12583890Y-2260455D02*
G01X12601162Y-2243183D01*
G01X12612592Y-2237595D01*
G01X12629610Y-2237595D01*
G01X12641040Y-2243183D01*
G01X12646882Y-2260455D01*
G01X12646882Y-2317605D01*
G01X12763214Y-2197463D02*
G01X12763214Y-2317605D01*
G01X12763214Y-2254613D02*
G01X12751784Y-2243183D01*
G01X12740354Y-2237595D01*
G01X12723336Y-2237595D01*
G01X12711906Y-2243183D01*
G01X12700476Y-2254613D01*
G01X12694634Y-2271885D01*
G01X12694634Y-2283315D01*
G01X12700476Y-2300333D01*
G01X12711906Y-2311763D01*
G01X12723336Y-2317605D01*
G01X12740354Y-2317605D01*
G01X12751784Y-2311763D01*
G01X12763214Y-2300333D01*
G01X13654391Y-2197463D02*
G01X13700111Y-2317605D01*
G01X13745831Y-2197463D02*
G01X13700111Y-2317605D01*
G01X13793583Y-2197463D02*
G01X13799425Y-2203305D01*
G01X13805013Y-2197463D01*
G01X13799425Y-2191875D01*
G01X13793583Y-2197463D01*
G01X13799425Y-2237595D02*
G01X13799425Y-2317605D01*
G01X13921345Y-2237595D02*
G01X13921345Y-2317605D01*
G01X13921345Y-2254613D02*
G01X13909915Y-2243183D01*
G01X13898485Y-2237595D01*
G01X13881467Y-2237595D01*
G01X13870037Y-2243183D01*
G01X13858607Y-2254613D01*
G01X13852765Y-2271885D01*
G01X13852765Y-2283315D01*
G01X13858607Y-2300333D01*
G01X13870037Y-2311763D01*
G01X13881467Y-2317605D01*
G01X13898485Y-2317605D01*
G01X13909915Y-2311763D01*
G01X13921345Y-2300333D01*
G01X17283071Y-2197463D02*
G01X17283071Y-2317605D01*
G01X17242939Y-2197463D02*
G01X17322949Y-2197463D01*
G01X17399403Y-2237595D02*
G01X17387973Y-2243183D01*
G01X17376543Y-2254613D01*
G01X17370701Y-2271885D01*
G01X17370701Y-2283315D01*
G01X17376543Y-2300333D01*
G01X17387973Y-2311763D01*
G01X17399403Y-2317605D01*
G01X17416421Y-2317605D01*
G01X17427851Y-2311763D01*
G01X17439281Y-2300333D01*
G01X17445123Y-2283315D01*
G01X17445123Y-2271885D01*
G01X17439281Y-2254613D01*
G01X17427851Y-2243183D01*
G01X17416421Y-2237595D01*
G01X17399403Y-2237595D01*
G01X17492875Y-2237595D02*
G01X17492875Y-2357483D01*
G01X17492875Y-2254613D02*
G01X17504305Y-2243183D01*
G01X17515735Y-2237595D01*
G01X17533007Y-2237595D01*
G01X17544437Y-2243183D01*
G01X17555867Y-2254613D01*
G01X17561455Y-2271885D01*
G01X17561455Y-2283315D01*
G01X17555867Y-2300333D01*
G01X17544437Y-2311763D01*
G01X17533007Y-2317605D01*
G01X17515735Y-2317605D01*
G01X17504305Y-2311763D01*
G01X17492875Y-2300333D01*
G01X17737223Y-2197463D02*
G01X17737223Y-2317605D01*
G01X17737223Y-2317605D02*
G01X17805803Y-2317605D01*
G01X17922135Y-2237595D02*
G01X17922135Y-2317605D01*
G01X17922135Y-2254613D02*
G01X17910705Y-2243183D01*
G01X17899275Y-2237595D01*
G01X17882257Y-2237595D01*
G01X17870827Y-2243183D01*
G01X17859397Y-2254613D01*
G01X17853555Y-2271885D01*
G01X17853555Y-2283315D01*
G01X17859397Y-2300333D01*
G01X17870827Y-2311763D01*
G01X17882257Y-2317605D01*
G01X17899275Y-2317605D01*
G01X17910705Y-2311763D01*
G01X17922135Y-2300333D01*
G01X17975729Y-2237595D02*
G01X18010019Y-2317605D01*
G01X18044309Y-2237595D02*
G01X18010019Y-2317605D01*
G01X17998589Y-2340465D01*
G01X17987159Y-2351895D01*
G01X17975729Y-2357483D01*
G01X17969887Y-2357483D01*
G01X18092061Y-2271885D02*
G01X18160641Y-2271885D01*
G01X18160641Y-2260455D01*
G01X18155053Y-2249025D01*
G01X18149211Y-2243183D01*
G01X18137781Y-2237595D01*
G01X18120763Y-2237595D01*
G01X18109333Y-2243183D01*
G01X18097903Y-2254613D01*
G01X18092061Y-2271885D01*
G01X18092061Y-2283315D01*
G01X18097903Y-2300333D01*
G01X18109333Y-2311763D01*
G01X18120763Y-2317605D01*
G01X18137781Y-2317605D01*
G01X18149211Y-2311763D01*
G01X18160641Y-2300333D01*
G01X18208393Y-2237595D02*
G01X18208393Y-2317605D01*
G01X18208393Y-2271885D02*
G01X18214235Y-2254613D01*
G01X18225665Y-2243183D01*
G01X18237095Y-2237595D01*
G01X18254113Y-2237595D01*
G01X18301865Y-2266043D02*
G01X18404735Y-2266043D01*
G01X18452487Y-2197463D02*
G01X18452487Y-2317605D01*
G01X18452487Y-2197463D02*
G01X18504049Y-2197463D01*
G01X18521067Y-2203305D01*
G01X18526909Y-2208893D01*
G01X18532497Y-2220323D01*
G01X18532497Y-2231753D01*
G01X18526909Y-2243183D01*
G01X18521067Y-2249025D01*
G01X18504049Y-2254613D01*
G01X18452487Y-2254613D02*
G01X18504049Y-2254613D01*
G01X18521067Y-2260455D01*
G01X18526909Y-2266043D01*
G01X18532497Y-2277473D01*
G01X18532497Y-2294745D01*
G01X18526909Y-2306175D01*
G01X18521067Y-2311763D01*
G01X18504049Y-2317605D01*
G01X18452487Y-2317605D01*
G01X18608951Y-2237595D02*
G01X18597521Y-2243183D01*
G01X18586091Y-2254613D01*
G01X18580249Y-2271885D01*
G01X18580249Y-2283315D01*
G01X18586091Y-2300333D01*
G01X18597521Y-2311763D01*
G01X18608951Y-2317605D01*
G01X18625969Y-2317605D01*
G01X18637399Y-2311763D01*
G01X18648829Y-2300333D01*
G01X18654671Y-2283315D01*
G01X18654671Y-2271885D01*
G01X18648829Y-2254613D01*
G01X18637399Y-2243183D01*
G01X18625969Y-2237595D01*
G01X18608951Y-2237595D01*
G01X18719695Y-2197463D02*
G01X18719695Y-2294745D01*
G01X18725283Y-2311763D01*
G01X18736713Y-2317605D01*
G01X18748143Y-2317605D01*
G01X18702423Y-2237595D02*
G01X18742555Y-2237595D01*
G01X18813167Y-2197463D02*
G01X18813167Y-2294745D01*
G01X18818755Y-2311763D01*
G01X18830185Y-2317605D01*
G01X18841615Y-2317605D01*
G01X18795895Y-2237595D02*
G01X18836027Y-2237595D01*
G01X18918069Y-2237595D02*
G01X18906639Y-2243183D01*
G01X18895209Y-2254613D01*
G01X18889367Y-2271885D01*
G01X18889367Y-2283315D01*
G01X18895209Y-2300333D01*
G01X18906639Y-2311763D01*
G01X18918069Y-2317605D01*
G01X18935087Y-2317605D01*
G01X18946517Y-2311763D01*
G01X18957947Y-2300333D01*
G01X18963789Y-2283315D01*
G01X18963789Y-2271885D01*
G01X18957947Y-2254613D01*
G01X18946517Y-2243183D01*
G01X18935087Y-2237595D01*
G01X18918069Y-2237595D01*
G01X19011541Y-2237595D02*
G01X19011541Y-2317605D01*
G01X19011541Y-2260455D02*
G01X19028813Y-2243183D01*
G01X19040243Y-2237595D01*
G01X19057261Y-2237595D01*
G01X19068691Y-2243183D01*
G01X19074533Y-2260455D01*
G01X19074533Y-2317605D01*
G01X19074533Y-2260455D02*
G01X19091551Y-2243183D01*
G01X19102981Y-2237595D01*
G01X19120253Y-2237595D01*
G01X19131683Y-2243183D01*
G01X19137271Y-2260455D01*
G01X19137271Y-2317605D01*
G01X19313039Y-2197463D02*
G01X19313039Y-2317605D01*
G01X19313039Y-2317605D02*
G01X19381619Y-2317605D01*
G01X19497951Y-2237595D02*
G01X19497951Y-2317605D01*
G01X19497951Y-2254613D02*
G01X19486521Y-2243183D01*
G01X19475091Y-2237595D01*
G01X19458073Y-2237595D01*
G01X19446643Y-2243183D01*
G01X19435213Y-2254613D01*
G01X19429371Y-2271885D01*
G01X19429371Y-2283315D01*
G01X19435213Y-2300333D01*
G01X19446643Y-2311763D01*
G01X19458073Y-2317605D01*
G01X19475091Y-2317605D01*
G01X19486521Y-2311763D01*
G01X19497951Y-2300333D01*
G01X19551545Y-2237595D02*
G01X19585835Y-2317605D01*
G01X19620125Y-2237595D02*
G01X19585835Y-2317605D01*
G01X19574405Y-2340465D01*
G01X19562975Y-2351895D01*
G01X19551545Y-2357483D01*
G01X19545703Y-2357483D01*
G01X19667877Y-2271885D02*
G01X19736457Y-2271885D01*
G01X19736457Y-2260455D01*
G01X19730869Y-2249025D01*
G01X19725027Y-2243183D01*
G01X19713597Y-2237595D01*
G01X19696579Y-2237595D01*
G01X19685149Y-2243183D01*
G01X19673719Y-2254613D01*
G01X19667877Y-2271885D01*
G01X19667877Y-2283315D01*
G01X19673719Y-2300333D01*
G01X19685149Y-2311763D01*
G01X19696579Y-2317605D01*
G01X19713597Y-2317605D01*
G01X19725027Y-2311763D01*
G01X19736457Y-2300333D01*
G01X19784209Y-2237595D02*
G01X19784209Y-2317605D01*
G01X19784209Y-2271885D02*
G01X19790051Y-2254613D01*
G01X19801481Y-2243183D01*
G01X19812911Y-2237595D01*
G01X19829929Y-2237595D01*
G01X5482376Y-2778034D02*
G01X5465104Y-2783876D01*
G01X5459516Y-2795306D01*
G01X5459516Y-2806736D01*
G01X5465104Y-2818166D01*
G01X5476534Y-2823754D01*
G01X5499394Y-2829596D01*
G01X5516666Y-2835184D01*
G01X5528096Y-2846614D01*
G01X5533684Y-2858044D01*
G01X5533684Y-2875316D01*
G01X5528096Y-2886746D01*
G01X5522254Y-2892334D01*
G01X5505236Y-2898176D01*
G01X5482376Y-2898176D01*
G01X5465104Y-2892334D01*
G01X5459516Y-2886746D01*
G01X5453674Y-2875316D01*
G01X5453674Y-2858044D01*
G01X5459516Y-2846614D01*
G01X5470946Y-2835184D01*
G01X5487964Y-2829596D01*
G01X5510824Y-2823754D01*
G01X5522254Y-2818166D01*
G01X5528096Y-2806736D01*
G01X5528096Y-2795306D01*
G01X5522254Y-2783876D01*
G01X5505236Y-2778034D01*
G01X5482376Y-2778034D01*
G01X5638586Y-2778034D02*
G01X5581436Y-2858044D01*
G01X5667288Y-2858044D01*
G01X5638586Y-2778034D02*
G01X5638586Y-2898176D01*
G01X6867837Y-2800894D02*
G01X6879267Y-2795306D01*
G01X6896539Y-2778034D01*
G01X6896539Y-2898176D01*
G01X6944291Y-2800894D02*
G01X6955721Y-2795306D01*
G01X6972993Y-2778034D01*
G01X6972993Y-2898176D01*
G01X7026587Y-2869474D02*
G01X7020745Y-2875316D01*
G01X7026587Y-2880904D01*
G01X7032175Y-2875316D01*
G01X7026587Y-2869474D01*
G01X7108629Y-2778034D02*
G01X7091357Y-2783876D01*
G01X7085769Y-2795306D01*
G01X7085769Y-2806736D01*
G01X7091357Y-2818166D01*
G01X7102787Y-2823754D01*
G01X7125647Y-2829596D01*
G01X7142919Y-2835184D01*
G01X7154349Y-2846614D01*
G01X7159937Y-2858044D01*
G01X7159937Y-2875316D01*
G01X7154349Y-2886746D01*
G01X7148507Y-2892334D01*
G01X7131489Y-2898176D01*
G01X7108629Y-2898176D01*
G01X7091357Y-2892334D01*
G01X7085769Y-2886746D01*
G01X7079927Y-2875316D01*
G01X7079927Y-2858044D01*
G01X7085769Y-2846614D01*
G01X7097199Y-2835184D01*
G01X7114217Y-2829596D01*
G01X7137077Y-2823754D01*
G01X7148507Y-2818166D01*
G01X7154349Y-2806736D01*
G01X7154349Y-2795306D01*
G01X7148507Y-2783876D01*
G01X7131489Y-2778034D01*
G01X7108629Y-2778034D01*
G01X7207689Y-2818166D02*
G01X7207689Y-2898176D01*
G01X7207689Y-2841026D02*
G01X7224961Y-2823754D01*
G01X7236391Y-2818166D01*
G01X7253409Y-2818166D01*
G01X7264839Y-2823754D01*
G01X7270681Y-2841026D01*
G01X7270681Y-2898176D01*
G01X7270681Y-2841026D02*
G01X7287699Y-2823754D01*
G01X7299129Y-2818166D01*
G01X7316401Y-2818166D01*
G01X7327831Y-2823754D01*
G01X7333419Y-2841026D01*
G01X7333419Y-2898176D01*
G01X7381171Y-2778034D02*
G01X7387013Y-2783876D01*
G01X7392601Y-2778034D01*
G01X7387013Y-2772446D01*
G01X7381171Y-2778034D01*
G01X7387013Y-2818166D02*
G01X7387013Y-2898176D01*
G01X7440353Y-2778034D02*
G01X7440353Y-2898176D01*
G01X7528237Y-2755174D02*
G01X7516807Y-2766604D01*
G01X7505377Y-2783876D01*
G01X7493947Y-2806736D01*
G01X7488105Y-2835184D01*
G01X7488105Y-2858044D01*
G01X7493947Y-2886746D01*
G01X7505377Y-2909606D01*
G01X7516807Y-2926624D01*
G01X7528237Y-2938054D01*
G01X7610279Y-2778034D02*
G01X7593261Y-2783876D01*
G01X7581831Y-2800894D01*
G01X7575989Y-2829596D01*
G01X7575989Y-2846614D01*
G01X7581831Y-2875316D01*
G01X7593261Y-2892334D01*
G01X7610279Y-2898176D01*
G01X7621709Y-2898176D01*
G01X7638981Y-2892334D01*
G01X7650411Y-2875316D01*
G01X7655999Y-2846614D01*
G01X7655999Y-2829596D01*
G01X7650411Y-2800894D01*
G01X7638981Y-2783876D01*
G01X7621709Y-2778034D01*
G01X7610279Y-2778034D01*
G01X7709593Y-2869474D02*
G01X7703751Y-2875316D01*
G01X7709593Y-2880904D01*
G01X7715181Y-2875316D01*
G01X7709593Y-2869474D01*
G01X7774363Y-2778034D02*
G01X7837355Y-2778034D01*
G01X7803065Y-2823754D01*
G01X7820083Y-2823754D01*
G01X7831513Y-2829596D01*
G01X7837355Y-2835184D01*
G01X7842943Y-2852456D01*
G01X7842943Y-2863886D01*
G01X7837355Y-2880904D01*
G01X7825925Y-2892334D01*
G01X7808653Y-2898176D01*
G01X7791635Y-2898176D01*
G01X7774363Y-2892334D01*
G01X7768775Y-2886746D01*
G01X7762933Y-2875316D01*
G01X7924985Y-2778034D02*
G01X7907967Y-2783876D01*
G01X7896537Y-2800894D01*
G01X7890695Y-2829596D01*
G01X7890695Y-2846614D01*
G01X7896537Y-2875316D01*
G01X7907967Y-2892334D01*
G01X7924985Y-2898176D01*
G01X7936415Y-2898176D01*
G01X7953687Y-2892334D01*
G01X7965117Y-2875316D01*
G01X7970705Y-2846614D01*
G01X7970705Y-2829596D01*
G01X7965117Y-2800894D01*
G01X7953687Y-2783876D01*
G01X7936415Y-2778034D01*
G01X7924985Y-2778034D01*
G01X8052747Y-2778034D02*
G01X8035729Y-2783876D01*
G01X8024299Y-2800894D01*
G01X8018457Y-2829596D01*
G01X8018457Y-2846614D01*
G01X8024299Y-2875316D01*
G01X8035729Y-2892334D01*
G01X8052747Y-2898176D01*
G01X8064177Y-2898176D01*
G01X8081449Y-2892334D01*
G01X8092879Y-2875316D01*
G01X8098467Y-2846614D01*
G01X8098467Y-2829596D01*
G01X8092879Y-2800894D01*
G01X8081449Y-2783876D01*
G01X8064177Y-2778034D01*
G01X8052747Y-2778034D01*
G01X8146219Y-2818166D02*
G01X8146219Y-2898176D01*
G01X8146219Y-2841026D02*
G01X8163491Y-2823754D01*
G01X8174921Y-2818166D01*
G01X8191939Y-2818166D01*
G01X8203369Y-2823754D01*
G01X8209211Y-2841026D01*
G01X8209211Y-2898176D01*
G01X8209211Y-2841026D02*
G01X8226229Y-2823754D01*
G01X8237659Y-2818166D01*
G01X8254931Y-2818166D01*
G01X8266361Y-2823754D01*
G01X8271949Y-2841026D01*
G01X8271949Y-2898176D01*
G01X8319701Y-2818166D02*
G01X8319701Y-2898176D01*
G01X8319701Y-2841026D02*
G01X8336973Y-2823754D01*
G01X8348403Y-2818166D01*
G01X8365421Y-2818166D01*
G01X8376851Y-2823754D01*
G01X8382693Y-2841026D01*
G01X8382693Y-2898176D01*
G01X8382693Y-2841026D02*
G01X8399711Y-2823754D01*
G01X8411141Y-2818166D01*
G01X8428413Y-2818166D01*
G01X8439843Y-2823754D01*
G01X8445431Y-2841026D01*
G01X8445431Y-2898176D01*
G01X8493183Y-2755174D02*
G01X8504613Y-2766604D01*
G01X8516043Y-2783876D01*
G01X8527473Y-2806736D01*
G01X8533315Y-2835184D01*
G01X8533315Y-2858044D01*
G01X8527473Y-2886746D01*
G01X8516043Y-2909606D01*
G01X8504613Y-2926624D01*
G01X8493183Y-2938054D01*
G01X10761803Y-2778034D02*
G01X10761803Y-2898176D01*
G01X10761803Y-2778034D02*
G01X10813365Y-2778034D01*
G01X10830383Y-2783876D01*
G01X10836225Y-2789464D01*
G01X10841813Y-2800894D01*
G01X10841813Y-2818166D01*
G01X10836225Y-2829596D01*
G01X10830383Y-2835184D01*
G01X10813365Y-2841026D01*
G01X10761803Y-2841026D01*
G01X10929697Y-2778034D02*
G01X10929697Y-2898176D01*
G01X10889565Y-2778034D02*
G01X10969575Y-2778034D01*
G01X11017327Y-2778034D02*
G01X11017327Y-2898176D01*
G01X11097337Y-2778034D02*
G01X11097337Y-2898176D01*
G01X11017327Y-2835184D02*
G01X11097337Y-2835184D01*
G01X12223210Y-2778034D02*
G01X12223210Y-2898176D01*
G01X12223210Y-2778034D02*
G01X12274772Y-2778034D01*
G01X12291790Y-2783876D01*
G01X12297632Y-2789464D01*
G01X12303220Y-2800894D01*
G01X12303220Y-2812324D01*
G01X12297632Y-2823754D01*
G01X12291790Y-2829596D01*
G01X12274772Y-2835184D01*
G01X12223210Y-2835184D01*
G01X12263342Y-2835184D02*
G01X12303220Y-2898176D01*
G01X12379674Y-2818166D02*
G01X12368244Y-2823754D01*
G01X12356814Y-2835184D01*
G01X12350972Y-2852456D01*
G01X12350972Y-2863886D01*
G01X12356814Y-2880904D01*
G01X12368244Y-2892334D01*
G01X12379674Y-2898176D01*
G01X12396692Y-2898176D01*
G01X12408122Y-2892334D01*
G01X12419552Y-2880904D01*
G01X12425394Y-2863886D01*
G01X12425394Y-2852456D01*
G01X12419552Y-2835184D01*
G01X12408122Y-2823754D01*
G01X12396692Y-2818166D01*
G01X12379674Y-2818166D01*
G01X12473146Y-2818166D02*
G01X12473146Y-2875316D01*
G01X12478988Y-2892334D01*
G01X12490418Y-2898176D01*
G01X12507436Y-2898176D01*
G01X12518866Y-2892334D01*
G01X12536138Y-2875316D01*
G01X12536138Y-2818166D02*
G01X12536138Y-2898176D01*
G01X12583890Y-2818166D02*
G01X12583890Y-2898176D01*
G01X12583890Y-2841026D02*
G01X12601162Y-2823754D01*
G01X12612592Y-2818166D01*
G01X12629610Y-2818166D01*
G01X12641040Y-2823754D01*
G01X12646882Y-2841026D01*
G01X12646882Y-2898176D01*
G01X12763214Y-2778034D02*
G01X12763214Y-2898176D01*
G01X12763214Y-2835184D02*
G01X12751784Y-2823754D01*
G01X12740354Y-2818166D01*
G01X12723336Y-2818166D01*
G01X12711906Y-2823754D01*
G01X12700476Y-2835184D01*
G01X12694634Y-2852456D01*
G01X12694634Y-2863886D01*
G01X12700476Y-2880904D01*
G01X12711906Y-2892334D01*
G01X12723336Y-2898176D01*
G01X12740354Y-2898176D01*
G01X12751784Y-2892334D01*
G01X12763214Y-2880904D01*
G01X13654391Y-2778034D02*
G01X13700111Y-2898176D01*
G01X13745831Y-2778034D02*
G01X13700111Y-2898176D01*
G01X13793583Y-2778034D02*
G01X13799425Y-2783876D01*
G01X13805013Y-2778034D01*
G01X13799425Y-2772446D01*
G01X13793583Y-2778034D01*
G01X13799425Y-2818166D02*
G01X13799425Y-2898176D01*
G01X13921345Y-2818166D02*
G01X13921345Y-2898176D01*
G01X13921345Y-2835184D02*
G01X13909915Y-2823754D01*
G01X13898485Y-2818166D01*
G01X13881467Y-2818166D01*
G01X13870037Y-2823754D01*
G01X13858607Y-2835184D01*
G01X13852765Y-2852456D01*
G01X13852765Y-2863886D01*
G01X13858607Y-2880904D01*
G01X13870037Y-2892334D01*
G01X13881467Y-2898176D01*
G01X13898485Y-2898176D01*
G01X13909915Y-2892334D01*
G01X13921345Y-2880904D01*
G01X17283071Y-2778034D02*
G01X17283071Y-2898176D01*
G01X17242939Y-2778034D02*
G01X17322949Y-2778034D01*
G01X17399403Y-2818166D02*
G01X17387973Y-2823754D01*
G01X17376543Y-2835184D01*
G01X17370701Y-2852456D01*
G01X17370701Y-2863886D01*
G01X17376543Y-2880904D01*
G01X17387973Y-2892334D01*
G01X17399403Y-2898176D01*
G01X17416421Y-2898176D01*
G01X17427851Y-2892334D01*
G01X17439281Y-2880904D01*
G01X17445123Y-2863886D01*
G01X17445123Y-2852456D01*
G01X17439281Y-2835184D01*
G01X17427851Y-2823754D01*
G01X17416421Y-2818166D01*
G01X17399403Y-2818166D01*
G01X17492875Y-2818166D02*
G01X17492875Y-2938054D01*
G01X17492875Y-2835184D02*
G01X17504305Y-2823754D01*
G01X17515735Y-2818166D01*
G01X17533007Y-2818166D01*
G01X17544437Y-2823754D01*
G01X17555867Y-2835184D01*
G01X17561455Y-2852456D01*
G01X17561455Y-2863886D01*
G01X17555867Y-2880904D01*
G01X17544437Y-2892334D01*
G01X17533007Y-2898176D01*
G01X17515735Y-2898176D01*
G01X17504305Y-2892334D01*
G01X17492875Y-2880904D01*
G01X17737223Y-2778034D02*
G01X17737223Y-2898176D01*
G01X17737223Y-2898176D02*
G01X17805803Y-2898176D01*
G01X17922135Y-2818166D02*
G01X17922135Y-2898176D01*
G01X17922135Y-2835184D02*
G01X17910705Y-2823754D01*
G01X17899275Y-2818166D01*
G01X17882257Y-2818166D01*
G01X17870827Y-2823754D01*
G01X17859397Y-2835184D01*
G01X17853555Y-2852456D01*
G01X17853555Y-2863886D01*
G01X17859397Y-2880904D01*
G01X17870827Y-2892334D01*
G01X17882257Y-2898176D01*
G01X17899275Y-2898176D01*
G01X17910705Y-2892334D01*
G01X17922135Y-2880904D01*
G01X17975729Y-2818166D02*
G01X18010019Y-2898176D01*
G01X18044309Y-2818166D02*
G01X18010019Y-2898176D01*
G01X17998589Y-2921036D01*
G01X17987159Y-2932466D01*
G01X17975729Y-2938054D01*
G01X17969887Y-2938054D01*
G01X18092061Y-2852456D02*
G01X18160641Y-2852456D01*
G01X18160641Y-2841026D01*
G01X18155053Y-2829596D01*
G01X18149211Y-2823754D01*
G01X18137781Y-2818166D01*
G01X18120763Y-2818166D01*
G01X18109333Y-2823754D01*
G01X18097903Y-2835184D01*
G01X18092061Y-2852456D01*
G01X18092061Y-2863886D01*
G01X18097903Y-2880904D01*
G01X18109333Y-2892334D01*
G01X18120763Y-2898176D01*
G01X18137781Y-2898176D01*
G01X18149211Y-2892334D01*
G01X18160641Y-2880904D01*
G01X18208393Y-2818166D02*
G01X18208393Y-2898176D01*
G01X18208393Y-2852456D02*
G01X18214235Y-2835184D01*
G01X18225665Y-2823754D01*
G01X18237095Y-2818166D01*
G01X18254113Y-2818166D01*
G01X18301865Y-2846614D02*
G01X18404735Y-2846614D01*
G01X18452487Y-2778034D02*
G01X18452487Y-2898176D01*
G01X18452487Y-2778034D02*
G01X18504049Y-2778034D01*
G01X18521067Y-2783876D01*
G01X18526909Y-2789464D01*
G01X18532497Y-2800894D01*
G01X18532497Y-2812324D01*
G01X18526909Y-2823754D01*
G01X18521067Y-2829596D01*
G01X18504049Y-2835184D01*
G01X18452487Y-2835184D02*
G01X18504049Y-2835184D01*
G01X18521067Y-2841026D01*
G01X18526909Y-2846614D01*
G01X18532497Y-2858044D01*
G01X18532497Y-2875316D01*
G01X18526909Y-2886746D01*
G01X18521067Y-2892334D01*
G01X18504049Y-2898176D01*
G01X18452487Y-2898176D01*
G01X18608951Y-2818166D02*
G01X18597521Y-2823754D01*
G01X18586091Y-2835184D01*
G01X18580249Y-2852456D01*
G01X18580249Y-2863886D01*
G01X18586091Y-2880904D01*
G01X18597521Y-2892334D01*
G01X18608951Y-2898176D01*
G01X18625969Y-2898176D01*
G01X18637399Y-2892334D01*
G01X18648829Y-2880904D01*
G01X18654671Y-2863886D01*
G01X18654671Y-2852456D01*
G01X18648829Y-2835184D01*
G01X18637399Y-2823754D01*
G01X18625969Y-2818166D01*
G01X18608951Y-2818166D01*
G01X18719695Y-2778034D02*
G01X18719695Y-2875316D01*
G01X18725283Y-2892334D01*
G01X18736713Y-2898176D01*
G01X18748143Y-2898176D01*
G01X18702423Y-2818166D02*
G01X18742555Y-2818166D01*
G01X18813167Y-2778034D02*
G01X18813167Y-2875316D01*
G01X18818755Y-2892334D01*
G01X18830185Y-2898176D01*
G01X18841615Y-2898176D01*
G01X18795895Y-2818166D02*
G01X18836027Y-2818166D01*
G01X18918069Y-2818166D02*
G01X18906639Y-2823754D01*
G01X18895209Y-2835184D01*
G01X18889367Y-2852456D01*
G01X18889367Y-2863886D01*
G01X18895209Y-2880904D01*
G01X18906639Y-2892334D01*
G01X18918069Y-2898176D01*
G01X18935087Y-2898176D01*
G01X18946517Y-2892334D01*
G01X18957947Y-2880904D01*
G01X18963789Y-2863886D01*
G01X18963789Y-2852456D01*
G01X18957947Y-2835184D01*
G01X18946517Y-2823754D01*
G01X18935087Y-2818166D01*
G01X18918069Y-2818166D01*
G01X19011541Y-2818166D02*
G01X19011541Y-2898176D01*
G01X19011541Y-2841026D02*
G01X19028813Y-2823754D01*
G01X19040243Y-2818166D01*
G01X19057261Y-2818166D01*
G01X19068691Y-2823754D01*
G01X19074533Y-2841026D01*
G01X19074533Y-2898176D01*
G01X19074533Y-2841026D02*
G01X19091551Y-2823754D01*
G01X19102981Y-2818166D01*
G01X19120253Y-2818166D01*
G01X19131683Y-2823754D01*
G01X19137271Y-2841026D01*
G01X19137271Y-2898176D01*
G01X19313039Y-2778034D02*
G01X19313039Y-2898176D01*
G01X19313039Y-2898176D02*
G01X19381619Y-2898176D01*
G01X19497951Y-2818166D02*
G01X19497951Y-2898176D01*
G01X19497951Y-2835184D02*
G01X19486521Y-2823754D01*
G01X19475091Y-2818166D01*
G01X19458073Y-2818166D01*
G01X19446643Y-2823754D01*
G01X19435213Y-2835184D01*
G01X19429371Y-2852456D01*
G01X19429371Y-2863886D01*
G01X19435213Y-2880904D01*
G01X19446643Y-2892334D01*
G01X19458073Y-2898176D01*
G01X19475091Y-2898176D01*
G01X19486521Y-2892334D01*
G01X19497951Y-2880904D01*
G01X19551545Y-2818166D02*
G01X19585835Y-2898176D01*
G01X19620125Y-2818166D02*
G01X19585835Y-2898176D01*
G01X19574405Y-2921036D01*
G01X19562975Y-2932466D01*
G01X19551545Y-2938054D01*
G01X19545703Y-2938054D01*
G01X19667877Y-2852456D02*
G01X19736457Y-2852456D01*
G01X19736457Y-2841026D01*
G01X19730869Y-2829596D01*
G01X19725027Y-2823754D01*
G01X19713597Y-2818166D01*
G01X19696579Y-2818166D01*
G01X19685149Y-2823754D01*
G01X19673719Y-2835184D01*
G01X19667877Y-2852456D01*
G01X19667877Y-2863886D01*
G01X19673719Y-2880904D01*
G01X19685149Y-2892334D01*
G01X19696579Y-2898176D01*
G01X19713597Y-2898176D01*
G01X19725027Y-2892334D01*
G01X19736457Y-2880904D01*
G01X19784209Y-2818166D02*
G01X19784209Y-2898176D01*
G01X19784209Y-2852456D02*
G01X19790051Y-2835184D01*
G01X19801481Y-2823754D01*
G01X19812911Y-2818166D01*
G01X19829929Y-2818166D01*

G04 Image Start*
G36*
G01X4289063Y-1797504D02*
G01X4183449Y-1786023D01*
G01X4140574Y-1883229D01*
G01X4097699Y-1786023D01*
G01X3992086Y-1797504D01*
G01X4054849Y-1711779D01*
G01X4015127Y-1657524D01*
G01X4046620Y-1657524D01*
G01X4086320Y-1711779D01*
G01X4046620Y-1766033D01*
G01X4113447Y-1758769D01*
G01X4113447Y-1758769D01*
G01X4140574Y-1820262D01*
G01X4167701Y-1758769D01*
G01X4234529Y-1766033D01*
G01X4194829Y-1711779D01*
G01X4234503Y-1657550D01*
G01X4167676Y-1664814D01*
G01X4140574Y-1603295D01*
G01X4113447Y-1664789D01*
G01X4046620Y-1657524D01*
G01X4015127Y-1657524D01*
G01X3992086Y-1626054D01*
G01X4097724Y-1637534D01*
G01X4140574Y-1540329D01*
G01X4183449Y-1637534D01*
G01X4289063Y-1626054D01*
G01X4226299Y-1711779D01*
G01X4289063Y-1797504D01*
G37*
G36*
G01X4160069Y-683199D02*
G01X4152329Y-683787D01*
G01X4144486Y-683986D01*
G01X4136643Y-683787D01*
G01X4128902Y-683199D01*
G01X4121275Y-682230D01*
G01X4113770Y-680890D01*
G01X4099164Y-677135D01*
G01X4085162Y-672010D01*
G01X4071840Y-665593D01*
G01X4059274Y-657960D01*
G01X4047542Y-649187D01*
G01X4036720Y-639352D01*
G01X4026884Y-628529D01*
G01X4018111Y-616797D01*
G01X4010478Y-604232D01*
G01X4004061Y-590910D01*
G01X3998937Y-576908D01*
G01X3995182Y-562302D01*
G01X3993842Y-554796D01*
G01X3992872Y-547169D01*
G01X3992284Y-539429D01*
G01X3992086Y-531586D01*
G01X4017486Y-531586D01*
G01X4018143Y-544552D01*
G01X4020070Y-557148D01*
G01X4023205Y-569310D01*
G01X4027482Y-580972D01*
G01X4032837Y-592072D01*
G01X4039205Y-602543D01*
G01X4046523Y-612323D01*
G01X4054725Y-621346D01*
G01X4063749Y-629549D01*
G01X4073528Y-636866D01*
G01X4084000Y-643235D01*
G01X4095099Y-648590D01*
G01X4106762Y-652866D01*
G01X4118923Y-656001D01*
G01X4118923Y-656001D01*
G01X4131519Y-657929D01*
G01X4144486Y-658586D01*
G01X4157452Y-657929D01*
G01X4170048Y-656001D01*
G01X4182210Y-652866D01*
G01X4193872Y-648590D01*
G01X4204972Y-643235D01*
G01X4215443Y-636866D01*
G01X4225223Y-629549D01*
G01X4234246Y-621346D01*
G01X4242449Y-612323D01*
G01X4249766Y-602543D01*
G01X4256135Y-592072D01*
G01X4261490Y-580972D01*
G01X4265766Y-569310D01*
G01X4268901Y-557148D01*
G01X4270829Y-544552D01*
G01X4271486Y-531586D01*
G01X4270829Y-518619D01*
G01X4268901Y-506023D01*
G01X4265766Y-493862D01*
G01X4261490Y-482199D01*
G01X4256135Y-471100D01*
G01X4249766Y-460628D01*
G01X4242449Y-450849D01*
G01X4234246Y-441825D01*
G01X4225223Y-433623D01*
G01X4215443Y-426305D01*
G01X4204972Y-419937D01*
G01X4193872Y-414582D01*
G01X4182210Y-410305D01*
G01X4170048Y-407171D01*
G01X4157452Y-405243D01*
G01X4144486Y-404586D01*
G01X4131519Y-405243D01*
G01X4118923Y-407171D01*
G01X4106762Y-410305D01*
G01X4095099Y-414582D01*
G01X4084000Y-419937D01*
G01X4073528Y-426305D01*
G01X4063749Y-433623D01*
G01X4054725Y-441825D01*
G01X4046523Y-450849D01*
G01X4039205Y-460628D01*
G01X4032837Y-471100D01*
G01X4027482Y-482199D01*
G01X4023205Y-493862D01*
G01X4020070Y-506023D01*
G01X4018143Y-518619D01*
G01X4017486Y-531586D01*
G01X3992086Y-531586D01*
G01X3992284Y-523743D01*
G01X3992872Y-516002D01*
G01X3993842Y-508375D01*
G01X3995182Y-500870D01*
G01X3998937Y-486264D01*
G01X4004061Y-472262D01*
G01X4010478Y-458940D01*
G01X4018111Y-446374D01*
G01X4026884Y-434642D01*
G01X4036720Y-423820D01*
G01X4047542Y-413984D01*
G01X4059274Y-405211D01*
G01X4071840Y-397578D01*
G01X4085162Y-391161D01*
G01X4099164Y-386037D01*
G01X4113770Y-382282D01*
G01X4121275Y-380942D01*
G01X4128902Y-379972D01*
G01X4136643Y-379384D01*
G01X4144486Y-379186D01*
G01X4152329Y-379384D01*
G01X4160069Y-379972D01*
G01X4167696Y-380942D01*
G01X4175202Y-382282D01*
G01X4189808Y-386037D01*
G01X4203810Y-391161D01*
G01X4217132Y-397578D01*
G01X4229697Y-405211D01*
G01X4241429Y-413984D01*
G01X4252252Y-423820D01*
G01X4262087Y-434642D01*
G01X4270860Y-446374D01*
G01X4278493Y-458940D01*
G01X4284910Y-472262D01*
G01X4290035Y-486264D01*
G01X4293790Y-500870D01*
G01X4295130Y-508375D01*
G01X4296099Y-516002D01*
G01X4296687Y-523743D01*
G01X4296886Y-531586D01*
G01X4296687Y-539429D01*
G01X4296099Y-547169D01*
G01X4295130Y-554796D01*
G01X4293790Y-562302D01*
G01X4290035Y-576908D01*
G01X4284910Y-590910D01*
G01X4278493Y-604232D01*
G01X4270860Y-616797D01*
G01X4262087Y-628529D01*
G01X4252252Y-639352D01*
G01X4241429Y-649187D01*
G01X4229697Y-657960D01*
G01X4217132Y-665593D01*
G01X4203810Y-672010D01*
G01X4189808Y-677135D01*
G01X4175202Y-680890D01*
G01X4167696Y-682230D01*
G01X4160069Y-683199D01*
G37*
G36*
G01X4296886Y-2923137D02*
G01X4213777Y-2923137D01*
G01X4213777Y-3006271D01*
G01X4075220Y-3006271D01*
G01X4075220Y-2923163D01*
G01X3992086Y-2923163D01*
G01X3992086Y-2810006D01*
G01X4017486Y-2810006D01*
G01X4017486Y-2897737D01*
G01X4100620Y-2897737D01*
G01X4100620Y-2980871D01*
G01X4100620Y-2980871D01*
G01X4188352Y-2980871D01*
G01X4188352Y-2897763D01*
G01X4271486Y-2897763D01*
G01X4271486Y-2810006D01*
G01X4188352Y-2810006D01*
G01X4188352Y-2726871D01*
G01X4100620Y-2726871D01*
G01X4100620Y-2810006D01*
G01X4017486Y-2810006D01*
G01X3992086Y-2810006D01*
G01X3992086Y-2784606D01*
G01X4075220Y-2784606D01*
G01X4075220Y-2701471D01*
G01X4213752Y-2701471D01*
G01X4213752Y-2784606D01*
G01X4296886Y-2784606D01*
G01X4296886Y-2923137D01*
G37*
G36*
G01X4296886Y-2120900D02*
G01X4226858Y-2273300D01*
G01X4296886Y-2425700D01*
G01X4144486Y-2355672D01*
G01X3992086Y-2425700D01*
G01X4015848Y-2373986D01*
G01X4043800Y-2373986D01*
G01X4133869Y-2332584D01*
G01X4144486Y-2327707D01*
G01X4155103Y-2332584D01*
G01X4245171Y-2373986D01*
G01X4203769Y-2283917D01*
G01X4198893Y-2273300D01*
G01X4203769Y-2262683D01*
G01X4245171Y-2172614D01*
G01X4155103Y-2214016D01*
G01X4144486Y-2218893D01*
G01X4133869Y-2214016D01*
G01X4043800Y-2172614D01*
G01X4085202Y-2262683D01*
G01X4090079Y-2273300D01*
G01X4090079Y-2273300D01*
G01X4085202Y-2283917D01*
G01X4043800Y-2373986D01*
G01X4015848Y-2373986D01*
G01X4062114Y-2273300D01*
G01X3992086Y-2120900D01*
G01X4144486Y-2190928D01*
G01X4296886Y-2120900D01*
G37*
G36*
G01X3992086Y-959757D02*
G01X4296886Y-959757D01*
G01X4144486Y-1223714D01*
G01X4006751Y-985157D01*
G01X4036079Y-985157D01*
G01X4144486Y-1172914D01*
G01X4252893Y-985157D01*
G01X4252893Y-985157D01*
G01X4036079Y-985157D01*
G01X4006751Y-985157D01*
G01X3992086Y-959757D01*
G37*
G36*
G01X3992086Y201386D02*
G01X4271486Y201386D01*
G01X4271486Y-78014D01*
G01X3992086Y-78014D01*
G01X3992086Y175986D01*
G01X4017486Y175986D01*
G01X4017486Y-52614D01*
G01X4246086Y-52614D01*
G01X4246086Y175986D01*
G01X4246086Y175986D01*
G01X4017486Y175986D01*
G01X3992086Y175986D01*
G01X3992086Y201386D01*
G37*

G04 PolygonModel Start*
G54D17*
G01X3701800Y-3136900D02*
G01X20420661Y-3136900D01*
G01X3701800Y-2556329D02*
G01X20420661Y-2556329D01*
G01X3701800Y-1975757D02*
G01X20420661Y-1975757D01*
G01X3701800Y-1395186D02*
G01X20420661Y-1395186D01*
G01X3701800Y-814614D02*
G01X20420661Y-814614D01*
G01X3701800Y-234043D02*
G01X20420661Y-234043D01*
G01X3701800Y346529D02*
G01X20420661Y346529D01*
G01X3701800Y927100D02*
G01X20420661Y927100D01*
G01X3701800Y927100D02*
G01X3701800Y-3111500D01*
G01X5153229Y927100D02*
G01X5153229Y-3111500D01*
G01X6567392Y927100D02*
G01X6567392Y-3111500D01*
G01X10461357Y927100D02*
G01X10461357Y-3111500D01*
G01X11922764Y927100D02*
G01X11922764Y-3111500D01*
G01X13353945Y927100D02*
G01X13353945Y-3111500D01*
G01X15023124Y927100D02*
G01X15023124Y-3111500D01*
G01X16942493Y927100D02*
G01X16942493Y-3111500D01*
G01X20420661Y927100D02*
G01X20420661Y-3111500D01*

M02*

