G04 Layer: BottomPasteMaskLayer*
G04 EasyEDA Pro v3.2.149.88089769, 2026-08-12 00:03:06*
G04 Gerber Generator version 0.3*
G04 Scale: 100 percent, Rotated: No, Reflected: No*
G04 Dimensions in millimeters*
G04 Leading zeros omitted, absolute positions, 4 integers and 5 decimals*
G04 Generated by one-click*
G04 Object Configs: Pad,Via,Track,Text,Image,Dimension,BoardOutline,BoardCutout,CopperFilled,SolidRegion,FPCStiffener,Line,PlaneZone,ComponentProperty,ComponentSilkscreen,TearDrop*
G04 Layer Configs: 1,15,16,2,3,4,5,6,7,8,9,10,11,13,14,56*
G04 Copper Areas: 0*
%FSLAX45Y45*%
%MOMM*%
%ADD10R,1.1X0.6*%
%ADD11R,0.505X0.28001*%
%ADD12R,0.9X1.65001*%
%ADD13R,0.28001X0.4*%
%ADD14R,1.6X1.2*%
%ADD15R,0.5X0.54*%
%ADD16R,1.04501X0.532*%
%ADD17R,1.0058X0.8*%
%ADD18R,1.0X0.8*%
%ADD19R,1.0X0.75001*%
%ADD20R,1.07X0.532*%
%ADD21R,0.7X1.25001*%
G75*


G04 PolygonModel Start*
G36*
G01X-1105700Y-281200D02*
G01X-1109701Y-285200D01*
G01X-1159764Y-285200D01*
G01X-1163764Y-281200D01*
G01X-1163764Y-235200D01*
G01X-1159764Y-231200D01*
G01X-1109701Y-231200D01*
G01X-1105700Y-235200D01*
G01X-1105700Y-281200D01*
G37*
G36*
G01X-1078700Y-281200D02*
G01X-1078700Y-235200D01*
G01X-1074699Y-231200D01*
G01X-1024636Y-231200D01*
G01X-1020635Y-235200D01*
G01X-1020635Y-281200D01*
G01X-1024636Y-285200D01*
G01X-1074699Y-285200D01*
G01X-1078700Y-281200D01*
G37*
G36*
G01X-1103498Y-167999D02*
G01X-1107498Y-172000D01*
G01X-1157562Y-172000D01*
G01X-1161562Y-167999D01*
G01X-1161562Y-122000D01*
G01X-1157562Y-118000D01*
G01X-1107498Y-118000D01*
G01X-1103498Y-122000D01*
G01X-1103498Y-167999D01*
G37*
G36*
G01X-1076498Y-167999D02*
G01X-1076498Y-122000D01*
G01X-1072497Y-118000D01*
G01X-1022434Y-118000D01*
G01X-1018433Y-122000D01*
G01X-1018433Y-167999D01*
G01X-1022434Y-172000D01*
G01X-1072497Y-172000D01*
G01X-1076498Y-167999D01*
G37*
G36*
G01X-411996Y-352497D02*
G01X-404998Y-347499D01*
G01X-356997Y-347499D01*
G01X-351996Y-352497D01*
G01X-351996Y-397499D01*
G01X-356997Y-402497D01*
G01X-404998Y-402497D01*
G01X-411996Y-397499D01*
G01X-411996Y-352497D01*
G37*
G36*
G01X-507997Y-352497D02*
G01X-502996Y-347499D01*
G01X-454998Y-347499D01*
G01X-447998Y-352497D01*
G01X-447998Y-397499D01*
G01X-454998Y-402497D01*
G01X-502996Y-402497D01*
G01X-507997Y-397499D01*
G01X-507997Y-352497D01*
G37*
G36*
G01X-376996Y-122498D02*
G01X-369998Y-117499D01*
G01X-321997Y-117499D01*
G01X-316996Y-122498D01*
G01X-316996Y-167499D01*
G01X-321997Y-172498D01*
G01X-369998Y-172498D01*
G01X-376996Y-167499D01*
G01X-376996Y-122498D01*
G37*
G36*
G01X-472998Y-122498D02*
G01X-467996Y-117499D01*
G01X-419998Y-117499D01*
G01X-412998Y-122498D01*
G01X-412998Y-167499D01*
G01X-419998Y-172498D01*
G01X-467996Y-172498D01*
G01X-472998Y-167499D01*
G01X-472998Y-122498D01*
G37*
G36*
G01X18004Y251102D02*
G01X25001Y256101D01*
G01X73002Y256101D01*
G01X78003Y251102D01*
G01X78003Y206101D01*
G01X73002Y201102D01*
G01X25001Y201102D01*
G01X18004Y206101D01*
G01X18004Y251102D01*
G37*
G36*
G01X-77998Y251102D02*
G01X-72997Y256101D01*
G01X-24999Y256101D01*
G01X-17998Y251102D01*
G01X-17998Y206101D01*
G01X-24999Y201102D01*
G01X-72997Y201102D01*
G01X-77998Y206101D01*
G01X-77998Y251102D01*
G37*
G36*
G01X-1313497Y-372999D02*
G01X-1317498Y-376999D01*
G01X-1367561Y-376999D01*
G01X-1371562Y-372999D01*
G01X-1371562Y-327000D01*
G01X-1367561Y-322999D01*
G01X-1317498Y-322999D01*
G01X-1313497Y-327000D01*
G01X-1313497Y-372999D01*
G37*
G36*
G01X-1286497Y-372999D02*
G01X-1286497Y-327000D01*
G01X-1282497Y-322999D01*
G01X-1232433Y-322999D01*
G01X-1228433Y-327000D01*
G01X-1228433Y-372999D01*
G01X-1232433Y-376999D01*
G01X-1282497Y-376999D01*
G01X-1286497Y-372999D01*
G37*
G36*
G01X-381499Y-12000D02*
G01X-377499Y-8000D01*
G01X-327435Y-8000D01*
G01X-323435Y-12000D01*
G01X-323435Y-58000D01*
G01X-327435Y-62000D01*
G01X-377499Y-62000D01*
G01X-381499Y-58000D01*
G01X-381499Y-12000D01*
G37*
G36*
G01X-408499Y-12000D02*
G01X-408499Y-58000D01*
G01X-412500Y-62000D01*
G01X-462563Y-62000D01*
G01X-466564Y-58000D01*
G01X-466564Y-12000D01*
G01X-462563Y-8000D01*
G01X-412500Y-8000D01*
G01X-408499Y-12000D01*
G37*
G36*
G01X-1582196Y135204D02*
G01X-1575199Y140203D01*
G01X-1527198Y140203D01*
G01X-1522197Y135204D01*
G01X-1522197Y90203D01*
G01X-1527198Y85204D01*
G01X-1575199Y85204D01*
G01X-1582196Y90203D01*
G01X-1582196Y135204D01*
G37*
G36*
G01X-1678198Y135204D02*
G01X-1673197Y140203D01*
G01X-1625199Y140203D01*
G01X-1618198Y135204D01*
G01X-1618198Y90203D01*
G01X-1625199Y85204D01*
G01X-1673197Y85204D01*
G01X-1678198Y90203D01*
G01X-1678198Y135204D01*
G37*
G36*
G01X-1618204Y206098D02*
G01X-1625201Y201099D01*
G01X-1673202Y201099D01*
G01X-1678203Y206098D01*
G01X-1678203Y251099D01*
G01X-1673202Y256098D01*
G01X-1625201Y256098D01*
G01X-1618204Y251099D01*
G01X-1618204Y206098D01*
G37*
G36*
G01X-1522202Y206098D02*
G01X-1527203Y201099D01*
G01X-1575201Y201099D01*
G01X-1582202Y206098D01*
G01X-1582202Y251099D01*
G01X-1575201Y256098D01*
G01X-1527203Y256098D01*
G01X-1522202Y251099D01*
G01X-1522202Y206098D01*
G37*
G36*
G01X-1328196Y-2898D02*
G01X-1321199Y2101D01*
G01X-1273198Y2101D01*
G01X-1268197Y-2898D01*
G01X-1268197Y-47899D01*
G01X-1273198Y-52898D01*
G01X-1321199Y-52898D01*
G01X-1328196Y-47899D01*
G01X-1328196Y-2898D01*
G37*
G36*
G01X-1424198Y-2898D02*
G01X-1419197Y2101D01*
G01X-1371199Y2101D01*
G01X-1364198Y-2898D01*
G01X-1364198Y-47899D01*
G01X-1371199Y-52898D01*
G01X-1419197Y-52898D01*
G01X-1424198Y-47899D01*
G01X-1424198Y-2898D01*
G37*
G36*
G01X542898Y462504D02*
G01X537900Y469501D01*
G01X537900Y517502D01*
G01X542898Y522503D01*
G01X587900Y522503D01*
G01X592898Y517502D01*
G01X592898Y469501D01*
G01X587900Y462504D01*
G01X542898Y462504D01*
G37*
G36*
G01X542898Y366502D02*
G01X537900Y371503D01*
G01X537900Y419501D01*
G01X542898Y426502D01*
G01X587900Y426502D01*
G01X592898Y419501D01*
G01X592898Y371503D01*
G01X587900Y366502D01*
G01X542898Y366502D01*
G37*
G36*
G01X657198Y462504D02*
G01X652200Y469501D01*
G01X652200Y517502D01*
G01X657198Y522503D01*
G01X702200Y522503D01*
G01X707198Y517502D01*
G01X707198Y469501D01*
G01X702200Y462504D01*
G01X657198Y462504D01*
G37*
G36*
G01X657198Y366502D02*
G01X652200Y371503D01*
G01X652200Y419501D01*
G01X657198Y426502D01*
G01X702200Y426502D01*
G01X707198Y419501D01*
G01X707198Y371503D01*
G01X702200Y366502D01*
G01X657198Y366502D01*
G37*
G36*
G01X582501Y691995D02*
G01X587499Y684997D01*
G01X587499Y636996D01*
G01X582501Y631995D01*
G01X537500Y631995D01*
G01X532501Y636996D01*
G01X532501Y684997D01*
G01X537500Y691995D01*
G01X582501Y691995D01*
G37*
G36*
G01X582501Y787997D02*
G01X587499Y782996D01*
G01X587499Y734997D01*
G01X582501Y727997D01*
G01X537500Y727997D01*
G01X532501Y734997D01*
G01X532501Y782996D01*
G01X537500Y787997D01*
G01X582501Y787997D01*
G37*
G36*
G01X-1613700Y-49858D02*
G01X-1617701Y-53858D01*
G01X-1667764Y-53858D01*
G01X-1671764Y-49858D01*
G01X-1671764Y-3858D01*
G01X-1667764Y142D01*
G01X-1617701Y142D01*
G01X-1613700Y-3858D01*
G01X-1613700Y-49858D01*
G37*
G36*
G01X-1586700Y-49858D02*
G01X-1586700Y-3858D01*
G01X-1582699Y142D01*
G01X-1532636Y142D01*
G01X-1528635Y-3858D01*
G01X-1528635Y-49858D01*
G01X-1532636Y-53858D01*
G01X-1582699Y-53858D01*
G01X-1586700Y-49858D01*
G37*
G36*
G01X-1105700Y-454800D02*
G01X-1109701Y-458800D01*
G01X-1159764Y-458800D01*
G01X-1163764Y-454800D01*
G01X-1163764Y-408800D01*
G01X-1159764Y-404800D01*
G01X-1109701Y-404800D01*
G01X-1105700Y-408800D01*
G01X-1105700Y-454800D01*
G37*
G36*
G01X-1078700Y-454800D02*
G01X-1078700Y-408800D01*
G01X-1074699Y-404800D01*
G01X-1024636Y-404800D01*
G01X-1020635Y-408800D01*
G01X-1020635Y-454800D01*
G01X-1024636Y-458800D01*
G01X-1074699Y-458800D01*
G01X-1078700Y-454800D01*
G37*
G36*
G01X988498Y-746999D02*
G01X992499Y-742998D01*
G01X1042562Y-742998D01*
G01X1046563Y-746999D01*
G01X1046563Y-792998D01*
G01X1042562Y-796999D01*
G01X992499Y-796999D01*
G01X988498Y-792998D01*
G01X988498Y-746999D01*
G37*
G36*
G01X961498Y-746999D02*
G01X961498Y-792998D01*
G01X957497Y-796999D01*
G01X907434Y-796999D01*
G01X903434Y-792998D01*
G01X903434Y-746999D01*
G01X907434Y-742998D01*
G01X957497Y-742998D01*
G01X961498Y-746999D01*
G37*
G36*
G01X-46500Y-806999D02*
G01X-42499Y-802998D01*
G01X7564Y-802998D01*
G01X11565Y-806999D01*
G01X11565Y-852998D01*
G01X7564Y-856999D01*
G01X-42499Y-856999D01*
G01X-46500Y-852998D01*
G01X-46500Y-806999D01*
G37*
G36*
G01X-73500Y-806999D02*
G01X-73500Y-852998D01*
G01X-77500Y-856999D01*
G01X-127564Y-856999D01*
G01X-131564Y-852998D01*
G01X-131564Y-806999D01*
G01X-127564Y-802998D01*
G01X-77500Y-802998D01*
G01X-73500Y-806999D01*
G37*
G36*
G01X-73500Y-662998D02*
G01X-77500Y-666999D01*
G01X-127564Y-666999D01*
G01X-131564Y-662998D01*
G01X-131564Y-616999D01*
G01X-127564Y-612999D01*
G01X-77500Y-612999D01*
G01X-73500Y-616999D01*
G01X-73500Y-662998D01*
G37*
G36*
G01X-46500Y-662998D02*
G01X-46500Y-616999D01*
G01X-42499Y-612999D01*
G01X7564Y-612999D01*
G01X11565Y-616999D01*
G01X11565Y-662998D01*
G01X7564Y-666999D01*
G01X-42499Y-666999D01*
G01X-46500Y-662998D01*
G37*

G04 Pad Start*
G54D10*
G01X-589998Y-684995D03*
G01X-589998Y-589999D03*
G01X-589998Y-495003D03*
G01X-860000Y-495003D03*
G01X-860000Y-589999D03*
G01X-860000Y-684995D03*
G54D11*
G01X-720316Y-178455D03*
G01X-720316Y-228468D03*
G01X-720316Y-278455D03*
G01X-720316Y-328468D03*
G01X-905838Y-328468D03*
G01X-905838Y-278455D03*
G01X-905838Y-228468D03*
G01X-905838Y-178455D03*
G54D12*
G01X-813077Y-253462D03*
G54D13*
G01X-319668Y129921D03*
G01X-449665Y129921D03*
G01X-449665Y329921D03*
G01X-384666Y329921D03*
G01X-319668Y329921D03*
G54D14*
G01X-384692Y229921D03*
G54D13*
G01X-384692Y129921D03*
G54D15*
G01X-987986Y-664999D03*
G01X-1072010Y-664999D03*
G54D16*
G01X728657Y247396D03*
G01X728657Y152400D03*
G01X728657Y57404D03*
G01X499143Y57404D03*
G01X499143Y247396D03*
G54D18*
G01X434998Y-634997D03*
G01X665000Y-729993D03*
G01X434998Y-825000D03*
G54D19*
G01X1022257Y-619999D03*
G01X787739Y-619999D03*
G54D20*
G01X278500Y-634495D03*
G01X278500Y-825503D03*
G01X51500Y-729999D03*
G54D21*
G01X299996Y-319999D03*
G01X110004Y-319999D03*
G01X205000Y-120000D03*
G04 Pad End*

M02*

