G04 Layer: TopSilkscreenLayer*
G04 EasyEDA Pro v3.2.149.88089769, 2026-08-12 00:03:06*
G04 Gerber Generator version 0.3*
G04 Scale: 100 percent, Rotated: No, Reflected: No*
G04 Dimensions in millimeters*
G04 Leading zeros omitted, absolute positions, 4 integers and 5 decimals*
G04 Generated by one-click*
G04 Object Configs: Pad,Via,Track,Text,Image,Dimension,BoardOutline,BoardCutout,CopperFilled,SolidRegion,FPCStiffener,Line,PlaneZone,ComponentProperty,ComponentSilkscreen,TearDrop*
G04 Layer Configs: 1,15,16,2,3,4,5,6,7,8,9,10,11,13,14,56*
G04 Copper Areas: 0*
%FSLAX45Y45*%
%MOMM*%
%ADD10C,0.1524*%
%ADD11C,0.1*%
%ADD12C,0.254*%
%ADD13C,0.15199*%
%ADD14C,0.4*%
%ADD15C,0.6244*%
G75*


G04 Image Start*
G36*
G01X900302Y-862192D02*
G01X898217Y-862896D01*
G01X896132Y-863600D01*
G01X798920Y-863595D01*
G01X796240Y-862952D01*
G01X793559Y-862308D01*
G01X791046Y-861404D01*
G01X788533Y-860499D01*
G01X785855Y-859157D01*
G01X783177Y-857814D01*
G01X778480Y-854608D01*
G01X675549Y-751508D01*
G01X674626Y-749385D01*
G01X673702Y-747261D01*
G01X673439Y-745699D01*
G01X673175Y-744136D01*
G01X673100Y-742461D01*
G01X673416Y-740530D01*
G01X673733Y-738598D01*
G01X674641Y-736508D01*
G01X675549Y-734418D01*
G01X778480Y-631319D01*
G01X783177Y-628112D01*
G01X785954Y-626716D01*
G01X788732Y-625319D01*
G01X791764Y-624303D01*
G01X794796Y-623287D01*
G01X799817Y-622327D01*
G01X895857Y-622327D01*
G01X898038Y-623000D01*
G01X900219Y-623674D01*
G01X902256Y-625174D01*
G01X904293Y-626673D01*
G01X905303Y-628067D01*
G01X906312Y-629460D01*
G01X908158Y-633217D01*
G01X908245Y-705181D01*
G01X908333Y-777144D01*
G01X764239Y-777144D01*
G01X764239Y-708783D01*
G01X776282Y-708783D01*
G01X776376Y-734670D01*
G01X776470Y-760556D01*
G01X777044Y-761605D01*
G01X777618Y-762654D01*
G01X779705Y-764410D01*
G01X781496Y-764912D01*
G01X807297Y-764912D01*
G01X809089Y-764410D01*
G01X811175Y-762654D01*
G01X811749Y-761605D01*
G01X812324Y-760556D01*
G01X812417Y-734670D01*
G01X812511Y-708783D01*
G01X824535Y-708783D01*
G01X824628Y-734670D01*
G01X824722Y-760556D01*
G01X825871Y-762654D01*
G01X826914Y-763532D01*
G01X827957Y-764410D01*
G01X828852Y-764661D01*
G01X829748Y-764912D01*
G01X855550Y-764912D01*
G01X856445Y-764661D01*
G01X857341Y-764410D01*
G01X858384Y-763532D01*
G01X859427Y-762654D01*
G01X860576Y-760556D01*
G01X860670Y-734670D01*
G01X860763Y-708783D01*
G01X872806Y-708783D01*
G01X872822Y-758881D01*
G01X873127Y-760195D01*
G01X873432Y-761510D01*
G01X874711Y-763237D01*
G01X875819Y-763991D01*
G01X876927Y-764745D01*
G01X880749Y-764745D01*
G01X881880Y-763983D01*
G01X883011Y-763221D01*
G01X883751Y-762123D01*
G01X884490Y-761025D01*
G01X884699Y-759283D01*
G01X884909Y-757540D01*
G01X884805Y-729392D01*
G01X884702Y-701243D01*
G01X884128Y-700194D01*
G01X883553Y-699145D01*
G01X881538Y-697449D01*
G01X879837Y-697084D01*
G01X878135Y-696719D01*
G01X866675Y-696727D01*
G01X855215Y-696736D01*
G01X853713Y-697082D01*
G01X852212Y-697427D01*
G01X851116Y-698264D01*
G01X850020Y-699100D01*
G01X849434Y-700171D01*
G01X848848Y-701243D01*
G01X848661Y-753016D01*
G01X836641Y-753016D01*
G01X836450Y-701243D01*
G01X835875Y-700194D01*
G01X835301Y-699145D01*
G01X833286Y-697449D01*
G01X831584Y-697084D01*
G01X829883Y-696719D01*
G01X818423Y-696727D01*
G01X806962Y-696736D01*
G01X805461Y-697082D01*
G01X803960Y-697427D01*
G01X802864Y-698264D01*
G01X801768Y-699100D01*
G01X801182Y-700171D01*
G01X800596Y-701243D01*
G01X800502Y-727130D01*
G01X800408Y-753016D01*
G01X788389Y-753016D01*
G01X788198Y-701243D01*
G01X787623Y-700194D01*
G01X787049Y-699145D01*
G01X786041Y-698297D01*
G01X785034Y-697449D01*
G01X783332Y-697084D01*
G01X781631Y-696719D01*
G01X770170Y-696727D01*
G01X758710Y-696736D01*
G01X757209Y-697082D01*
G01X755708Y-697427D01*
G01X754612Y-698264D01*
G01X753516Y-699100D01*
G01X752930Y-700171D01*
G01X752344Y-701243D01*
G01X752344Y-784013D01*
G01X752595Y-784909D01*
G01X752846Y-785805D01*
G01X754601Y-787891D01*
G01X755651Y-788465D01*
G01X756700Y-789040D01*
G01X832521Y-789128D01*
G01X908342Y-789216D01*
G01X908158Y-852709D01*
G01X906315Y-856463D01*
G01X905304Y-857858D01*
G01X904293Y-859253D01*
G01X902297Y-860723D01*
G01X900302Y-862192D01*
G37*
G36*
G01X803347Y-148493D02*
G01X864429Y-148493D01*
G01X864429Y-172620D01*
G01X723024Y-172620D01*
G01X723024Y-148493D01*
G01X781889Y-148493D01*
G01X782111Y-127632D01*
G01X782333Y-106772D01*
G01X782333Y-96805D01*
G01X782334Y-86837D01*
G01X752762Y-86752D01*
G01X723191Y-86666D01*
G01X723103Y-74519D01*
G01X723015Y-62371D01*
G01X864438Y-62371D01*
G01X864350Y-74519D01*
G01X864262Y-86666D01*
G01X834020Y-86752D01*
G01X803779Y-86837D01*
G01X803774Y-143969D01*
G01X803561Y-146231D01*
G01X803347Y-148493D01*
G37*
G36*
G01X834664Y-419616D02*
G01X830549Y-420670D01*
G01X830207Y-420328D01*
G01X827356Y-409375D01*
G01X824505Y-398421D01*
G01X824686Y-397947D01*
G01X824868Y-397473D01*
G01X826460Y-397473D01*
G01X828288Y-396844D01*
G01X830115Y-396216D01*
G01X831464Y-395528D01*
G01X832812Y-394840D01*
G01X834669Y-393327D01*
G01X836526Y-391814D01*
G01X838241Y-389501D01*
G01X839955Y-387188D01*
G01X840951Y-385042D01*
G01X841947Y-382896D01*
G01X843583Y-377200D01*
G01X844322Y-371168D01*
G01X844324Y-366282D01*
G01X843972Y-363028D01*
G01X843620Y-359774D01*
G01X842566Y-355753D01*
G01X840003Y-350391D01*
G01X837039Y-346660D01*
G01X835218Y-345452D01*
G01X833398Y-344243D01*
G01X829078Y-342767D01*
G01X823382Y-342706D01*
G01X821539Y-343155D01*
G01X819696Y-343603D01*
G01X817758Y-344620D01*
G01X815821Y-345637D01*
G01X813905Y-347688D01*
G01X811989Y-349739D01*
G01X810879Y-351826D01*
G01X809770Y-353913D01*
G01X808146Y-358687D01*
G01X806442Y-365765D01*
G01X804737Y-372843D01*
G01X800775Y-388756D01*
G01X799636Y-391705D01*
G01X798497Y-394655D01*
G01X797437Y-396754D01*
G01X796378Y-398852D01*
G01X793452Y-403418D01*
G01X791421Y-405777D01*
G01X789391Y-408137D01*
G01X786448Y-410348D01*
G01X783506Y-412560D01*
G01X780993Y-413855D01*
G01X778480Y-415150D01*
G01X776340Y-415878D01*
G01X774199Y-416605D01*
G01X772065Y-417100D01*
G01X769931Y-417595D01*
G01X761568Y-418233D01*
G01X758071Y-417902D01*
G01X754573Y-417571D01*
G01X748137Y-415938D01*
G01X744968Y-414437D01*
G01X741799Y-412936D01*
G01X736823Y-409495D01*
G01X733625Y-406199D01*
G01X730427Y-402903D01*
G01X728705Y-400272D01*
G01X726984Y-397641D01*
G01X725517Y-394625D01*
G01X724049Y-391609D01*
G01X722875Y-387253D01*
G01X721701Y-382896D01*
G01X721222Y-379713D01*
G01X720744Y-376529D01*
G01X720684Y-365471D01*
G01X721020Y-362455D01*
G01X721357Y-359439D01*
G01X722418Y-354078D01*
G01X723550Y-350559D01*
G01X724681Y-347040D01*
G01X727551Y-341344D01*
G01X729225Y-338836D01*
G01X730898Y-336328D01*
G01X735904Y-331062D01*
G01X738427Y-329162D01*
G01X740951Y-327262D01*
G01X743679Y-325843D01*
G01X746406Y-324425D01*
G01X749398Y-323447D01*
G01X752391Y-322470D01*
G01X753934Y-322238D01*
G01X755478Y-322007D01*
G01X756141Y-324303D01*
G01X756804Y-326599D01*
G01X759181Y-335359D01*
G01X761558Y-344118D01*
G01X761558Y-344736D01*
G01X759836Y-345177D01*
G01X758113Y-345619D01*
G01X755396Y-346971D01*
G01X752679Y-348324D01*
G01X750166Y-350866D01*
G01X747652Y-353407D01*
G01X746525Y-355330D01*
G01X745397Y-357254D01*
G01X744449Y-360022D01*
G01X743500Y-362790D01*
G01X742704Y-368822D01*
G01X743104Y-376194D01*
G01X744469Y-381556D01*
G01X745696Y-384069D01*
G01X746924Y-386582D01*
G01X749299Y-388935D01*
G01X751673Y-391288D01*
G01X753626Y-392226D01*
G01X755578Y-393163D01*
G01X757814Y-393637D01*
G01X760051Y-394111D01*
G01X763066Y-394111D01*
G01X765373Y-393622D01*
G01X767680Y-393133D01*
G01X770661Y-391690D01*
G01X772639Y-389859D01*
G01X774616Y-388028D01*
G01X776887Y-384237D01*
G01X778620Y-379835D01*
G01X782146Y-365750D01*
G01X785672Y-351664D01*
G01X788079Y-344695D01*
G01X789674Y-341344D01*
G01X791268Y-337993D01*
G01X792798Y-335613D01*
G01X794328Y-333234D01*
G01X798731Y-328185D01*
G01X801841Y-325817D01*
G01X804952Y-323449D01*
G01X809978Y-321134D01*
G01X812156Y-320421D01*
G01X814334Y-319707D01*
G01X820031Y-318696D01*
G01X829413Y-318696D01*
G01X835442Y-319762D01*
G01X838459Y-320770D01*
G01X841476Y-321778D01*
G01X843989Y-323125D01*
G01X846502Y-324471D01*
G01X848927Y-326321D01*
G01X851351Y-328170D01*
G01X853860Y-330837D01*
G01X856368Y-333504D01*
G01X858268Y-336388D01*
G01X860167Y-339273D01*
G01X861436Y-341984D01*
G01X862705Y-344695D01*
G01X863548Y-347211D01*
G01X864392Y-349728D01*
G01X865744Y-355799D01*
G01X866775Y-363662D01*
G01X866775Y-373610D01*
G01X866424Y-377080D01*
G01X866073Y-380551D01*
G01X864752Y-387086D01*
G01X863575Y-390688D01*
G01X862399Y-394290D01*
G01X859336Y-400518D01*
G01X857404Y-403435D01*
G01X855473Y-406353D01*
G01X852830Y-409055D01*
G01X850188Y-411756D01*
G01X845497Y-415244D01*
G01X842138Y-416903D01*
G01X838778Y-418562D01*
G01X834664Y-419616D01*
G37*
G36*
G01X815842Y-271810D02*
G01X864429Y-271810D01*
G01X864429Y-296273D01*
G01X723024Y-296273D01*
G01X723026Y-271810D01*
G01X744758Y-271810D01*
G01X794397Y-271810D01*
G01X794394Y-241818D01*
G01X793927Y-238970D01*
G01X793460Y-236122D01*
G01X792589Y-233823D01*
G01X791718Y-231524D01*
G01X790163Y-229184D01*
G01X788608Y-226845D01*
G01X786452Y-225066D01*
G01X784296Y-223288D01*
G01X782384Y-222269D01*
G01X780473Y-221250D01*
G01X774459Y-219434D01*
G01X764072Y-219372D01*
G01X758838Y-220883D01*
G01X755685Y-222481D01*
G01X753608Y-224043D01*
G01X751531Y-225604D01*
G01X749844Y-227847D01*
G01X748158Y-230090D01*
G01X747126Y-232557D01*
G01X746094Y-235024D01*
G01X745030Y-239473D01*
G01X744894Y-255641D01*
G01X744758Y-271810D01*
G01X744758Y-271810D01*
G01X723026Y-271810D01*
G01X723030Y-239808D01*
G01X723695Y-230581D01*
G01X724383Y-227490D01*
G01X725072Y-224400D01*
G01X725890Y-221963D01*
G01X726708Y-219526D01*
G01X728346Y-216263D01*
G01X729983Y-213000D01*
G01X731904Y-210486D01*
G01X733825Y-207973D01*
G01X735731Y-206103D01*
G01X737638Y-204233D01*
G01X740132Y-202368D01*
G01X742626Y-200504D01*
G01X745763Y-198939D01*
G01X748899Y-197373D01*
G01X751962Y-196371D01*
G01X755024Y-195369D01*
G01X758710Y-194749D01*
G01X762396Y-194129D01*
G01X770438Y-193673D01*
G01X774436Y-194047D01*
G01X778434Y-194422D01*
G01X781347Y-195058D01*
G01X784260Y-195694D01*
G01X789538Y-197505D01*
G01X791884Y-198671D01*
G01X794229Y-199836D01*
G01X799926Y-203601D01*
G01X803129Y-206792D01*
G01X806333Y-209984D01*
G01X808240Y-212871D01*
G01X810148Y-215759D01*
G01X811277Y-218233D01*
G01X812407Y-220707D01*
G01X813118Y-222799D01*
G01X813829Y-224890D01*
G01X814475Y-227825D01*
G01X815120Y-230760D01*
G01X815481Y-234421D01*
G01X815842Y-238081D01*
G01X815842Y-271810D01*
G37*
G36*
G01X834356Y100578D02*
G01X864429Y100452D01*
G01X864429Y77366D01*
G01X768930Y77366D01*
G01X768930Y99068D01*
G01X776135Y99526D01*
G01X776708Y99691D01*
G01X777281Y99855D01*
G01X774941Y102063D01*
G01X772600Y104270D01*
G01X770965Y106716D01*
G01X769329Y109161D01*
G01X768326Y111778D01*
G01X767323Y114395D01*
G01X766799Y117076D01*
G01X766276Y119757D01*
G01X766015Y121767D01*
G01X765965Y126331D01*
G01X765915Y130895D01*
G01X766431Y133871D01*
G01X766947Y136847D01*
G01X768331Y141538D01*
G01X770956Y146900D01*
G01X774402Y151500D01*
G01X776609Y153332D01*
G01X778815Y155164D01*
G01X780903Y156393D01*
G01X782991Y157623D01*
G01X782976Y157958D01*
G01X781319Y158735D01*
G01X779662Y159512D01*
G01X777348Y161323D01*
G01X775034Y163134D01*
G01X773366Y165237D01*
G01X771698Y167341D01*
G01X770663Y169031D01*
G01X769628Y170722D01*
G01X767313Y176724D01*
G01X766752Y179405D01*
G01X766191Y182085D01*
G01X766008Y186777D01*
G01X765826Y191468D01*
G01X766219Y194411D01*
G01X766612Y197353D01*
G01X767435Y200192D01*
G01X768258Y203032D01*
G01X769583Y205716D01*
G01X770909Y208400D01*
G01X772493Y210460D01*
G01X774078Y212519D01*
G01X775844Y214285D01*
G01X777610Y216051D01*
G01X779553Y217369D01*
G01X781496Y218687D01*
G01X783506Y219692D01*
G01X785517Y220696D01*
G01X788206Y221583D01*
G01X790895Y222470D01*
G01X795905Y223590D01*
G01X830167Y223711D01*
G01X864429Y223832D01*
G01X864429Y201377D01*
G01X833015Y201268D01*
G01X801601Y201160D01*
G01X799836Y200615D01*
G01X798070Y200071D01*
G01X795878Y199045D01*
G01X793685Y198019D01*
G01X789300Y193814D01*
G01X788367Y191971D01*
G01X787435Y190128D01*
G01X786883Y188285D01*
G01X786330Y186442D01*
G01X786330Y182756D01*
G01X786329Y179070D01*
G01X786855Y177059D01*
G01X787380Y175048D01*
G01X788216Y173322D01*
G01X789052Y171596D01*
G01X790419Y169880D01*
G01X791786Y168163D01*
G01X795949Y165192D01*
G01X797527Y164515D01*
G01X799105Y163839D01*
G01X801023Y163256D01*
G01X802941Y162673D01*
G01X833602Y162494D01*
G01X864262Y162314D01*
G01X864438Y139733D01*
G01X802606Y139499D01*
G01X800045Y138782D01*
G01X797484Y138065D01*
G01X795354Y137005D01*
G01X793224Y135944D01*
G01X791270Y134050D01*
G01X789316Y132155D01*
G01X788376Y130312D01*
G01X787435Y128469D01*
G01X786886Y126626D01*
G01X786337Y124783D01*
G01X786330Y118081D01*
G01X786658Y116405D01*
G01X786985Y114730D01*
G01X787509Y113259D01*
G01X788034Y111788D01*
G01X788766Y110578D01*
G01X789499Y109368D01*
G01X790627Y107970D01*
G01X791755Y106571D01*
G01X793612Y105169D01*
G01X795469Y103767D01*
G01X797530Y102839D01*
G01X799591Y101910D01*
G01X804282Y100704D01*
G01X834356Y100578D01*
G37*
G36*
G01X841309Y-438356D02*
G01X864429Y-438356D01*
G01X864429Y-525817D01*
G01X723024Y-525817D01*
G01X723024Y-438356D01*
G01X746145Y-438356D01*
G01X746145Y-501690D01*
G01X782334Y-501690D01*
G01X782334Y-445058D01*
G01X803779Y-445058D01*
G01X803779Y-501690D01*
G01X841309Y-501690D01*
G01X841309Y-438356D01*
G37*
G36*
G01X830753Y-38601D02*
G01X826565Y-39300D01*
G01X822376Y-39998D01*
G01X809978Y-39990D01*
G01X806088Y-39298D01*
G01X802197Y-38606D01*
G01X798913Y-37555D01*
G01X795630Y-36503D01*
G01X793236Y-35412D01*
G01X790843Y-34321D01*
G01X787393Y-32083D01*
G01X783944Y-29844D01*
G01X780513Y-26506D01*
G01X777083Y-23168D01*
G01X775214Y-20569D01*
G01X773345Y-17970D01*
G01X770646Y-12944D01*
G01X768589Y-7582D01*
G01X766930Y-880D01*
G01X766634Y1801D01*
G01X766337Y4481D01*
G01X766268Y11519D01*
G01X787038Y11519D01*
G01X787073Y9173D01*
G01X787108Y6827D01*
G01X787356Y5144D01*
G01X787603Y3460D01*
G01X788757Y-510D01*
G01X789698Y-2371D01*
G01X790638Y-4231D01*
G01X792167Y-6305D01*
G01X793695Y-8380D01*
G01X795973Y-10268D01*
G01X798250Y-12157D01*
G01X801266Y-13623D01*
G01X804282Y-15089D01*
G01X809978Y-16629D01*
G01X809978Y-16629D01*
G01X822711Y-16629D01*
G01X825560Y-15861D01*
G01X828408Y-15094D01*
G01X830891Y-13926D01*
G01X833375Y-12758D01*
G01X835467Y-11265D01*
G01X837559Y-9772D01*
G01X839609Y-7504D01*
G01X841659Y-5236D01*
G01X843151Y-2221D01*
G01X844644Y795D01*
G01X845169Y3309D01*
G01X845695Y5822D01*
G01X845697Y9508D01*
G01X845699Y13194D01*
G01X845167Y15707D01*
G01X844634Y18221D01*
G01X843331Y20901D01*
G01X842027Y23582D01*
G01X840160Y25836D01*
G01X838292Y28089D01*
G01X835863Y29804D01*
G01X833434Y31518D01*
G01X829748Y33374D01*
G01X825392Y34777D01*
G01X823214Y35194D01*
G01X821036Y35612D01*
G01X811318Y35559D01*
G01X808638Y34987D01*
G01X805957Y34414D01*
G01X803374Y33419D01*
G01X800791Y32424D01*
G01X798322Y30812D01*
G01X795852Y29200D01*
G01X793899Y27163D01*
G01X791946Y25126D01*
G01X790480Y22679D01*
G01X789013Y20231D01*
G01X788342Y18064D01*
G01X787672Y15896D01*
G01X787355Y13707D01*
G01X787038Y11519D01*
G01X766268Y11519D01*
G01X766250Y13388D01*
G01X766597Y16642D01*
G01X766944Y19896D01*
G01X767766Y23247D01*
G01X768589Y26598D01*
G01X770646Y31960D01*
G01X773308Y36910D01*
G01X775625Y39993D01*
G01X777942Y43075D01*
G01X783975Y48817D01*
G01X786790Y50690D01*
G01X789605Y52563D01*
G01X792755Y54052D01*
G01X795905Y55540D01*
G01X798418Y56378D01*
G01X800931Y57217D01*
G01X804317Y57905D01*
G01X807703Y58593D01*
G01X812421Y58930D01*
G01X817139Y59268D01*
G01X821132Y58941D01*
G01X825125Y58615D01*
G01X828455Y57970D01*
G01X831785Y57324D01*
G01X834452Y56430D01*
G01X837120Y55535D01*
G01X839854Y54256D01*
G01X842587Y52976D01*
G01X847508Y49804D01*
G01X853149Y45029D01*
G01X855083Y42782D01*
G01X857017Y40535D01*
G01X858668Y38088D01*
G01X860319Y35641D01*
G01X861704Y32887D01*
G01X863088Y30133D01*
G01X864723Y25258D01*
G01X865417Y22077D01*
G01X866110Y18896D01*
G01X866479Y15040D01*
G01X866848Y11183D01*
G01X866419Y2230D01*
G01X865055Y-4842D01*
G01X864226Y-7463D01*
G01X863398Y-10085D01*
G01X860699Y-15960D01*
G01X856433Y-22327D01*
G01X854401Y-24557D01*
G01X852370Y-26787D01*
G01X849717Y-28983D01*
G01X847064Y-31178D01*
G01X845275Y-32321D01*
G01X843487Y-33463D01*
G01X837861Y-36290D01*
G01X834307Y-37445D01*
G01X830753Y-38601D01*
G37*
G36*
G01X820366Y241578D02*
G01X812800Y241566D01*
G01X809546Y241919D01*
G01X806292Y242272D01*
G01X799223Y243845D01*
G01X795603Y245209D01*
G01X791984Y246573D01*
G01X789253Y248132D01*
G01X786522Y249691D01*
G01X784143Y251463D01*
G01X781763Y253235D01*
G01X779116Y255891D01*
G01X776470Y258547D01*
G01X774584Y261199D01*
G01X772698Y263850D01*
G01X770377Y268207D01*
G01X768331Y273568D01*
G01X766927Y279265D01*
G01X766611Y281611D01*
G01X766294Y283956D01*
G01X766394Y290442D01*
G01X785349Y290442D01*
G01X785389Y288372D01*
G01X785428Y286302D01*
G01X786010Y282616D01*
G01X786788Y279600D01*
G01X787944Y277255D01*
G01X789100Y274910D01*
G01X790215Y273401D01*
G01X791329Y271893D01*
G01X792612Y270679D01*
G01X793894Y269466D01*
G01X797580Y267022D01*
G01X800179Y266018D01*
G01X802779Y265013D01*
G01X805144Y264515D01*
G01X807509Y264018D01*
G01X807509Y264018D01*
G01X808805Y264018D01*
G01X808805Y312966D01*
G01X805287Y312541D01*
G01X800931Y311601D01*
G01X798753Y310704D01*
G01X796575Y309808D01*
G01X794899Y308733D01*
G01X793224Y307659D01*
G01X789809Y304063D01*
G01X788743Y302284D01*
G01X787677Y300505D01*
G01X786873Y298095D01*
G01X786069Y295685D01*
G01X785709Y293064D01*
G01X785349Y290442D01*
G01X766394Y290442D01*
G01X766506Y297696D01*
G01X767063Y300470D01*
G01X767620Y303245D01*
G01X768780Y306579D01*
G01X769940Y309912D01*
G01X771172Y312181D01*
G01X772404Y314451D01*
G01X774879Y318137D01*
G01X779387Y323163D01*
G01X781279Y324774D01*
G01X783171Y326385D01*
G01X785517Y327940D01*
G01X787863Y329495D01*
G01X793711Y332386D01*
G01X796732Y333398D01*
G01X799752Y334410D01*
G01X805957Y335697D01*
G01X809427Y336048D01*
G01X812897Y336400D01*
G01X825224Y336400D01*
G01X825224Y263683D01*
G01X827081Y263683D01*
G01X832094Y265061D01*
G01X837120Y267515D01*
G01X839844Y270226D01*
G01X842569Y272938D01*
G01X843952Y275836D01*
G01X845336Y278735D01*
G01X846612Y284292D01*
G01X846827Y287312D01*
G01X847043Y290333D01*
G01X846034Y297078D01*
G01X845015Y299872D01*
G01X843995Y302666D01*
G01X842602Y304804D01*
G01X841209Y306943D01*
G01X839122Y308854D01*
G01X837034Y310765D01*
G01X834917Y312015D01*
G01X832799Y313266D01*
G01X832525Y313357D01*
G01X832251Y313449D01*
G01X835979Y322830D01*
G01X839706Y332211D01*
G01X839963Y332488D01*
G01X840220Y332764D01*
G01X842691Y331520D01*
G01X845162Y330275D01*
G01X850188Y326919D01*
G01X853549Y323533D01*
G01X856910Y320147D01*
G01X858799Y317260D01*
G01X860689Y314373D01*
G01X861769Y312233D01*
G01X862849Y310094D01*
G01X864709Y304726D01*
G01X865385Y302049D01*
G01X866061Y299371D01*
G01X866462Y295864D01*
G01X866862Y292357D01*
G01X866674Y286649D01*
G01X866486Y280940D01*
G01X865148Y274723D01*
G01X864408Y272470D01*
G01X863668Y270217D01*
G01X862517Y267771D01*
G01X861367Y265324D01*
G01X859071Y261890D01*
G01X856775Y258457D01*
G01X853305Y255122D01*
G01X849836Y251787D01*
G01X847499Y250213D01*
G01X845162Y248640D01*
G01X842149Y247104D01*
G01X839136Y245568D01*
G01X832094Y243306D01*
G01X826732Y242237D01*
G01X823549Y241908D01*
G01X820366Y241578D01*
G37*
G36*
G01X-944163Y-896997D02*
G01X-947970Y-897000D01*
G01X-949866Y-896883D01*
G01X-951762Y-896766D01*
G01X-953452Y-896602D01*
G01X-955142Y-896437D01*
G01X-959155Y-895891D01*
G01X-961109Y-895525D01*
G01X-963063Y-895160D01*
G01X-964911Y-894721D01*
G01X-966759Y-894281D01*
G01X-968291Y-893839D01*
G01X-969822Y-893397D01*
G01X-973096Y-892290D01*
G01X-976582Y-890923D01*
G01X-978342Y-890107D01*
G01X-980103Y-889292D01*
G01X-982813Y-887826D01*
G01X-985545Y-886201D01*
G01X-988305Y-884345D01*
G01X-989519Y-883424D01*
G01X-990734Y-882504D01*
G01X-993480Y-880171D01*
G01X-994660Y-879048D01*
G01X-995840Y-877925D01*
G01X-997037Y-876621D01*
G01X-998234Y-875317D01*
G01X-998931Y-874503D01*
G01X-999628Y-873688D01*
G01X-1001932Y-870646D01*
G01X-1002836Y-869288D01*
G01X-1003741Y-867930D01*
G01X-1004485Y-866681D01*
G01X-1005229Y-865432D01*
G01X-1005938Y-864098D01*
G01X-1006647Y-862765D01*
G01X-1008104Y-859627D01*
G01X-1008647Y-858293D01*
G01X-1009190Y-856958D01*
G01X-1009763Y-855329D01*
G01X-1010336Y-853700D01*
G01X-1011264Y-850549D01*
G01X-1011737Y-848594D01*
G01X-1012209Y-846638D01*
G01X-1012750Y-843814D01*
G01X-1013013Y-842022D01*
G01X-1013276Y-840229D01*
G01X-1013599Y-837187D01*
G01X-1013822Y-834363D01*
G01X-1013849Y-832733D01*
G01X-994215Y-832733D01*
G01X-994027Y-834634D01*
G01X-993838Y-836536D01*
G01X-993411Y-839577D01*
G01X-993097Y-841152D01*
G01X-992784Y-842728D01*
G01X-992414Y-844189D01*
G01X-992043Y-845650D01*
G01X-991613Y-847013D01*
G01X-991182Y-848377D01*
G01X-990614Y-849880D01*
G01X-990046Y-851384D01*
G01X-989211Y-853139D01*
G01X-988376Y-854894D01*
G01X-987827Y-855872D01*
G01X-987278Y-856850D01*
G01X-986485Y-858096D01*
G01X-985691Y-859342D01*
G01X-985052Y-860214D01*
G01X-984413Y-861087D01*
G01X-983443Y-862281D01*
G01X-982473Y-863476D01*
G01X-981006Y-864963D01*
G01X-979539Y-866449D01*
G01X-977955Y-867799D01*
G01X-976951Y-868579D01*
G01X-975948Y-869360D01*
G01X-973730Y-870877D01*
G01X-971301Y-872320D01*
G01X-967815Y-874046D01*
G01X-964858Y-875234D01*
G01X-962218Y-876118D01*
G01X-959894Y-876778D01*
G01X-957148Y-877428D01*
G01X-953452Y-878075D01*
G01X-952026Y-878241D01*
G01X-950600Y-878407D01*
G01X-950600Y-878407D01*
G01X-949174Y-878546D01*
G01X-947748Y-878685D01*
G01X-942996Y-878678D01*
G01X-938243Y-878671D01*
G01X-934335Y-878300D01*
G01X-933015Y-878132D01*
G01X-931695Y-877964D01*
G01X-930111Y-877694D01*
G01X-928526Y-877424D01*
G01X-927338Y-877160D01*
G01X-926149Y-876896D01*
G01X-923985Y-876338D01*
G01X-921556Y-875572D01*
G01X-919021Y-874630D01*
G01X-917806Y-874093D01*
G01X-916592Y-873556D01*
G01X-915694Y-873092D01*
G01X-914796Y-872628D01*
G01X-913951Y-872141D01*
G01X-913107Y-871654D01*
G01X-911100Y-870332D01*
G01X-909093Y-868815D01*
G01X-907086Y-867035D01*
G01X-905918Y-865799D01*
G01X-904750Y-864563D01*
G01X-903072Y-862390D01*
G01X-902468Y-861509D01*
G01X-901865Y-860628D01*
G01X-901178Y-859463D01*
G01X-900491Y-858298D01*
G01X-899760Y-856813D01*
G01X-899028Y-855329D01*
G01X-898437Y-853844D01*
G01X-897847Y-852358D01*
G01X-897330Y-850748D01*
G01X-896813Y-849137D01*
G01X-896381Y-847394D01*
G01X-895948Y-845652D01*
G01X-895523Y-843525D01*
G01X-895003Y-840120D01*
G01X-894841Y-838600D01*
G01X-894679Y-837079D01*
G01X-894463Y-834037D01*
G01X-894397Y-831321D01*
G01X-894332Y-828605D01*
G01X-894455Y-826324D01*
G01X-894578Y-824043D01*
G01X-894686Y-822956D01*
G01X-894794Y-821870D01*
G01X-895212Y-818937D01*
G01X-895374Y-818014D01*
G01X-895536Y-817090D01*
G01X-896169Y-814266D01*
G01X-896484Y-813125D01*
G01X-896800Y-811985D01*
G01X-897259Y-810627D01*
G01X-897718Y-809269D01*
G01X-898160Y-808128D01*
G01X-898603Y-806988D01*
G01X-900176Y-803625D01*
G01X-901126Y-801993D01*
G01X-902076Y-800361D01*
G01X-902748Y-799396D01*
G01X-903420Y-798432D01*
G01X-904302Y-797286D01*
G01X-905185Y-796141D01*
G01X-907085Y-794060D01*
G01X-908188Y-792991D01*
G01X-909292Y-791921D01*
G01X-910407Y-791000D01*
G01X-911522Y-790079D01*
G01X-912895Y-789124D01*
G01X-914268Y-788169D01*
G01X-916592Y-786754D01*
G01X-917776Y-786144D01*
G01X-918961Y-785534D01*
G01X-920417Y-784894D01*
G01X-921873Y-784254D01*
G01X-923231Y-783747D01*
G01X-924590Y-783241D01*
G01X-926064Y-782807D01*
G01X-927539Y-782373D01*
G01X-929036Y-782009D01*
G01X-930533Y-781645D01*
G01X-933596Y-781087D01*
G01X-936131Y-780749D01*
G01X-939405Y-780411D01*
G01X-943682Y-780378D01*
G01X-947960Y-780345D01*
G01X-949227Y-780420D01*
G01X-950864Y-780538D01*
G01X-952501Y-780655D01*
G01X-956303Y-781089D01*
G01X-957571Y-781304D01*
G01X-958838Y-781519D01*
G01X-960211Y-781796D01*
G01X-961584Y-782072D01*
G01X-963485Y-782565D01*
G01X-965386Y-783058D01*
G01X-966968Y-783599D01*
G01X-968549Y-784141D01*
G01X-969872Y-784682D01*
G01X-971195Y-785223D01*
G01X-974575Y-786937D01*
G01X-976898Y-788376D01*
G01X-978046Y-789205D01*
G01X-979194Y-790033D01*
G01X-980475Y-791137D01*
G01X-981757Y-792241D01*
G01X-982922Y-793476D01*
G01X-984087Y-794712D01*
G01X-985949Y-797102D01*
G01X-987685Y-799818D01*
G01X-988166Y-800687D01*
G01X-988648Y-801556D01*
G01X-989123Y-802534D01*
G01X-989599Y-803511D01*
G01X-990785Y-806372D01*
G01X-991358Y-808146D01*
G01X-991932Y-809921D01*
G01X-992681Y-812854D01*
G01X-993315Y-816113D01*
G01X-993576Y-818014D01*
G01X-993837Y-819915D01*
G01X-994024Y-822033D01*
G01X-994211Y-824151D01*
G01X-994213Y-828442D01*
G01X-994215Y-832733D01*
G01X-1013849Y-832733D01*
G01X-1013939Y-827302D01*
G01X-1013768Y-824532D01*
G01X-1013597Y-821762D01*
G01X-1013395Y-819969D01*
G01X-1013192Y-818177D01*
G01X-1012926Y-816439D01*
G01X-1012660Y-814700D01*
G01X-1012011Y-811574D01*
G01X-1011636Y-810041D01*
G01X-1011261Y-808508D01*
G01X-1010318Y-805329D01*
G01X-1009255Y-802325D01*
G01X-1008777Y-801125D01*
G01X-1008300Y-799926D01*
G01X-1007505Y-798188D01*
G01X-1006710Y-796450D01*
G01X-1005009Y-793300D01*
G01X-1003428Y-790693D01*
G01X-1002577Y-789443D01*
G01X-1001725Y-788194D01*
G01X-1000727Y-786890D01*
G01X-999729Y-785587D01*
G01X-998995Y-784718D01*
G01X-996015Y-781389D01*
G01X-994536Y-780003D01*
G01X-993058Y-778618D01*
G01X-990312Y-776344D01*
G01X-988094Y-774698D01*
G01X-985242Y-772792D01*
G01X-982179Y-771002D01*
G01X-980701Y-770243D01*
G01X-979222Y-769483D01*
G01X-975842Y-767965D01*
G01X-972618Y-766722D01*
G01X-969080Y-765564D01*
G01X-965914Y-764678D01*
G01X-964225Y-764288D01*
G01X-962535Y-763898D01*
G01X-959167Y-763264D01*
G01X-957260Y-762990D01*
G01X-955353Y-762717D01*
G01X-951128Y-762297D01*
G01X-948910Y-762178D01*
G01X-946692Y-762059D01*
G01X-945161Y-762036D01*
G01X-943629Y-762014D01*
G01X-941887Y-762042D01*
G01X-940144Y-762070D01*
G01X-935814Y-762296D01*
G01X-933749Y-762509D01*
G01X-931683Y-762721D01*
G01X-928104Y-763245D01*
G01X-925041Y-763821D01*
G01X-921345Y-764688D01*
G01X-919655Y-765174D01*
G01X-917965Y-765660D01*
G01X-916486Y-766161D01*
G01X-915008Y-766662D01*
G01X-913371Y-767305D01*
G01X-911734Y-767948D01*
G01X-910519Y-768494D01*
G01X-909304Y-769040D01*
G01X-907403Y-770022D01*
G01X-905502Y-771003D01*
G01X-902756Y-772645D01*
G01X-901278Y-773639D01*
G01X-899799Y-774633D01*
G01X-898479Y-775648D01*
G01X-897159Y-776664D01*
G01X-894835Y-778661D01*
G01X-893655Y-779788D01*
G01X-892476Y-780916D01*
G01X-890187Y-783414D01*
G01X-889492Y-784229D01*
G01X-888797Y-785044D01*
G01X-887842Y-786293D01*
G01X-886887Y-787542D01*
G01X-885883Y-789022D01*
G01X-884879Y-790502D01*
G01X-883893Y-792172D01*
G01X-882907Y-793843D01*
G01X-881738Y-796233D01*
G01X-880569Y-798623D01*
G01X-879916Y-800252D01*
G01X-879264Y-801882D01*
G01X-878288Y-804706D01*
G01X-877347Y-807857D01*
G01X-876528Y-811224D01*
G01X-876203Y-812908D01*
G01X-875879Y-814592D01*
G01X-875619Y-816330D01*
G01X-875360Y-818068D01*
G01X-875038Y-821218D01*
G01X-874825Y-824260D01*
G01X-874757Y-826922D01*
G01X-874689Y-829583D01*
G01X-874936Y-835123D01*
G01X-875148Y-837296D01*
G01X-875360Y-839469D01*
G01X-875620Y-841261D01*
G01X-875879Y-843054D01*
G01X-876149Y-844466D01*
G01X-876419Y-845878D01*
G01X-877260Y-849571D01*
G01X-877782Y-851371D01*
G01X-878304Y-853170D01*
G01X-878822Y-854686D01*
G01X-879341Y-856201D01*
G01X-879945Y-857720D01*
G01X-880550Y-859240D01*
G01X-881954Y-862281D01*
G01X-882683Y-863694D01*
G01X-883413Y-865106D01*
G01X-884252Y-866518D01*
G01X-885092Y-867930D01*
G01X-886898Y-870646D01*
G01X-887745Y-871787D01*
G01X-888593Y-872927D01*
G01X-889808Y-874394D01*
G01X-891023Y-875861D01*
G01X-892902Y-877785D01*
G01X-894781Y-879710D01*
G01X-897792Y-882288D01*
G01X-900327Y-884242D01*
G01X-901630Y-885138D01*
G01X-902933Y-886035D01*
G01X-904429Y-886933D01*
G01X-905925Y-887830D01*
G01X-907456Y-888653D01*
G01X-908988Y-889477D01*
G01X-910572Y-890205D01*
G01X-912156Y-890933D01*
G01X-915113Y-892125D01*
G01X-918176Y-893195D01*
G01X-921767Y-894259D01*
G01X-925886Y-895239D01*
G01X-927682Y-895566D01*
G01X-929477Y-895893D01*
G01X-932540Y-896338D01*
G01X-935603Y-896671D01*
G01X-937979Y-896832D01*
G01X-940355Y-896994D01*
G01X-944163Y-896997D01*
G37*
G36*
G01X-1283344Y-896998D02*
G01X-1290822Y-896998D01*
G01X-1294590Y-896764D01*
G01X-1299026Y-896326D01*
G01X-1302617Y-895790D01*
G01X-1306102Y-895127D01*
G01X-1307687Y-894752D01*
G01X-1309271Y-894376D01*
G01X-1312756Y-893386D01*
G01X-1315713Y-892400D01*
G01X-1317562Y-891666D01*
G01X-1319410Y-890932D01*
G01X-1322289Y-889617D01*
G01X-1323754Y-888862D01*
G01X-1325219Y-888106D01*
G01X-1328530Y-886137D01*
G01X-1329937Y-885176D01*
G01X-1331344Y-884215D01*
G01X-1333879Y-882286D01*
G01X-1336520Y-880028D01*
G01X-1338230Y-878349D01*
G01X-1339941Y-876670D01*
G01X-1342761Y-873362D01*
G01X-1343821Y-871950D01*
G01X-1344881Y-870538D01*
G01X-1345779Y-869180D01*
G01X-1346677Y-867822D01*
G01X-1348159Y-865323D01*
G01X-1348873Y-863976D01*
G01X-1349587Y-862628D01*
G01X-1350271Y-861151D01*
G01X-1350954Y-859674D01*
G01X-1352179Y-856633D01*
G01X-1353239Y-853591D01*
G01X-1354197Y-850332D01*
G01X-1354966Y-847182D01*
G01X-1355278Y-845606D01*
G01X-1355589Y-844031D01*
G01X-1355895Y-841913D01*
G01X-1356201Y-839795D01*
G01X-1356366Y-838111D01*
G01X-1356531Y-836427D01*
G01X-1356640Y-834722D01*
G01X-1356750Y-833017D01*
G01X-1356750Y-826041D01*
G01X-1356640Y-824336D01*
G01X-1356594Y-823608D01*
G01X-1337048Y-823608D01*
G01X-1337046Y-833385D01*
G01X-1336669Y-836861D01*
G01X-1336454Y-838328D01*
G01X-1336238Y-839795D01*
G01X-1335991Y-841044D01*
G01X-1335743Y-842293D01*
G01X-1335418Y-843660D01*
G01X-1335092Y-845027D01*
G01X-1334554Y-846756D01*
G01X-1334015Y-848485D01*
G01X-1333434Y-850006D01*
G01X-1332854Y-851527D01*
G01X-1332025Y-853265D01*
G01X-1331196Y-855003D01*
G01X-1329750Y-857502D01*
G01X-1329077Y-858534D01*
G01X-1328404Y-859566D01*
G01X-1327135Y-861304D01*
G01X-1326234Y-862390D01*
G01X-1325333Y-863476D01*
G01X-1324008Y-864835D01*
G01X-1322684Y-866193D01*
G01X-1320783Y-867835D01*
G01X-1318671Y-869468D01*
G01X-1317720Y-870119D01*
G01X-1316770Y-870771D01*
G01X-1314763Y-871967D01*
G01X-1313707Y-872542D01*
G01X-1312652Y-873116D01*
G01X-1311595Y-873604D01*
G01X-1310538Y-874092D01*
G01X-1309271Y-874607D01*
G01X-1308003Y-875123D01*
G01X-1305046Y-876121D01*
G01X-1302828Y-876766D01*
G01X-1301402Y-877095D01*
G01X-1299977Y-877423D01*
G01X-1297653Y-877859D01*
G01X-1296122Y-878080D01*
G01X-1294590Y-878300D01*
G01X-1294590Y-878300D01*
G01X-1292689Y-878489D01*
G01X-1290788Y-878679D01*
G01X-1286035Y-878678D01*
G01X-1281283Y-878678D01*
G01X-1277058Y-878289D01*
G01X-1275509Y-878085D01*
G01X-1273960Y-877880D01*
G01X-1272974Y-877709D01*
G01X-1271988Y-877538D01*
G01X-1268926Y-876885D01*
G01X-1266074Y-876112D01*
G01X-1264331Y-875516D01*
G01X-1262589Y-874920D01*
G01X-1261321Y-874374D01*
G01X-1260054Y-873827D01*
G01X-1258681Y-873142D01*
G01X-1257308Y-872457D01*
G01X-1255885Y-871573D01*
G01X-1254462Y-870689D01*
G01X-1252193Y-869003D01*
G01X-1250883Y-867848D01*
G01X-1249574Y-866694D01*
G01X-1247450Y-864346D01*
G01X-1246690Y-863368D01*
G01X-1245930Y-862390D01*
G01X-1244610Y-860435D01*
G01X-1243945Y-859295D01*
G01X-1243279Y-858156D01*
G01X-1241836Y-855177D01*
G01X-1241361Y-853986D01*
G01X-1240886Y-852794D01*
G01X-1240518Y-851726D01*
G01X-1240149Y-850658D01*
G01X-1239734Y-849230D01*
G01X-1239318Y-847802D01*
G01X-1238942Y-846134D01*
G01X-1238567Y-844466D01*
G01X-1238299Y-842891D01*
G01X-1238030Y-841315D01*
G01X-1237624Y-837839D01*
G01X-1237500Y-836373D01*
G01X-1237377Y-834906D01*
G01X-1237309Y-832208D01*
G01X-1237241Y-829510D01*
G01X-1237385Y-824695D01*
G01X-1237725Y-821327D01*
G01X-1237930Y-819936D01*
G01X-1238136Y-818544D01*
G01X-1238405Y-817166D01*
G01X-1238674Y-815787D01*
G01X-1239046Y-814325D01*
G01X-1239417Y-812864D01*
G01X-1239844Y-811501D01*
G01X-1240271Y-810138D01*
G01X-1240893Y-808508D01*
G01X-1241515Y-806879D01*
G01X-1242311Y-805207D01*
G01X-1243107Y-803536D01*
G01X-1243703Y-802491D01*
G01X-1244299Y-801447D01*
G01X-1245562Y-799492D01*
G01X-1246255Y-798514D01*
G01X-1246948Y-797536D01*
G01X-1247844Y-796450D01*
G01X-1248741Y-795364D01*
G01X-1250865Y-793115D01*
G01X-1253506Y-790782D01*
G01X-1255512Y-789256D01*
G01X-1256460Y-788627D01*
G01X-1257408Y-787998D01*
G01X-1258256Y-787490D01*
G01X-1259103Y-786981D01*
G01X-1261110Y-785882D01*
G01X-1262325Y-785319D01*
G01X-1263539Y-784755D01*
G01X-1264490Y-784372D01*
G01X-1265440Y-783989D01*
G01X-1266813Y-783508D01*
G01X-1268186Y-783027D01*
G01X-1270721Y-782290D01*
G01X-1272096Y-781963D01*
G01X-1273470Y-781637D01*
G01X-1276530Y-781089D01*
G01X-1277692Y-780926D01*
G01X-1278854Y-780762D01*
G01X-1281177Y-780533D01*
G01X-1282761Y-780428D01*
G01X-1284346Y-780322D01*
G01X-1287567Y-780340D01*
G01X-1290788Y-780359D01*
G01X-1292055Y-780420D01*
G01X-1295330Y-780655D01*
G01X-1299132Y-781088D01*
G01X-1300716Y-781351D01*
G01X-1302300Y-781614D01*
G01X-1304941Y-782169D01*
G01X-1306570Y-782605D01*
G01X-1308200Y-783041D01*
G01X-1311666Y-784232D01*
G01X-1314552Y-785446D01*
G01X-1317640Y-787054D01*
G01X-1319938Y-788485D01*
G01X-1322050Y-790027D01*
G01X-1324178Y-791819D01*
G01X-1325373Y-793048D01*
G01X-1326569Y-794277D01*
G01X-1328091Y-796124D01*
G01X-1328979Y-797396D01*
G01X-1329866Y-798667D01*
G01X-1330539Y-799820D01*
G01X-1331213Y-800974D01*
G01X-1331773Y-802080D01*
G01X-1332334Y-803185D01*
G01X-1333423Y-805793D01*
G01X-1333791Y-806825D01*
G01X-1334159Y-807857D01*
G01X-1334861Y-810138D01*
G01X-1335512Y-812745D01*
G01X-1335924Y-814700D01*
G01X-1336453Y-817851D01*
G01X-1336613Y-819209D01*
G01X-1336773Y-820567D01*
G01X-1337048Y-823608D01*
G01X-1356594Y-823608D01*
G01X-1356531Y-822631D01*
G01X-1356202Y-819263D01*
G01X-1355577Y-814990D01*
G01X-1354834Y-811333D01*
G01X-1354195Y-808726D01*
G01X-1353159Y-805249D01*
G01X-1352636Y-803766D01*
G01X-1352113Y-802282D01*
G01X-1351458Y-800670D01*
G01X-1350802Y-799057D01*
G01X-1350032Y-797462D01*
G01X-1349262Y-795867D01*
G01X-1348604Y-794638D01*
G01X-1347945Y-793408D01*
G01X-1347060Y-791956D01*
G01X-1346176Y-790503D01*
G01X-1344360Y-787873D01*
G01X-1342356Y-785285D01*
G01X-1341116Y-783861D01*
G01X-1339876Y-782437D01*
G01X-1337470Y-780046D01*
G01X-1336572Y-779225D01*
G01X-1335675Y-778403D01*
G01X-1333457Y-776551D01*
G01X-1330816Y-774592D01*
G01X-1329570Y-773760D01*
G01X-1328323Y-772929D01*
G01X-1326876Y-772075D01*
G01X-1325430Y-771220D01*
G01X-1323594Y-770275D01*
G01X-1321757Y-769330D01*
G01X-1319093Y-768129D01*
G01X-1317350Y-767449D01*
G01X-1315608Y-766768D01*
G01X-1314129Y-766267D01*
G01X-1312651Y-765767D01*
G01X-1309165Y-764776D01*
G01X-1305574Y-763933D01*
G01X-1303726Y-763588D01*
G01X-1301878Y-763242D01*
G01X-1300082Y-762981D01*
G01X-1298287Y-762719D01*
G01X-1293957Y-762297D01*
G01X-1291791Y-762178D01*
G01X-1289626Y-762058D01*
G01X-1288095Y-762036D01*
G01X-1286563Y-762014D01*
G01X-1282867Y-762071D01*
G01X-1280807Y-762183D01*
G01X-1278748Y-762296D01*
G01X-1274472Y-762722D01*
G01X-1270882Y-763260D01*
G01X-1267457Y-763919D01*
G01X-1265815Y-764310D01*
G01X-1264173Y-764701D01*
G01X-1261216Y-765556D01*
G01X-1259473Y-766134D01*
G01X-1257730Y-766712D01*
G01X-1256093Y-767365D01*
G01X-1254456Y-768017D01*
G01X-1253016Y-768675D01*
G01X-1251575Y-769333D01*
G01X-1250164Y-770059D01*
G01X-1248753Y-770786D01*
G01X-1245796Y-772531D01*
G01X-1244317Y-773524D01*
G01X-1242839Y-774517D01*
G01X-1241571Y-775480D01*
G01X-1240304Y-776443D01*
G01X-1237515Y-778809D01*
G01X-1235705Y-780617D01*
G01X-1233894Y-782424D01*
G01X-1232608Y-783951D01*
G01X-1231321Y-785478D01*
G01X-1230422Y-786673D01*
G01X-1229522Y-787868D01*
G01X-1228615Y-789226D01*
G01X-1227709Y-790584D01*
G01X-1227014Y-791743D01*
G01X-1226319Y-792901D01*
G01X-1225769Y-793915D01*
G01X-1225219Y-794929D01*
G01X-1224383Y-796659D01*
G01X-1223546Y-798388D01*
G01X-1222758Y-800333D01*
G01X-1221970Y-802278D01*
G01X-1221194Y-804687D01*
G01X-1220417Y-807096D01*
G01X-1219354Y-811441D01*
G01X-1218708Y-814809D01*
G01X-1218450Y-816601D01*
G01X-1218193Y-818394D01*
G01X-1217863Y-821762D01*
G01X-1217751Y-823500D01*
G01X-1217639Y-825238D01*
G01X-1217638Y-832128D01*
G01X-1217752Y-833952D01*
G01X-1217866Y-835775D01*
G01X-1218193Y-839143D01*
G01X-1218712Y-842836D01*
G01X-1219087Y-844792D01*
G01X-1219462Y-846747D01*
G01X-1220195Y-849789D01*
G01X-1221237Y-853374D01*
G01X-1222378Y-856633D01*
G01X-1222878Y-857882D01*
G01X-1223378Y-859131D01*
G01X-1224093Y-860707D01*
G01X-1224807Y-862282D01*
G01X-1225700Y-863966D01*
G01X-1226594Y-865649D01*
G01X-1228029Y-868039D01*
G01X-1229622Y-870429D01*
G01X-1231632Y-873145D01*
G01X-1233535Y-875426D01*
G01X-1234640Y-876621D01*
G01X-1235745Y-877816D01*
G01X-1236916Y-878944D01*
G01X-1238086Y-880072D01*
G01X-1240515Y-882174D01*
G01X-1243050Y-884134D01*
G01X-1244476Y-885113D01*
G01X-1245901Y-886092D01*
G01X-1247538Y-887074D01*
G01X-1249176Y-888056D01*
G01X-1250865Y-888930D01*
G01X-1252555Y-889803D01*
G01X-1253664Y-890309D01*
G01X-1254773Y-890815D01*
G01X-1255829Y-891254D01*
G01X-1256885Y-891694D01*
G01X-1258787Y-892390D01*
G01X-1260688Y-893087D01*
G01X-1262532Y-893635D01*
G01X-1264376Y-894182D01*
G01X-1266070Y-894601D01*
G01X-1267764Y-895019D01*
G01X-1269718Y-895405D01*
G01X-1271672Y-895791D01*
G01X-1273500Y-896064D01*
G01X-1275328Y-896337D01*
G01X-1279698Y-896767D01*
G01X-1281521Y-896883D01*
G01X-1283344Y-896998D01*
G37*
G36*
G01X-1599925Y-895130D02*
G01X-1600612Y-895251D01*
G01X-1601298Y-895373D01*
G01X-1606948Y-895338D01*
G01X-1612599Y-895304D01*
G01X-1613233Y-895044D01*
G01X-1613866Y-894785D01*
G01X-1614304Y-894478D01*
G01X-1614741Y-894171D01*
G01X-1615174Y-893665D01*
G01X-1615606Y-893160D01*
G01X-1615870Y-892586D01*
G01X-1616135Y-892011D01*
G01X-1616263Y-891242D01*
G01X-1616391Y-890472D01*
G01X-1616274Y-889739D01*
G01X-1616158Y-889005D01*
G01X-1613257Y-883139D01*
G01X-1602406Y-861521D01*
G01X-1591555Y-839903D01*
G01X-1588306Y-833424D01*
G01X-1567336Y-833424D01*
G01X-1566574Y-833157D01*
G01X-1565811Y-832889D01*
G01X-1564722Y-832562D01*
G01X-1563633Y-832234D01*
G01X-1562029Y-831801D01*
G01X-1560425Y-831368D01*
G01X-1557573Y-830727D01*
G01X-1556200Y-830462D01*
G01X-1554827Y-830198D01*
G01X-1553401Y-829975D01*
G01X-1551976Y-829753D01*
G01X-1549229Y-829424D01*
G01X-1547434Y-829263D01*
G01X-1545639Y-829102D01*
G01X-1542734Y-828984D01*
G01X-1539830Y-828866D01*
G01X-1537665Y-828931D01*
G01X-1535500Y-828996D01*
G01X-1531909Y-829211D01*
G01X-1529836Y-829430D01*
G01X-1527763Y-829649D01*
G01X-1526139Y-829902D01*
G01X-1524651Y-830323D01*
G01X-1524491Y-830126D01*
G01X-1534766Y-809721D01*
G01X-1544925Y-789424D01*
G01X-1545111Y-789251D01*
G01X-1555144Y-809194D01*
G01X-1565177Y-829136D01*
G01X-1566257Y-831280D01*
G01X-1566257Y-831280D01*
G01X-1567336Y-833424D01*
G01X-1588306Y-833424D01*
G01X-1555597Y-768206D01*
G01X-1555294Y-767653D01*
G01X-1554990Y-767101D01*
G01X-1553861Y-766003D01*
G01X-1552979Y-765540D01*
G01X-1552424Y-765386D01*
G01X-1551870Y-765233D01*
G01X-1537687Y-765218D01*
G01X-1537000Y-765437D01*
G01X-1536313Y-765655D01*
G01X-1535674Y-766094D01*
G01X-1535034Y-766533D01*
G01X-1534652Y-767068D01*
G01X-1534270Y-767603D01*
G01X-1515650Y-804731D01*
G01X-1497030Y-841859D01*
G01X-1492325Y-851228D01*
G01X-1487619Y-860598D01*
G01X-1487508Y-861337D01*
G01X-1487396Y-862077D01*
G01X-1487592Y-863316D01*
G01X-1487869Y-863951D01*
G01X-1488146Y-864585D01*
G01X-1488693Y-865139D01*
G01X-1489240Y-865693D01*
G01X-1489840Y-865974D01*
G01X-1490439Y-866255D01*
G01X-1491049Y-866357D01*
G01X-1491658Y-866459D01*
G01X-1492514Y-866336D01*
G01X-1493570Y-865996D01*
G01X-1494310Y-865484D01*
G01X-1495049Y-864973D01*
G01X-1497003Y-863727D01*
G01X-1498956Y-862482D01*
G01X-1502442Y-860417D01*
G01X-1503709Y-859703D01*
G01X-1504977Y-858989D01*
G01X-1509254Y-856661D01*
G01X-1513531Y-854332D01*
G01X-1515749Y-853291D01*
G01X-1518495Y-852144D01*
G01X-1520080Y-851601D01*
G01X-1521664Y-851059D01*
G01X-1523248Y-850622D01*
G01X-1524832Y-850186D01*
G01X-1526100Y-849911D01*
G01X-1527367Y-849637D01*
G01X-1528265Y-849471D01*
G01X-1529163Y-849305D01*
G01X-1532014Y-848879D01*
G01X-1533810Y-848683D01*
G01X-1535605Y-848486D01*
G01X-1545322Y-848496D01*
G01X-1547223Y-848684D01*
G01X-1549124Y-848872D01*
G01X-1551659Y-849195D01*
G01X-1554510Y-849644D01*
G01X-1556042Y-849966D01*
G01X-1557573Y-850288D01*
G01X-1561164Y-851244D01*
G01X-1564649Y-852437D01*
G01X-1567607Y-853684D01*
G01X-1571620Y-855786D01*
G01X-1574223Y-857456D01*
G01X-1575404Y-858356D01*
G01X-1576584Y-859255D01*
G01X-1577382Y-859954D01*
G01X-1578180Y-860653D01*
G01X-1579055Y-861467D01*
G01X-1579930Y-862281D01*
G01X-1581832Y-864454D01*
G01X-1582863Y-865866D01*
G01X-1583893Y-867279D01*
G01X-1585362Y-869668D01*
G01X-1585794Y-870483D01*
G01X-1586226Y-871298D01*
G01X-1591741Y-882107D01*
G01X-1597256Y-892916D01*
G01X-1597983Y-893939D01*
G01X-1598798Y-894603D01*
G01X-1599361Y-894867D01*
G01X-1599925Y-895130D01*
G37*
G36*
G01X-1454915Y-895295D02*
G01X-1460105Y-895335D01*
G01X-1465295Y-895375D01*
G01X-1466050Y-895267D01*
G01X-1466804Y-895160D01*
G01X-1467461Y-894840D01*
G01X-1468117Y-894521D01*
G01X-1468619Y-894062D01*
G01X-1469121Y-893603D01*
G01X-1469470Y-892988D01*
G01X-1469819Y-892373D01*
G01X-1469971Y-891830D01*
G01X-1470123Y-891286D01*
G01X-1470123Y-783023D01*
G01X-1451165Y-783023D01*
G01X-1451165Y-820847D01*
G01X-1407388Y-820768D01*
G01X-1406120Y-820588D01*
G01X-1404853Y-820408D01*
G01X-1404016Y-820241D01*
G01X-1403178Y-820074D01*
G01X-1402170Y-819792D01*
G01X-1401163Y-819509D01*
G01X-1400254Y-819153D01*
G01X-1399346Y-818796D01*
G01X-1398456Y-818337D01*
G01X-1397565Y-817878D01*
G01X-1396087Y-816899D01*
G01X-1395031Y-816020D01*
G01X-1394413Y-815415D01*
G01X-1393795Y-814809D01*
G01X-1392684Y-813392D01*
G01X-1392177Y-812580D01*
G01X-1391669Y-811767D01*
G01X-1391306Y-810953D01*
G01X-1390943Y-810138D01*
G01X-1390637Y-809289D01*
G01X-1390331Y-808441D01*
G01X-1390075Y-807280D01*
G01X-1389820Y-806118D01*
G01X-1389555Y-804054D01*
G01X-1389555Y-800035D01*
G01X-1389688Y-799003D01*
G01X-1389821Y-797971D01*
G01X-1390026Y-796993D01*
G01X-1390232Y-796016D01*
G01X-1390776Y-794277D01*
G01X-1391205Y-793300D01*
G01X-1391634Y-792322D01*
G01X-1392136Y-791484D01*
G01X-1392639Y-790646D01*
G01X-1393211Y-789909D01*
G01X-1393784Y-789172D01*
G01X-1394697Y-788283D01*
G01X-1395611Y-787394D01*
G01X-1396584Y-786724D01*
G01X-1397557Y-786055D01*
G01X-1398564Y-785537D01*
G01X-1399572Y-785019D01*
G01X-1400470Y-784685D01*
G01X-1401368Y-784350D01*
G01X-1402318Y-784080D01*
G01X-1403269Y-783810D01*
G01X-1405064Y-783457D01*
G01X-1407599Y-783111D01*
G01X-1429382Y-783067D01*
G01X-1429382Y-783067D01*
G01X-1451165Y-783023D01*
G01X-1470123Y-783023D01*
G01X-1470123Y-768749D01*
G01X-1469948Y-768192D01*
G01X-1469773Y-767635D01*
G01X-1469201Y-766685D01*
G01X-1468817Y-766270D01*
G01X-1468434Y-765856D01*
G01X-1467272Y-765142D01*
G01X-1466321Y-764898D01*
G01X-1466057Y-764854D01*
G01X-1465793Y-764810D01*
G01X-1406543Y-764848D01*
G01X-1404959Y-765038D01*
G01X-1403374Y-765227D01*
G01X-1401262Y-765551D01*
G01X-1398622Y-766095D01*
G01X-1397241Y-766470D01*
G01X-1395861Y-766844D01*
G01X-1394284Y-767396D01*
G01X-1392707Y-767947D01*
G01X-1391229Y-768592D01*
G01X-1389750Y-769237D01*
G01X-1388168Y-770112D01*
G01X-1386587Y-770987D01*
G01X-1385105Y-771997D01*
G01X-1383624Y-773007D01*
G01X-1381723Y-774562D01*
G01X-1379716Y-776462D01*
G01X-1378689Y-777602D01*
G01X-1377661Y-778743D01*
G01X-1376105Y-780807D01*
G01X-1374829Y-782762D01*
G01X-1374282Y-783740D01*
G01X-1373734Y-784718D01*
G01X-1373168Y-785918D01*
G01X-1372603Y-787118D01*
G01X-1372185Y-788199D01*
G01X-1371768Y-789280D01*
G01X-1371394Y-790475D01*
G01X-1371020Y-791670D01*
G01X-1370489Y-793843D01*
G01X-1370272Y-795038D01*
G01X-1370056Y-796233D01*
G01X-1369899Y-797618D01*
G01X-1369742Y-799004D01*
G01X-1369673Y-800877D01*
G01X-1369603Y-802751D01*
G01X-1369856Y-806336D01*
G01X-1370152Y-808508D01*
G01X-1370320Y-809432D01*
G01X-1370489Y-810355D01*
G01X-1371020Y-812528D01*
G01X-1371394Y-813723D01*
G01X-1371768Y-814918D01*
G01X-1372606Y-817090D01*
G01X-1374034Y-820023D01*
G01X-1374488Y-820784D01*
G01X-1374941Y-821544D01*
G01X-1375554Y-822481D01*
G01X-1376166Y-823419D01*
G01X-1377033Y-824537D01*
G01X-1377899Y-825656D01*
G01X-1379177Y-827012D01*
G01X-1380456Y-828368D01*
G01X-1382903Y-830471D01*
G01X-1385070Y-832052D01*
G01X-1386178Y-832743D01*
G01X-1387286Y-833434D01*
G01X-1388729Y-834186D01*
G01X-1390172Y-834938D01*
G01X-1391466Y-835497D01*
G01X-1392759Y-836056D01*
G01X-1394317Y-836591D01*
G01X-1395876Y-837125D01*
G01X-1399255Y-837990D01*
G01X-1401579Y-838424D01*
G01X-1402403Y-838547D01*
G01X-1403226Y-838670D01*
G01X-1404568Y-838843D01*
G01X-1405909Y-839016D01*
G01X-1451165Y-839096D01*
G01X-1451165Y-891078D01*
G01X-1451323Y-891701D01*
G01X-1451481Y-892325D01*
G01X-1451920Y-893209D01*
G01X-1452361Y-893704D01*
G01X-1452802Y-894199D01*
G01X-1453859Y-894891D01*
G01X-1454915Y-895295D01*
G37*
G36*
G01X-1004377Y-895132D02*
G01X-1005054Y-895245D01*
G01X-1005731Y-895358D01*
G01X-1049509Y-895357D01*
G01X-1093287Y-895356D01*
G01X-1093953Y-895257D01*
G01X-1094619Y-895158D01*
G01X-1095302Y-894829D01*
G01X-1095985Y-894500D01*
G01X-1096568Y-893901D01*
G01X-1097151Y-893301D01*
G01X-1097471Y-892597D01*
G01X-1097792Y-891892D01*
G01X-1097890Y-891155D01*
G01X-1097989Y-890417D01*
G01X-1097961Y-828171D01*
G01X-1097932Y-765924D01*
G01X-1097748Y-765390D01*
G01X-1097564Y-764856D01*
G01X-1097309Y-764413D01*
G01X-1097053Y-763969D01*
G01X-1096193Y-763056D01*
G01X-1095204Y-762459D01*
G01X-1094668Y-762264D01*
G01X-1094132Y-762070D01*
G01X-1093052Y-762105D01*
G01X-1091972Y-762141D01*
G01X-1090402Y-762939D01*
G01X-1089890Y-763521D01*
G01X-1089379Y-764103D01*
G01X-1084493Y-772200D01*
G01X-1079608Y-780296D01*
G01X-1079318Y-780932D01*
G01X-1079029Y-781567D01*
G01X-1078975Y-876780D01*
G01X-1046842Y-876809D01*
G01X-1014709Y-876838D01*
G01X-1014196Y-877043D01*
G01X-1013683Y-877247D01*
G01X-1012722Y-877799D01*
G01X-1010490Y-880035D01*
G01X-1008257Y-882270D01*
G01X-1006942Y-883418D01*
G01X-1005626Y-884566D01*
G01X-1004200Y-885712D01*
G01X-1002774Y-886858D01*
G01X-1002318Y-887367D01*
G01X-1001861Y-887876D01*
G01X-1001611Y-888431D01*
G01X-1001361Y-888986D01*
G01X-1001236Y-889707D01*
G01X-1001111Y-890428D01*
G01X-1001240Y-891218D01*
G01X-1001370Y-892008D01*
G01X-1001733Y-892753D01*
G01X-1002095Y-893498D01*
G01X-1003250Y-894584D01*
G01X-1003813Y-894858D01*
G01X-1004377Y-895132D01*
G37*
G36*
G01X-1112976Y-895160D02*
G01X-1113693Y-895261D01*
G01X-1114410Y-895363D01*
G01X-1156551Y-895334D01*
G01X-1198691Y-895306D01*
G01X-1199204Y-895101D01*
G01X-1199717Y-894897D01*
G01X-1200167Y-894639D01*
G01X-1200616Y-894380D01*
G01X-1201147Y-893803D01*
G01X-1201678Y-893226D01*
G01X-1201891Y-892796D01*
G01X-1202104Y-892366D01*
G01X-1202273Y-891769D01*
G01X-1202442Y-891173D01*
G01X-1202388Y-781549D01*
G01X-1201965Y-780686D01*
G01X-1201543Y-779823D01*
G01X-1196790Y-771963D01*
G01X-1192037Y-764104D01*
G01X-1191526Y-763521D01*
G01X-1191015Y-762939D01*
G01X-1190259Y-762556D01*
G01X-1189503Y-762173D01*
G01X-1188235Y-762000D01*
G01X-1187813Y-762040D01*
G01X-1187390Y-762080D01*
G01X-1186440Y-762320D01*
G01X-1185921Y-762585D01*
G01X-1185401Y-762850D01*
G01X-1184834Y-763434D01*
G01X-1184266Y-764018D01*
G01X-1183635Y-765406D01*
G01X-1183533Y-766045D01*
G01X-1183431Y-766685D01*
G01X-1183430Y-876781D01*
G01X-1148445Y-876810D01*
G01X-1113459Y-876838D01*
G01X-1112867Y-877071D01*
G01X-1112275Y-877305D01*
G01X-1111824Y-877598D01*
G01X-1111373Y-877891D01*
G01X-1110915Y-878375D01*
G01X-1110457Y-878860D01*
G01X-1110139Y-879533D01*
G01X-1109822Y-880206D01*
G01X-1109714Y-880912D01*
G01X-1109606Y-881618D01*
G01X-1109607Y-886072D01*
G01X-1109609Y-890526D01*
G01X-1109705Y-891211D01*
G01X-1109801Y-891896D01*
G01X-1110121Y-892599D01*
G01X-1110441Y-893301D01*
G01X-1111023Y-893901D01*
G01X-1111606Y-894500D01*
G01X-1112291Y-894830D01*
G01X-1112976Y-895160D01*
G37*
G36*
G01X-1496492Y-896997D02*
G01X-1499093Y-896997D01*
G01X-1499781Y-896884D01*
G01X-1500469Y-896771D01*
G01X-1501191Y-896542D01*
G01X-1501914Y-896314D01*
G01X-1502585Y-896001D01*
G01X-1503257Y-895689D01*
G01X-1503906Y-895234D01*
G01X-1504554Y-894780D01*
G01X-1505116Y-894283D01*
G01X-1505678Y-893785D01*
G01X-1506287Y-893024D01*
G01X-1506896Y-892264D01*
G01X-1507774Y-890759D01*
G01X-1508217Y-889548D01*
G01X-1508657Y-887919D01*
G01X-1508657Y-884334D01*
G01X-1508432Y-883495D01*
G01X-1508208Y-882656D01*
G01X-1507872Y-881868D01*
G01X-1507536Y-881080D01*
G01X-1507262Y-880643D01*
G01X-1506989Y-880206D01*
G01X-1506369Y-879415D01*
G01X-1505750Y-878624D01*
G01X-1505004Y-877964D01*
G01X-1504257Y-877303D01*
G01X-1503675Y-876919D01*
G01X-1503092Y-876536D01*
G01X-1501763Y-875916D01*
G01X-1500967Y-875692D01*
G01X-1500171Y-875467D01*
G01X-1499511Y-875371D01*
G01X-1498851Y-875276D01*
G01X-1495999Y-875357D01*
G01X-1494943Y-875633D01*
G01X-1493887Y-875910D01*
G01X-1492809Y-876458D01*
G01X-1491731Y-877005D01*
G01X-1490961Y-877636D01*
G01X-1490190Y-878267D01*
G01X-1489605Y-878919D01*
G01X-1489020Y-879572D01*
G01X-1488642Y-880160D01*
G01X-1488263Y-880749D01*
G01X-1487605Y-882097D01*
G01X-1487322Y-883052D01*
G01X-1487038Y-884008D01*
G01X-1487032Y-885746D01*
G01X-1487025Y-887484D01*
G01X-1487162Y-888136D01*
G01X-1487300Y-888788D01*
G01X-1487519Y-889494D01*
G01X-1487738Y-890200D01*
G01X-1488476Y-891721D01*
G01X-1488883Y-892337D01*
G01X-1489289Y-892953D01*
G01X-1490057Y-893757D01*
G01X-1490824Y-894562D01*
G01X-1491748Y-895188D01*
G01X-1492673Y-895815D01*
G01X-1493524Y-896184D01*
G01X-1494376Y-896554D01*
G01X-1496492Y-896997D01*
G37*
G04 Image End*

G04 Text Start*
G54D10*
G01X1005266Y-843280D02*
G01X1070290Y-843280D01*
G01X1005266Y-843280D02*
G01X1005266Y-815340D01*
G01X1008314Y-806196D01*
G01X1011362Y-803148D01*
G01X1017712Y-799846D01*
G01X1023808Y-799846D01*
G01X1029904Y-803148D01*
G01X1032952Y-806196D01*
G01X1036254Y-815340D01*
G01X1036254Y-843280D02*
G01X1036254Y-815340D01*
G01X1039302Y-806196D01*
G01X1042350Y-803148D01*
G01X1048446Y-799846D01*
G01X1057844Y-799846D01*
G01X1063940Y-803148D01*
G01X1067242Y-806196D01*
G01X1070290Y-815340D01*
G01X1070290Y-843280D01*
G01X1005266Y-751078D02*
G01X1008314Y-757428D01*
G01X1014410Y-763524D01*
G01X1020760Y-766572D01*
G01X1029904Y-769620D01*
G01X1045398Y-769620D01*
G01X1054796Y-766572D01*
G01X1060892Y-763524D01*
G01X1067242Y-757428D01*
G01X1070290Y-751078D01*
G01X1070290Y-738886D01*
G01X1067242Y-732536D01*
G01X1060892Y-726440D01*
G01X1054796Y-723392D01*
G01X1045398Y-720090D01*
G01X1029904Y-720090D01*
G01X1020760Y-723392D01*
G01X1014410Y-726440D01*
G01X1008314Y-732536D01*
G01X1005266Y-738886D01*
G01X1005266Y-751078D01*
G01X1005266Y-671322D02*
G01X1008314Y-677672D01*
G01X1014410Y-683768D01*
G01X1020760Y-686816D01*
G01X1029904Y-689864D01*
G01X1045398Y-689864D01*
G01X1054796Y-686816D01*
G01X1060892Y-683768D01*
G01X1067242Y-677672D01*
G01X1070290Y-671322D01*
G01X1070290Y-659130D01*
G01X1067242Y-652780D01*
G01X1060892Y-646684D01*
G01X1054796Y-643636D01*
G01X1045398Y-640334D01*
G01X1029904Y-640334D01*
G01X1020760Y-643636D01*
G01X1014410Y-646684D01*
G01X1008314Y-652780D01*
G01X1005266Y-659130D01*
G01X1005266Y-671322D01*
G01X1005266Y-588518D02*
G01X1070290Y-588518D01*
G01X1005266Y-610108D02*
G01X1005266Y-566928D01*
G01X651275Y96215D02*
G01X651275Y161239D01*
G01X651275Y96215D02*
G01X611143Y96215D01*
G01X651275Y127203D02*
G01X626383Y127203D01*
G01X580917Y96215D02*
G01X580917Y161239D01*
G01X580917Y96215D02*
G01X553231Y96215D01*
G01X543833Y99263D01*
G01X540785Y102311D01*
G01X537737Y108661D01*
G01X537737Y117805D01*
G01X540785Y123901D01*
G01X543833Y127203D01*
G01X553231Y130251D01*
G01X580917Y130251D01*
G01X461283Y111709D02*
G01X464331Y105359D01*
G01X470427Y99263D01*
G01X476777Y96215D01*
G01X488969Y96215D01*
G01X495319Y99263D01*
G01X501415Y105359D01*
G01X504463Y111709D01*
G01X507511Y120853D01*
G01X507511Y136347D01*
G01X504463Y145745D01*
G01X501415Y151841D01*
G01X495319Y158191D01*
G01X488969Y161239D01*
G01X476777Y161239D01*
G01X470427Y158191D01*
G01X464331Y151841D01*
G01X461283Y145745D01*
G01X431057Y182829D02*
G01X375431Y182829D01*
G01X323615Y96215D02*
G01X323615Y161239D01*
G01X345205Y96215D02*
G01X302025Y96215D01*
G01X256559Y117805D02*
G01X262655Y120853D01*
G01X268751Y127203D01*
G01X271799Y136347D01*
G01X271799Y142697D01*
G01X268751Y151841D01*
G01X262655Y158191D01*
G01X256559Y161239D01*
G01X247161Y161239D01*
G01X241065Y158191D01*
G01X234715Y151841D01*
G01X231667Y142697D01*
G01X231667Y136347D01*
G01X234715Y127203D01*
G01X241065Y120853D01*
G01X247161Y117805D01*
G01X256559Y117805D01*
G01X201441Y117805D02*
G01X201441Y182829D01*
G01X201441Y127203D02*
G01X195345Y120853D01*
G01X189249Y117805D01*
G01X179851Y117805D01*
G01X173755Y120853D01*
G01X167405Y127203D01*
G01X164357Y136347D01*
G01X164357Y142697D01*
G01X167405Y151841D01*
G01X173755Y158191D01*
G01X179851Y161239D01*
G01X189249Y161239D01*
G01X195345Y158191D01*
G01X201441Y151841D01*
G01X1010666Y553720D02*
G01X1075690Y553720D01*
G01X1010666Y553720D02*
G01X1010666Y581660D01*
G01X1013714Y590804D01*
G01X1016762Y593852D01*
G01X1023112Y597154D01*
G01X1029208Y597154D01*
G01X1035304Y593852D01*
G01X1038352Y590804D01*
G01X1041654Y581660D01*
G01X1041654Y553720D01*
G01X1041654Y575310D02*
G01X1075690Y597154D01*
G01X1010666Y627380D02*
G01X1075690Y627380D01*
G01X1010666Y627380D02*
G01X1010666Y667512D01*
G01X1041654Y627380D02*
G01X1041654Y652018D01*
G01X1075690Y627380D02*
G01X1075690Y667512D01*
G01X1019810Y740918D02*
G01X1013714Y734822D01*
G01X1010666Y725424D01*
G01X1010666Y712978D01*
G01X1013714Y703834D01*
G01X1019810Y697738D01*
G01X1026160Y697738D01*
G01X1032256Y700786D01*
G01X1035304Y703834D01*
G01X1038352Y709930D01*
G01X1044702Y728472D01*
G01X1047750Y734822D01*
G01X1050798Y737870D01*
G01X1057148Y740918D01*
G01X1066292Y740918D01*
G01X1072642Y734822D01*
G01X1075690Y725424D01*
G01X1075690Y712978D01*
G01X1072642Y703834D01*
G01X1066292Y697738D01*
G01X1010666Y771144D02*
G01X1075690Y771144D01*
G01X1010666Y771144D02*
G01X1010666Y811276D01*
G01X1041654Y771144D02*
G01X1041654Y795782D01*
G01X1075690Y771144D02*
G01X1075690Y811276D01*
G01X1010666Y863092D02*
G01X1075690Y863092D01*
G01X1010666Y841502D02*
G01X1010666Y884682D01*
G04 Text End*

G04 PolygonModel Start*
G01X534340Y-76170D02*
G01X534340Y-155179D01*
G01X634060Y-155179D02*
G01X634060Y-76170D01*
G01X618820Y-60930D02*
G01X549580Y-60930D01*
G01X534340Y-279430D02*
G01X534340Y-200421D01*
G01X634060Y-200421D02*
G01X634060Y-279430D01*
G01X618820Y-294670D02*
G01X549580Y-294670D01*
G01X634060Y-76170D02*
G03X618820Y-60930I-15240J0D01*
G01X549580Y-60930D02*
G03X534340Y-76170I0J-15240D01*
G01X634060Y-279430D02*
G02X618820Y-294670I-15240J0D01*
G01X549580Y-294670D02*
G02X534340Y-279430I0J15240D01*
G01X-281714Y-278491D02*
G01X-281714Y-199481D01*
G01X-381434Y-199481D02*
G01X-381434Y-278491D01*
G01X-366194Y-293731D02*
G01X-296954Y-293731D01*
G01X-281714Y-75230D02*
G01X-281714Y-154239D01*
G01X-381434Y-154239D02*
G01X-381434Y-75230D01*
G01X-366194Y-59990D02*
G01X-296954Y-59990D01*
G01X-381434Y-278491D02*
G03X-366194Y-293731I15240J0D01*
G01X-296954Y-293731D02*
G03X-281714Y-278491I0J15240D01*
G01X-381434Y-75230D02*
G02X-366194Y-59990I15240J0D01*
G01X-296954Y-59990D02*
G02X-281714Y-75230I0J-15240D01*
G01X-148158Y-180203D02*
G01X-148158Y-252006D01*
G01X-148158Y-252006D02*
G01X-247879Y-252006D01*
G01X-247879Y-252006D02*
G01X-247879Y-180203D01*
G01X-148158Y-134960D02*
G01X-148158Y-63157D01*
G01X-148158Y-63157D02*
G01X-247879Y-63157D01*
G01X-247879Y-63157D02*
G01X-247879Y-134960D01*
G01X1574221Y-865320D02*
G01X1168979Y-865320D01*
G01X1168979Y-865320D02*
G01X1168979Y-799521D01*
G01X1574221Y-557080D02*
G01X1168979Y-557080D01*
G01X1168979Y-557080D02*
G01X1168979Y-622879D01*
G36*
G01X1566601Y-872940D02*
G01X1566601Y-794441D01*
G01X1597081Y-794441D01*
G01X1597081Y-872940D01*
G01X1566601Y-872940D01*
G37*
G36*
G01X1566601Y-549460D02*
G01X1597081Y-549460D01*
G01X1597081Y-627959D01*
G01X1566601Y-627959D01*
G01X1566601Y-549460D01*
G37*
G01X-402158Y-182540D02*
G01X-402158Y-254343D01*
G01X-402158Y-254343D02*
G01X-501879Y-254343D01*
G01X-501879Y-254343D02*
G01X-501879Y-182540D01*
G01X-402158Y-137297D02*
G01X-402158Y-65494D01*
G01X-402158Y-65494D02*
G01X-501879Y-65494D01*
G01X-501879Y-65494D02*
G01X-501879Y-137297D01*
G54D11*
G01X-227503Y-26111D02*
G01X-227503Y-40706D01*
G01X-227503Y68887D02*
G01X-227503Y64719D01*
G01X-227503Y163881D02*
G01X-227503Y159715D01*
G01X-227503Y269296D02*
G01X-227503Y254711D01*
G01X-407505Y-26111D02*
G01X-407505Y-40706D01*
G01X-407505Y163881D02*
G01X-407505Y64717D01*
G01X-407505Y269296D02*
G01X-407505Y254709D01*
G01X-407505Y269296D02*
G01X-227503Y269296D01*
G01X-407505Y-40706D02*
G01X-227503Y-40706D01*
G36*
G01X-297099Y12700D02*
G02X-261699Y12700I17700J212D01*
G02X-297099Y12700I-17700J-212D01*
G37*
G54D12*
G01X658901Y-732414D02*
G01X658901Y-925297D01*
G01X658901Y-925297D02*
G01X-491094Y-925297D01*
G01X-491094Y-925297D02*
G01X-491094Y-732414D01*
G01X-491094Y-526189D02*
G01X-491094Y-385298D01*
G01X-491094Y-385298D02*
G01X-271094Y-385298D01*
G01X452006Y-385298D02*
G01X648899Y-385298D01*
G01X648899Y-385298D02*
G01X658901Y-395300D01*
G01X658901Y-395300D02*
G01X658901Y-526189D01*
G01X-481101Y732414D02*
G01X-481101Y925297D01*
G01X-481101Y925297D02*
G01X668894Y925297D01*
G01X668894Y925297D02*
G01X668894Y732414D01*
G01X668894Y526189D02*
G01X668894Y385298D01*
G01X668894Y385298D02*
G01X448894Y385298D01*
G01X-274206Y385298D02*
G01X-471099Y385298D01*
G01X-471099Y385298D02*
G01X-481101Y395300D01*
G01X-481101Y395300D02*
G01X-481101Y526189D01*
G01X495300Y25400D02*
G01X444500Y25400D01*
G01X444500Y25400D02*
G01X444500Y-165100D01*
G01X444500Y-165100D02*
G01X-50800Y-165100D01*
G01X-50800Y-165100D02*
G01X-50800Y25400D01*
G01X-50800Y25400D02*
G01X-88900Y25400D01*
G01X-96804Y88900D02*
G01X-46004Y88900D01*
G01X-46004Y88900D02*
G01X-46004Y165100D01*
G01X-46004Y165100D02*
G01X169896Y165100D01*
G01X169896Y165100D02*
G01X169896Y215900D01*
G01X495300Y88900D02*
G01X444500Y88900D01*
G01X444500Y88900D02*
G01X444500Y165100D01*
G01X444500Y165100D02*
G01X228600Y165100D01*
G01X228600Y165100D02*
G01X228600Y215900D01*
G01X503199Y-229210D02*
G01X-96799Y-229210D01*
G01X-96799Y220802D01*
G01X503199Y220802D01*
G01X503199Y-229210D01*
G54D10*
G01X743869Y501240D02*
G01X822879Y501240D01*
G01X822879Y600960D02*
G01X743869Y600960D01*
G01X728629Y585720D02*
G01X728629Y516480D01*
G01X947130Y501240D02*
G01X868121Y501240D01*
G01X868121Y600960D02*
G01X947130Y600960D01*
G01X962370Y585720D02*
G01X962370Y516480D01*
G01X743869Y600960D02*
G03X728629Y585720I0J-15240D01*
G01X728629Y516480D02*
G03X743869Y501240I15240J0D01*
G01X947130Y600960D02*
G02X962370Y585720I0J-15240D01*
G01X962370Y516480D02*
G02X947130Y501240I-15240J0D01*
G54D13*
G01X813201Y836996D02*
G01X828200Y836996D01*
G01X828200Y836996D02*
G01X828200Y696999D01*
G01X828200Y696999D02*
G01X828200Y692000D01*
G01X828200Y692000D02*
G01X813201Y692000D01*
G01X813201Y836996D02*
G01X813201Y691998D01*
G54D12*
G01X708200Y876999D02*
G01X708200Y875815D01*
G54D13*
G01X938200Y872000D02*
G01X738200Y872000D01*
G01X738200Y652000D02*
G01X938200Y652000D01*
G54D10*
G01X612379Y-28578D02*
G01X540576Y-28578D01*
G01X540576Y-28578D02*
G01X540576Y71143D01*
G01X540576Y71143D02*
G01X612379Y71143D01*
G01X657621Y-28578D02*
G01X729425Y-28578D01*
G01X729425Y-28578D02*
G01X729425Y71143D01*
G01X729425Y71143D02*
G01X657621Y71143D01*
G01X612379Y85722D02*
G01X540576Y85722D01*
G01X540576Y85722D02*
G01X540576Y185443D01*
G01X540576Y185443D02*
G01X612379Y185443D01*
G01X657621Y85722D02*
G01X729425Y85722D01*
G01X729425Y85722D02*
G01X729425Y185443D01*
G01X729425Y185443D02*
G01X657621Y185443D01*
G01X810021Y461660D02*
G01X881825Y461660D01*
G01X881825Y461660D02*
G01X881825Y361940D01*
G01X881825Y361940D02*
G01X810021Y361940D01*
G01X764779Y461660D02*
G01X692976Y461660D01*
G01X692976Y461660D02*
G01X692976Y361940D01*
G01X692976Y361940D02*
G01X764779Y361940D01*
G01X1574221Y557080D02*
G01X1168979Y557080D01*
G01X1168979Y557080D02*
G01X1168979Y622879D01*
G01X1574221Y865320D02*
G01X1168979Y865320D01*
G01X1168979Y865320D02*
G01X1168979Y799521D01*
G36*
G01X1566601Y549460D02*
G01X1566601Y627959D01*
G01X1597081Y627959D01*
G01X1597081Y549460D01*
G01X1566601Y549460D01*
G37*
G36*
G01X1566601Y872940D02*
G01X1597081Y872940D01*
G01X1597081Y794441D01*
G01X1566601Y794441D01*
G01X1566601Y872940D01*
G37*
G54D12*
G01X-1854200Y406397D02*
G01X-533400Y406397D01*
G01X1320795Y457208D02*
G01X1121400Y457208D01*
G01X1663697Y457208D02*
G01X1516400Y457208D01*
G01X1320483Y-449991D02*
G01X1121710Y-449991D01*
G01X1678597Y-449991D02*
G01X1516713Y-449991D01*
G01X1678597Y450007D02*
G01X1678597Y-449991D01*

G04 Rect Start*
G01X-1853809Y-740283D02*
G01X-1853809Y919709D01*
G01X-533796Y919709D01*
G01X-533796Y-740283D01*
G01X-1853809Y-740283D01*
G04 Rect End*

G04 Circle Start*
G01X1281598Y-711197D02*
G03X1461597Y-711197I90000J0D01*
G03X1281598Y-711197I-90000J0D01*
G01X-317500Y-317475D02*
G03X-292100Y-317475I12700J0D01*
G03X-317500Y-317475I-12700J0D01*
G01X469900Y317475D02*
G03X495300Y317475I12700J0D01*
G03X469900Y317475I-12700J0D01*
G01X1281598Y711203D02*
G03X1461597Y711203I90000J0D01*
G03X1281598Y711203I-90000J0D01*
G54D14*
G01X-1950380Y228600D02*
G03X-1910400Y228600I19990J0D01*
G03X-1950380Y228600I-19990J0D01*
G04 Circle End*

M02*

