G04 Layer: BottomSolderMaskLayer*
G04 EasyEDA Pro v3.2.149.88089769, 2026-08-12 00:03:06*
G04 Gerber Generator version 0.3*
G04 Scale: 100 percent, Rotated: No, Reflected: No*
G04 Dimensions in millimeters*
G04 Leading zeros omitted, absolute positions, 4 integers and 5 decimals*
G04 Generated by one-click*
G04 Object Configs: Pad,Via,Track,Text,Image,Dimension,BoardOutline,BoardCutout,CopperFilled,SolidRegion,FPCStiffener,Line,PlaneZone,ComponentProperty,ComponentSilkscreen,TearDrop*
G04 Layer Configs: 1,15,16,2,3,4,5,6,7,8,9,10,11,13,14,56*
G04 Copper Areas: 0*
%FSLAX45Y45*%
%MOMM*%
%AMRoundRect*1,1,$1,$2,$3*1,1,$1,$4,$5*1,1,$1,0-$2,0-$3*1,1,$1,0-$4,0-$5*20,1,$1,$2,$3,$4,$5,0*20,1,$1,$4,$5,0-$2,0-$3,0*20,1,$1,0-$2,0-$3,0-$4,0-$5,0*20,1,$1,0-$4,0-$5,$2,$3,0*4,1,4,$2,$3,$4,$5,0-$2,0-$3,0-$4,0-$5,$2,$3,0*%
%ADD10RoundRect,0.1016X-0.28283X0.27X0.28283X0.27*%
%ADD11RoundRect,0.1016X-0.39505X0.27X0.39505X0.27*%
%ADD12RoundRect,0.10201X-0.55X0.3X0.55X0.3*%
%ADD13RoundRect,0.1016X-0.2525X-0.14X-0.2525X0.14*%
%ADD14RoundRect,0.1016X-0.45X-0.825X-0.45X0.825*%
%ADD15RoundRect,0.10003X-0.14X0.2X0.14X0.2*%
%ADD16RoundRect,0.1050X-0.8X0.6X0.8X0.6*%
%ADD17RoundRect,0.10003X-0.8X0.6X0.8X0.6*%
%ADD18C,1.7016*%
%ADD19RoundRect,0.1016X-0.27X-0.39505X-0.27X0.39505*%
%ADD20RoundRect,0.1016X-0.25X0.27X0.25X0.27*%
%ADD21RoundRect,0.1016X-0.5225X-0.266X-0.5225X0.266*%
%ADD22O,2.10002X1.30002*%
%ADD23O,1.90002X1.30002*%
%ADD24RoundRect,0.1016X-0.5X0.4X0.5X0.4*%
%ADD25RoundRect,0.1016X-0.5X0.37501X0.5X0.37501*%
%ADD26RoundRect,0.1016X-0.535X0.266X0.535X0.266*%
%ADD27RoundRect,0.1016X-0.35X-0.62501X-0.35X0.62501*%
G75*


G04 Pad Start*
G54D10*
G01X-1135482Y-258200D03*
G01X-1048918Y-258200D03*
G01X-1133279Y-145000D03*
G01X-1046716Y-145000D03*
G54D11*
G01X-484508Y-374999D03*
G01X-375491Y-374999D03*
G54D12*
G01X-589998Y-684995D03*
G01X-589998Y-589999D03*
G01X-589998Y-495003D03*
G01X-860000Y-495003D03*
G01X-860000Y-589999D03*
G01X-860000Y-684995D03*
G54D11*
G01X-449508Y-145000D03*
G01X-340491Y-145000D03*
G01X-54508Y228600D03*
G01X54508Y228600D03*
G54D10*
G01X-1343279Y-349999D03*
G01X-1256716Y-349999D03*
G01X-351718Y-35000D03*
G01X-438281Y-35000D03*
G54D13*
G01X-720316Y-178455D03*
G01X-720316Y-228468D03*
G01X-720316Y-278455D03*
G01X-720316Y-328468D03*
G01X-905838Y-328468D03*
G01X-905838Y-278455D03*
G01X-905838Y-228468D03*
G01X-905838Y-178455D03*
G54D14*
G01X-813077Y-253462D03*
G54D15*
G01X-319668Y129921D03*
G01X-449665Y129921D03*
G01X-449665Y329921D03*
G01X-384666Y329921D03*
G01X-319668Y329921D03*
G54D17*
G01X-384692Y229921D03*
G54D15*
G01X-384692Y129921D03*
G54D18*
G01X303200Y50800D03*
G01X103200Y50800D03*
G54D11*
G01X-1654708Y112702D03*
G01X-1545692Y112702D03*
G01X-1545692Y228600D03*
G01X-1654708Y228600D03*
G01X-1400708Y-25400D03*
G01X-1291692Y-25400D03*
G54D19*
G01X565400Y389992D03*
G01X565400Y499008D03*
G01X679700Y389992D03*
G01X679700Y499008D03*
G54D20*
G01X-987986Y-664999D03*
G01X-1072010Y-664999D03*
G54D19*
G01X559999Y764507D03*
G01X559999Y655490D03*
G54D10*
G01X-1643482Y-26858D03*
G01X-1556918Y-26858D03*
G01X-1135482Y-431800D03*
G01X-1048918Y-431800D03*
G54D21*
G01X728657Y247396D03*
G01X728657Y152400D03*
G01X728657Y57404D03*
G01X499143Y57404D03*
G01X499143Y247396D03*
G54D22*
G01X998588Y-432498D03*
G01X998588Y432499D03*
G54D23*
G01X1418603Y-432498D03*
G01X1418603Y432499D03*
G54D24*
G01X434998Y-634997D03*
G01X665000Y-729993D03*
G01X434998Y-825000D03*
G54D25*
G01X1022257Y-619999D03*
G01X787739Y-619999D03*
G54D26*
G01X278500Y-634495D03*
G01X278500Y-825503D03*
G01X51500Y-729999D03*
G54D27*
G01X299996Y-319999D03*
G01X110004Y-319999D03*
G01X205000Y-120000D03*
G54D10*
G01X1018280Y-769998D03*
G01X931716Y-769998D03*
G01X-16718Y-829998D03*
G01X-103281Y-829998D03*
G01X-103281Y-639999D03*
G01X-16718Y-639999D03*
G04 Pad End*

M02*

