G04 Layer: TopPasteMaskLayer*
G04 EasyEDA Pro v3.2.149.88089769, 2026-08-12 00:03:06*
G04 Gerber Generator version 0.3*
G04 Scale: 100 percent, Rotated: No, Reflected: No*
G04 Dimensions in millimeters*
G04 Leading zeros omitted, absolute positions, 4 integers and 5 decimals*
G04 Generated by one-click*
G04 Object Configs: Pad,Via,Track,Text,Image,Dimension,BoardOutline,BoardCutout,CopperFilled,SolidRegion,FPCStiffener,Line,PlaneZone,ComponentProperty,ComponentSilkscreen,TearDrop*
G04 Layer Configs: 1,15,16,2,3,4,5,6,7,8,9,10,11,13,14,56*
G04 Copper Areas: 0*
%FSLAX45Y45*%
%MOMM*%
%ADD10R,1.23X1.35999*%
%ADD11R,1.1X0.6*%
%ADD12R,2.0X1.6*%
%ADD13R,0.3X1.3*%
%ADD14R,0.9X0.7*%
%ADD15R,0.8X0.4*%
%ADD16R,0.4X0.8*%
%ADD17R,1.45001X1.45001*%
%ADD18R,0.7089X0.7*%
%ADD19R,0.7X0.7*%
G75*


G04 PolygonModel Start*
G36*
G01X561698Y-195804D02*
G01X606699Y-195804D01*
G01X611698Y-202801D01*
G01X611698Y-250802D01*
G01X606699Y-255803D01*
G01X561698Y-255803D01*
G01X556699Y-250802D01*
G01X556699Y-202801D01*
G01X561698Y-195804D01*
G37*
G36*
G01X561698Y-99802D02*
G01X606699Y-99802D01*
G01X611698Y-104803D01*
G01X611698Y-152801D01*
G01X606699Y-159802D01*
G01X561698Y-159802D01*
G01X556699Y-152801D01*
G01X556699Y-104803D01*
G01X561698Y-99802D01*
G37*
G36*
G01X-309072Y-158857D02*
G01X-354073Y-158857D01*
G01X-359072Y-151859D01*
G01X-359072Y-103858D01*
G01X-354073Y-98857D01*
G01X-309072Y-98857D01*
G01X-304074Y-103858D01*
G01X-304074Y-151859D01*
G01X-309072Y-158857D01*
G37*
G36*
G01X-309072Y-254859D02*
G01X-354073Y-254859D01*
G01X-359072Y-249857D01*
G01X-359072Y-201859D01*
G01X-354073Y-194859D01*
G01X-309072Y-194859D01*
G01X-304074Y-201859D01*
G01X-304074Y-249857D01*
G01X-309072Y-254859D01*
G37*
G36*
G01X-175019Y-144081D02*
G01X-221018Y-144081D01*
G01X-225019Y-140081D01*
G01X-225019Y-90018D01*
G01X-221018Y-86017D01*
G01X-175019Y-86017D01*
G01X-171018Y-90018D01*
G01X-171018Y-140081D01*
G01X-175019Y-144081D01*
G37*
G36*
G01X-175019Y-171082D02*
G01X-171018Y-175082D01*
G01X-171018Y-225146D01*
G01X-175019Y-229146D01*
G01X-221018Y-229146D01*
G01X-225019Y-225146D01*
G01X-225019Y-175082D01*
G01X-221018Y-171082D01*
G01X-175019Y-171082D01*
G37*
G36*
G01X-429019Y-146418D02*
G01X-475018Y-146418D01*
G01X-479019Y-142418D01*
G01X-479019Y-92354D01*
G01X-475018Y-88354D01*
G01X-429019Y-88354D01*
G01X-425018Y-92354D01*
G01X-425018Y-142418D01*
G01X-429019Y-146418D01*
G37*
G36*
G01X-429019Y-173418D02*
G01X-425018Y-177419D01*
G01X-425018Y-227482D01*
G01X-429019Y-231483D01*
G01X-475018Y-231483D01*
G01X-479019Y-227482D01*
G01X-479019Y-177419D01*
G01X-475018Y-173418D01*
G01X-429019Y-173418D01*
G37*
G36*
G01X863503Y528598D02*
G01X863503Y573599D01*
G01X870501Y578598D01*
G01X918502Y578598D01*
G01X923503Y573599D01*
G01X923503Y528598D01*
G01X918502Y523599D01*
G01X870501Y523599D01*
G01X863503Y528598D01*
G37*
G36*
G01X767502Y528598D02*
G01X767502Y573599D01*
G01X772503Y578598D01*
G01X820501Y578598D01*
G01X827502Y573599D01*
G01X827502Y528598D01*
G01X820501Y523599D01*
G01X772503Y523599D01*
G01X767502Y528598D01*
G37*
G36*
G01X648500Y-1717D02*
G01X648500Y44282D01*
G01X652501Y48283D01*
G01X702564Y48283D01*
G01X706565Y44282D01*
G01X706565Y-1717D01*
G01X702564Y-5718D01*
G01X652501Y-5718D01*
G01X648500Y-1717D01*
G37*
G36*
G01X621500Y-1717D02*
G01X617499Y-5718D01*
G01X567436Y-5718D01*
G01X563436Y-1717D01*
G01X563436Y44282D01*
G01X567436Y48283D01*
G01X617499Y48283D01*
G01X621500Y44282D01*
G01X621500Y-1717D01*
G37*
G36*
G01X648500Y112583D02*
G01X648500Y158582D01*
G01X652501Y162583D01*
G01X702564Y162583D01*
G01X706565Y158582D01*
G01X706565Y112583D01*
G01X702564Y108582D01*
G01X652501Y108582D01*
G01X648500Y112583D01*
G37*
G36*
G01X621500Y112583D02*
G01X617499Y108582D01*
G01X567436Y108582D01*
G01X563436Y112583D01*
G01X563436Y158582D01*
G01X567436Y162583D01*
G01X617499Y162583D01*
G01X621500Y158582D01*
G01X621500Y112583D01*
G37*
G36*
G01X773900Y434800D02*
G01X773900Y388800D01*
G01X769899Y384800D01*
G01X719836Y384800D01*
G01X715836Y388800D01*
G01X715836Y434800D01*
G01X719836Y438800D01*
G01X769899Y438800D01*
G01X773900Y434800D01*
G37*
G36*
G01X800900Y434800D02*
G01X804901Y438800D01*
G01X854964Y438800D01*
G01X858965Y434800D01*
G01X858965Y388800D01*
G01X854964Y384800D01*
G01X804901Y384800D01*
G01X800900Y388800D01*
G01X800900Y434800D01*
G37*
G36*
G01X998596Y140007D02*
G01X998596Y110005D01*
G01X888596Y110005D01*
G01X888596Y140007D01*
G01X998596Y140007D01*
G37*
G36*
G01X888596Y160017D02*
G01X888596Y190020D01*
G01X998596Y190020D01*
G01X998596Y160017D01*
G01X888596Y160017D01*
G37*
G36*
G01X888596Y-350002D02*
G01X888596Y-290002D01*
G01X998596Y-290002D01*
G01X998596Y-350002D01*
G01X888596Y-350002D01*
G37*
G36*
G01X998596Y89995D02*
G01X998596Y59992D01*
G01X888596Y59992D01*
G01X888596Y89995D01*
G01X998596Y89995D01*
G37*
G36*
G01X888596Y210017D02*
G01X888596Y270017D01*
G01X998596Y270017D01*
G01X998596Y210017D01*
G01X888596Y210017D01*
G37*
G36*
G01X998596Y350002D02*
G01X998596Y290002D01*
G01X888596Y290002D01*
G01X888596Y350002D01*
G01X998596Y350002D01*
G37*
G36*
G01X998596Y40008D02*
G01X998596Y10005D01*
G01X888596Y10005D01*
G01X888596Y40008D01*
G01X998596Y40008D01*
G37*
G36*
G01X998596Y-10005D02*
G01X998596Y-40008D01*
G01X888596Y-40008D01*
G01X888596Y-10005D01*
G01X998596Y-10005D01*
G37*
G36*
G01X888596Y-269992D02*
G01X888596Y-209992D01*
G01X998596Y-209992D01*
G01X998596Y-269992D01*
G01X888596Y-269992D01*
G37*
G36*
G01X998596Y-59992D02*
G01X998596Y-89995D01*
G01X888596Y-89995D01*
G01X888596Y-59992D01*
G01X998596Y-59992D01*
G37*
G36*
G01X998596Y-109979D02*
G01X998596Y-139982D01*
G01X888596Y-139982D01*
G01X888596Y-109979D01*
G01X998596Y-109979D01*
G37*
G36*
G01X998596Y-159992D02*
G01X998596Y-189995D01*
G01X888596Y-189995D01*
G01X888596Y-159992D01*
G01X998596Y-159992D01*
G37*
G36*
G01X898756Y436982D02*
G01X899053Y439958D01*
G01X899500Y442918D01*
G01X900092Y445849D01*
G01X900831Y448749D01*
G01X901713Y451607D01*
G01X902736Y454419D01*
G01X903897Y457175D01*
G01X905195Y459872D01*
G01X906628Y462498D01*
G01X908187Y465051D01*
G01X909871Y467523D01*
G01X911680Y469908D01*
G01X913602Y472199D01*
G01X915637Y474393D01*
G01X917778Y476481D01*
G01X920021Y478462D01*
G01X922360Y480327D01*
G01X924789Y482072D01*
G01X927303Y483695D01*
G01X929894Y485191D01*
G01X932556Y486557D01*
G01X935281Y487787D01*
G01X938068Y488879D01*
G01X940902Y489834D01*
G01X943783Y490644D01*
G01X946699Y491310D01*
G01X949645Y491828D01*
G01X952614Y492201D01*
G01X955599Y492425D01*
G01X958588Y492498D01*
G01X1038588Y492498D01*
G01X1041578Y492425D01*
G01X1044562Y492201D01*
G01X1047532Y491828D01*
G01X1050478Y491310D01*
G01X1053394Y490644D01*
G01X1056274Y489834D01*
G01X1059109Y488879D01*
G01X1061895Y487787D01*
G01X1064621Y486557D01*
G01X1067283Y485191D01*
G01X1069873Y483695D01*
G01X1072388Y482072D01*
G01X1074816Y480327D01*
G01X1077156Y478462D01*
G01X1079398Y476481D01*
G01X1081540Y474393D01*
G01X1083574Y472199D01*
G01X1085497Y469908D01*
G01X1087305Y467523D01*
G01X1088989Y465051D01*
G01X1090549Y462498D01*
G01X1091982Y459872D01*
G01X1093280Y457175D01*
G01X1094440Y454419D01*
G01X1095464Y451607D01*
G01X1096345Y448749D01*
G01X1097084Y445849D01*
G01X1097676Y442918D01*
G01X1098123Y439958D01*
G01X1098420Y436982D01*
G01X1098570Y433995D01*
G01X1098570Y431002D01*
G01X1098420Y428015D01*
G01X1098123Y425039D01*
G01X1097676Y422079D01*
G01X1097084Y419148D01*
G01X1096345Y416248D01*
G01X1095464Y413390D01*
G01X1094440Y410578D01*
G01X1093280Y407822D01*
G01X1091982Y405125D01*
G01X1090549Y402499D01*
G01X1088989Y399946D01*
G01X1087305Y397474D01*
G01X1085497Y395089D01*
G01X1083574Y392798D01*
G01X1081540Y390604D01*
G01X1079398Y388516D01*
G01X1077156Y386535D01*
G01X1074816Y384670D01*
G01X1072388Y382925D01*
G01X1069873Y381302D01*
G01X1067283Y379806D01*
G01X1064621Y378440D01*
G01X1061895Y377210D01*
G01X1059109Y376118D01*
G01X1056274Y375163D01*
G01X1053394Y374353D01*
G01X1050478Y373687D01*
G01X1047532Y373169D01*
G01X1044562Y372796D01*
G01X1041578Y372572D01*
G01X1038588Y372499D01*
G01X958588Y372499D01*
G01X955599Y372572D01*
G01X952614Y372796D01*
G01X949645Y373169D01*
G01X946699Y373687D01*
G01X943783Y374353D01*
G01X940902Y375163D01*
G01X938068Y376118D01*
G01X935281Y377210D01*
G01X932556Y378440D01*
G01X929894Y379806D01*
G01X927303Y381302D01*
G01X924789Y382925D01*
G01X922360Y384670D01*
G01X920021Y386535D01*
G01X917778Y388516D01*
G01X915637Y390604D01*
G01X913602Y392798D01*
G01X911680Y395089D01*
G01X909871Y397474D01*
G01X908187Y399946D01*
G01X906628Y402499D01*
G01X905195Y405125D01*
G01X903897Y407822D01*
G01X902736Y410578D01*
G01X901713Y413390D01*
G01X900831Y416248D01*
G01X900092Y419148D01*
G01X899500Y422079D01*
G01X899053Y425039D01*
G01X898756Y428015D01*
G01X898606Y431002D01*
G01X898606Y433995D01*
G01X898756Y436982D01*
G37*
G36*
G01X898606Y-433995D02*
G01X898606Y-431002D01*
G01X898756Y-428015D01*
G01X899053Y-425039D01*
G01X899500Y-422079D01*
G01X900092Y-419148D01*
G01X900831Y-416248D01*
G01X901713Y-413390D01*
G01X902736Y-410578D01*
G01X903897Y-407822D01*
G01X905195Y-405125D01*
G01X906628Y-402499D01*
G01X908187Y-399946D01*
G01X909871Y-397474D01*
G01X911680Y-395089D01*
G01X913602Y-392798D01*
G01X915637Y-390604D01*
G01X917778Y-388516D01*
G01X920021Y-386535D01*
G01X922360Y-384670D01*
G01X924789Y-382925D01*
G01X927303Y-381302D01*
G01X929894Y-379806D01*
G01X932556Y-378440D01*
G01X935281Y-377210D01*
G01X938068Y-376118D01*
G01X940902Y-375163D01*
G01X943783Y-374353D01*
G01X946699Y-373687D01*
G01X949645Y-373169D01*
G01X952614Y-372796D01*
G01X955599Y-372572D01*
G01X958588Y-372499D01*
G01X1038588Y-372499D01*
G01X1041578Y-372572D01*
G01X1044562Y-372796D01*
G01X1047532Y-373169D01*
G01X1050478Y-373687D01*
G01X1053394Y-374353D01*
G01X1056274Y-375163D01*
G01X1059109Y-376118D01*
G01X1061895Y-377210D01*
G01X1064621Y-378440D01*
G01X1067283Y-379806D01*
G01X1069873Y-381302D01*
G01X1072388Y-382925D01*
G01X1074816Y-384670D01*
G01X1077156Y-386535D01*
G01X1079398Y-388516D01*
G01X1081540Y-390604D01*
G01X1083574Y-392798D01*
G01X1085497Y-395089D01*
G01X1087305Y-397474D01*
G01X1088989Y-399946D01*
G01X1090549Y-402499D01*
G01X1091982Y-405125D01*
G01X1093280Y-407822D01*
G01X1094440Y-410578D01*
G01X1095464Y-413390D01*
G01X1096345Y-416248D01*
G01X1097084Y-419148D01*
G01X1097676Y-422079D01*
G01X1098123Y-425039D01*
G01X1098420Y-428015D01*
G01X1098570Y-431002D01*
G01X1098570Y-433995D01*
G01X1098420Y-436982D01*
G01X1098123Y-439958D01*
G01X1097676Y-442918D01*
G01X1097084Y-445849D01*
G01X1096345Y-448749D01*
G01X1095464Y-451607D01*
G01X1094440Y-454419D01*
G01X1093280Y-457175D01*
G01X1091982Y-459872D01*
G01X1090549Y-462498D01*
G01X1088989Y-465051D01*
G01X1087305Y-467523D01*
G01X1085497Y-469908D01*
G01X1083574Y-472199D01*
G01X1081540Y-474393D01*
G01X1079398Y-476481D01*
G01X1077156Y-478462D01*
G01X1074816Y-480327D01*
G01X1072388Y-482072D01*
G01X1069873Y-483695D01*
G01X1067283Y-485191D01*
G01X1064621Y-486557D01*
G01X1061895Y-487787D01*
G01X1059109Y-488879D01*
G01X1056274Y-489834D01*
G01X1053394Y-490644D01*
G01X1050478Y-491310D01*
G01X1047532Y-491828D01*
G01X1044562Y-492201D01*
G01X1041578Y-492425D01*
G01X1038588Y-492498D01*
G01X958588Y-492498D01*
G01X955599Y-492425D01*
G01X952614Y-492201D01*
G01X949645Y-491828D01*
G01X946699Y-491310D01*
G01X943783Y-490644D01*
G01X940902Y-489834D01*
G01X938068Y-488879D01*
G01X935281Y-487787D01*
G01X932556Y-486557D01*
G01X929894Y-485191D01*
G01X927303Y-483695D01*
G01X924789Y-482072D01*
G01X922360Y-480327D01*
G01X920021Y-478462D01*
G01X917778Y-476481D01*
G01X915637Y-474393D01*
G01X913602Y-472199D01*
G01X911680Y-469908D01*
G01X909871Y-467523D01*
G01X908187Y-465051D01*
G01X906628Y-462498D01*
G01X905195Y-459872D01*
G01X903897Y-457175D01*
G01X902736Y-454419D01*
G01X901713Y-451607D01*
G01X900831Y-448749D01*
G01X900092Y-445849D01*
G01X899500Y-442918D01*
G01X899053Y-439958D01*
G01X898756Y-436982D01*
G01X898606Y-433995D01*
G37*
G36*
G01X1343772Y-428015D02*
G01X1344069Y-425039D01*
G01X1344516Y-422079D01*
G01X1345108Y-419148D01*
G01X1345847Y-416248D01*
G01X1346728Y-413390D01*
G01X1347752Y-410578D01*
G01X1348913Y-407822D01*
G01X1350211Y-405125D01*
G01X1351643Y-402499D01*
G01X1353203Y-399946D01*
G01X1354887Y-397474D01*
G01X1356695Y-395089D01*
G01X1358618Y-392798D01*
G01X1360653Y-390604D01*
G01X1362794Y-388516D01*
G01X1365037Y-386535D01*
G01X1367376Y-384670D01*
G01X1369804Y-382925D01*
G01X1372319Y-381302D01*
G01X1374910Y-379806D01*
G01X1377572Y-378440D01*
G01X1380297Y-377210D01*
G01X1383083Y-376118D01*
G01X1385918Y-375163D01*
G01X1388798Y-374353D01*
G01X1391714Y-373687D01*
G01X1394661Y-373169D01*
G01X1397630Y-372796D01*
G01X1400614Y-372572D01*
G01X1403604Y-372499D01*
G01X1433604Y-372499D01*
G01X1436594Y-372572D01*
G01X1439578Y-372796D01*
G01X1442547Y-373169D01*
G01X1445494Y-373687D01*
G01X1448410Y-374353D01*
G01X1451290Y-375163D01*
G01X1454125Y-376118D01*
G01X1456911Y-377210D01*
G01X1459636Y-378440D01*
G01X1462298Y-379806D01*
G01X1464889Y-381302D01*
G01X1467404Y-382925D01*
G01X1469832Y-384670D01*
G01X1472171Y-386535D01*
G01X1474414Y-388516D01*
G01X1476555Y-390604D01*
G01X1478590Y-392798D01*
G01X1480513Y-395089D01*
G01X1482321Y-397474D01*
G01X1484005Y-399946D01*
G01X1485565Y-402499D01*
G01X1486997Y-405125D01*
G01X1488295Y-407822D01*
G01X1489456Y-410578D01*
G01X1490480Y-413390D01*
G01X1491361Y-416248D01*
G01X1492100Y-419148D01*
G01X1492692Y-422079D01*
G01X1493139Y-425039D01*
G01X1493436Y-428015D01*
G01X1493586Y-431002D01*
G01X1493586Y-433995D01*
G01X1493436Y-436982D01*
G01X1493139Y-439958D01*
G01X1492692Y-442918D01*
G01X1492100Y-445849D01*
G01X1491361Y-448749D01*
G01X1490480Y-451607D01*
G01X1489456Y-454419D01*
G01X1488295Y-457175D01*
G01X1486997Y-459872D01*
G01X1485565Y-462498D01*
G01X1484005Y-465051D01*
G01X1482321Y-467523D01*
G01X1480513Y-469908D01*
G01X1478590Y-472199D01*
G01X1476555Y-474393D01*
G01X1474414Y-476481D01*
G01X1472171Y-478462D01*
G01X1469832Y-480327D01*
G01X1467404Y-482072D01*
G01X1464889Y-483695D01*
G01X1462298Y-485191D01*
G01X1459636Y-486557D01*
G01X1456911Y-487787D01*
G01X1454125Y-488879D01*
G01X1451290Y-489834D01*
G01X1448410Y-490644D01*
G01X1445494Y-491310D01*
G01X1442547Y-491828D01*
G01X1439578Y-492201D01*
G01X1436594Y-492425D01*
G01X1433604Y-492498D01*
G01X1403604Y-492498D01*
G01X1400614Y-492425D01*
G01X1397630Y-492201D01*
G01X1394661Y-491828D01*
G01X1391714Y-491310D01*
G01X1388798Y-490644D01*
G01X1385918Y-489834D01*
G01X1383083Y-488879D01*
G01X1380297Y-487787D01*
G01X1377572Y-486557D01*
G01X1374910Y-485191D01*
G01X1372319Y-483695D01*
G01X1369804Y-482072D01*
G01X1367376Y-480327D01*
G01X1365037Y-478462D01*
G01X1362794Y-476481D01*
G01X1360653Y-474393D01*
G01X1358618Y-472199D01*
G01X1356695Y-469908D01*
G01X1354887Y-467523D01*
G01X1353203Y-465051D01*
G01X1351643Y-462498D01*
G01X1350211Y-459872D01*
G01X1348913Y-457175D01*
G01X1347752Y-454419D01*
G01X1346728Y-451607D01*
G01X1345847Y-448749D01*
G01X1345108Y-445849D01*
G01X1344516Y-442918D01*
G01X1344069Y-439958D01*
G01X1343772Y-436982D01*
G01X1343622Y-433995D01*
G01X1343622Y-431002D01*
G01X1343772Y-428015D01*
G37*
G36*
G01X1343622Y431002D02*
G01X1343622Y433995D01*
G01X1343772Y436982D01*
G01X1344069Y439958D01*
G01X1344516Y442918D01*
G01X1345108Y445849D01*
G01X1345847Y448749D01*
G01X1346728Y451607D01*
G01X1347752Y454419D01*
G01X1348913Y457175D01*
G01X1350211Y459872D01*
G01X1351643Y462498D01*
G01X1353203Y465051D01*
G01X1354887Y467523D01*
G01X1356695Y469908D01*
G01X1358618Y472199D01*
G01X1360653Y474393D01*
G01X1362794Y476481D01*
G01X1365037Y478462D01*
G01X1367376Y480327D01*
G01X1369804Y482072D01*
G01X1372319Y483695D01*
G01X1374910Y485191D01*
G01X1377572Y486557D01*
G01X1380297Y487787D01*
G01X1383083Y488879D01*
G01X1385918Y489834D01*
G01X1388798Y490644D01*
G01X1391714Y491310D01*
G01X1394661Y491828D01*
G01X1397630Y492201D01*
G01X1400614Y492425D01*
G01X1403604Y492498D01*
G01X1433604Y492498D01*
G01X1436594Y492425D01*
G01X1439578Y492201D01*
G01X1442547Y491828D01*
G01X1445494Y491310D01*
G01X1448410Y490644D01*
G01X1451290Y489834D01*
G01X1454125Y488879D01*
G01X1456911Y487787D01*
G01X1459636Y486557D01*
G01X1462298Y485191D01*
G01X1464889Y483695D01*
G01X1467404Y482072D01*
G01X1469832Y480327D01*
G01X1472171Y478462D01*
G01X1474414Y476481D01*
G01X1476555Y474393D01*
G01X1478590Y472199D01*
G01X1480513Y469908D01*
G01X1482321Y467523D01*
G01X1484005Y465051D01*
G01X1485565Y462498D01*
G01X1486997Y459872D01*
G01X1488295Y457175D01*
G01X1489456Y454419D01*
G01X1490480Y451607D01*
G01X1491361Y448749D01*
G01X1492100Y445849D01*
G01X1492692Y442918D01*
G01X1493139Y439958D01*
G01X1493436Y436982D01*
G01X1493586Y433995D01*
G01X1493586Y431002D01*
G01X1493436Y428015D01*
G01X1493139Y425039D01*
G01X1492692Y422079D01*
G01X1492100Y419148D01*
G01X1491361Y416248D01*
G01X1490480Y413390D01*
G01X1489456Y410578D01*
G01X1488295Y407822D01*
G01X1486997Y405125D01*
G01X1485565Y402499D01*
G01X1484005Y399946D01*
G01X1482321Y397474D01*
G01X1480513Y395089D01*
G01X1478590Y392798D01*
G01X1476555Y390604D01*
G01X1474414Y388516D01*
G01X1472171Y386535D01*
G01X1469832Y384670D01*
G01X1467404Y382925D01*
G01X1464889Y381302D01*
G01X1462298Y379806D01*
G01X1459636Y378440D01*
G01X1456911Y377210D01*
G01X1454125Y376118D01*
G01X1451290Y375163D01*
G01X1448410Y374353D01*
G01X1445494Y373687D01*
G01X1442547Y373169D01*
G01X1439578Y372796D01*
G01X1436594Y372572D01*
G01X1433604Y372499D01*
G01X1403604Y372499D01*
G01X1400614Y372572D01*
G01X1397630Y372796D01*
G01X1394661Y373169D01*
G01X1391714Y373687D01*
G01X1388798Y374353D01*
G01X1385918Y375163D01*
G01X1383083Y376118D01*
G01X1380297Y377210D01*
G01X1377572Y378440D01*
G01X1374910Y379806D01*
G01X1372319Y381302D01*
G01X1369804Y382925D01*
G01X1367376Y384670D01*
G01X1365037Y386535D01*
G01X1362794Y388516D01*
G01X1360653Y390604D01*
G01X1358618Y392798D01*
G01X1356695Y395089D01*
G01X1354887Y397474D01*
G01X1353203Y399946D01*
G01X1351643Y402499D01*
G01X1350211Y405125D01*
G01X1348913Y407822D01*
G01X1347752Y410578D01*
G01X1346728Y413390D01*
G01X1345847Y416248D01*
G01X1345108Y419148D01*
G01X1344516Y422079D01*
G01X1344069Y425039D01*
G01X1343772Y428015D01*
G01X1343622Y431002D01*
G37*

G04 Pad Start*
G54D10*
G01X1153109Y-711200D03*
G01X1590091Y-711200D03*
G54D11*
G01X-447510Y19304D03*
G01X-447510Y209296D03*
G01X-187490Y209296D03*
G01X-187490Y114300D03*
G01X-187490Y19304D03*
G54D12*
G01X-405892Y-629310D03*
G01X583692Y-629310D03*
G54D13*
G01X413893Y-361290D03*
G01X363906Y-361290D03*
G01X313893Y-361290D03*
G01X263906Y-361290D03*
G01X213893Y-361290D03*
G01X163906Y-361290D03*
G01X113894Y-361290D03*
G01X63906Y-361290D03*
G01X13894Y-361290D03*
G01X-36093Y-361290D03*
G01X-86106Y-361290D03*
G01X-136093Y-361290D03*
G01X-186106Y-361442D03*
G01X-236093Y-361290D03*
G54D12*
G01X583692Y629310D03*
G01X-405892Y629310D03*
G54D13*
G01X-236093Y361290D03*
G01X-186106Y361290D03*
G01X-136093Y361290D03*
G01X-86106Y361290D03*
G01X-36093Y361290D03*
G01X13894Y361290D03*
G01X63906Y361290D03*
G01X113894Y361290D03*
G01X163906Y361290D03*
G01X213893Y361290D03*
G01X263906Y361290D03*
G01X313893Y361290D03*
G01X363906Y361442D03*
G01X413893Y361290D03*
G54D14*
G01X746697Y817004D03*
G01X746697Y706996D03*
G01X929704Y706996D03*
G01X929704Y817004D03*
G54D10*
G01X1153109Y711200D03*
G01X1590091Y711200D03*
G54D15*
G01X-1783806Y219710D03*
G01X-1783806Y139700D03*
G01X-1783806Y59690D03*
G01X-1783806Y-20295D03*
G01X-1783806Y-100305D03*
G01X-1783806Y-180289D03*
G01X-1783806Y-260299D03*
G01X-1783806Y-340309D03*
G01X-1783806Y-420294D03*
G01X-1783806Y-500304D03*
G01X-1783806Y-580314D03*
G54D16*
G01X-1673799Y-667791D03*
G01X-1593814Y-667791D03*
G01X-1513804Y-667791D03*
G01X-1433794Y-667791D03*
G01X-1353810Y-667791D03*
G01X-1273800Y-667791D03*
G01X-1193815Y-667791D03*
G01X-1113805Y-667791D03*
G01X-1033795Y-667791D03*
G01X-953811Y-667791D03*
G01X-873801Y-667791D03*
G01X-793791Y-667791D03*
G01X-713806Y-667791D03*
G54D15*
G01X-603799Y-580314D03*
G01X-603799Y-500304D03*
G01X-603799Y-420294D03*
G01X-603799Y-340309D03*
G01X-603799Y-260299D03*
G01X-603799Y-180315D03*
G01X-603799Y-100305D03*
G01X-603799Y-20295D03*
G01X-603799Y59690D03*
G01X-603799Y139700D03*
G01X-603799Y219710D03*
G54D16*
G01X-713806Y312191D03*
G01X-793791Y312191D03*
G01X-873801Y312191D03*
G01X-953811Y312191D03*
G01X-1033795Y312191D03*
G01X-1113805Y312191D03*
G01X-1193790Y312191D03*
G01X-1273800Y312191D03*
G01X-1353810Y312191D03*
G01X-1433794Y312191D03*
G01X-1513804Y312191D03*
G01X-1593789Y312191D03*
G01X-1673799Y312191D03*
G54D17*
G01X-1191301Y-172796D03*
G54D19*
G01X-598795Y317195D03*
G01X-598795Y-672795D03*
G01X-1788810Y-672795D03*
G01X-1788810Y317195D03*
G54D17*
G01X-1371310Y-172796D03*
G01X-1371310Y7214D03*
G01X-1191301Y7214D03*
G01X-1011316Y7214D03*
G01X-1011316Y-172796D03*
G01X-1371310Y-352781D03*
G01X-1191301Y-352781D03*
G01X-1011316Y-352781D03*
G04 Pad End*

M02*

