G04 Layer: BottomSilkscreenLayer*
G04 EasyEDA Pro v3.2.149.88089769, 2026-08-12 00:03:06*
G04 Gerber Generator version 0.3*
G04 Scale: 100 percent, Rotated: No, Reflected: No*
G04 Dimensions in millimeters*
G04 Leading zeros omitted, absolute positions, 4 integers and 5 decimals*
G04 Generated by one-click*
G04 Object Configs: Pad,Via,Track,Text,Image,Dimension,BoardOutline,BoardCutout,CopperFilled,SolidRegion,FPCStiffener,Line,PlaneZone,ComponentProperty,ComponentSilkscreen,TearDrop*
G04 Layer Configs: 1,15,16,2,3,4,5,6,7,8,9,10,11,13,14,56*
G04 Copper Areas: 0*
%FSLAX45Y45*%
%MOMM*%
%ADD10C,0.3*%
%ADD11C,0.1524*%
%ADD12C,0.254*%
%ADD13C,0.15199*%
%ADD14C,0.15001*%
%ADD15C,0.9104*%
G75*


G04 Image Start*
G36*
G01X1506065Y-352269D02*
G01X1502486Y-352269D01*
G01X1502486Y-352985D01*
G01X1487453Y-352985D01*
G01X1487453Y-352269D01*
G01X1484589Y-352269D01*
G01X1484589Y-351554D01*
G01X1482442Y-351554D01*
G01X1482442Y-350838D01*
G01X1481010Y-350838D01*
G01X1481010Y-350122D01*
G01X1475283Y-350122D01*
G01X1475283Y-350838D01*
G01X1470988Y-350838D01*
G01X1470988Y-351554D01*
G01X1456671Y-351554D01*
G01X1456671Y-350838D01*
G01X1453807Y-350838D01*
G01X1453807Y-350122D01*
G01X1451660Y-350122D01*
G01X1451660Y-349406D01*
G01X1449512Y-349406D01*
G01X1449512Y-348690D01*
G01X1448080Y-348690D01*
G01X1448080Y-347974D01*
G01X1446649Y-347974D01*
G01X1446649Y-347258D01*
G01X1445217Y-347258D01*
G01X1445217Y-346543D01*
G01X1443785Y-346543D01*
G01X1443785Y-345827D01*
G01X1442353Y-345827D01*
G01X1442353Y-345111D01*
G01X1264105Y-345111D01*
G01X1264105Y-345827D01*
G01X1262673Y-345827D01*
G01X1262673Y-346543D01*
G01X1261241Y-346543D01*
G01X1261241Y-347258D01*
G01X1259809Y-347258D01*
G01X1259809Y-347974D01*
G01X1258378Y-347974D01*
G01X1258378Y-348690D01*
G01X1256946Y-348690D01*
G01X1256946Y-349406D01*
G01X1254798Y-349406D01*
G01X1254798Y-350122D01*
G01X1252651Y-350122D01*
G01X1252651Y-350838D01*
G01X1249072Y-350838D01*
G01X1249072Y-351554D01*
G01X1234754Y-351554D01*
G01X1234754Y-350838D01*
G01X1231175Y-350838D01*
G01X1231175Y-350122D01*
G01X1225448Y-350122D01*
G01X1225448Y-350838D01*
G01X1224017Y-350838D01*
G01X1224017Y-351554D01*
G01X1221869Y-351554D01*
G01X1221869Y-352269D01*
G01X1219005Y-352269D01*
G01X1219005Y-352985D01*
G01X1203972Y-352985D01*
G01X1203972Y-352269D01*
G01X1200393Y-352269D01*
G01X1200393Y-351554D01*
G01X1198246Y-351554D01*
G01X1198246Y-350838D01*
G01X1196098Y-350838D01*
G01X1196098Y-350122D01*
G01X1193950Y-350122D01*
G01X1193950Y-349406D01*
G01X1192519Y-349406D01*
G01X1192519Y-348690D01*
G01X1191087Y-348690D01*
G01X1191087Y-347974D01*
G01X1188224Y-347974D01*
G01X1188224Y-348690D01*
G01X1186792Y-348690D01*
G01X1186792Y-349406D01*
G01X1184644Y-349406D01*
G01X1184644Y-350122D01*
G01X1182497Y-350122D01*
G01X1182497Y-350838D01*
G01X1180349Y-350838D01*
G01X1180349Y-351554D01*
G01X1173906Y-351554D01*
G01X1173906Y-352269D01*
G01X1171043Y-352269D01*
G01X1171043Y-351554D01*
G01X1164600Y-351554D01*
G01X1164600Y-350838D01*
G01X1161737Y-350838D01*
G01X1161737Y-350122D01*
G01X1159589Y-350122D01*
G01X1159589Y-349406D01*
G01X1158157Y-349406D01*
G01X1158157Y-348690D01*
G01X1156726Y-348690D01*
G01X1156726Y-347974D01*
G01X1155294Y-347974D01*
G01X1155294Y-347258D01*
G01X1154020Y-347258D01*
G01X1152988Y-345827D01*
G01X1151715Y-345827D01*
G01X1151715Y-345111D01*
G01X1025724Y-345111D01*
G01X1025724Y-344395D01*
G01X1023915Y-344395D01*
G01X1020713Y-341192D01*
G01X1020713Y-339384D01*
G01X1019997Y-339384D01*
G01X1019997Y-336521D01*
G01X1020713Y-336521D01*
G01X1020713Y-334712D01*
G01X1023915Y-331510D01*
G01X1025008Y-331510D01*
G01X1025008Y-330794D01*
G01X1112036Y-330794D01*
G01X1112547Y-330282D01*
G01X1113058Y-329771D01*
G01X1113058Y-329362D01*
G01X1125944Y-329362D01*
G01X1125944Y-332225D01*
G01X1127376Y-332225D01*
G01X1127376Y-332941D01*
G01X1129523Y-332941D01*
G01X1129523Y-332225D01*
G01X1130955Y-332225D01*
G01X1130955Y-332941D01*
G01X1140977Y-332941D01*
G01X1140977Y-330794D01*
G01X1140261Y-330794D01*
G01X1140261Y-328646D01*
G01X1139545Y-328646D01*
G01X1139545Y-326499D01*
G01X1138829Y-326499D01*
G01X1138829Y-322919D01*
G01X1138113Y-322919D01*
G01X1138113Y-318624D01*
G01X1137398Y-318624D01*
G01X1137398Y-316477D01*
G01X1138113Y-316477D01*
G01X1138113Y-314329D01*
G01X1138829Y-314329D01*
G01X1138829Y-313231D01*
G01X1140070Y-311990D01*
G01X1141311Y-310750D01*
G01X1143124Y-310750D01*
G01X1143124Y-310034D01*
G01X1145272Y-310034D01*
G01X1145272Y-310750D01*
G01X1147080Y-310750D01*
G01X1150283Y-313952D01*
G01X1150283Y-315045D01*
G01X1150999Y-315045D01*
G01X1150999Y-319340D01*
G01X1151715Y-319340D01*
G01X1151715Y-322919D01*
G01X1152431Y-322919D01*
G01X1152431Y-325067D01*
G01X1153146Y-325067D01*
G01X1153146Y-327214D01*
G01X1153862Y-327214D01*
G01X1153862Y-328646D01*
G01X1154578Y-328646D01*
G01X1154578Y-329920D01*
G01X1156010Y-330952D01*
G01X1156010Y-331883D01*
G01X1157971Y-333844D01*
G01X1159932Y-335805D01*
G01X1161021Y-335805D01*
G01X1161021Y-336521D01*
G01X1162453Y-336521D01*
G01X1162453Y-337236D01*
G01X1164600Y-337236D01*
G01X1164600Y-337952D01*
G01X1166748Y-337952D01*
G01X1166748Y-338668D01*
G01X1178202Y-338668D01*
G01X1178202Y-337952D01*
G01X1180349Y-337952D01*
G01X1180349Y-337236D01*
G01X1181781Y-337236D01*
G01X1181781Y-336521D01*
G01X1183213Y-336521D01*
G01X1183213Y-335805D01*
G01X1184644Y-335805D01*
G01X1184644Y-334531D01*
G01X1186076Y-333499D01*
G01X1186076Y-332383D01*
G01X1187508Y-331352D01*
G01X1187508Y-329362D01*
G01X1188224Y-329362D01*
G01X1188224Y-327214D01*
G01X1188939Y-327214D01*
G01X1188939Y-322919D01*
G01X1189655Y-322919D01*
G01X1189655Y-312181D01*
G01X1188939Y-312181D01*
G01X1188939Y-305739D01*
G01X1189655Y-305739D01*
G01X1189655Y-304641D01*
G01X1190896Y-303400D01*
G01X1192137Y-302159D01*
G01X1193235Y-302159D01*
G01X1193235Y-301443D01*
G01X1197530Y-301443D01*
G01X1197530Y-302159D01*
G01X1198622Y-302159D01*
G01X1201825Y-305362D01*
G01X1201825Y-307170D01*
G01X1202541Y-307170D01*
G01X1202541Y-312897D01*
G01X1203257Y-312897D01*
G01X1203257Y-322203D01*
G01X1202541Y-322203D01*
G01X1202541Y-327214D01*
G01X1201825Y-327214D01*
G01X1201825Y-330794D01*
G01X1201109Y-330794D01*
G01X1201109Y-332941D01*
G01X1200393Y-332941D01*
G01X1200393Y-334373D01*
G01X1199677Y-334373D01*
G01X1199677Y-337646D01*
G01X1200189Y-338157D01*
G01X1200700Y-338668D01*
G01X1202541Y-338668D01*
G01X1202541Y-339384D01*
G01X1202541Y-339384D01*
G01X1206120Y-339384D01*
G01X1206120Y-340100D01*
G01X1216858Y-340100D01*
G01X1216858Y-339384D01*
G01X1219005Y-339384D01*
G01X1219005Y-338668D01*
G01X1220437Y-338668D01*
G01X1220437Y-337952D01*
G01X1221869Y-337952D01*
G01X1221869Y-337236D01*
G01X1222962Y-337236D01*
G01X1226164Y-334034D01*
G01X1226164Y-333099D01*
G01X1227596Y-332067D01*
G01X1227596Y-330794D01*
G01X1228312Y-330794D01*
G01X1228312Y-328646D01*
G01X1229028Y-328646D01*
G01X1229028Y-327214D01*
G01X1229743Y-327214D01*
G01X1229743Y-324351D01*
G01X1230459Y-324351D01*
G01X1230459Y-320772D01*
G01X1231175Y-320772D01*
G01X1231175Y-311465D01*
G01X1231891Y-311465D01*
G01X1231891Y-310034D01*
G01X1232607Y-310034D01*
G01X1232607Y-308927D01*
G01X1233485Y-308049D01*
G01X1234364Y-307170D01*
G01X1236186Y-307170D01*
G01X1236186Y-306454D01*
G01X1239765Y-306454D01*
G01X1239765Y-307170D01*
G01X1240858Y-307170D01*
G01X1244061Y-310373D01*
G01X1244061Y-312181D01*
G01X1244776Y-312181D01*
G01X1244776Y-318624D01*
G01X1244061Y-318624D01*
G01X1244061Y-324351D01*
G01X1243345Y-324351D01*
G01X1243345Y-327930D01*
G01X1242629Y-327930D01*
G01X1242629Y-330078D01*
G01X1241913Y-330078D01*
G01X1241913Y-332225D01*
G01X1241197Y-332225D01*
G01X1241197Y-334373D01*
G01X1240481Y-334373D01*
G01X1240481Y-335805D01*
G01X1239765Y-335805D01*
G01X1239765Y-338668D01*
G01X1246924Y-338668D01*
G01X1246924Y-337952D01*
G01X1250503Y-337952D01*
G01X1250503Y-337236D01*
G01X1252651Y-337236D01*
G01X1252651Y-336521D01*
G01X1254083Y-336521D01*
G01X1254083Y-335805D01*
G01X1255514Y-335805D01*
G01X1255514Y-335089D01*
G01X1256644Y-335089D01*
G01X1259395Y-332225D01*
G01X1260191Y-332225D01*
G01X1261432Y-330985D01*
G01X1262673Y-329744D01*
G01X1262673Y-328933D01*
G01X1264820Y-326927D01*
G01X1264820Y-325783D01*
G01X1265536Y-325783D01*
G01X1265536Y-324351D01*
G01X1266252Y-324351D01*
G01X1266252Y-322919D01*
G01X1266968Y-322919D01*
G01X1266968Y-321488D01*
G01X1267684Y-321488D01*
G01X1267684Y-318624D01*
G01X1268400Y-318624D01*
G01X1268400Y-315761D01*
G01X1269116Y-315761D01*
G01X1269116Y-302159D01*
G01X1268400Y-302159D01*
G01X1268400Y-298580D01*
G01X1267684Y-298580D01*
G01X1267684Y-295717D01*
G01X1266968Y-295717D01*
G01X1266968Y-293569D01*
G01X1266252Y-293569D01*
G01X1266252Y-292137D01*
G01X1265536Y-292137D01*
G01X1265536Y-289990D01*
G01X1264820Y-289990D01*
G01X1264820Y-288558D01*
G01X1264105Y-288558D01*
G01X1264105Y-287126D01*
G01X1263389Y-287126D01*
G01X1263389Y-285695D01*
G01X1262673Y-285695D01*
G01X1262673Y-284263D01*
G01X1261957Y-284263D01*
G01X1261957Y-282989D01*
G01X1260525Y-281957D01*
G01X1260525Y-280971D01*
G01X1258378Y-278965D01*
G01X1258378Y-278107D01*
G01X1256230Y-276101D01*
G01X1256230Y-275304D01*
G01X1250156Y-269230D01*
G01X1249373Y-269230D01*
G01X1246622Y-266366D01*
G01X1245650Y-266366D01*
G01X1244618Y-264935D01*
G01X1243503Y-264935D01*
G01X1242471Y-263503D01*
G01X1241197Y-263503D01*
G01X1241197Y-262787D01*
G01X1239765Y-262787D01*
G01X1239765Y-262071D01*
G01X1238334Y-262071D01*
G01X1238334Y-261355D01*
G01X1236902Y-261355D01*
G01X1236902Y-260640D01*
G01X1235470Y-260640D01*
G01X1235470Y-259924D01*
G01X1234039Y-259924D01*
G01X1234039Y-259208D01*
G01X1232607Y-259208D01*
G01X1232607Y-258492D01*
G01X1231175Y-258492D01*
G01X1231175Y-257776D01*
G01X1229028Y-257776D01*
G01X1229028Y-257060D01*
G01X1226164Y-257060D01*
G01X1226164Y-256344D01*
G01X1224017Y-256344D01*
G01X1224017Y-255628D01*
G01X1221153Y-255628D01*
G01X1221153Y-254913D01*
G01X1216858Y-254913D01*
G01X1216858Y-254197D01*
G01X1209699Y-254197D01*
G01X1209699Y-253481D01*
G01X1189655Y-253481D01*
G01X1189655Y-254197D01*
G01X1182497Y-254197D01*
G01X1182497Y-254913D01*
G01X1178202Y-254913D01*
G01X1178202Y-255628D01*
G01X1174622Y-255628D01*
G01X1174622Y-256344D01*
G01X1171759Y-256344D01*
G01X1171759Y-257060D01*
G01X1169611Y-257060D01*
G01X1169611Y-257776D01*
G01X1167464Y-257776D01*
G01X1167464Y-258492D01*
G01X1166032Y-258492D01*
G01X1166032Y-259208D01*
G01X1164600Y-259208D01*
G01X1164600Y-259924D01*
G01X1162453Y-259924D01*
G01X1162453Y-260640D01*
G01X1161179Y-260640D01*
G01X1160147Y-262071D01*
G01X1158873Y-262071D01*
G01X1158873Y-262787D01*
G01X1157442Y-262787D01*
G01X1157442Y-263503D01*
G01X1156297Y-263503D01*
G01X1154291Y-265651D01*
G01X1153434Y-265651D01*
G01X1151428Y-267798D01*
G01X1150629Y-267798D01*
G01X1147951Y-270477D01*
G01X1145272Y-273155D01*
G01X1145272Y-273954D01*
G01X1143124Y-275960D01*
G01X1143124Y-276817D01*
G01X1140977Y-278823D01*
G01X1140977Y-279968D01*
G01X1140261Y-279968D01*
G01X1140261Y-281241D01*
G01X1138829Y-282273D01*
G01X1138829Y-283547D01*
G01X1138113Y-283547D01*
G01X1138113Y-284979D01*
G01X1137398Y-284979D01*
G01X1137398Y-286252D01*
G01X1135966Y-287284D01*
G01X1135966Y-289274D01*
G01X1135250Y-289274D01*
G01X1135250Y-290706D01*
G01X1134534Y-290706D01*
G01X1134534Y-292853D01*
G01X1133818Y-292853D01*
G01X1133818Y-294285D01*
G01X1133102Y-294285D01*
G01X1133102Y-297148D01*
G01X1132387Y-297148D01*
G01X1132387Y-298580D01*
G01X1131671Y-298580D01*
G01X1131671Y-301443D01*
G01X1130955Y-301443D01*
G01X1130955Y-303591D01*
G01X1130239Y-303591D01*
G01X1130239Y-306454D01*
G01X1129523Y-306454D01*
G01X1129523Y-310034D01*
G01X1128807Y-310034D01*
G01X1128807Y-312897D01*
G01X1128091Y-312897D01*
G01X1128091Y-317192D01*
G01X1127376Y-317192D01*
G01X1127376Y-322203D01*
G01X1126660Y-322203D01*
G01X1126660Y-329362D01*
G01X1125944Y-329362D01*
G01X1113058Y-329362D01*
G01X1113058Y-327214D01*
G01X1113774Y-327214D01*
G01X1113774Y-320772D01*
G01X1114490Y-320772D01*
G01X1114490Y-315761D01*
G01X1115206Y-315761D01*
G01X1115206Y-311465D01*
G01X1115922Y-311465D01*
G01X1115922Y-307886D01*
G01X1116638Y-307886D01*
G01X1116638Y-304307D01*
G01X1117354Y-304307D01*
G01X1117354Y-301443D01*
G01X1118069Y-301443D01*
G01X1118069Y-298580D01*
G01X1118785Y-298580D01*
G01X1118785Y-296432D01*
G01X1119501Y-296432D01*
G01X1119501Y-294285D01*
G01X1120217Y-294285D01*
G01X1120217Y-292137D01*
G01X1120933Y-292137D01*
G01X1120933Y-289990D01*
G01X1121649Y-289990D01*
G01X1121649Y-287842D01*
G01X1122365Y-287842D01*
G01X1122365Y-282115D01*
G01X1123080Y-282115D01*
G01X1123080Y-275673D01*
G01X1123796Y-275673D01*
G01X1123796Y-271377D01*
G01X1124512Y-271377D01*
G01X1124512Y-267798D01*
G01X1125228Y-267798D01*
G01X1125228Y-264219D01*
G01X1125944Y-264219D01*
G01X1125944Y-261355D01*
G01X1126660Y-261355D01*
G01X1126660Y-258492D01*
G01X1127376Y-258492D01*
G01X1127376Y-255628D01*
G01X1128091Y-255628D01*
G01X1128091Y-253481D01*
G01X1128807Y-253481D01*
G01X1128807Y-251333D01*
G01X1129523Y-251333D01*
G01X1129523Y-249186D01*
G01X1130239Y-249186D01*
G01X1130239Y-247754D01*
G01X1130955Y-247754D01*
G01X1130955Y-245913D01*
G01X1130443Y-245402D01*
G01X1129932Y-244891D01*
G01X1127376Y-244891D01*
G01X1127376Y-244175D01*
G01X1126269Y-244175D01*
G01X1125391Y-243296D01*
G01X1124512Y-242418D01*
G01X1124512Y-241311D01*
G01X1123796Y-241311D01*
G01X1123796Y-239880D01*
G01X1123080Y-239880D01*
G01X1123080Y-236300D01*
G01X1123796Y-236300D01*
G01X1123796Y-234153D01*
G01X1124512Y-234153D01*
G01X1124512Y-232005D01*
G01X1125228Y-232005D01*
G01X1125228Y-230573D01*
G01X1125944Y-230573D01*
G01X1125944Y-228426D01*
G01X1126660Y-228426D01*
G01X1141693Y-228426D01*
G01X1141693Y-230573D01*
G01X1145988Y-230573D01*
G01X1145988Y-231289D01*
G01X1147080Y-231289D01*
G01X1150283Y-234492D01*
G01X1150283Y-235584D01*
G01X1150999Y-235584D01*
G01X1150999Y-239880D01*
G01X1150283Y-239880D01*
G01X1150283Y-241869D01*
G01X1148851Y-242901D01*
G01X1148851Y-244017D01*
G01X1147420Y-245049D01*
G01X1147420Y-246322D01*
G01X1146704Y-246322D01*
G01X1146704Y-247754D01*
G01X1145988Y-247754D01*
G01X1145988Y-249186D01*
G01X1145272Y-249186D01*
G01X1145272Y-250617D01*
G01X1144556Y-250617D01*
G01X1144556Y-252765D01*
G01X1143840Y-252765D01*
G01X1143840Y-254197D01*
G01X1143840Y-254197D01*
G01X1143124Y-254197D01*
G01X1143124Y-256344D01*
G01X1144556Y-256344D01*
G01X1144556Y-255628D01*
G01X1145701Y-255628D01*
G01X1147707Y-253481D01*
G01X1148693Y-253481D01*
G01X1149725Y-252049D01*
G01X1150841Y-252049D01*
G01X1151873Y-250617D01*
G01X1153146Y-250617D01*
G01X1153146Y-249902D01*
G01X1154578Y-249902D01*
G01X1154578Y-249186D01*
G01X1156010Y-249186D01*
G01X1156010Y-248470D01*
G01X1157442Y-248470D01*
G01X1157442Y-247754D01*
G01X1158873Y-247754D01*
G01X1158873Y-247038D01*
G01X1161021Y-247038D01*
G01X1161021Y-246322D01*
G01X1162453Y-246322D01*
G01X1162453Y-245606D01*
G01X1164600Y-245606D01*
G01X1164600Y-244891D01*
G01X1166748Y-244891D01*
G01X1166748Y-244175D01*
G01X1169611Y-244175D01*
G01X1169611Y-243459D01*
G01X1171759Y-243459D01*
G01X1171759Y-242743D01*
G01X1175338Y-242743D01*
G01X1175338Y-242027D01*
G01X1178917Y-242027D01*
G01X1178917Y-241311D01*
G01X1181065Y-241311D01*
G01X1181065Y-240181D01*
G01X1178202Y-237430D01*
G01X1178202Y-236602D01*
G01X1175338Y-233851D01*
G01X1175338Y-233023D01*
G01X1172475Y-230272D01*
G01X1172475Y-229300D01*
G01X1171043Y-228268D01*
G01X1171043Y-227281D01*
G01X1168895Y-225275D01*
G01X1168895Y-224131D01*
G01X1168180Y-224131D01*
G01X1168180Y-222857D01*
G01X1166748Y-221825D01*
G01X1166748Y-220551D01*
G01X1166032Y-220551D01*
G01X1166032Y-219120D01*
G01X1165316Y-219120D01*
G01X1165316Y-217846D01*
G01X1163884Y-216814D01*
G01X1163884Y-214825D01*
G01X1163168Y-214825D01*
G01X1163168Y-213393D01*
G01X1162453Y-213393D01*
G01X1162453Y-211961D01*
G01X1161737Y-211961D01*
G01X1161737Y-210529D01*
G01X1161021Y-210529D01*
G01X1161021Y-209098D01*
G01X1160305Y-209098D01*
G01X1160305Y-207666D01*
G01X1159589Y-207666D01*
G01X1159589Y-206234D01*
G01X1158157Y-206234D01*
G01X1158157Y-207666D01*
G01X1157075Y-207666D01*
G01X1153321Y-211420D01*
G01X1149567Y-215174D01*
G01X1149567Y-216098D01*
G01X1148135Y-217130D01*
G01X1148135Y-218246D01*
G01X1146704Y-219278D01*
G01X1146704Y-220393D01*
G01X1145272Y-221425D01*
G01X1145272Y-222699D01*
G01X1144556Y-222699D01*
G01X1144556Y-224131D01*
G01X1143840Y-224131D01*
G01X1143840Y-225562D01*
G01X1143124Y-225562D01*
G01X1143124Y-226994D01*
G01X1142409Y-226994D01*
G01X1142409Y-228426D01*
G01X1141693Y-228426D01*
G01X1126660Y-228426D01*
G01X1126660Y-226994D01*
G01X1127376Y-226994D01*
G01X1127376Y-224847D01*
G01X1128091Y-224847D01*
G01X1128091Y-223415D01*
G01X1128807Y-223415D01*
G01X1128807Y-221983D01*
G01X1129523Y-221983D01*
G01X1129523Y-219836D01*
G01X1130239Y-219836D01*
G01X1130239Y-218562D01*
G01X1131671Y-217530D01*
G01X1131671Y-216256D01*
G01X1132387Y-216256D01*
G01X1132387Y-214825D01*
G01X1133102Y-214825D01*
G01X1133102Y-213551D01*
G01X1134534Y-212519D01*
G01X1134534Y-211403D01*
G01X1135966Y-210371D01*
G01X1135966Y-208382D01*
G01X1133102Y-208382D01*
G01X1133102Y-207666D01*
G01X1130397Y-207666D01*
G01X1129365Y-206234D01*
G01X1128398Y-206234D01*
G01X1127887Y-205723D01*
G01X1127376Y-205212D01*
G01X1127376Y-204087D01*
G01X1126660Y-204087D01*
G01X1126660Y-201939D01*
G01X1125944Y-201939D01*
G01X1125944Y-199076D01*
G01X1126660Y-199076D01*
G01X1126660Y-196928D01*
G01X1127376Y-196928D01*
G01X1127376Y-194780D01*
G01X1128091Y-194780D01*
G01X1128091Y-192633D01*
G01X1128807Y-192633D01*
G01X1128807Y-191201D01*
G01X1129523Y-191201D01*
G01X1129523Y-189054D01*
G01X1130239Y-189054D01*
G01X1130239Y-187622D01*
G01X1130955Y-187622D01*
G01X1130955Y-186190D01*
G01X1131671Y-186190D01*
G01X1131671Y-184758D01*
G01X1132387Y-184758D01*
G01X1132387Y-183327D01*
G01X1133102Y-183327D01*
G01X1133102Y-182053D01*
G01X1134534Y-181021D01*
G01X1134534Y-179747D01*
G01X1135250Y-179747D01*
G01X1135250Y-178316D01*
G01X1135966Y-178316D01*
G01X1135966Y-174021D01*
G01X1135250Y-174021D01*
G01X1135250Y-172589D01*
G01X1134534Y-172589D01*
G01X1134534Y-170441D01*
G01X1133818Y-170441D01*
G01X1133818Y-168294D01*
G01X1133102Y-168294D01*
G01X1133102Y-165430D01*
G01X1132387Y-165430D01*
G01X1132387Y-163283D01*
G01X1131671Y-163283D01*
G01X1131671Y-160419D01*
G01X1130955Y-160419D01*
G01X1130955Y-156840D01*
G01X1130239Y-156840D01*
G01X1130239Y-154283D01*
G01X1129728Y-153772D01*
G01X1129216Y-153261D01*
G01X1125944Y-153261D01*
G01X1125944Y-153977D01*
G01X1122365Y-153977D01*
G01X1122365Y-154692D01*
G01X1119501Y-154692D01*
G01X1119501Y-155408D01*
G01X1117354Y-155408D01*
G01X1117354Y-154692D01*
G01X1115545Y-154692D01*
G01X1112343Y-151490D01*
G01X1112343Y-150397D01*
G01X1111627Y-150397D01*
G01X1111627Y-143239D01*
G01X1112343Y-143239D01*
G01X1112343Y-138943D01*
G01X1113058Y-138943D01*
G01X1113058Y-135364D01*
G01X1113774Y-135364D01*
G01X1128091Y-135364D01*
G01X1128091Y-137512D01*
G01X1131671Y-137512D01*
G01X1131671Y-136796D01*
G01X1135250Y-136796D01*
G01X1135250Y-136080D01*
G01X1136682Y-136080D01*
G01X1136682Y-136796D01*
G01X1138829Y-136796D01*
G01X1138829Y-137512D01*
G01X1139927Y-137512D01*
G01X1141168Y-138753D01*
G01X1142409Y-139993D01*
G01X1142409Y-141091D01*
G01X1143124Y-141091D01*
G01X1143124Y-143239D01*
G01X1143840Y-143239D01*
G01X1143840Y-150397D01*
G01X1144556Y-150397D01*
G01X1144556Y-154692D01*
G01X1145272Y-154692D01*
G01X1145272Y-157556D01*
G01X1145988Y-157556D01*
G01X1145988Y-160419D01*
G01X1146704Y-160419D01*
G01X1146704Y-162567D01*
G01X1147420Y-162567D01*
G01X1147420Y-165430D01*
G01X1148135Y-165430D01*
G01X1148135Y-167578D01*
G01X1148851Y-167578D01*
G01X1148851Y-169010D01*
G01X1149567Y-169010D01*
G01X1149567Y-171157D01*
G01X1150283Y-171157D01*
G01X1150283Y-173305D01*
G01X1150999Y-173305D01*
G01X1150999Y-174736D01*
G01X1151715Y-174736D01*
G01X1151715Y-176168D01*
G01X1152431Y-176168D01*
G01X1152431Y-177600D01*
G01X1154276Y-177600D01*
G01X1157028Y-174736D01*
G01X1158873Y-174736D01*
G01X1158873Y-174021D01*
G01X1162453Y-174021D01*
G01X1162453Y-174736D01*
G01X1163884Y-174736D01*
G01X1163884Y-175452D01*
G01X1165009Y-175452D01*
G01X1165521Y-175964D01*
G01X1166032Y-176475D01*
G01X1166032Y-177442D01*
G01X1167464Y-178474D01*
G01X1167464Y-181179D01*
G01X1168180Y-181179D01*
G01X1168180Y-185474D01*
G01X1168895Y-185474D01*
G01X1168895Y-189054D01*
G01X1169611Y-189054D01*
G01X1169611Y-191917D01*
G01X1170327Y-191917D01*
G01X1170327Y-194065D01*
G01X1171043Y-194065D01*
G01X1171043Y-196212D01*
G01X1171759Y-196212D01*
G01X1171759Y-198360D01*
G01X1172475Y-198360D01*
G01X1172475Y-200507D01*
G01X1173191Y-200507D01*
G01X1173191Y-201939D01*
G01X1173906Y-201939D01*
G01X1173906Y-204087D01*
G01X1174622Y-204087D01*
G01X1174622Y-205518D01*
G01X1175338Y-205518D01*
G01X1175338Y-206950D01*
G01X1176054Y-206950D01*
G01X1176054Y-208382D01*
G01X1176770Y-208382D01*
G01X1176770Y-209655D01*
G01X1178202Y-210687D01*
G01X1178202Y-211961D01*
G01X1178917Y-211961D01*
G01X1178917Y-213235D01*
G01X1180349Y-214267D01*
G01X1180349Y-215540D01*
G01X1181065Y-215540D01*
G01X1181065Y-216814D01*
G01X1182497Y-217846D01*
G01X1182497Y-218962D01*
G01X1183928Y-219994D01*
G01X1183928Y-220980D01*
G01X1186076Y-222986D01*
G01X1186076Y-223829D01*
G01X1188939Y-226580D01*
G01X1188939Y-227387D01*
G01X1193950Y-232329D01*
G01X1193950Y-233437D01*
G01X1195382Y-233437D01*
G01X1195382Y-234529D01*
G01X1198585Y-237732D01*
G01X1199390Y-237732D01*
G01X1201396Y-239880D01*
G01X1203972Y-239880D01*
G01X1203972Y-240595D01*
G01X1214710Y-240595D01*
G01X1214710Y-241311D01*
G01X1219721Y-241311D01*
G01X1219721Y-242027D01*
G01X1224017Y-242027D01*
G01X1224017Y-242743D01*
G01X1226880Y-242743D01*
G01X1226880Y-243459D01*
G01X1229028Y-243459D01*
G01X1229028Y-244175D01*
G01X1231891Y-244175D01*
G01X1231891Y-244891D01*
G01X1234039Y-244891D01*
G01X1234039Y-245606D01*
G01X1235470Y-245606D01*
G01X1235470Y-246322D01*
G01X1237618Y-246322D01*
G01X1237618Y-247038D01*
G01X1239050Y-247038D01*
G01X1239050Y-247754D01*
G01X1241197Y-247754D01*
G01X1241197Y-248470D01*
G01X1242629Y-248470D01*
G01X1242629Y-249186D01*
G01X1244061Y-249186D01*
G01X1244061Y-249902D01*
G01X1245492Y-249902D01*
G01X1245492Y-250617D01*
G01X1246766Y-250617D01*
G01X1247798Y-252049D01*
G01X1249072Y-252049D01*
G01X1249072Y-252765D01*
G01X1250216Y-252765D01*
G01X1252222Y-254913D01*
G01X1253209Y-254913D01*
G01X1254241Y-256344D01*
G01X1255212Y-256344D01*
G01X1257964Y-259208D01*
G01X1258746Y-259208D01*
G01X1264820Y-265282D01*
G01X1264820Y-266366D01*
G01X1266252Y-266366D01*
G01X1266252Y-267496D01*
G01X1269116Y-270247D01*
G01X1269116Y-271219D01*
G01X1270547Y-272251D01*
G01X1270547Y-273367D01*
G01X1271979Y-274399D01*
G01X1271979Y-275515D01*
G01X1273411Y-276546D01*
G01X1273411Y-277820D01*
G01X1274127Y-277820D01*
G01X1274127Y-279252D01*
G01X1274842Y-279252D01*
G01X1274842Y-280526D01*
G01X1276274Y-281557D01*
G01X1276274Y-282831D01*
G01X1276990Y-282831D01*
G01X1276990Y-284263D01*
G01X1277706Y-284263D01*
G01X1277706Y-286410D01*
G01X1278422Y-286410D01*
G01X1278422Y-288558D01*
G01X1279138Y-288558D01*
G01X1279138Y-290706D01*
G01X1279854Y-290706D01*
G01X1279854Y-292853D01*
G01X1280569Y-292853D01*
G01X1280569Y-295001D01*
G01X1281285Y-295001D01*
G01X1281285Y-298580D01*
G01X1282001Y-298580D01*
G01X1282001Y-303591D01*
G01X1282717Y-303591D01*
G01X1282717Y-313613D01*
G01X1282001Y-313613D01*
G01X1282001Y-318624D01*
G01X1281285Y-318624D01*
G01X1281285Y-322203D01*
G01X1280569Y-322203D01*
G01X1280569Y-324351D01*
G01X1279854Y-324351D01*
G01X1279854Y-326499D01*
G01X1279138Y-326499D01*
G01X1279138Y-327930D01*
G01X1278422Y-327930D01*
G01X1278422Y-330078D01*
G01X1425889Y-330078D01*
G01X1425889Y-330794D01*
G01X1425889Y-330794D01*
G01X1427014Y-330794D01*
G01X1427525Y-330282D01*
G01X1428036Y-329771D01*
G01X1428036Y-328646D01*
G01X1427320Y-328646D01*
G01X1427320Y-326499D01*
G01X1426605Y-326499D01*
G01X1426605Y-325067D01*
G01X1425889Y-325067D01*
G01X1425889Y-322919D01*
G01X1425173Y-322919D01*
G01X1425173Y-320056D01*
G01X1424457Y-320056D01*
G01X1424457Y-316477D01*
G01X1423741Y-316477D01*
G01X1423741Y-305739D01*
G01X1436627Y-305739D01*
G01X1436627Y-312181D01*
G01X1437342Y-312181D01*
G01X1437342Y-317192D01*
G01X1438058Y-317192D01*
G01X1438058Y-319340D01*
G01X1438774Y-319340D01*
G01X1438774Y-321488D01*
G01X1439490Y-321488D01*
G01X1439490Y-323635D01*
G01X1440206Y-323635D01*
G01X1440206Y-324909D01*
G01X1441638Y-325941D01*
G01X1441638Y-327056D01*
G01X1443069Y-328088D01*
G01X1443069Y-329023D01*
G01X1446272Y-332225D01*
G01X1447063Y-332225D01*
G01X1449814Y-335089D01*
G01X1450944Y-335089D01*
G01X1450944Y-335805D01*
G01X1452376Y-335805D01*
G01X1452376Y-336521D01*
G01X1453807Y-336521D01*
G01X1453807Y-337236D01*
G01X1455955Y-337236D01*
G01X1455955Y-337952D01*
G01X1459534Y-337952D01*
G01X1459534Y-338668D01*
G01X1466693Y-338668D01*
G01X1466693Y-335805D01*
G01X1465977Y-335805D01*
G01X1465977Y-334373D01*
G01X1465261Y-334373D01*
G01X1465261Y-332225D01*
G01X1464545Y-332225D01*
G01X1464545Y-330794D01*
G01X1463829Y-330794D01*
G01X1463829Y-328646D01*
G01X1463113Y-328646D01*
G01X1463113Y-325067D01*
G01X1462398Y-325067D01*
G01X1462398Y-320772D01*
G01X1461682Y-320772D01*
G01X1461682Y-311465D01*
G01X1462398Y-311465D01*
G01X1462398Y-310034D01*
G01X1463113Y-310034D01*
G01X1463113Y-308909D01*
G01X1463625Y-308398D01*
G01X1464136Y-307886D01*
G01X1465261Y-307886D01*
G01X1465261Y-307170D01*
G01X1466693Y-307170D01*
G01X1466693Y-306454D01*
G01X1470272Y-306454D01*
G01X1470272Y-307170D01*
G01X1471365Y-307170D01*
G01X1474567Y-310373D01*
G01X1474567Y-312181D01*
G01X1475283Y-312181D01*
G01X1475283Y-322203D01*
G01X1475999Y-322203D01*
G01X1475999Y-325067D01*
G01X1476715Y-325067D01*
G01X1476715Y-327930D01*
G01X1477431Y-327930D01*
G01X1477431Y-329362D01*
G01X1478146Y-329362D01*
G01X1478146Y-330794D01*
G01X1478862Y-330794D01*
G01X1478862Y-332225D01*
G01X1479578Y-332225D01*
G01X1479578Y-333312D01*
G01X1484218Y-337952D01*
G01X1485305Y-337952D01*
G01X1485305Y-338668D01*
G01X1486737Y-338668D01*
G01X1486737Y-339384D01*
G01X1486737Y-339384D01*
G01X1489600Y-339384D01*
G01X1489600Y-340100D01*
G01X1500338Y-340100D01*
G01X1500338Y-339384D01*
G01X1503917Y-339384D01*
G01X1503917Y-338668D01*
G01X1505758Y-338668D01*
G01X1506269Y-338157D01*
G01X1506781Y-337646D01*
G01X1506781Y-335089D01*
G01X1506065Y-335089D01*
G01X1506065Y-332941D01*
G01X1505349Y-332941D01*
G01X1505349Y-330794D01*
G01X1504633Y-330794D01*
G01X1504633Y-327930D01*
G01X1503917Y-327930D01*
G01X1503917Y-323635D01*
G01X1503202Y-323635D01*
G01X1503202Y-312181D01*
G01X1503917Y-312181D01*
G01X1503917Y-306454D01*
G01X1504633Y-306454D01*
G01X1504633Y-305181D01*
G01X1506065Y-304149D01*
G01X1506065Y-302875D01*
G01X1507497Y-302875D01*
G01X1507497Y-302159D01*
G01X1508928Y-302159D01*
G01X1508928Y-301443D01*
G01X1512508Y-301443D01*
G01X1512508Y-302159D01*
G01X1513939Y-302159D01*
G01X1513939Y-302875D01*
G01X1515064Y-302875D01*
G01X1515576Y-303387D01*
G01X1516087Y-303898D01*
G01X1516087Y-305023D01*
G01X1516803Y-305023D01*
G01X1516803Y-306454D01*
G01X1517519Y-306454D01*
G01X1517519Y-310034D01*
G01X1516803Y-310034D01*
G01X1516803Y-324351D01*
G01X1517519Y-324351D01*
G01X1517519Y-327930D01*
G01X1518235Y-327930D01*
G01X1518235Y-329362D01*
G01X1518950Y-329362D01*
G01X1518950Y-331510D01*
G01X1519666Y-331510D01*
G01X1519666Y-332597D01*
G01X1524306Y-337236D01*
G01X1526109Y-337236D01*
G01X1526109Y-337952D01*
G01X1528257Y-337952D01*
G01X1528257Y-338668D01*
G01X1538994Y-338668D01*
G01X1538994Y-337952D01*
G01X1541858Y-337952D01*
G01X1541858Y-337236D01*
G01X1544005Y-337236D01*
G01X1544005Y-336521D01*
G01X1545279Y-336521D01*
G01X1546311Y-335089D01*
G01X1547259Y-335089D01*
G01X1548138Y-334210D01*
G01X1549016Y-333332D01*
G01X1549016Y-332513D01*
G01X1551164Y-330506D01*
G01X1551164Y-329520D01*
G01X1552596Y-328488D01*
G01X1552596Y-327214D01*
G01X1553312Y-327214D01*
G01X1553312Y-325067D01*
G01X1554028Y-325067D01*
G01X1554028Y-322919D01*
G01X1554743Y-322919D01*
G01X1554743Y-319340D01*
G01X1555459Y-319340D01*
G01X1555459Y-315045D01*
G01X1556175Y-315045D01*
G01X1556175Y-313223D01*
G01X1557054Y-312344D01*
G01X1557932Y-311465D01*
G01X1559039Y-311465D01*
G01X1559039Y-310750D01*
G01X1561186Y-310750D01*
G01X1561186Y-310034D01*
G01X1562618Y-310034D01*
G01X1562618Y-310750D01*
G01X1564765Y-310750D01*
G01X1564765Y-311465D01*
G01X1565872Y-311465D01*
G01X1566750Y-312344D01*
G01X1567629Y-313223D01*
G01X1567629Y-314329D01*
G01X1568345Y-314329D01*
G01X1568345Y-317133D01*
G01X1568792Y-317342D01*
G01X1569240Y-317550D01*
G01X1568792Y-317759D01*
G01X1568345Y-317968D01*
G01X1568345Y-322919D01*
G01X1567629Y-322919D01*
G01X1567629Y-325783D01*
G01X1566913Y-325783D01*
G01X1566913Y-327930D01*
G01X1566197Y-327930D01*
G01X1566197Y-330078D01*
G01X1565481Y-330078D01*
G01X1565481Y-332941D01*
G01X1576219Y-332941D01*
G01X1576219Y-332225D01*
G01X1579798Y-332225D01*
G01X1579798Y-324351D01*
G01X1579083Y-324351D01*
G01X1579083Y-318624D01*
G01X1578367Y-318624D01*
G01X1578367Y-314329D01*
G01X1577651Y-314329D01*
G01X1577651Y-310750D01*
G01X1576935Y-310750D01*
G01X1576935Y-307170D01*
G01X1576219Y-307170D01*
G01X1576219Y-304307D01*
G01X1575503Y-304307D01*
G01X1575503Y-302159D01*
G01X1574787Y-302159D01*
G01X1574787Y-299296D01*
G01X1574072Y-299296D01*
G01X1574072Y-297148D01*
G01X1573356Y-297148D01*
G01X1573356Y-295001D01*
G01X1572640Y-295001D01*
G01X1572640Y-292853D01*
G01X1571924Y-292853D01*
G01X1571924Y-291421D01*
G01X1571208Y-291421D01*
G01X1571208Y-289274D01*
G01X1570492Y-289274D01*
G01X1570492Y-287842D01*
G01X1569776Y-287842D01*
G01X1569776Y-286410D01*
G01X1569061Y-286410D01*
G01X1569061Y-284979D01*
G01X1568345Y-284979D01*
G01X1568345Y-283705D01*
G01X1566913Y-282673D01*
G01X1566913Y-281399D01*
G01X1566197Y-281399D01*
G01X1566197Y-280126D01*
G01X1564765Y-279094D01*
G01X1564765Y-277978D01*
G01X1563334Y-276946D01*
G01X1563334Y-276000D01*
G01X1557607Y-270334D01*
G01X1557607Y-269230D01*
G01X1556487Y-269230D01*
G01X1553000Y-265651D01*
G01X1552038Y-265651D01*
G01X1551006Y-264219D01*
G01X1549890Y-264219D01*
G01X1548858Y-262787D01*
G01X1547585Y-262787D01*
G01X1547585Y-262071D01*
G01X1546153Y-262071D01*
G01X1546153Y-261355D01*
G01X1544721Y-261355D01*
G01X1544721Y-260640D01*
G01X1543290Y-260640D01*
G01X1543290Y-259924D01*
G01X1541858Y-259924D01*
G01X1541858Y-259208D01*
G01X1540426Y-259208D01*
G01X1540426Y-258492D01*
G01X1538279Y-258492D01*
G01X1538279Y-257776D01*
G01X1536847Y-257776D01*
G01X1536847Y-257060D01*
G01X1533983Y-257060D01*
G01X1533983Y-256344D01*
G01X1531120Y-256344D01*
G01X1531120Y-255628D01*
G01X1528257Y-255628D01*
G01X1528257Y-254913D01*
G01X1523961Y-254913D01*
G01X1523961Y-254197D01*
G01X1516803Y-254197D01*
G01X1516803Y-253481D01*
G01X1496759Y-253481D01*
G01X1496759Y-254197D01*
G01X1489600Y-254197D01*
G01X1489600Y-254913D01*
G01X1485305Y-254913D01*
G01X1485305Y-255628D01*
G01X1482442Y-255628D01*
G01X1482442Y-256344D01*
G01X1479578Y-256344D01*
G01X1479578Y-257060D01*
G01X1477431Y-257060D01*
G01X1477431Y-257776D01*
G01X1475283Y-257776D01*
G01X1475283Y-258492D01*
G01X1473851Y-258492D01*
G01X1473851Y-259208D01*
G01X1471704Y-259208D01*
G01X1471704Y-259924D01*
G01X1470272Y-259924D01*
G01X1470272Y-260640D01*
G01X1468840Y-260640D01*
G01X1468840Y-261355D01*
G01X1467409Y-261355D01*
G01X1467409Y-262071D01*
G01X1466135Y-262071D01*
G01X1465103Y-263503D01*
G01X1463987Y-263503D01*
G01X1462955Y-264935D01*
G01X1461840Y-264935D01*
G01X1460808Y-266366D01*
G01X1459836Y-266366D01*
G01X1457085Y-269230D01*
G01X1456304Y-269230D01*
G01X1449512Y-276021D01*
G01X1449512Y-276802D01*
G01X1446649Y-279554D01*
G01X1446649Y-280684D01*
G01X1445933Y-280684D01*
G01X1445933Y-281957D01*
G01X1444501Y-282989D01*
G01X1444501Y-284263D01*
G01X1443785Y-284263D01*
G01X1443785Y-285537D01*
G01X1442353Y-286568D01*
G01X1442353Y-288558D01*
G01X1441638Y-288558D01*
G01X1441638Y-289990D01*
G01X1440922Y-289990D01*
G01X1440922Y-291421D01*
G01X1440206Y-291421D01*
G01X1440206Y-293569D01*
G01X1439490Y-293569D01*
G01X1439490Y-295001D01*
G01X1438774Y-295001D01*
G01X1438774Y-297864D01*
G01X1438058Y-297864D01*
G01X1438058Y-300728D01*
G01X1437342Y-300728D01*
G01X1437342Y-305739D01*
G01X1436627Y-305739D01*
G01X1423741Y-305739D01*
G01X1423741Y-301443D01*
G01X1424457Y-301443D01*
G01X1424457Y-297864D01*
G01X1425173Y-297864D01*
G01X1425173Y-295001D01*
G01X1425889Y-295001D01*
G01X1425889Y-292137D01*
G01X1426605Y-292137D01*
G01X1426605Y-289990D01*
G01X1427320Y-289990D01*
G01X1427320Y-287842D01*
G01X1428036Y-287842D01*
G01X1428036Y-286410D01*
G01X1428752Y-286410D01*
G01X1428752Y-284263D01*
G01X1429468Y-284263D01*
G01X1429468Y-282831D01*
G01X1430184Y-282831D01*
G01X1430184Y-281399D01*
G01X1430900Y-281399D01*
G01X1430900Y-277820D01*
G01X1431616Y-277820D01*
G01X1431616Y-275673D01*
G01X1432331Y-275673D01*
G01X1432331Y-274566D01*
G01X1433210Y-273688D01*
G01X1434089Y-272809D01*
G01X1434850Y-272809D01*
G01X1439490Y-268169D01*
G01X1439490Y-267433D01*
G01X1448431Y-258492D01*
G01X1449225Y-258492D01*
G01X1451231Y-256344D01*
G01X1452088Y-256344D01*
G01X1454094Y-254197D01*
G01X1455081Y-254197D01*
G01X1456113Y-252765D01*
G01X1457229Y-252765D01*
G01X1458260Y-251333D01*
G01X1459534Y-251333D01*
G01X1459534Y-250617D01*
G01X1460966Y-250617D01*
G01X1460966Y-249902D01*
G01X1462398Y-249902D01*
G01X1462398Y-249186D01*
G01X1463829Y-249186D01*
G01X1463829Y-248470D01*
G01X1465261Y-248470D01*
G01X1465261Y-247754D01*
G01X1466693Y-247754D01*
G01X1466693Y-247038D01*
G01X1468840Y-247038D01*
G01X1468840Y-246322D01*
G01X1470988Y-246322D01*
G01X1470988Y-245606D01*
G01X1472420Y-245606D01*
G01X1472420Y-244891D01*
G01X1474567Y-244891D01*
G01X1474567Y-244175D01*
G01X1476715Y-244175D01*
G01X1476715Y-243459D01*
G01X1479578Y-243459D01*
G01X1479578Y-242743D01*
G01X1482442Y-242743D01*
G01X1482442Y-242027D01*
G01X1486021Y-242027D01*
G01X1486021Y-241311D01*
G01X1491032Y-241311D01*
G01X1491032Y-240595D01*
G01X1492111Y-240595D01*
G01X1493542Y-239164D01*
G01X1513939Y-239164D01*
G01X1513939Y-240595D01*
G01X1522530Y-240595D01*
G01X1522530Y-241311D01*
G01X1527541Y-241311D01*
G01X1527541Y-242027D01*
G01X1531120Y-242027D01*
G01X1531120Y-242743D01*
G01X1534699Y-242743D01*
G01X1534699Y-243459D01*
G01X1537563Y-243459D01*
G01X1537563Y-244175D01*
G01X1539710Y-244175D01*
G01X1539710Y-244891D01*
G01X1541858Y-244891D01*
G01X1541858Y-245606D01*
G01X1544005Y-245606D01*
G01X1544005Y-246322D01*
G01X1544005Y-246322D01*
G01X1546153Y-246322D01*
G01X1546153Y-244175D01*
G01X1545437Y-244175D01*
G01X1545437Y-242901D01*
G01X1544005Y-241869D01*
G01X1544005Y-240595D01*
G01X1543290Y-240595D01*
G01X1543290Y-235584D01*
G01X1544005Y-235584D01*
G01X1544005Y-234492D01*
G01X1547208Y-231289D01*
G01X1548301Y-231289D01*
G01X1548301Y-230573D01*
G01X1552596Y-230573D01*
G01X1552596Y-228426D01*
G01X1551880Y-228426D01*
G01X1551880Y-226994D01*
G01X1551164Y-226994D01*
G01X1551164Y-225562D01*
G01X1550448Y-225562D01*
G01X1550448Y-224131D01*
G01X1549732Y-224131D01*
G01X1549732Y-222857D01*
G01X1548301Y-221825D01*
G01X1548301Y-220551D01*
G01X1547585Y-220551D01*
G01X1547585Y-219278D01*
G01X1546153Y-218246D01*
G01X1546153Y-217259D01*
G01X1544005Y-215253D01*
G01X1544005Y-214456D01*
G01X1537931Y-208382D01*
G01X1537005Y-208382D01*
G01X1535973Y-206950D01*
G01X1533983Y-206950D01*
G01X1533983Y-209098D01*
G01X1533268Y-209098D01*
G01X1533268Y-210529D01*
G01X1532552Y-210529D01*
G01X1532552Y-211961D01*
G01X1531836Y-211961D01*
G01X1531836Y-213393D01*
G01X1531120Y-213393D01*
G01X1531120Y-214825D01*
G01X1530404Y-214825D01*
G01X1530404Y-216256D01*
G01X1529688Y-216256D01*
G01X1529688Y-217688D01*
G01X1528972Y-217688D01*
G01X1528972Y-218962D01*
G01X1527541Y-219994D01*
G01X1527541Y-221267D01*
G01X1526825Y-221267D01*
G01X1526825Y-222541D01*
G01X1525393Y-223573D01*
G01X1525393Y-224847D01*
G01X1524677Y-224847D01*
G01X1524677Y-226120D01*
G01X1523246Y-227152D01*
G01X1523246Y-228139D01*
G01X1521098Y-230145D01*
G01X1521098Y-231002D01*
G01X1518950Y-233008D01*
G01X1518950Y-233834D01*
G01X1514655Y-238050D01*
G01X1514655Y-239164D01*
G01X1513939Y-239164D01*
G01X1493542Y-239164D01*
G01X1498372Y-234334D01*
G01X1504633Y-228073D01*
G01X1504633Y-227296D01*
G01X1507497Y-224545D01*
G01X1507497Y-223702D01*
G01X1509644Y-221696D01*
G01X1509644Y-220839D01*
G01X1511792Y-218832D01*
G01X1511792Y-217846D01*
G01X1513224Y-216814D01*
G01X1513224Y-215540D01*
G01X1513939Y-215540D01*
G01X1513939Y-214267D01*
G01X1515371Y-213235D01*
G01X1515371Y-211961D01*
G01X1516087Y-211961D01*
G01X1516087Y-210529D01*
G01X1516803Y-210529D01*
G01X1516803Y-209098D01*
G01X1517519Y-209098D01*
G01X1517519Y-207666D01*
G01X1518235Y-207666D01*
G01X1518235Y-206234D01*
G01X1518950Y-206234D01*
G01X1518950Y-204802D01*
G01X1519666Y-204802D01*
G01X1519666Y-203371D01*
G01X1520382Y-203371D01*
G01X1520382Y-201939D01*
G01X1521098Y-201939D01*
G01X1521098Y-199791D01*
G01X1521814Y-199791D01*
G01X1521814Y-197644D01*
G01X1522530Y-197644D01*
G01X1522530Y-195496D01*
G01X1523246Y-195496D01*
G01X1523246Y-193349D01*
G01X1523961Y-193349D01*
G01X1523961Y-191201D01*
G01X1524677Y-191201D01*
G01X1524677Y-188338D01*
G01X1525393Y-188338D01*
G01X1525393Y-184758D01*
G01X1526109Y-184758D01*
G01X1526109Y-180463D01*
G01X1526825Y-180463D01*
G01X1526825Y-178316D01*
G01X1527541Y-178316D01*
G01X1527541Y-177209D01*
G01X1528419Y-176331D01*
G01X1529298Y-175452D01*
G01X1530404Y-175452D01*
G01X1530404Y-174736D01*
G01X1531836Y-174736D01*
G01X1531836Y-174021D01*
G01X1535415Y-174021D01*
G01X1535415Y-174736D01*
G01X1536847Y-174736D01*
G01X1536847Y-175452D01*
G01X1537991Y-175452D01*
G01X1539998Y-177600D01*
G01X1541858Y-177600D01*
G01X1541858Y-176168D01*
G01X1542574Y-176168D01*
G01X1542574Y-174021D01*
G01X1543290Y-174021D01*
G01X1543290Y-172589D01*
G01X1544005Y-172589D01*
G01X1544005Y-171157D01*
G01X1544721Y-171157D01*
G01X1544721Y-169010D01*
G01X1545437Y-169010D01*
G01X1545437Y-166862D01*
G01X1546153Y-166862D01*
G01X1546153Y-164714D01*
G01X1546869Y-164714D01*
G01X1546869Y-161851D01*
G01X1547585Y-161851D01*
G01X1547585Y-159703D01*
G01X1548301Y-159703D01*
G01X1548301Y-156840D01*
G01X1549016Y-156840D01*
G01X1549016Y-153977D01*
G01X1549732Y-153977D01*
G01X1549732Y-150397D01*
G01X1550448Y-150397D01*
G01X1550448Y-143239D01*
G01X1551164Y-143239D01*
G01X1551164Y-140714D01*
G01X1554367Y-137512D01*
G01X1555459Y-137512D01*
G01X1555459Y-136796D01*
G01X1557607Y-136796D01*
G01X1557607Y-136080D01*
G01X1559039Y-136080D01*
G01X1559039Y-136796D01*
G01X1562618Y-136796D01*
G01X1562618Y-137512D01*
G01X1566197Y-137512D01*
G01X1566197Y-136080D01*
G01X1565481Y-136080D01*
G01X1565481Y-133217D01*
G01X1564765Y-133217D01*
G01X1564765Y-130353D01*
G01X1564050Y-130353D01*
G01X1564050Y-127490D01*
G01X1563334Y-127490D01*
G01X1563334Y-124626D01*
G01X1562618Y-124626D01*
G01X1562618Y-122479D01*
G01X1561902Y-122479D01*
G01X1561902Y-120331D01*
G01X1561186Y-120331D01*
G01X1561186Y-118184D01*
G01X1560470Y-118184D01*
G01X1560470Y-115320D01*
G01X1559754Y-115320D01*
G01X1559754Y-113173D01*
G01X1559039Y-113173D01*
G01X1559039Y-111025D01*
G01X1558323Y-111025D01*
G01X1558323Y-108877D01*
G01X1557607Y-108877D01*
G01X1557607Y-106730D01*
G01X1556891Y-106730D01*
G01X1556891Y-104582D01*
G01X1556175Y-104582D01*
G01X1556175Y-102435D01*
G01X1555459Y-102435D01*
G01X1555459Y-100287D01*
G01X1554743Y-100287D01*
G01X1554743Y-98139D01*
G01X1554028Y-98139D01*
G01X1554028Y-95992D01*
G01X1553312Y-95992D01*
G01X1553312Y-93844D01*
G01X1552596Y-93844D01*
G01X1552596Y-90265D01*
G01X1553312Y-90265D01*
G01X1553312Y-88117D01*
G01X1554028Y-88117D01*
G01X1554028Y-86686D01*
G01X1555459Y-86686D01*
G01X1555459Y-83822D01*
G01X1554743Y-83822D01*
G01X1554743Y-82678D01*
G01X1552596Y-80672D01*
G01X1552596Y-79527D01*
G01X1551880Y-79527D01*
G01X1551880Y-78383D01*
G01X1549732Y-76377D01*
G01X1549732Y-75390D01*
G01X1548301Y-74358D01*
G01X1548301Y-73372D01*
G01X1546153Y-71366D01*
G01X1546153Y-70508D01*
G01X1544005Y-68502D01*
G01X1544005Y-67659D01*
G01X1541142Y-64908D01*
G01X1541142Y-64080D01*
G01X1538279Y-61329D01*
G01X1538279Y-60486D01*
G01X1536131Y-58480D01*
G01X1536131Y-57494D01*
G01X1534699Y-56462D01*
G01X1534699Y-55346D01*
G01X1533268Y-54314D01*
G01X1533268Y-53040D01*
G01X1532552Y-53040D01*
G01X1532552Y-51767D01*
G01X1531120Y-50735D01*
G01X1531120Y-49461D01*
G01X1530404Y-49461D01*
G01X1530404Y-48029D01*
G01X1529688Y-48029D01*
G01X1529688Y-46598D01*
G01X1528972Y-46598D01*
G01X1528972Y-45166D01*
G01X1528257Y-45166D01*
G01X1528257Y-43734D01*
G01X1527541Y-43734D01*
G01X1527541Y-42302D01*
G01X1526825Y-42302D01*
G01X1526825Y-40155D01*
G01X1526109Y-40155D01*
G01X1526109Y-38723D01*
G01X1525393Y-38723D01*
G01X1525393Y-36576D01*
G01X1524677Y-36576D01*
G01X1524677Y-33712D01*
G01X1523961Y-33712D01*
G01X1523961Y-31565D01*
G01X1523246Y-31565D01*
G01X1523246Y-28701D01*
G01X1522530Y-28701D01*
G01X1522530Y-25122D01*
G01X1521814Y-25122D01*
G01X1521814Y-21543D01*
G01X1521098Y-21543D01*
G01X1521098Y-17247D01*
G01X1520382Y-17247D01*
G01X1520382Y-10805D01*
G01X1519666Y-10805D01*
G01X1519666Y-5078D01*
G01X1518950Y-5078D01*
G01X1518950Y649D01*
G01X1518235Y649D01*
G01X1518235Y4944D01*
G01X1517519Y4944D01*
G01X1517519Y9239D01*
G01X1516803Y9239D01*
G01X1516803Y12103D01*
G01X1516087Y12103D01*
G01X1516087Y14250D01*
G01X1515371Y14250D01*
G01X1515371Y16398D01*
G01X1514655Y16398D01*
G01X1514655Y17830D01*
G01X1513939Y17830D01*
G01X1513939Y19977D01*
G01X1513224Y19977D01*
G01X1513224Y21251D01*
G01X1511792Y22283D01*
G01X1511792Y23399D01*
G01X1510360Y24430D01*
G01X1510360Y25355D01*
G01X1503569Y32147D01*
G01X1502773Y32147D01*
G01X1500767Y34294D01*
G01X1499622Y34294D01*
G01X1499622Y35010D01*
G01X1498191Y35010D01*
G01X1498191Y35726D01*
G01X1496759Y35726D01*
G01X1496759Y36442D01*
G01X1495327Y36442D01*
G01X1495327Y37158D01*
G01X1493895Y37158D01*
G01X1493895Y37874D01*
G01X1492464Y37874D01*
G01X1492464Y38590D01*
G01X1490316Y38590D01*
G01X1490316Y39305D01*
G01X1488168Y39305D01*
G01X1488168Y40021D01*
G01X1478146Y40021D01*
G01X1478146Y39305D01*
G01X1476774Y39305D01*
G01X1476615Y38858D01*
G01X1476455Y38411D01*
G01X1475820Y39046D01*
G01X1476267Y39205D01*
G01X1476715Y39365D01*
G01X1476715Y48612D01*
G01X1475999Y48612D01*
G01X1475999Y51475D01*
G01X1475283Y51475D01*
G01X1475283Y53623D01*
G01X1474567Y53623D01*
G01X1474567Y54896D01*
G01X1473135Y55928D01*
G01X1473135Y57044D01*
G01X1471704Y58076D01*
G01X1471704Y59010D01*
G01X1468501Y62213D01*
G01X1467696Y62213D01*
G01X1465690Y64361D01*
G01X1464545Y64361D01*
G01X1464545Y65076D01*
G01X1463113Y65076D01*
G01X1463113Y65792D01*
G01X1461682Y65792D01*
G01X1461682Y66508D01*
G01X1459534Y66508D01*
G01X1459534Y67224D01*
G01X1458102Y67224D01*
G01X1458102Y67940D01*
G01X1455955Y67940D01*
G01X1455955Y68656D01*
G01X1453091Y68656D01*
G01X1453091Y69372D01*
G01X1448796Y69372D01*
G01X1448796Y70087D01*
G01X1433763Y70087D01*
G01X1433763Y69372D01*
G01X1429468Y69372D01*
G01X1429468Y68656D01*
G01X1425889Y68656D01*
G01X1425889Y67940D01*
G01X1423025Y67940D01*
G01X1423025Y67224D01*
G01X1420878Y67224D01*
G01X1420878Y66508D01*
G01X1418730Y66508D01*
G01X1418730Y65792D01*
G01X1417298Y65792D01*
G01X1417298Y65076D01*
G01X1415151Y65076D01*
G01X1415151Y64361D01*
G01X1413719Y64361D01*
G01X1413719Y63645D01*
G01X1412287Y63645D01*
G01X1412287Y62929D01*
G01X1410856Y62929D01*
G01X1410856Y62213D01*
G01X1409582Y62213D01*
G01X1408550Y60781D01*
G01X1407276Y60781D01*
G01X1407276Y60065D01*
G01X1406132Y60065D01*
G01X1404126Y57918D01*
G01X1403268Y57918D01*
G01X1401262Y55770D01*
G01X1400464Y55770D01*
G01X1397786Y53091D01*
G01X1395107Y50413D01*
G01X1395107Y49615D01*
G01X1392959Y47609D01*
G01X1392959Y46622D01*
G01X1391528Y45590D01*
G01X1391528Y44316D01*
G01X1390812Y44316D01*
G01X1390812Y42885D01*
G01X1390096Y42885D01*
G01X1390096Y41453D01*
G01X1389380Y41453D01*
G01X1389380Y40021D01*
G01X1388664Y40021D01*
G01X1388664Y37158D01*
G01X1387948Y37158D01*
G01X1387948Y32147D01*
G01X1387232Y32147D01*
G01X1387232Y28568D01*
G01X1387948Y28568D01*
G01X1387948Y24272D01*
G01X1388664Y24272D01*
G01X1388664Y22125D01*
G01X1389380Y22125D01*
G01X1389380Y20693D01*
G01X1390096Y20693D01*
G01X1390096Y19261D01*
G01X1390812Y19261D01*
G01X1390812Y18131D01*
G01X1393675Y15380D01*
G01X1393675Y13535D01*
G01X1392959Y13535D01*
G01X1392959Y12261D01*
G01X1391528Y11229D01*
G01X1391528Y9955D01*
G01X1390812Y9955D01*
G01X1390812Y8524D01*
G01X1390096Y8524D01*
G01X1390096Y7092D01*
G01X1389380Y7092D01*
G01X1389380Y5660D01*
G01X1388664Y5660D01*
G01X1388664Y4228D01*
G01X1387948Y4228D01*
G01X1387948Y2081D01*
G01X1387232Y2081D01*
G01X1387232Y-67D01*
G01X1386516Y-67D01*
G01X1386516Y-2930D01*
G01X1385801Y-2930D01*
G01X1385801Y-15100D01*
G01X1386516Y-15100D01*
G01X1386516Y-16532D01*
G01X1387232Y-16532D01*
G01X1387232Y-17963D01*
G01X1387948Y-17963D01*
G01X1387948Y-19061D01*
G01X1389189Y-20302D01*
G01X1390430Y-21543D01*
G01X1391369Y-21543D01*
G01X1392401Y-22974D01*
G01X1394391Y-22974D01*
G01X1394391Y-23690D01*
G01X1395823Y-23690D01*
G01X1395823Y-24406D01*
G01X1397254Y-24406D01*
G01X1397254Y-25122D01*
G01X1398686Y-25122D01*
G01X1398686Y-25838D01*
G01X1399960Y-25838D01*
G01X1400992Y-27269D01*
G01X1401954Y-27269D01*
G01X1405440Y-30849D01*
G01X1406561Y-30849D01*
G01X1406561Y-31957D01*
G01X1411572Y-36899D01*
G01X1411572Y-37849D01*
G01X1413003Y-38881D01*
G01X1413003Y-39997D01*
G01X1414435Y-41029D01*
G01X1414435Y-42144D01*
G01X1415867Y-43176D01*
G01X1415867Y-44450D01*
G01X1416583Y-44450D01*
G01X1416583Y-45882D01*
G01X1417298Y-45882D01*
G01X1417298Y-47314D01*
G01X1418014Y-47314D01*
G01X1418014Y-48745D01*
G01X1418730Y-48745D01*
G01X1418730Y-50019D01*
G01X1420162Y-51051D01*
G01X1420162Y-52882D01*
G01X1421594Y-53914D01*
G01X1421594Y-55188D01*
G01X1422309Y-55188D01*
G01X1422309Y-57336D01*
G01X1423025Y-57336D01*
G01X1423025Y-58767D01*
G01X1423741Y-58767D01*
G01X1423741Y-60199D01*
G01X1424457Y-60199D01*
G01X1424457Y-61473D01*
G01X1425889Y-62505D01*
G01X1425889Y-63439D01*
G01X1429091Y-66642D01*
G01X1430184Y-66642D01*
G01X1430184Y-65926D01*
G01X1431616Y-65926D01*
G01X1431616Y-65210D01*
G01X1433047Y-65210D01*
G01X1433047Y-64494D01*
G01X1434479Y-64494D01*
G01X1434479Y-63778D01*
G01X1435753Y-63778D01*
G01X1436785Y-62347D01*
G01X1438058Y-62347D01*
G01X1438058Y-61631D01*
G01X1440206Y-61631D01*
G01X1440206Y-60915D01*
G01X1441638Y-60915D01*
G01X1441638Y-60199D01*
G01X1443069Y-60199D01*
G01X1443069Y-59483D01*
G01X1445217Y-59483D01*
G01X1445217Y-58767D01*
G01X1446649Y-58767D01*
G01X1446649Y-58051D01*
G01X1448796Y-58051D01*
G01X1448796Y-57336D01*
G01X1450944Y-57336D01*
G01X1450944Y-56620D01*
G01X1453091Y-56620D01*
G01X1453091Y-55904D01*
G01X1455955Y-55904D01*
G01X1455955Y-55188D01*
G01X1458818Y-55188D01*
G01X1458818Y-54472D01*
G01X1462398Y-54472D01*
G01X1462398Y-53756D01*
G01X1475999Y-53756D01*
G01X1475999Y-54472D01*
G01X1478862Y-54472D01*
G01X1478862Y-55188D01*
G01X1481010Y-55188D01*
G01X1481010Y-55904D01*
G01X1482442Y-55904D01*
G01X1482442Y-56620D01*
G01X1483873Y-56620D01*
G01X1483873Y-57336D01*
G01X1485147Y-57336D01*
G01X1486179Y-58767D01*
G01X1487108Y-58767D01*
G01X1491748Y-63407D01*
G01X1491748Y-64336D01*
G01X1493179Y-65368D01*
G01X1493179Y-66642D01*
G01X1493895Y-66642D01*
G01X1493895Y-68073D01*
G01X1494611Y-68073D01*
G01X1494611Y-69505D01*
G01X1495327Y-69505D01*
G01X1495327Y-70937D01*
G01X1496043Y-70937D01*
G01X1496043Y-73084D01*
G01X1496759Y-73084D01*
G01X1496759Y-75948D01*
G01X1497475Y-75948D01*
G01X1497475Y-78811D01*
G01X1498191Y-78811D01*
G01X1498191Y-82391D01*
G01X1498906Y-82391D01*
G01X1498906Y-91697D01*
G01X1499622Y-91697D01*
G01X1499622Y-95276D01*
G01X1498906Y-95276D01*
G01X1498906Y-106014D01*
G01X1498191Y-106014D01*
G01X1498191Y-112457D01*
G01X1497475Y-112457D01*
G01X1497475Y-116752D01*
G01X1496759Y-116752D01*
G01X1496759Y-121047D01*
G01X1496043Y-121047D01*
G01X1496043Y-124626D01*
G01X1495327Y-124626D01*
G01X1495327Y-128921D01*
G01X1494611Y-128921D01*
G01X1494611Y-131785D01*
G01X1493895Y-131785D01*
G01X1493895Y-135364D01*
G01X1493179Y-135364D01*
G01X1493179Y-138228D01*
G01X1492464Y-138228D01*
G01X1492464Y-141091D01*
G01X1491748Y-141091D01*
G01X1491748Y-143954D01*
G01X1491032Y-143954D01*
G01X1491032Y-146818D01*
G01X1490316Y-146818D01*
G01X1490316Y-148965D01*
G01X1489600Y-148965D01*
G01X1489600Y-151113D01*
G01X1488884Y-151113D01*
G01X1488884Y-153977D01*
G01X1488168Y-153977D01*
G01X1488168Y-156124D01*
G01X1487453Y-156124D01*
G01X1487453Y-158272D01*
G01X1486737Y-158272D01*
G01X1486737Y-160419D01*
G01X1486021Y-160419D01*
G01X1486021Y-162567D01*
G01X1485305Y-162567D01*
G01X1485305Y-164714D01*
G01X1484589Y-164714D01*
G01X1484589Y-166862D01*
G01X1483873Y-166862D01*
G01X1483873Y-169010D01*
G01X1483157Y-169010D01*
G01X1483157Y-170441D01*
G01X1482442Y-170441D01*
G01X1482442Y-172589D01*
G01X1481726Y-172589D01*
G01X1481726Y-174736D01*
G01X1481010Y-174736D01*
G01X1481010Y-176168D01*
G01X1480294Y-176168D01*
G01X1480294Y-178316D01*
G01X1479578Y-178316D01*
G01X1479578Y-179747D01*
G01X1478862Y-179747D01*
G01X1478862Y-181179D01*
G01X1478146Y-181179D01*
G01X1478146Y-183327D01*
G01X1477431Y-183327D01*
G01X1477431Y-184758D01*
G01X1476715Y-184758D01*
G01X1476715Y-186190D01*
G01X1475999Y-186190D01*
G01X1475999Y-187622D01*
G01X1475283Y-187622D01*
G01X1475283Y-189054D01*
G01X1474567Y-189054D01*
G01X1474567Y-190485D01*
G01X1473851Y-190485D01*
G01X1473851Y-191917D01*
G01X1473135Y-191917D01*
G01X1473135Y-193349D01*
G01X1472420Y-193349D01*
G01X1472420Y-194780D01*
G01X1471704Y-194780D01*
G01X1471704Y-196212D01*
G01X1470988Y-196212D01*
G01X1470988Y-197644D01*
G01X1470272Y-197644D01*
G01X1470272Y-199076D01*
G01X1469556Y-199076D01*
G01X1469556Y-200349D01*
G01X1468124Y-201381D01*
G01X1468124Y-202655D01*
G01X1467409Y-202655D01*
G01X1467409Y-203929D01*
G01X1465977Y-204961D01*
G01X1465977Y-206234D01*
G01X1465261Y-206234D01*
G01X1465261Y-207508D01*
G01X1463829Y-208540D01*
G01X1463829Y-209655D01*
G01X1462398Y-210687D01*
G01X1462398Y-211961D01*
G01X1461682Y-211961D01*
G01X1461682Y-213106D01*
G01X1459534Y-215112D01*
G01X1459534Y-216098D01*
G01X1458102Y-217130D01*
G01X1458102Y-218117D01*
G01X1455955Y-220123D01*
G01X1455955Y-220980D01*
G01X1453807Y-222986D01*
G01X1453807Y-223829D01*
G01X1450944Y-226580D01*
G01X1450944Y-227710D01*
G01X1449512Y-227710D01*
G01X1449512Y-228823D01*
G01X1445217Y-233039D01*
G01X1445217Y-233801D01*
G01X1435559Y-243459D01*
G01X1434797Y-243459D01*
G01X1430581Y-247754D01*
G01X1429780Y-247754D01*
G01X1426293Y-251333D01*
G01X1425512Y-251333D01*
G01X1422309Y-254536D01*
G01X1422309Y-256344D01*
G01X1421594Y-256344D01*
G01X1421594Y-259208D01*
G01X1420878Y-259208D01*
G01X1420878Y-262787D01*
G01X1420162Y-262787D01*
G01X1420162Y-264935D01*
G01X1419446Y-264935D01*
G01X1419446Y-267082D01*
G01X1418730Y-267082D01*
G01X1418730Y-269230D01*
G01X1418014Y-269230D01*
G01X1418014Y-271377D01*
G01X1417298Y-271377D01*
G01X1417298Y-272809D01*
G01X1416583Y-272809D01*
G01X1416583Y-274957D01*
G01X1415867Y-274957D01*
G01X1415867Y-276388D01*
G01X1415151Y-276388D01*
G01X1415151Y-277820D01*
G01X1414435Y-277820D01*
G01X1414435Y-279252D01*
G01X1413719Y-279252D01*
G01X1413719Y-280684D01*
G01X1413003Y-280684D01*
G01X1413003Y-282115D01*
G01X1412287Y-282115D01*
G01X1412287Y-283389D01*
G01X1410856Y-284421D01*
G01X1410856Y-285537D01*
G01X1409424Y-286568D01*
G01X1409424Y-287555D01*
G01X1407276Y-289561D01*
G01X1407276Y-290394D01*
G01X1403697Y-293880D01*
G01X1403697Y-294694D01*
G01X1403186Y-295205D01*
G01X1402674Y-295717D01*
G01X1401550Y-295717D01*
G01X1401550Y-297148D01*
G01X1400436Y-297148D01*
G01X1396220Y-301443D01*
G01X1395394Y-301443D01*
G01X1393388Y-303591D01*
G01X1392401Y-303591D01*
G01X1391369Y-305023D01*
G01X1390096Y-305023D01*
G01X1390096Y-305739D01*
G01X1388664Y-305739D01*
G01X1388664Y-306454D01*
G01X1387232Y-306454D01*
G01X1387232Y-307170D01*
G01X1385959Y-307170D01*
G01X1384927Y-308602D01*
G01X1383653Y-308602D01*
G01X1383653Y-309318D01*
G01X1381505Y-309318D01*
G01X1381505Y-310034D01*
G01X1380074Y-310034D01*
G01X1380074Y-310750D01*
G01X1378642Y-310750D01*
G01X1378642Y-311465D01*
G01X1376494Y-311465D01*
G01X1376494Y-312181D01*
G01X1374347Y-312181D01*
G01X1374347Y-312897D01*
G01X1371483Y-312897D01*
G01X1371483Y-313613D01*
G01X1368620Y-313613D01*
G01X1368620Y-314329D01*
G01X1365041Y-314329D01*
G01X1365041Y-315045D01*
G01X1360746Y-315045D01*
G01X1360746Y-315761D01*
G01X1352871Y-315761D01*
G01X1352871Y-316477D01*
G01X1340702Y-316477D01*
G01X1340702Y-315761D01*
G01X1332827Y-315761D01*
G01X1332827Y-315045D01*
G01X1328532Y-315045D01*
G01X1328532Y-314329D01*
G01X1324953Y-314329D01*
G01X1324953Y-313613D01*
G01X1322089Y-313613D01*
G01X1322089Y-312897D01*
G01X1319942Y-312897D01*
G01X1319942Y-312181D01*
G01X1317794Y-312181D01*
G01X1317794Y-311465D01*
G01X1315646Y-311465D01*
G01X1315646Y-310750D01*
G01X1313499Y-310750D01*
G01X1313499Y-310034D01*
G01X1312067Y-310034D01*
G01X1312067Y-309318D01*
G01X1310635Y-309318D01*
G01X1310635Y-308602D01*
G01X1309204Y-308602D01*
G01X1309204Y-307886D01*
G01X1307772Y-307886D01*
G01X1307772Y-307170D01*
G01X1306340Y-307170D01*
G01X1306340Y-306454D01*
G01X1304909Y-306454D01*
G01X1304909Y-305739D01*
G01X1303635Y-305739D01*
G01X1302603Y-304307D01*
G01X1301487Y-304307D01*
G01X1300455Y-302875D01*
G01X1299469Y-302875D01*
G01X1297463Y-300728D01*
G01X1296669Y-300728D01*
G01X1287728Y-291786D01*
G01X1287728Y-291007D01*
G01X1284865Y-288256D01*
G01X1284865Y-287284D01*
G01X1283433Y-286252D01*
G01X1283433Y-285137D01*
G01X1282001Y-284105D01*
G01X1282001Y-282831D01*
G01X1281285Y-282831D01*
G01X1281285Y-281399D01*
G01X1280569Y-281399D01*
G01X1280569Y-280126D01*
G01X1279138Y-279094D01*
G01X1279138Y-277262D01*
G01X1277706Y-276230D01*
G01X1277706Y-274241D01*
G01X1276990Y-274241D01*
G01X1276990Y-272809D01*
G01X1276274Y-272809D01*
G01X1276274Y-270662D01*
G01X1275558Y-270662D01*
G01X1275558Y-269230D01*
G01X1274842Y-269230D01*
G01X1274842Y-266366D01*
G01X1274127Y-266366D01*
G01X1274127Y-264219D01*
G01X1273411Y-264219D01*
G01X1273411Y-261355D01*
G01X1272695Y-261355D01*
G01X1272695Y-257776D01*
G01X1271979Y-257776D01*
G01X1271979Y-254504D01*
G01X1271468Y-253992D01*
G01X1270956Y-253481D01*
G01X1270143Y-253481D01*
G01X1266657Y-249902D01*
G01X1265838Y-249902D01*
G01X1263087Y-247038D01*
G01X1262298Y-247038D01*
G01X1251594Y-236300D01*
G01X1250503Y-236300D01*
G01X1250503Y-235199D01*
G01X1244394Y-229142D01*
G01X1285580Y-229142D01*
G01X1285580Y-248470D01*
G01X1286296Y-248470D01*
G01X1286296Y-254197D01*
G01X1287012Y-254197D01*
G01X1287012Y-257060D01*
G01X1287728Y-257060D01*
G01X1287728Y-260640D01*
G01X1288444Y-260640D01*
G01X1288444Y-262787D01*
G01X1289160Y-262787D01*
G01X1289160Y-264935D01*
G01X1289876Y-264935D01*
G01X1289876Y-267082D01*
G01X1290591Y-267082D01*
G01X1290591Y-268514D01*
G01X1291307Y-268514D01*
G01X1291307Y-269946D01*
G01X1292023Y-269946D01*
G01X1292023Y-271377D01*
G01X1292739Y-271377D01*
G01X1292739Y-272809D01*
G01X1293455Y-272809D01*
G01X1293455Y-274241D01*
G01X1294171Y-274241D01*
G01X1294171Y-275515D01*
G01X1295602Y-276546D01*
G01X1295602Y-277662D01*
G01X1297034Y-278694D01*
G01X1297034Y-279680D01*
G01X1299182Y-281687D01*
G01X1299182Y-282831D01*
G01X1300613Y-282831D01*
G01X1300613Y-283920D01*
G01X1302574Y-285881D01*
G01X1304535Y-287842D01*
G01X1305323Y-287842D01*
G01X1308074Y-290706D01*
G01X1309046Y-290706D01*
G01X1310078Y-292137D01*
G01X1311351Y-292137D01*
G01X1311351Y-292853D01*
G01X1312625Y-292853D01*
G01X1313657Y-294285D01*
G01X1314931Y-294285D01*
G01X1314931Y-295001D01*
G01X1316362Y-295001D01*
G01X1316362Y-295717D01*
G01X1317794Y-295717D01*
G01X1317794Y-296432D01*
G01X1319226Y-296432D01*
G01X1319226Y-297148D01*
G01X1321373Y-297148D01*
G01X1321373Y-297864D01*
G01X1323521Y-297864D01*
G01X1323521Y-298580D01*
G01X1326384Y-298580D01*
G01X1326384Y-299296D01*
G01X1329248Y-299296D01*
G01X1329248Y-300012D01*
G01X1333543Y-300012D01*
G01X1333543Y-300728D01*
G01X1333543Y-300728D01*
G01X1339986Y-300728D01*
G01X1339986Y-301443D01*
G01X1353587Y-301443D01*
G01X1353587Y-300728D01*
G01X1360746Y-300728D01*
G01X1360746Y-300012D01*
G01X1364325Y-300012D01*
G01X1364325Y-299296D01*
G01X1367188Y-299296D01*
G01X1367188Y-298580D01*
G01X1370052Y-298580D01*
G01X1370052Y-297864D01*
G01X1372199Y-297864D01*
G01X1372199Y-297148D01*
G01X1374347Y-297148D01*
G01X1374347Y-296432D01*
G01X1375779Y-296432D01*
G01X1375779Y-295717D01*
G01X1377210Y-295717D01*
G01X1377210Y-295001D01*
G01X1379200Y-295001D01*
G01X1380232Y-293569D01*
G01X1381347Y-293569D01*
G01X1382379Y-292137D01*
G01X1383653Y-292137D01*
G01X1383653Y-291421D01*
G01X1384783Y-291421D01*
G01X1387534Y-288558D01*
G01X1388315Y-288558D01*
G01X1395107Y-281767D01*
G01X1395107Y-280985D01*
G01X1397970Y-278234D01*
G01X1397970Y-277104D01*
G01X1398686Y-277104D01*
G01X1398686Y-275831D01*
G01X1400118Y-274799D01*
G01X1400118Y-273525D01*
G01X1400834Y-273525D01*
G01X1400834Y-272093D01*
G01X1401550Y-272093D01*
G01X1401550Y-270662D01*
G01X1402265Y-270662D01*
G01X1402265Y-269230D01*
G01X1402981Y-269230D01*
G01X1402981Y-267082D01*
G01X1403697Y-267082D01*
G01X1403697Y-264935D01*
G01X1404413Y-264935D01*
G01X1404413Y-263503D01*
G01X1405129Y-263503D01*
G01X1405129Y-260640D01*
G01X1405845Y-260640D01*
G01X1405845Y-257776D01*
G01X1406561Y-257776D01*
G01X1406561Y-254913D01*
G01X1407276Y-254913D01*
G01X1407276Y-251333D01*
G01X1407992Y-251333D01*
G01X1407992Y-227710D01*
G01X1407276Y-227710D01*
G01X1407276Y-223415D01*
G01X1406561Y-223415D01*
G01X1406561Y-219836D01*
G01X1405845Y-219836D01*
G01X1405845Y-217688D01*
G01X1405129Y-217688D01*
G01X1405129Y-215540D01*
G01X1404413Y-215540D01*
G01X1404413Y-214109D01*
G01X1403697Y-214109D01*
G01X1403697Y-212979D01*
G01X1400834Y-210228D01*
G01X1400834Y-209256D01*
G01X1399402Y-208224D01*
G01X1399402Y-207108D01*
G01X1397970Y-206076D01*
G01X1397970Y-204961D01*
G01X1396539Y-203929D01*
G01X1396539Y-202655D01*
G01X1395823Y-202655D01*
G01X1395823Y-200507D01*
G01X1395107Y-200507D01*
G01X1395107Y-199076D01*
G01X1394391Y-199076D01*
G01X1394391Y-197644D01*
G01X1393675Y-197644D01*
G01X1393675Y-195496D01*
G01X1392959Y-195496D01*
G01X1392959Y-192633D01*
G01X1392243Y-192633D01*
G01X1392243Y-190485D01*
G01X1391528Y-190485D01*
G01X1391528Y-187622D01*
G01X1390812Y-187622D01*
G01X1390812Y-184043D01*
G01X1390096Y-184043D01*
G01X1390096Y-181179D01*
G01X1389380Y-181179D01*
G01X1389380Y-178316D01*
G01X1388664Y-178316D01*
G01X1388664Y-176168D01*
G01X1387948Y-176168D01*
G01X1387948Y-174021D01*
G01X1387232Y-174021D01*
G01X1387232Y-172589D01*
G01X1386516Y-172589D01*
G01X1386516Y-171157D01*
G01X1385801Y-171157D01*
G01X1385801Y-170068D01*
G01X1383840Y-168107D01*
G01X1381879Y-166146D01*
G01X1380790Y-166146D01*
G01X1380790Y-165430D01*
G01X1377926Y-165430D01*
G01X1377926Y-164714D01*
G01X1367188Y-164714D01*
G01X1367188Y-165430D01*
G01X1360746Y-165430D01*
G01X1360746Y-166146D01*
G01X1357166Y-166146D01*
G01X1357166Y-166862D01*
G01X1355019Y-166862D01*
G01X1355019Y-170441D01*
G01X1354303Y-170441D01*
G01X1354303Y-235584D01*
G01X1353587Y-235584D01*
G01X1353587Y-236682D01*
G01X1352346Y-237923D01*
G01X1351105Y-239164D01*
G01X1350008Y-239164D01*
G01X1350008Y-239880D01*
G01X1348576Y-239880D01*
G01X1348576Y-240595D01*
G01X1344997Y-240595D01*
G01X1344997Y-239880D01*
G01X1343188Y-239880D01*
G01X1339986Y-236677D01*
G01X1339986Y-234869D01*
G01X1339270Y-234869D01*
G01X1339270Y-170441D01*
G01X1339986Y-170441D01*
G01X1339986Y-169010D01*
G01X1339270Y-169010D01*
G01X1339270Y-167885D01*
G01X1338758Y-167373D01*
G01X1338247Y-166862D01*
G01X1336406Y-166862D01*
G01X1336406Y-166146D01*
G01X1332827Y-166146D01*
G01X1332827Y-165430D01*
G01X1326384Y-165430D01*
G01X1326384Y-164714D01*
G01X1316362Y-164714D01*
G01X1316362Y-165430D01*
G01X1313499Y-165430D01*
G01X1313499Y-166146D01*
G01X1311694Y-166146D01*
G01X1309733Y-168107D01*
G01X1307772Y-170068D01*
G01X1307772Y-171873D01*
G01X1307056Y-171873D01*
G01X1307056Y-173305D01*
G01X1306340Y-173305D01*
G01X1306340Y-174736D01*
G01X1305624Y-174736D01*
G01X1305624Y-176884D01*
G01X1304909Y-176884D01*
G01X1304909Y-179747D01*
G01X1304193Y-179747D01*
G01X1304193Y-181895D01*
G01X1303477Y-181895D01*
G01X1303477Y-185474D01*
G01X1302761Y-185474D01*
G01X1302761Y-187622D01*
G01X1302045Y-187622D01*
G01X1302045Y-190485D01*
G01X1301329Y-190485D01*
G01X1301329Y-192633D01*
G01X1300613Y-192633D01*
G01X1300613Y-195496D01*
G01X1299898Y-195496D01*
G01X1299898Y-197644D01*
G01X1299182Y-197644D01*
G01X1299182Y-199791D01*
G01X1298466Y-199791D01*
G01X1298466Y-201223D01*
G01X1297750Y-201223D01*
G01X1297750Y-202655D01*
G01X1297034Y-202655D01*
G01X1297034Y-204087D01*
G01X1296318Y-204087D01*
G01X1296318Y-205518D01*
G01X1295602Y-205518D01*
G01X1295602Y-206663D01*
G01X1293455Y-208669D01*
G01X1293455Y-209502D01*
G01X1289876Y-212988D01*
G01X1289876Y-214825D01*
G01X1289160Y-214825D01*
G01X1289160Y-216256D01*
G01X1288444Y-216256D01*
G01X1288444Y-218404D01*
G01X1287728Y-218404D01*
G01X1287728Y-221267D01*
G01X1287012Y-221267D01*
G01X1287012Y-224131D01*
G01X1286296Y-224131D01*
G01X1286296Y-229142D01*
G01X1285580Y-229142D01*
G01X1244394Y-229142D01*
G01X1244061Y-228811D01*
G01X1244061Y-228012D01*
G01X1241197Y-225261D01*
G01X1241197Y-224432D01*
G01X1238334Y-221681D01*
G01X1238334Y-220839D01*
G01X1236186Y-218832D01*
G01X1236186Y-217846D01*
G01X1234754Y-216814D01*
G01X1234754Y-215828D01*
G01X1232607Y-213821D01*
G01X1232607Y-212677D01*
G01X1231891Y-212677D01*
G01X1231891Y-211403D01*
G01X1230459Y-210371D01*
G01X1230459Y-209256D01*
G01X1229028Y-208224D01*
G01X1229028Y-207108D01*
G01X1227596Y-206076D01*
G01X1227596Y-204802D01*
G01X1226880Y-204802D01*
G01X1226880Y-203371D01*
G01X1226164Y-203371D01*
G01X1226164Y-202097D01*
G01X1224732Y-201065D01*
G01X1224732Y-199791D01*
G01X1224017Y-199791D01*
G01X1224017Y-198360D01*
G01X1223301Y-198360D01*
G01X1223301Y-196928D01*
G01X1222585Y-196928D01*
G01X1222585Y-195496D01*
G01X1221869Y-195496D01*
G01X1221869Y-194223D01*
G01X1220437Y-193191D01*
G01X1220437Y-191917D01*
G01X1219721Y-191917D01*
G01X1219721Y-190485D01*
G01X1219005Y-190485D01*
G01X1219005Y-189054D01*
G01X1218290Y-189054D01*
G01X1218290Y-187622D01*
G01X1217574Y-187622D01*
G01X1217574Y-186190D01*
G01X1216858Y-186190D01*
G01X1216858Y-184043D01*
G01X1216142Y-184043D01*
G01X1216142Y-182611D01*
G01X1215426Y-182611D01*
G01X1215426Y-181179D01*
G01X1214710Y-181179D01*
G01X1214710Y-179032D01*
G01X1213994Y-179032D01*
G01X1213994Y-177600D01*
G01X1213279Y-177600D01*
G01X1213279Y-175452D01*
G01X1212563Y-175452D01*
G01X1212563Y-174021D01*
G01X1211847Y-174021D01*
G01X1211847Y-171873D01*
G01X1211131Y-171873D01*
G01X1211131Y-170441D01*
G01X1210415Y-170441D01*
G01X1210415Y-168294D01*
G01X1209699Y-168294D01*
G01X1209699Y-166146D01*
G01X1208983Y-166146D01*
G01X1208983Y-164714D01*
G01X1208268Y-164714D01*
G01X1208268Y-162567D01*
G01X1207552Y-162567D01*
G01X1207552Y-159703D01*
G01X1206836Y-159703D01*
G01X1206836Y-158272D01*
G01X1206120Y-158272D01*
G01X1206120Y-155408D01*
G01X1205404Y-155408D01*
G01X1205404Y-153261D01*
G01X1204688Y-153261D01*
G01X1204688Y-151113D01*
G01X1203972Y-151113D01*
G01X1203972Y-148250D01*
G01X1203257Y-148250D01*
G01X1203257Y-145386D01*
G01X1202541Y-145386D01*
G01X1202541Y-143239D01*
G01X1201825Y-143239D01*
G01X1201825Y-139659D01*
G01X1201109Y-139659D01*
G01X1201109Y-136796D01*
G01X1200393Y-136796D01*
G01X1200393Y-134648D01*
G01X1199677Y-134648D01*
G01X1199677Y-131069D01*
G01X1198961Y-131069D01*
G01X1198961Y-127490D01*
G01X1198246Y-127490D01*
G01X1198246Y-123910D01*
G01X1197530Y-123910D01*
G01X1197530Y-120331D01*
G01X1196814Y-120331D01*
G01X1196814Y-116036D01*
G01X1196098Y-116036D01*
G01X1196098Y-110309D01*
G01X1195382Y-110309D01*
G01X1195382Y-103866D01*
G01X1194666Y-103866D01*
G01X1194666Y-83822D01*
G01X1195382Y-83822D01*
G01X1195382Y-79527D01*
G01X1196098Y-79527D01*
G01X1196098Y-75948D01*
G01X1196814Y-75948D01*
G01X1196814Y-73800D01*
G01X1197530Y-73800D01*
G01X1197530Y-71653D01*
G01X1198246Y-71653D01*
G01X1198246Y-70221D01*
G01X1198961Y-70221D01*
G01X1198961Y-68073D01*
G01X1199677Y-68073D01*
G01X1199677Y-66800D01*
G01X1201109Y-65768D01*
G01X1201109Y-64652D01*
G01X1202541Y-63620D01*
G01X1202541Y-62686D01*
G01X1205743Y-59483D01*
G01X1206549Y-59483D01*
G01X1208555Y-57336D01*
G01X1209699Y-57336D01*
G01X1209699Y-56620D01*
G01X1211131Y-56620D01*
G01X1211131Y-55904D01*
G01X1212563Y-55904D01*
G01X1212563Y-55188D01*
G01X1215426Y-55188D01*
G01X1215426Y-54472D01*
G01X1217574Y-54472D01*
G01X1217574Y-53756D01*
G01X1231175Y-53756D01*
G01X1231175Y-54472D01*
G01X1234754Y-54472D01*
G01X1234754Y-55188D01*
G01X1238334Y-55188D01*
G01X1238334Y-55904D01*
G01X1241197Y-55904D01*
G01X1241197Y-56620D01*
G01X1243345Y-56620D01*
G01X1243345Y-57336D01*
G01X1245492Y-57336D01*
G01X1245492Y-58051D01*
G01X1246924Y-58051D01*
G01X1246924Y-58767D01*
G01X1249072Y-58767D01*
G01X1249072Y-59483D01*
G01X1250503Y-59483D01*
G01X1250503Y-60199D01*
G01X1251935Y-60199D01*
G01X1251935Y-60915D01*
G01X1254083Y-60915D01*
G01X1254083Y-61631D01*
G01X1255514Y-61631D01*
G01X1255514Y-62347D01*
G01X1256946Y-62347D01*
G01X1256946Y-63062D01*
G01X1258378Y-63062D01*
G01X1258378Y-63778D01*
G01X1259651Y-63778D01*
G01X1260683Y-65210D01*
G01X1261957Y-65210D01*
G01X1261957Y-65926D01*
G01X1263389Y-65926D01*
G01X1263389Y-66642D01*
G01X1264820Y-66642D01*
G01X1264820Y-65926D01*
G01X1265945Y-65926D01*
G01X1266457Y-65415D01*
G01X1266968Y-64903D01*
G01X1266968Y-63936D01*
G01X1268400Y-62904D01*
G01X1268400Y-61631D01*
G01X1269116Y-61631D01*
G01X1269116Y-60199D01*
G01X1269831Y-60199D01*
G01X1269831Y-58767D01*
G01X1270547Y-58767D01*
G01X1270547Y-57336D01*
G01X1271263Y-57336D01*
G01X1271263Y-55904D01*
G01X1271979Y-55904D01*
G01X1271979Y-54472D01*
G01X1272695Y-54472D01*
G01X1272695Y-53040D01*
G01X1273411Y-53040D01*
G01X1273411Y-51609D01*
G01X1274127Y-51609D01*
G01X1274127Y-50177D01*
G01X1274842Y-50177D01*
G01X1274842Y-48745D01*
G01X1275558Y-48745D01*
G01X1275558Y-47314D01*
G01X1276274Y-47314D01*
G01X1276274Y-46040D01*
G01X1277706Y-45008D01*
G01X1277706Y-43734D01*
G01X1278422Y-43734D01*
G01X1278422Y-42461D01*
G01X1279854Y-41429D01*
G01X1279854Y-40313D01*
G01X1281285Y-39281D01*
G01X1281285Y-38295D01*
G01X1283433Y-36288D01*
G01X1283433Y-35493D01*
G01X1287187Y-31739D01*
G01X1290941Y-27985D01*
G01X1291865Y-27985D01*
G01X1292897Y-26554D01*
G01X1294013Y-26554D01*
G01X1295045Y-25122D01*
G01X1296318Y-25122D01*
G01X1296318Y-24406D01*
G01X1297750Y-24406D01*
G01X1297750Y-23690D01*
G01X1299182Y-23690D01*
G01X1299182Y-22974D01*
G01X1301171Y-22974D01*
G01X1302203Y-21543D01*
G01X1303138Y-21543D01*
G01X1306340Y-18340D01*
G01X1306340Y-17247D01*
G01X1307056Y-17247D01*
G01X1307056Y-15816D01*
G01X1307772Y-15816D01*
G01X1307772Y-13668D01*
G01X1308488Y-13668D01*
G01X1308488Y-5078D01*
G01X1307772Y-5078D01*
G01X1307772Y-1499D01*
G01X1307056Y-1499D01*
G01X1307056Y649D01*
G01X1306340Y649D01*
G01X1306340Y2797D01*
G01X1305624Y2797D01*
G01X1305624Y4228D01*
G01X1304909Y4228D01*
G01X1304909Y6376D01*
G01X1304193Y6376D01*
G01X1304193Y7808D01*
G01X1303477Y7808D01*
G01X1303477Y9081D01*
G01X1302045Y10113D01*
G01X1302045Y11387D01*
G01X1301329Y11387D01*
G01X1301329Y12661D01*
G01X1299898Y13693D01*
G01X1299898Y15395D01*
G01X1302045Y17401D01*
G01X1302045Y18388D01*
G01X1303477Y19419D01*
G01X1303477Y20693D01*
G01X1304193Y20693D01*
G01X1304193Y22125D01*
G01X1304909Y22125D01*
G01X1304909Y24272D01*
G01X1305624Y24272D01*
G01X1305624Y28568D01*
G01X1306340Y28568D01*
G01X1306340Y32863D01*
G01X1305624Y32863D01*
G01X1305624Y37158D01*
G01X1304909Y37158D01*
G01X1304909Y39305D01*
G01X1304193Y39305D01*
G01X1304193Y41453D01*
G01X1303477Y41453D01*
G01X1303477Y42885D01*
G01X1302761Y42885D01*
G01X1302761Y44316D01*
G01X1302045Y44316D01*
G01X1302045Y45590D01*
G01X1300613Y46622D01*
G01X1300613Y47609D01*
G01X1298466Y49615D01*
G01X1298466Y50413D01*
G01X1295787Y53091D01*
G01X1293108Y55770D01*
G01X1292325Y55770D01*
G01X1289574Y58634D01*
G01X1288602Y58634D01*
G01X1287570Y60065D01*
G01X1286296Y60065D01*
G01X1286296Y60781D01*
G01X1285023Y60781D01*
G01X1283991Y62213D01*
G01X1282717Y62213D01*
G01X1282717Y62929D01*
G01X1281285Y62929D01*
G01X1281285Y63645D01*
G01X1279854Y63645D01*
G01X1279854Y64361D01*
G01X1278422Y64361D01*
G01X1278422Y65076D01*
G01X1276274Y65076D01*
G01X1276274Y65792D01*
G01X1274842Y65792D01*
G01X1274842Y66508D01*
G01X1272695Y66508D01*
G01X1272695Y67224D01*
G01X1270547Y67224D01*
G01X1270547Y67940D01*
G01X1267684Y67940D01*
G01X1267684Y68656D01*
G01X1264820Y68656D01*
G01X1264820Y69372D01*
G01X1259809Y69372D01*
G01X1259809Y70087D01*
G01X1244776Y70087D01*
G01X1244776Y69372D01*
G01X1240481Y69372D01*
G01X1240481Y68656D01*
G01X1237618Y68656D01*
G01X1237618Y67940D01*
G01X1235470Y67940D01*
G01X1235470Y67224D01*
G01X1233323Y67224D01*
G01X1233323Y66508D01*
G01X1231891Y66508D01*
G01X1231891Y65792D01*
G01X1230459Y65792D01*
G01X1230459Y65076D01*
G01X1229186Y65076D01*
G01X1228154Y63645D01*
G01X1227229Y63645D01*
G01X1220437Y56853D01*
G01X1220437Y55928D01*
G01X1219005Y54896D01*
G01X1219005Y53623D01*
G01X1218290Y53623D01*
G01X1218290Y51475D01*
G01X1217574Y51475D01*
G01X1217574Y48612D01*
G01X1216858Y48612D01*
G01X1216858Y40021D01*
G01X1217574Y40021D01*
G01X1217574Y39305D01*
G01X1215426Y39305D01*
G01X1215426Y40021D01*
G01X1205404Y40021D01*
G01X1205404Y39305D01*
G01X1203257Y39305D01*
G01X1203257Y38590D01*
G01X1201109Y38590D01*
G01X1201109Y37874D01*
G01X1199677Y37874D01*
G01X1199677Y37158D01*
G01X1198246Y37158D01*
G01X1198246Y36442D01*
G01X1196814Y36442D01*
G01X1196814Y35726D01*
G01X1195540Y35726D01*
G01X1194508Y34294D01*
G01X1193235Y34294D01*
G01X1193235Y33579D01*
G01X1191961Y33579D01*
G01X1190929Y32147D01*
G01X1190003Y32147D01*
G01X1183928Y26072D01*
G01X1183928Y25146D01*
G01X1182497Y24114D01*
G01X1182497Y22999D01*
G01X1181065Y21967D01*
G01X1181065Y20693D01*
G01X1180349Y20693D01*
G01X1180349Y19261D01*
G01X1179633Y19261D01*
G01X1179633Y17830D01*
G01X1178917Y17830D01*
G01X1178917Y15682D01*
G01X1178202Y15682D01*
G01X1178202Y14250D01*
G01X1177486Y14250D01*
G01X1177486Y11387D01*
G01X1176770Y11387D01*
G01X1176770Y8524D01*
G01X1176054Y8524D01*
G01X1176054Y4944D01*
G01X1175338Y4944D01*
G01X1175338Y-67D01*
G01X1174622Y-67D01*
G01X1174622Y-6510D01*
G01X1173906Y-6510D01*
G01X1173906Y-12236D01*
G01X1173191Y-12236D01*
G01X1173191Y-17963D01*
G01X1172475Y-17963D01*
G01X1172475Y-22974D01*
G01X1171759Y-22974D01*
G01X1171759Y-26554D01*
G01X1171043Y-26554D01*
G01X1171043Y-29417D01*
G01X1170327Y-29417D01*
G01X1170327Y-32280D01*
G01X1169611Y-32280D01*
G01X1169611Y-34428D01*
G01X1168895Y-34428D01*
G01X1168895Y-37291D01*
G01X1168180Y-37291D01*
G01X1168180Y-38723D01*
G01X1167464Y-38723D01*
G01X1167464Y-40871D01*
G01X1166748Y-40871D01*
G01X1166748Y-42302D01*
G01X1166032Y-42302D01*
G01X1166032Y-44450D01*
G01X1165316Y-44450D01*
G01X1165316Y-45882D01*
G01X1164600Y-45882D01*
G01X1164600Y-47314D01*
G01X1163884Y-47314D01*
G01X1163884Y-48745D01*
G01X1163168Y-48745D01*
G01X1163168Y-50177D01*
G01X1162453Y-50177D01*
G01X1162453Y-51451D01*
G01X1161021Y-52483D01*
G01X1161021Y-53598D01*
G01X1159589Y-54630D01*
G01X1159589Y-55746D01*
G01X1158157Y-56778D01*
G01X1158157Y-57764D01*
G01X1156010Y-59770D01*
G01X1156010Y-60613D01*
G01X1153146Y-63364D01*
G01X1153146Y-64192D01*
G01X1150283Y-66944D01*
G01X1150283Y-67786D01*
G01X1148135Y-69792D01*
G01X1148135Y-70779D01*
G01X1146704Y-71811D01*
G01X1146704Y-72797D01*
G01X1144556Y-74803D01*
G01X1144556Y-75661D01*
G01X1142409Y-77667D01*
G01X1142409Y-78811D01*
G01X1141693Y-78811D01*
G01X1141693Y-79956D01*
G01X1139545Y-81962D01*
G01X1139545Y-82948D01*
G01X1138113Y-83980D01*
G01X1138113Y-85668D01*
G01X1140977Y-88419D01*
G01X1140977Y-89549D01*
G01X1141693Y-89549D01*
G01X1141693Y-93844D01*
G01X1140977Y-93844D01*
G01X1140977Y-95992D01*
G01X1140261Y-95992D01*
G01X1140261Y-98139D01*
G01X1139545Y-98139D01*
G01X1139545Y-99571D01*
G01X1138829Y-99571D01*
G01X1138829Y-101719D01*
G01X1138113Y-101719D01*
G01X1138113Y-103866D01*
G01X1137398Y-103866D01*
G01X1137398Y-106014D01*
G01X1136682Y-106014D01*
G01X1136682Y-108162D01*
G01X1135966Y-108162D01*
G01X1135966Y-110309D01*
G01X1135250Y-110309D01*
G01X1135250Y-112457D01*
G01X1134534Y-112457D01*
G01X1134534Y-115320D01*
G01X1133818Y-115320D01*
G01X1133818Y-117468D01*
G01X1133102Y-117468D01*
G01X1133102Y-119615D01*
G01X1132387Y-119615D01*
G01X1132387Y-121763D01*
G01X1131671Y-121763D01*
G01X1131671Y-124626D01*
G01X1130955Y-124626D01*
G01X1130955Y-126774D01*
G01X1130239Y-126774D01*
G01X1130239Y-129637D01*
G01X1129523Y-129637D01*
G01X1129523Y-132501D01*
G01X1128807Y-132501D01*
G01X1128807Y-135364D01*
G01X1128091Y-135364D01*
G01X1113774Y-135364D01*
G01X1113774Y-132501D01*
G01X1114490Y-132501D01*
G01X1114490Y-129637D01*
G01X1115206Y-129637D01*
G01X1115206Y-126774D01*
G01X1115922Y-126774D01*
G01X1115922Y-123910D01*
G01X1116638Y-123910D01*
G01X1116638Y-121763D01*
G01X1117354Y-121763D01*
G01X1117354Y-118899D01*
G01X1118069Y-118899D01*
G01X1118069Y-116752D01*
G01X1118785Y-116752D01*
G01X1118785Y-114604D01*
G01X1119501Y-114604D01*
G01X1119501Y-112457D01*
G01X1120217Y-112457D01*
G01X1120217Y-109593D01*
G01X1120933Y-109593D01*
G01X1120933Y-107446D01*
G01X1121649Y-107446D01*
G01X1121649Y-105298D01*
G01X1122365Y-105298D01*
G01X1122365Y-103151D01*
G01X1123080Y-103151D01*
G01X1123080Y-101719D01*
G01X1123796Y-101719D01*
G01X1123796Y-99878D01*
G01X1123285Y-99367D01*
G01X1122774Y-98855D01*
G01X1115922Y-98855D01*
G01X1115922Y-98139D01*
G01X1114824Y-98139D01*
G01X1113583Y-96899D01*
G01X1112343Y-95658D01*
G01X1112343Y-94560D01*
G01X1111627Y-94560D01*
G01X1111627Y-88117D01*
G01X1112343Y-88117D01*
G01X1112343Y-85970D01*
G01X1113058Y-85970D01*
G01X1113058Y-83106D01*
G01X1113774Y-83106D01*
G01X1113774Y-80959D01*
G01X1114490Y-80959D01*
G01X1114490Y-78811D01*
G01X1115206Y-78811D01*
G01X1115206Y-77380D01*
G01X1115922Y-77380D01*
G01X1115922Y-75232D01*
G01X1116638Y-75232D01*
G01X1116638Y-73800D01*
G01X1117354Y-73800D01*
G01X1117354Y-72369D01*
G01X1118069Y-72369D01*
G01X1118069Y-70221D01*
G01X1118785Y-70221D01*
G01X1118785Y-68789D01*
G01X1119501Y-68789D01*
G01X1119501Y-67358D01*
G01X1120217Y-67358D01*
G01X1120217Y-65926D01*
G01X1120933Y-65926D01*
G01X1120933Y-64494D01*
G01X1121649Y-64494D01*
G01X1121649Y-63062D01*
G01X1122365Y-63062D01*
G01X1122365Y-61789D01*
G01X1123796Y-60757D01*
G01X1123796Y-59483D01*
G01X1124512Y-59483D01*
G01X1124512Y-58051D01*
G01X1125228Y-58051D01*
G01X1125228Y-56778D01*
G01X1126660Y-55746D01*
G01X1126660Y-54472D01*
G01X1127376Y-54472D01*
G01X1127376Y-53198D01*
G01X1128807Y-52166D01*
G01X1128807Y-50893D01*
G01X1129523Y-50893D01*
G01X1129523Y-49619D01*
G01X1130955Y-48587D01*
G01X1130955Y-47314D01*
G01X1131671Y-47314D01*
G01X1131671Y-46040D01*
G01X1133102Y-45008D01*
G01X1133102Y-43892D01*
G01X1134534Y-42860D01*
G01X1134534Y-41745D01*
G01X1135966Y-40713D01*
G01X1135966Y-39597D01*
G01X1137398Y-38565D01*
G01X1137398Y-37598D01*
G01X1136886Y-37087D01*
G01X1136375Y-36576D01*
G01X1134692Y-36576D01*
G01X1133660Y-35144D01*
G01X1132387Y-35144D01*
G01X1132387Y-33870D01*
G01X1130955Y-32838D01*
G01X1130955Y-30193D01*
G01X1130507Y-29984D01*
G01X1130060Y-29775D01*
G01X1130507Y-29566D01*
G01X1130955Y-29357D01*
G01X1130955Y-26554D01*
G01X1131671Y-26554D01*
G01X1131671Y-23690D01*
G01X1132387Y-23690D01*
G01X1132387Y-21543D01*
G01X1133102Y-21543D01*
G01X1133102Y-19395D01*
G01X1133818Y-19395D01*
G01X1133818Y-17247D01*
G01X1134534Y-17247D01*
G01X1134534Y-15100D01*
G01X1135250Y-15100D01*
G01X1135250Y-12952D01*
G01X1135966Y-12952D01*
G01X1135966Y-10805D01*
G01X1136682Y-10805D01*
G01X1136682Y-9373D01*
G01X1137398Y-9373D01*
G01X1137398Y-7225D01*
G01X1138113Y-7225D01*
G01X1138113Y-5078D01*
G01X1138829Y-5078D01*
G01X1138829Y-3646D01*
G01X1139545Y-3646D01*
G01X1139545Y-2214D01*
G01X1140261Y-2214D01*
G01X1140261Y649D01*
G01X1139155Y649D01*
G01X1138276Y1528D01*
G01X1137398Y2406D01*
G01X1137398Y4228D01*
G01X1136682Y4228D01*
G01X1136682Y8524D01*
G01X1137398Y8524D01*
G01X1137398Y11387D01*
G01X1138113Y11387D01*
G01X1138113Y14966D01*
G01X1138829Y14966D01*
G01X1138829Y17114D01*
G01X1139545Y17114D01*
G01X1139545Y19977D01*
G01X1140261Y19977D01*
G01X1140261Y21097D01*
G01X1136682Y24584D01*
G01X1136682Y25546D01*
G01X1135250Y26578D01*
G01X1135250Y27852D01*
G01X1134534Y27852D01*
G01X1134534Y29999D01*
G01X1133818Y29999D01*
G01X1133818Y33579D01*
G01X1133102Y33579D01*
G01X1133102Y57202D01*
G01X1132387Y57202D01*
G01X1132387Y66508D01*
G01X1131671Y66508D01*
G01X1131671Y72235D01*
G01X1130955Y72235D01*
G01X1130955Y77246D01*
G01X1130239Y77246D01*
G01X1130239Y81541D01*
G01X1129523Y81541D01*
G01X1129523Y85836D01*
G01X1128807Y85836D01*
G01X1128807Y89416D01*
G01X1128091Y89416D01*
G01X1128091Y93711D01*
G01X1127376Y93711D01*
G01X1127376Y96574D01*
G01X1126660Y96574D01*
G01X1126660Y100869D01*
G01X1125944Y100869D01*
G01X1125944Y105164D01*
G01X1125228Y105164D01*
G01X1125228Y110891D01*
G01X1124512Y110891D01*
G01X1124512Y118050D01*
G01X1123796Y118050D01*
G01X1123796Y128072D01*
G01X1123080Y128072D01*
G01X1123080Y164581D01*
G01X1123796Y164581D01*
G01X1123796Y177466D01*
G01X1124512Y177466D01*
G01X1124512Y187488D01*
G01X1125228Y187488D01*
G01X1125228Y193215D01*
G01X1158873Y193215D01*
G01X1158873Y178182D01*
G01X1159589Y178182D01*
G01X1159589Y169592D01*
G01X1160305Y169592D01*
G01X1160305Y163865D01*
G01X1161021Y163865D01*
G01X1161021Y160286D01*
G01X1161737Y160286D01*
G01X1161737Y157422D01*
G01X1162453Y157422D01*
G01X1162453Y153127D01*
G01X1163168Y153127D01*
G01X1163168Y133799D01*
G01X1162453Y133799D01*
G01X1162453Y127356D01*
G01X1161737Y127356D01*
G01X1161737Y122345D01*
G01X1161021Y122345D01*
G01X1161021Y116618D01*
G01X1160305Y116618D01*
G01X1160305Y110891D01*
G01X1159589Y110891D01*
G01X1159589Y104449D01*
G01X1158873Y104449D01*
G01X1158873Y87984D01*
G01X1159589Y87984D01*
G01X1159589Y83689D01*
G01X1160305Y83689D01*
G01X1160305Y80825D01*
G01X1161021Y80825D01*
G01X1161021Y78678D01*
G01X1161737Y78678D01*
G01X1161737Y76530D01*
G01X1162453Y76530D01*
G01X1162453Y75098D01*
G01X1163168Y75098D01*
G01X1163168Y73825D01*
G01X1164600Y72793D01*
G01X1164600Y71519D01*
G01X1165316Y71519D01*
G01X1165316Y71519D01*
G01X1165316Y70435D01*
G01X1171391Y64361D01*
G01X1173600Y64361D01*
G01X1174111Y64872D01*
G01X1174622Y65383D01*
G01X1174622Y66175D01*
G01X1181781Y73284D01*
G01X1181781Y74383D01*
G01X1183213Y74383D01*
G01X1183213Y75484D01*
G01X1189655Y81872D01*
G01X1189655Y82973D01*
G01X1190780Y82973D01*
G01X1191292Y83484D01*
G01X1191803Y83995D01*
G01X1191803Y84779D01*
G01X1203257Y96200D01*
G01X1203257Y97290D01*
G01X1204382Y97290D01*
G01X1204893Y97801D01*
G01X1205404Y98313D01*
G01X1205404Y99438D01*
G01X1206836Y99438D01*
G01X1206836Y100514D01*
G01X1227951Y121629D01*
G01X1228688Y121629D01*
G01X1238673Y131651D01*
G01X1239442Y131651D01*
G01X1244384Y136662D01*
G01X1245190Y136662D01*
G01X1247942Y139526D01*
G01X1248784Y139526D01*
G01X1250790Y141673D01*
G01X1251648Y141673D01*
G01X1253654Y143821D01*
G01X1254798Y143821D01*
G01X1254798Y144537D01*
G01X1256230Y144537D01*
G01X1256230Y145253D01*
G01X1257504Y145253D01*
G01X1258536Y146684D01*
G01X1259484Y146684D01*
G01X1260363Y147563D01*
G01X1261241Y148441D01*
G01X1261241Y149548D01*
G01X1261957Y149548D01*
G01X1261957Y150979D01*
G01X1262673Y150979D01*
G01X1262673Y154559D01*
G01X1263389Y154559D01*
G01X1263389Y161001D01*
G01X1262673Y161001D01*
G01X1262673Y166728D01*
G01X1261957Y166728D01*
G01X1261957Y170308D01*
G01X1261241Y170308D01*
G01X1261241Y173887D01*
G01X1260525Y173887D01*
G01X1260525Y176750D01*
G01X1259809Y176750D01*
G01X1259809Y178898D01*
G01X1259094Y178898D01*
G01X1259094Y181761D01*
G01X1258378Y181761D01*
G01X1258378Y183909D01*
G01X1257662Y183909D01*
G01X1257662Y186057D01*
G01X1256946Y186057D01*
G01X1256946Y188920D01*
G01X1256230Y188920D01*
G01X1256230Y191068D01*
G01X1255514Y191068D01*
G01X1255514Y193215D01*
G01X1254798Y193215D01*
G01X1254798Y195363D01*
G01X1254083Y195363D01*
G01X1254083Y197510D01*
G01X1253367Y197510D01*
G01X1253367Y199658D01*
G01X1252651Y199658D01*
G01X1252651Y201805D01*
G01X1251935Y201805D01*
G01X1251935Y203237D01*
G01X1251219Y203237D01*
G01X1251219Y205385D01*
G01X1250503Y205385D01*
G01X1250503Y207532D01*
G01X1249787Y207532D01*
G01X1249787Y209680D01*
G01X1249072Y209680D01*
G01X1249072Y211112D01*
G01X1248356Y211112D01*
G01X1248356Y213259D01*
G01X1247640Y213259D01*
G01X1247640Y215407D01*
G01X1246924Y215407D01*
G01X1246924Y217554D01*
G01X1246208Y217554D01*
G01X1246208Y218986D01*
G01X1245492Y218986D01*
G01X1245492Y221134D01*
G01X1244776Y221134D01*
G01X1244776Y223281D01*
G01X1244061Y223281D01*
G01X1244061Y225429D01*
G01X1243345Y225429D01*
G01X1243345Y227576D01*
G01X1242629Y227576D01*
G01X1242629Y229724D01*
G01X1241913Y229724D01*
G01X1241913Y231156D01*
G01X1241197Y231156D01*
G01X1241197Y234019D01*
G01X1240481Y234019D01*
G01X1240481Y236167D01*
G01X1239765Y236167D01*
G01X1239765Y237598D01*
G01X1239050Y237598D01*
G01X1239050Y239746D01*
G01X1238334Y239746D01*
G01X1238334Y241894D01*
G01X1237618Y241894D01*
G01X1237618Y244041D01*
G01X1236902Y244041D01*
G01X1236902Y246905D01*
G01X1236186Y246905D01*
G01X1236186Y249768D01*
G01X1235470Y249768D01*
G01X1235470Y251916D01*
G01X1234754Y251916D01*
G01X1234754Y254779D01*
G01X1234039Y254779D01*
G01X1234039Y258358D01*
G01X1233323Y258358D01*
G01X1233323Y261938D01*
G01X1232607Y261938D01*
G01X1232607Y265517D01*
G01X1231891Y265517D01*
G01X1231891Y268380D01*
G01X1231175Y268380D01*
G01X1231175Y270528D01*
G01X1230459Y270528D01*
G01X1230459Y273391D01*
G01X1229743Y273391D01*
G01X1229743Y274823D01*
G01X1229028Y274823D01*
G01X1229028Y276971D01*
G01X1228312Y276971D01*
G01X1228312Y279118D01*
G01X1227596Y279118D01*
G01X1227596Y280550D01*
G01X1226880Y280550D01*
G01X1226880Y282698D01*
G01X1226164Y282698D01*
G01X1226164Y284129D01*
G01X1225448Y284129D01*
G01X1225448Y285561D01*
G01X1224732Y285561D01*
G01X1224732Y286993D01*
G01X1224017Y286993D01*
G01X1224017Y288266D01*
G01X1222585Y289298D01*
G01X1222585Y290572D01*
G01X1221869Y290572D01*
G01X1221869Y291846D01*
G01X1220437Y292878D01*
G01X1220437Y293993D01*
G01X1219005Y295025D01*
G01X1219005Y295987D01*
G01X1215426Y299474D01*
G01X1215426Y300255D01*
G01X1212224Y303457D01*
G01X1211289Y303457D01*
G01X1210257Y304889D01*
G01X1209141Y304889D01*
G01X1208110Y306321D01*
G01X1206836Y306321D01*
G01X1206836Y307037D01*
G01X1205404Y307037D01*
G01X1205404Y307753D01*
G01X1203257Y307753D01*
G01X1203257Y308468D01*
G01X1196098Y308468D01*
G01X1196098Y307753D01*
G01X1193950Y307753D01*
G01X1193950Y307037D01*
G01X1192677Y307037D01*
G01X1191645Y305605D01*
G01X1190713Y305605D01*
G01X1188753Y303644D01*
G01X1186792Y301683D01*
G01X1186792Y300881D01*
G01X1184644Y298875D01*
G01X1184644Y297731D01*
G01X1183928Y297731D01*
G01X1183928Y296299D01*
G01X1183213Y296299D01*
G01X1183213Y295025D01*
G01X1181781Y293993D01*
G01X1181781Y292004D01*
G01X1181065Y292004D01*
G01X1181065Y290572D01*
G01X1180349Y290572D01*
G01X1180349Y289140D01*
G01X1179633Y289140D01*
G01X1179633Y287709D01*
G01X1178917Y287709D01*
G01X1178917Y286277D01*
G01X1178202Y286277D01*
G01X1178202Y284129D01*
G01X1177486Y284129D01*
G01X1177486Y282698D01*
G01X1176770Y282698D01*
G01X1176770Y280550D01*
G01X1176054Y280550D01*
G01X1176054Y279118D01*
G01X1175338Y279118D01*
G01X1175338Y276971D01*
G01X1174622Y276971D01*
G01X1174622Y274823D01*
G01X1173906Y274823D01*
G01X1173906Y272675D01*
G01X1173191Y272675D01*
G01X1173191Y270528D01*
G01X1172475Y270528D01*
G01X1172475Y268380D01*
G01X1171759Y268380D01*
G01X1171759Y265517D01*
G01X1171043Y265517D01*
G01X1171043Y263369D01*
G01X1170327Y263369D01*
G01X1170327Y260506D01*
G01X1169611Y260506D01*
G01X1169611Y258358D01*
G01X1168895Y258358D01*
G01X1168895Y255495D01*
G01X1168180Y255495D01*
G01X1168180Y252631D01*
G01X1167464Y252631D01*
G01X1167464Y249768D01*
G01X1166748Y249768D01*
G01X1166748Y246189D01*
G01X1166032Y246189D01*
G01X1166032Y242609D01*
G01X1165316Y242609D01*
G01X1165316Y239746D01*
G01X1164600Y239746D01*
G01X1164600Y235451D01*
G01X1163884Y235451D01*
G01X1163884Y231156D01*
G01X1163168Y231156D01*
G01X1163168Y226861D01*
G01X1162453Y226861D01*
G01X1162453Y222565D01*
G01X1161737Y222565D01*
G01X1161737Y217554D01*
G01X1161021Y217554D01*
G01X1161021Y211827D01*
G01X1160305Y211827D01*
G01X1160305Y204669D01*
G01X1159589Y204669D01*
G01X1159589Y193215D01*
G01X1158873Y193215D01*
G01X1125228Y193215D01*
G01X1125228Y194647D01*
G01X1125944Y194647D01*
G01X1125944Y201805D01*
G01X1126660Y201805D01*
G01X1126660Y208248D01*
G01X1127376Y208248D01*
G01X1127376Y213975D01*
G01X1128091Y213975D01*
G01X1128091Y218986D01*
G01X1128807Y218986D01*
G01X1128807Y224713D01*
G01X1129523Y224713D01*
G01X1129523Y229008D01*
G01X1130239Y229008D01*
G01X1130239Y233303D01*
G01X1130955Y233303D01*
G01X1130955Y237598D01*
G01X1131671Y237598D01*
G01X1131671Y241178D01*
G01X1132387Y241178D01*
G01X1132387Y244757D01*
G01X1133102Y244757D01*
G01X1133102Y249052D01*
G01X1133818Y249052D01*
G01X1133818Y251916D01*
G01X1134534Y251916D01*
G01X1134534Y255495D01*
G01X1135250Y255495D01*
G01X1135250Y259074D01*
G01X1135966Y259074D01*
G01X1135966Y261938D01*
G01X1136682Y261938D01*
G01X1136682Y265517D01*
G01X1137398Y265517D01*
G01X1137398Y268380D01*
G01X1138113Y268380D01*
G01X1138113Y271244D01*
G01X1138829Y271244D01*
G01X1138829Y274107D01*
G01X1139545Y274107D01*
G01X1139545Y276255D01*
G01X1140261Y276255D01*
G01X1140261Y279118D01*
G01X1140977Y279118D01*
G01X1140977Y281266D01*
G01X1141693Y281266D01*
G01X1141693Y284129D01*
G01X1142409Y284129D01*
G01X1142409Y286277D01*
G01X1143124Y286277D01*
G01X1143124Y288424D01*
G01X1143840Y288424D01*
G01X1143840Y290572D01*
G01X1144556Y290572D01*
G01X1144556Y292720D01*
G01X1145272Y292720D01*
G01X1145272Y295583D01*
G01X1145988Y295583D01*
G01X1145988Y297015D01*
G01X1146704Y297015D01*
G01X1146704Y299162D01*
G01X1147420Y299162D01*
G01X1147420Y301310D01*
G01X1148135Y301310D01*
G01X1148135Y303457D01*
G01X1148851Y303457D01*
G01X1148851Y305605D01*
G01X1149567Y305605D01*
G01X1149567Y307037D01*
G01X1150283Y307037D01*
G01X1150283Y309184D01*
G01X1150999Y309184D01*
G01X1150999Y310616D01*
G01X1151715Y310616D01*
G01X1151715Y312764D01*
G01X1152431Y312764D01*
G01X1152431Y314195D01*
G01X1153146Y314195D01*
G01X1153146Y315627D01*
G01X1153862Y315627D01*
G01X1153862Y317059D01*
G01X1154578Y317059D01*
G01X1154578Y318490D01*
G01X1155294Y318490D01*
G01X1155294Y319922D01*
G01X1156010Y319922D01*
G01X1156010Y321912D01*
G01X1157442Y322944D01*
G01X1157442Y324217D01*
G01X1158157Y324217D01*
G01X1158157Y325649D01*
G01X1158873Y325649D01*
G01X1158873Y327081D01*
G01X1159589Y327081D01*
G01X1159589Y328354D01*
G01X1161021Y329386D01*
G01X1161021Y330660D01*
G01X1161737Y330660D01*
G01X1161737Y331934D01*
G01X1163168Y332966D01*
G01X1163168Y333952D01*
G01X1165316Y335958D01*
G01X1165316Y336945D01*
G01X1166748Y337977D01*
G01X1166748Y338899D01*
G01X1175689Y347841D01*
G01X1176483Y347841D01*
G01X1178489Y349988D01*
G01X1179633Y349988D01*
G01X1179633Y350704D01*
G01X1181065Y350704D01*
G01X1181065Y351420D01*
G01X1182497Y351420D01*
G01X1182497Y352136D01*
G01X1183928Y352136D01*
G01X1183928Y352852D01*
G01X1186076Y352852D01*
G01X1186076Y353568D01*
G01X1188224Y353568D01*
G01X1188224Y354283D01*
G01X1192519Y354283D01*
G01X1192519Y354999D01*
G01X1196814Y354999D01*
G01X1196814Y354283D01*
G01X1201109Y354283D01*
G01X1201109Y353568D01*
G01X1203972Y353568D01*
G01X1203972Y352852D01*
G01X1206120Y352852D01*
G01X1206120Y352136D01*
G01X1208268Y352136D01*
G01X1208268Y351420D01*
G01X1210415Y351420D01*
G01X1210415Y350704D01*
G01X1211847Y350704D01*
G01X1211847Y349988D01*
G01X1213279Y349988D01*
G01X1213279Y349272D01*
G01X1214710Y349272D01*
G01X1214710Y348557D01*
G01X1216142Y348557D01*
G01X1216142Y347841D01*
G01X1217416Y347841D01*
G01X1218448Y346409D01*
G01X1219563Y346409D01*
G01X1220595Y344977D01*
G01X1221711Y344977D01*
G01X1222743Y343546D01*
G01X1223729Y343546D01*
G01X1225735Y341398D01*
G01X1226528Y341398D01*
G01X1231715Y336211D01*
G01X1236902Y331024D01*
G01X1236902Y330246D01*
G01X1239765Y327495D01*
G01X1239765Y326652D01*
G01X1241913Y324646D01*
G01X1241913Y323660D01*
G01X1243345Y322628D01*
G01X1243345Y321512D01*
G01X1244776Y320480D01*
G01X1244776Y319364D01*
G01X1246208Y318332D01*
G01X1246208Y317217D01*
G01X1247640Y316185D01*
G01X1247640Y314911D01*
G01X1248356Y314911D01*
G01X1248356Y313637D01*
G01X1249787Y312606D01*
G01X1249787Y311332D01*
G01X1250503Y311332D01*
G01X1250503Y309900D01*
G01X1251219Y309900D01*
G01X1251219Y308626D01*
G01X1252651Y307595D01*
G01X1252651Y306321D01*
G01X1253367Y306321D01*
G01X1253367Y304889D01*
G01X1254083Y304889D01*
G01X1254083Y303457D01*
G01X1254798Y303457D01*
G01X1254798Y302026D01*
G01X1255514Y302026D01*
G01X1255514Y300594D01*
G01X1256230Y300594D01*
G01X1256230Y299162D01*
G01X1256946Y299162D01*
G01X1256946Y297731D01*
G01X1257662Y297731D01*
G01X1257662Y295583D01*
G01X1258378Y295583D01*
G01X1258378Y294151D01*
G01X1259094Y294151D01*
G01X1259094Y292720D01*
G01X1259809Y292720D01*
G01X1259809Y291288D01*
G01X1260525Y291288D01*
G01X1260525Y289140D01*
G01X1261241Y289140D01*
G01X1261241Y287709D01*
G01X1261957Y287709D01*
G01X1261957Y285561D01*
G01X1262673Y285561D01*
G01X1262673Y284129D01*
G01X1263389Y284129D01*
G01X1263389Y281982D01*
G01X1264105Y281982D01*
G01X1264105Y280550D01*
G01X1264820Y280550D01*
G01X1264820Y278402D01*
G01X1265536Y278402D01*
G01X1265536Y276255D01*
G01X1266252Y276255D01*
G01X1266252Y274823D01*
G01X1266968Y274823D01*
G01X1266968Y272675D01*
G01X1267684Y272675D01*
G01X1267684Y270528D01*
G01X1268400Y270528D01*
G01X1268400Y268380D01*
G01X1269116Y268380D01*
G01X1269116Y266233D01*
G01X1269831Y266233D01*
G01X1269831Y264085D01*
G01X1270547Y264085D01*
G01X1270547Y261938D01*
G01X1271263Y261938D01*
G01X1271263Y259790D01*
G01X1271979Y259790D01*
G01X1271979Y257642D01*
G01X1272695Y257642D01*
G01X1272695Y255495D01*
G01X1273411Y255495D01*
G01X1273411Y252631D01*
G01X1274127Y252631D01*
G01X1274127Y250484D01*
G01X1274842Y250484D01*
G01X1274842Y248336D01*
G01X1275558Y248336D01*
G01X1275558Y245473D01*
G01X1276274Y245473D01*
G01X1276274Y243325D01*
G01X1276990Y243325D01*
G01X1276990Y240462D01*
G01X1277706Y240462D01*
G01X1277706Y238314D01*
G01X1278422Y238314D01*
G01X1278422Y235451D01*
G01X1279138Y235451D01*
G01X1279138Y233303D01*
G01X1279854Y233303D01*
G01X1279854Y230440D01*
G01X1280569Y230440D01*
G01X1280569Y227576D01*
G01X1281285Y227576D01*
G01X1281285Y224713D01*
G01X1282001Y224713D01*
G01X1282001Y222565D01*
G01X1282717Y222565D01*
G01X1282717Y219702D01*
G01X1283433Y219702D01*
G01X1283433Y216838D01*
G01X1284149Y216838D01*
G01X1284149Y214691D01*
G01X1284865Y214691D01*
G01X1284865Y212543D01*
G01X1285580Y212543D01*
G01X1285580Y209680D01*
G01X1286296Y209680D01*
G01X1286296Y207532D01*
G01X1287012Y207532D01*
G01X1287012Y205385D01*
G01X1287728Y205385D01*
G01X1287728Y203237D01*
G01X1288444Y203237D01*
G01X1288444Y201090D01*
G01X1289160Y201090D01*
G01X1289160Y199658D01*
G01X1289876Y199658D01*
G01X1289876Y197510D01*
G01X1290591Y197510D01*
G01X1290591Y195363D01*
G01X1291307Y195363D01*
G01X1291307Y193931D01*
G01X1292023Y193931D01*
G01X1292023Y191783D01*
G01X1292739Y191783D01*
G01X1292739Y190352D01*
G01X1293455Y190352D01*
G01X1293455Y188920D01*
G01X1294171Y188920D01*
G01X1294171Y187488D01*
G01X1294887Y187488D01*
G01X1294887Y186057D01*
G01X1295602Y186057D01*
G01X1295602Y184625D01*
G01X1296318Y184625D01*
G01X1296318Y183193D01*
G01X1297034Y183193D01*
G01X1297034Y181761D01*
G01X1297750Y181761D01*
G01X1297750Y180488D01*
G01X1299182Y179456D01*
G01X1299182Y178182D01*
G01X1299898Y178182D01*
G01X1299898Y176908D01*
G01X1301329Y175876D01*
G01X1301329Y174761D01*
G01X1302761Y173729D01*
G01X1302761Y172742D01*
G01X1304909Y170736D01*
G01X1304909Y169931D01*
G01X1308111Y166728D01*
G01X1320657Y166728D01*
G01X1320657Y166012D01*
G01X1324953Y166012D01*
G01X1324953Y165297D01*
G01X1327816Y165297D01*
G01X1327816Y164581D01*
G01X1329964Y164581D01*
G01X1329964Y163865D01*
G01X1331395Y163865D01*
G01X1331395Y163149D01*
G01X1332516Y163149D01*
G01X1336002Y159570D01*
G01X1337122Y159570D01*
G01X1337122Y158854D01*
G01X1338554Y158854D01*
G01X1338554Y158138D01*
G01X1340702Y158138D01*
G01X1340702Y157422D01*
G01X1342849Y157422D01*
G01X1342849Y156706D01*
G01X1345713Y156706D01*
G01X1345713Y155990D01*
G01X1348576Y155990D01*
G01X1348576Y156706D01*
G01X1351439Y156706D01*
G01X1351439Y157422D01*
G01X1353587Y157422D01*
G01X1353587Y158138D01*
G01X1355735Y158138D01*
G01X1355735Y158854D01*
G01X1356879Y158854D01*
G01X1358885Y161001D01*
G01X1359743Y161001D01*
G01X1361080Y162433D01*
G01X1430900Y162433D01*
G01X1430900Y153843D01*
G01X1431616Y153843D01*
G01X1431616Y150979D01*
G01X1432331Y150979D01*
G01X1432331Y149171D01*
G01X1435534Y145968D01*
G01X1436627Y145968D01*
G01X1436627Y145253D01*
G01X1438058Y145253D01*
G01X1438058Y144537D01*
G01X1439332Y144537D01*
G01X1440364Y143105D01*
G01X1441480Y143105D01*
G01X1442512Y141673D01*
G01X1443483Y141673D01*
G01X1446235Y138810D01*
G01X1447063Y138810D01*
G01X1449814Y135946D01*
G01X1450617Y135946D01*
G01X1456282Y130220D01*
G01X1457044Y130220D01*
G01X1469183Y118050D01*
G01X1469919Y118050D01*
G01X1476538Y111431D01*
G01X1483157Y104811D01*
G01X1483157Y104080D01*
G01X1500338Y86921D01*
G01X1500338Y86175D01*
G01X1509644Y76908D01*
G01X1509644Y76149D01*
G01X1517519Y68321D01*
G01X1517519Y67563D01*
G01X1520721Y64361D01*
G01X1520721Y64361D01*
G01X1522901Y64361D01*
G01X1527541Y69000D01*
G01X1527541Y69800D01*
G01X1529688Y71806D01*
G01X1529688Y72951D01*
G01X1530404Y72951D01*
G01X1530404Y74383D01*
G01X1531120Y74383D01*
G01X1531120Y75814D01*
G01X1531836Y75814D01*
G01X1531836Y77246D01*
G01X1532552Y77246D01*
G01X1532552Y79394D01*
G01X1533268Y79394D01*
G01X1533268Y80825D01*
G01X1533983Y80825D01*
G01X1533983Y84405D01*
G01X1534699Y84405D01*
G01X1534699Y90131D01*
G01X1535415Y90131D01*
G01X1535415Y101585D01*
G01X1534699Y101585D01*
G01X1534699Y110175D01*
G01X1533983Y110175D01*
G01X1533983Y115902D01*
G01X1533268Y115902D01*
G01X1533268Y121629D01*
G01X1532552Y121629D01*
G01X1532552Y127356D01*
G01X1531836Y127356D01*
G01X1531836Y133799D01*
G01X1531120Y133799D01*
G01X1531120Y153127D01*
G01X1531836Y153127D01*
G01X1531836Y157422D01*
G01X1532552Y157422D01*
G01X1532552Y161001D01*
G01X1533268Y161001D01*
G01X1533268Y165297D01*
G01X1533983Y165297D01*
G01X1533983Y170308D01*
G01X1534699Y170308D01*
G01X1534699Y181761D01*
G01X1535415Y181761D01*
G01X1535415Y190352D01*
G01X1534699Y190352D01*
G01X1534699Y203237D01*
G01X1533983Y203237D01*
G01X1533983Y211112D01*
G01X1533268Y211112D01*
G01X1533268Y217554D01*
G01X1532552Y217554D01*
G01X1532552Y222565D01*
G01X1531836Y222565D01*
G01X1531836Y227576D01*
G01X1531120Y227576D01*
G01X1531120Y231156D01*
G01X1530404Y231156D01*
G01X1530404Y234735D01*
G01X1529688Y234735D01*
G01X1529688Y239030D01*
G01X1528972Y239030D01*
G01X1528972Y241894D01*
G01X1528257Y241894D01*
G01X1528257Y245473D01*
G01X1527541Y245473D01*
G01X1527541Y248336D01*
G01X1526825Y248336D01*
G01X1526825Y251200D01*
G01X1526109Y251200D01*
G01X1526109Y254779D01*
G01X1525393Y254779D01*
G01X1525393Y257642D01*
G01X1524677Y257642D01*
G01X1524677Y259790D01*
G01X1523961Y259790D01*
G01X1523961Y262653D01*
G01X1523246Y262653D01*
G01X1523246Y265517D01*
G01X1522530Y265517D01*
G01X1522530Y267664D01*
G01X1521814Y267664D01*
G01X1521814Y269812D01*
G01X1521098Y269812D01*
G01X1521098Y271960D01*
G01X1520382Y271960D01*
G01X1520382Y274823D01*
G01X1519666Y274823D01*
G01X1519666Y276255D01*
G01X1518950Y276255D01*
G01X1518950Y278402D01*
G01X1518235Y278402D01*
G01X1518235Y280550D01*
G01X1517519Y280550D01*
G01X1517519Y281982D01*
G01X1516803Y281982D01*
G01X1516803Y284129D01*
G01X1516087Y284129D01*
G01X1516087Y285561D01*
G01X1515371Y285561D01*
G01X1515371Y287709D01*
G01X1514655Y287709D01*
G01X1514655Y289140D01*
G01X1513939Y289140D01*
G01X1513939Y290572D01*
G01X1513224Y290572D01*
G01X1513224Y292004D01*
G01X1512508Y292004D01*
G01X1512508Y293435D01*
G01X1511792Y293435D01*
G01X1511792Y294867D01*
G01X1511076Y294867D01*
G01X1511076Y296299D01*
G01X1510360Y296299D01*
G01X1510360Y297573D01*
G01X1508928Y298604D01*
G01X1508928Y299591D01*
G01X1506781Y301597D01*
G01X1506781Y302402D01*
G01X1503578Y305605D01*
G01X1502644Y305605D01*
G01X1501612Y307037D01*
G01X1499622Y307037D01*
G01X1499622Y307753D01*
G01X1498191Y307753D01*
G01X1498191Y308468D01*
G01X1491032Y308468D01*
G01X1491032Y307753D01*
G01X1488884Y307753D01*
G01X1488884Y307037D01*
G01X1486895Y307037D01*
G01X1485863Y305605D01*
G01X1484747Y305605D01*
G01X1483715Y304173D01*
G01X1482788Y304173D01*
G01X1480109Y301495D01*
G01X1477431Y298816D01*
G01X1477431Y298032D01*
G01X1474567Y295281D01*
G01X1474567Y294309D01*
G01X1473135Y293277D01*
G01X1473135Y292004D01*
G01X1472420Y292004D01*
G01X1472420Y290730D01*
G01X1470988Y289698D01*
G01X1470988Y288424D01*
G01X1470272Y288424D01*
G01X1470272Y286993D01*
G01X1469556Y286993D01*
G01X1469556Y285561D01*
G01X1468840Y285561D01*
G01X1468840Y284129D01*
G01X1468124Y284129D01*
G01X1468124Y282698D01*
G01X1467409Y282698D01*
G01X1467409Y281266D01*
G01X1466693Y281266D01*
G01X1466693Y279118D01*
G01X1465977Y279118D01*
G01X1465977Y277687D01*
G01X1465261Y277687D01*
G01X1465261Y275539D01*
G01X1464545Y275539D01*
G01X1464545Y273391D01*
G01X1463829Y273391D01*
G01X1463829Y271244D01*
G01X1463113Y271244D01*
G01X1463113Y268380D01*
G01X1462398Y268380D01*
G01X1462398Y265517D01*
G01X1461682Y265517D01*
G01X1461682Y262653D01*
G01X1460966Y262653D01*
G01X1460966Y258358D01*
G01X1460250Y258358D01*
G01X1460250Y255495D01*
G01X1459534Y255495D01*
G01X1459534Y252631D01*
G01X1458818Y252631D01*
G01X1458818Y249768D01*
G01X1458102Y249768D01*
G01X1458102Y247620D01*
G01X1457387Y247620D01*
G01X1457387Y244757D01*
G01X1456671Y244757D01*
G01X1456671Y242609D01*
G01X1455955Y242609D01*
G01X1455955Y240462D01*
G01X1455239Y240462D01*
G01X1455239Y238314D01*
G01X1454523Y238314D01*
G01X1454523Y236167D01*
G01X1453807Y236167D01*
G01X1453807Y234019D01*
G01X1453091Y234019D01*
G01X1453091Y231872D01*
G01X1452376Y231872D01*
G01X1452376Y229724D01*
G01X1451660Y229724D01*
G01X1451660Y227576D01*
G01X1450944Y227576D01*
G01X1450944Y226145D01*
G01X1450228Y226145D01*
G01X1450228Y223997D01*
G01X1449512Y223997D01*
G01X1449512Y221850D01*
G01X1448796Y221850D01*
G01X1448796Y219702D01*
G01X1448080Y219702D01*
G01X1448080Y217554D01*
G01X1447365Y217554D01*
G01X1447365Y216123D01*
G01X1446649Y216123D01*
G01X1446649Y213975D01*
G01X1445933Y213975D01*
G01X1445933Y211827D01*
G01X1445217Y211827D01*
G01X1445217Y209680D01*
G01X1444501Y209680D01*
G01X1444501Y207532D01*
G01X1443785Y207532D01*
G01X1443785Y205385D01*
G01X1443069Y205385D01*
G01X1443069Y203953D01*
G01X1442353Y203953D01*
G01X1442353Y201805D01*
G01X1441638Y201805D01*
G01X1441638Y199658D01*
G01X1440922Y199658D01*
G01X1440922Y197510D01*
G01X1440206Y197510D01*
G01X1440206Y195363D01*
G01X1439490Y195363D01*
G01X1439490Y193931D01*
G01X1438774Y193931D01*
G01X1438774Y191068D01*
G01X1438058Y191068D01*
G01X1438058Y189636D01*
G01X1437342Y189636D01*
G01X1437342Y186772D01*
G01X1436627Y186772D01*
G01X1436627Y184625D01*
G01X1435911Y184625D01*
G01X1435911Y182477D01*
G01X1435195Y182477D01*
G01X1435195Y179614D01*
G01X1434479Y179614D01*
G01X1434479Y176750D01*
G01X1433763Y176750D01*
G01X1433763Y173887D01*
G01X1433047Y173887D01*
G01X1433047Y171024D01*
G01X1432331Y171024D01*
G01X1432331Y167444D01*
G01X1431616Y167444D01*
G01X1431616Y162433D01*
G01X1430900Y162433D01*
G01X1361080Y162433D01*
G01X1361749Y163149D01*
G01X1362893Y163149D01*
G01X1362893Y163865D01*
G01X1364325Y163865D01*
G01X1364325Y164581D01*
G01X1366472Y164581D01*
G01X1366472Y165297D01*
G01X1369336Y165297D01*
G01X1369336Y166012D01*
G01X1373631Y166012D01*
G01X1373631Y166728D01*
G01X1385801Y166728D01*
G01X1385801Y167444D01*
G01X1386907Y167444D01*
G01X1387786Y168323D01*
G01X1388664Y169201D01*
G01X1388664Y170020D01*
G01X1390812Y172027D01*
G01X1390812Y173013D01*
G01X1392243Y174045D01*
G01X1392243Y175161D01*
G01X1393675Y176193D01*
G01X1393675Y177308D01*
G01X1395107Y178340D01*
G01X1395107Y179614D01*
G01X1395823Y179614D01*
G01X1395823Y181046D01*
G01X1396539Y181046D01*
G01X1396539Y182319D01*
G01X1397970Y183351D01*
G01X1397970Y184625D01*
G01X1398686Y184625D01*
G01X1398686Y186057D01*
G01X1399402Y186057D01*
G01X1399402Y187488D01*
G01X1400118Y187488D01*
G01X1400118Y188920D01*
G01X1400834Y188920D01*
G01X1400834Y190352D01*
G01X1401550Y190352D01*
G01X1401550Y192499D01*
G01X1402265Y192499D01*
G01X1402265Y193931D01*
G01X1402981Y193931D01*
G01X1402981Y195363D01*
G01X1403697Y195363D01*
G01X1403697Y197510D01*
G01X1404413Y197510D01*
G01X1404413Y199658D01*
G01X1405129Y199658D01*
G01X1405129Y201090D01*
G01X1405845Y201090D01*
G01X1405845Y203237D01*
G01X1406561Y203237D01*
G01X1406561Y205385D01*
G01X1407276Y205385D01*
G01X1407276Y207532D01*
G01X1407992Y207532D01*
G01X1407992Y210396D01*
G01X1408708Y210396D01*
G01X1408708Y212543D01*
G01X1409424Y212543D01*
G01X1409424Y215407D01*
G01X1410140Y215407D01*
G01X1410140Y218270D01*
G01X1410856Y218270D01*
G01X1410856Y221134D01*
G01X1411572Y221134D01*
G01X1411572Y223281D01*
G01X1412287Y223281D01*
G01X1412287Y226145D01*
G01X1413003Y226145D01*
G01X1413003Y228292D01*
G01X1413719Y228292D01*
G01X1413719Y231156D01*
G01X1414435Y231156D01*
G01X1414435Y234019D01*
G01X1415151Y234019D01*
G01X1415151Y236167D01*
G01X1415867Y236167D01*
G01X1415867Y239030D01*
G01X1416583Y239030D01*
G01X1416583Y241178D01*
G01X1417298Y241178D01*
G01X1417298Y244041D01*
G01X1418014Y244041D01*
G01X1418014Y246189D01*
G01X1418730Y246189D01*
G01X1418730Y249052D01*
G01X1419446Y249052D01*
G01X1419446Y251200D01*
G01X1420162Y251200D01*
G01X1420162Y253347D01*
G01X1420878Y253347D01*
G01X1420878Y255495D01*
G01X1421594Y255495D01*
G01X1421594Y258358D01*
G01X1422309Y258358D01*
G01X1422309Y260506D01*
G01X1423025Y260506D01*
G01X1423025Y262653D01*
G01X1423741Y262653D01*
G01X1423741Y264085D01*
G01X1424457Y264085D01*
G01X1424457Y266233D01*
G01X1425173Y266233D01*
G01X1425173Y268380D01*
G01X1425889Y268380D01*
G01X1425889Y270528D01*
G01X1426605Y270528D01*
G01X1426605Y272675D01*
G01X1427320Y272675D01*
G01X1427320Y274823D01*
G01X1428036Y274823D01*
G01X1428036Y276971D01*
G01X1428752Y276971D01*
G01X1428752Y279118D01*
G01X1429468Y279118D01*
G01X1429468Y280550D01*
G01X1430184Y280550D01*
G01X1430184Y282698D01*
G01X1430900Y282698D01*
G01X1430900Y284129D01*
G01X1431616Y284129D01*
G01X1431616Y286277D01*
G01X1432331Y286277D01*
G01X1432331Y287709D01*
G01X1433047Y287709D01*
G01X1433047Y289856D01*
G01X1433763Y289856D01*
G01X1433763Y291288D01*
G01X1434479Y291288D01*
G01X1434479Y292720D01*
G01X1435195Y292720D01*
G01X1435195Y294151D01*
G01X1435911Y294151D01*
G01X1435911Y296299D01*
G01X1436627Y296299D01*
G01X1436627Y297731D01*
G01X1437342Y297731D01*
G01X1437342Y299162D01*
G01X1438058Y299162D01*
G01X1438058Y300594D01*
G01X1438774Y300594D01*
G01X1438774Y302026D01*
G01X1439490Y302026D01*
G01X1439490Y303457D01*
G01X1440206Y303457D01*
G01X1440206Y304889D01*
G01X1440922Y304889D01*
G01X1440922Y306321D01*
G01X1441638Y306321D01*
G01X1441638Y307753D01*
G01X1442353Y307753D01*
G01X1442353Y309184D01*
G01X1443069Y309184D01*
G01X1443069Y310458D01*
G01X1444501Y311490D01*
G01X1444501Y312764D01*
G01X1445217Y312764D01*
G01X1445217Y314195D01*
G01X1445933Y314195D01*
G01X1445933Y315469D01*
G01X1447365Y316501D01*
G01X1447365Y317617D01*
G01X1448796Y318649D01*
G01X1448796Y319764D01*
G01X1450228Y320796D01*
G01X1450228Y321912D01*
G01X1451660Y322944D01*
G01X1451660Y323930D01*
G01X1453807Y325936D01*
G01X1453807Y326779D01*
G01X1456671Y329530D01*
G01X1456671Y330307D01*
G01X1462574Y336211D01*
G01X1468477Y342114D01*
G01X1469269Y342114D01*
G01X1471275Y344261D01*
G01X1472262Y344261D01*
G01X1473293Y345693D01*
G01X1474409Y345693D01*
G01X1475441Y347125D01*
G01X1476715Y347125D01*
G01X1476715Y347841D01*
G01X1478146Y347841D01*
G01X1478146Y348557D01*
G01X1479578Y348557D01*
G01X1479578Y349272D01*
G01X1481010Y349272D01*
G01X1481010Y349988D01*
G01X1482442Y349988D01*
G01X1482442Y350704D01*
G01X1483873Y350704D01*
G01X1483873Y351420D01*
G01X1486021Y351420D01*
G01X1486021Y352136D01*
G01X1488168Y352136D01*
G01X1488168Y352852D01*
G01X1490316Y352852D01*
G01X1490316Y353568D01*
G01X1493179Y353568D01*
G01X1493179Y354283D01*
G01X1497475Y354283D01*
G01X1497475Y354999D01*
G01X1501770Y354999D01*
G01X1501770Y354283D01*
G01X1506065Y354283D01*
G01X1506065Y353568D01*
G01X1508213Y353568D01*
G01X1508213Y352852D01*
G01X1510360Y352852D01*
G01X1510360Y352136D01*
G01X1511792Y352136D01*
G01X1511792Y351420D01*
G01X1513224Y351420D01*
G01X1513224Y350704D01*
G01X1514497Y350704D01*
G01X1515529Y349272D01*
G01X1516645Y349272D01*
G01X1517677Y347841D01*
G01X1518601Y347841D01*
G01X1522355Y344087D01*
G01X1526109Y340333D01*
G01X1526109Y339552D01*
G01X1528972Y336801D01*
G01X1528972Y335829D01*
G01X1530404Y334797D01*
G01X1530404Y333811D01*
G01X1532552Y331805D01*
G01X1532552Y330660D01*
G01X1533268Y330660D01*
G01X1533268Y329228D01*
G01X1533983Y329228D01*
G01X1533983Y327955D01*
G01X1535415Y326923D01*
G01X1535415Y325649D01*
G01X1536131Y325649D01*
G01X1536131Y324217D01*
G01X1536847Y324217D01*
G01X1536847Y322786D01*
G01X1537563Y322786D01*
G01X1537563Y321354D01*
G01X1538279Y321354D01*
G01X1538279Y319922D01*
G01X1538994Y319922D01*
G01X1538994Y318490D01*
G01X1539710Y318490D01*
G01X1539710Y317059D01*
G01X1540426Y317059D01*
G01X1540426Y315627D01*
G01X1541142Y315627D01*
G01X1541142Y313479D01*
G01X1541858Y313479D01*
G01X1541858Y312048D01*
G01X1542574Y312048D01*
G01X1542574Y310616D01*
G01X1543290Y310616D01*
G01X1543290Y308468D01*
G01X1544005Y308468D01*
G01X1544005Y306321D01*
G01X1544721Y306321D01*
G01X1544721Y304889D01*
G01X1545437Y304889D01*
G01X1545437Y302742D01*
G01X1546153Y302742D01*
G01X1546153Y301310D01*
G01X1546869Y301310D01*
G01X1546869Y299162D01*
G01X1547585Y299162D01*
G01X1547585Y297015D01*
G01X1548301Y297015D01*
G01X1548301Y294867D01*
G01X1549016Y294867D01*
G01X1549016Y292720D01*
G01X1549732Y292720D01*
G01X1549732Y290572D01*
G01X1550448Y290572D01*
G01X1550448Y288424D01*
G01X1551164Y288424D01*
G01X1551164Y286277D01*
G01X1551880Y286277D01*
G01X1551880Y283413D01*
G01X1552596Y283413D01*
G01X1552596Y281266D01*
G01X1553312Y281266D01*
G01X1553312Y278402D01*
G01X1554028Y278402D01*
G01X1554028Y275539D01*
G01X1554743Y275539D01*
G01X1554743Y272675D01*
G01X1555459Y272675D01*
G01X1555459Y270528D01*
G01X1556175Y270528D01*
G01X1556175Y267664D01*
G01X1556891Y267664D01*
G01X1556891Y264085D01*
G01X1557607Y264085D01*
G01X1557607Y261222D01*
G01X1558323Y261222D01*
G01X1558323Y258358D01*
G01X1559039Y258358D01*
G01X1559039Y254779D01*
G01X1559754Y254779D01*
G01X1559754Y251200D01*
G01X1560470Y251200D01*
G01X1560470Y247620D01*
G01X1561186Y247620D01*
G01X1561186Y244041D01*
G01X1561902Y244041D01*
G01X1561902Y240462D01*
G01X1562618Y240462D01*
G01X1562618Y236167D01*
G01X1563334Y236167D01*
G01X1563334Y231872D01*
G01X1564050Y231872D01*
G01X1564050Y227576D01*
G01X1564765Y227576D01*
G01X1564765Y222565D01*
G01X1565481Y222565D01*
G01X1565481Y217554D01*
G01X1566197Y217554D01*
G01X1566197Y212543D01*
G01X1566913Y212543D01*
G01X1566913Y207532D01*
G01X1567629Y207532D01*
G01X1567629Y201090D01*
G01X1568345Y201090D01*
G01X1568345Y194647D01*
G01X1569061Y194647D01*
G01X1569061Y186772D01*
G01X1569776Y186772D01*
G01X1569776Y176750D01*
G01X1570492Y176750D01*
G01X1570492Y164581D01*
G01X1571208Y164581D01*
G01X1571208Y128072D01*
G01X1570492Y128072D01*
G01X1570492Y118050D01*
G01X1569776Y118050D01*
G01X1569776Y110891D01*
G01X1569061Y110891D01*
G01X1569061Y105164D01*
G01X1568345Y105164D01*
G01X1568345Y100869D01*
G01X1567629Y100869D01*
G01X1567629Y97290D01*
G01X1566913Y97290D01*
G01X1566913Y93711D01*
G01X1566197Y93711D01*
G01X1566197Y90847D01*
G01X1565481Y90847D01*
G01X1565481Y86552D01*
G01X1564765Y86552D01*
G01X1564765Y82973D01*
G01X1564050Y82973D01*
G01X1564050Y78678D01*
G01X1563334Y78678D01*
G01X1563334Y73667D01*
G01X1562618Y73667D01*
G01X1562618Y67940D01*
G01X1561902Y67940D01*
G01X1561902Y60781D01*
G01X1561186Y60781D01*
G01X1561186Y34294D01*
G01X1560470Y34294D01*
G01X1560470Y29999D01*
G01X1559754Y29999D01*
G01X1559754Y28568D01*
G01X1559039Y28568D01*
G01X1559039Y27136D01*
G01X1558323Y27136D01*
G01X1558323Y25862D01*
G01X1556891Y24830D01*
G01X1556891Y23882D01*
G01X1556012Y23003D01*
G01X1555134Y22125D01*
G01X1554028Y22125D01*
G01X1554028Y19261D01*
G01X1554743Y19261D01*
G01X1554743Y16398D01*
G01X1555459Y16398D01*
G01X1555459Y14250D01*
G01X1556175Y14250D01*
G01X1556175Y10671D01*
G01X1556891Y10671D01*
G01X1556891Y7808D01*
G01X1557607Y7808D01*
G01X1557607Y4944D01*
G01X1556891Y4944D01*
G01X1556891Y3098D01*
G01X1554028Y347D01*
G01X1554028Y-2214D01*
G01X1554743Y-2214D01*
G01X1554743Y-4362D01*
G01X1555459Y-4362D01*
G01X1555459Y-5794D01*
G01X1556175Y-5794D01*
G01X1556175Y-7941D01*
G01X1556891Y-7941D01*
G01X1556891Y-9373D01*
G01X1557607Y-9373D01*
G01X1557607Y-11521D01*
G01X1558323Y-11521D01*
G01X1558323Y-13668D01*
G01X1559039Y-13668D01*
G01X1559039Y-15100D01*
G01X1559754Y-15100D01*
G01X1559754Y-17247D01*
G01X1560470Y-17247D01*
G01X1560470Y-19395D01*
G01X1561186Y-19395D01*
G01X1561186Y-22258D01*
G01X1561902Y-22258D01*
G01X1561902Y-24406D01*
G01X1562618Y-24406D01*
G01X1562618Y-27269D01*
G01X1563334Y-27269D01*
G01X1563334Y-32280D01*
G01X1562618Y-32280D01*
G01X1562618Y-33378D01*
G01X1561377Y-34619D01*
G01X1560136Y-35860D01*
G01X1559039Y-35860D01*
G01X1559039Y-36576D01*
G01X1556891Y-36576D01*
G01X1556891Y-38723D01*
G01X1557607Y-38723D01*
G01X1557607Y-39997D01*
G01X1559039Y-41029D01*
G01X1559039Y-42144D01*
G01X1560470Y-43176D01*
G01X1560470Y-44292D01*
G01X1561902Y-45324D01*
G01X1561902Y-46440D01*
G01X1563334Y-47472D01*
G01X1563334Y-48745D01*
G01X1564050Y-48745D01*
G01X1564050Y-50019D01*
G01X1565481Y-51051D01*
G01X1565481Y-52325D01*
G01X1566197Y-52325D01*
G01X1566197Y-53598D01*
G01X1567629Y-54630D01*
G01X1567629Y-55746D01*
G01X1569061Y-56778D01*
G01X1569061Y-58051D01*
G01X1569776Y-58051D01*
G01X1569776Y-59483D01*
G01X1570492Y-59483D01*
G01X1570492Y-60757D01*
G01X1571924Y-61789D01*
G01X1571924Y-63062D01*
G01X1572640Y-63062D01*
G01X1572640Y-65052D01*
G01X1574072Y-66084D01*
G01X1574072Y-68073D01*
G01X1574787Y-68073D01*
G01X1574787Y-69505D01*
G01X1575503Y-69505D01*
G01X1575503Y-70937D01*
G01X1576219Y-70937D01*
G01X1576219Y-72369D01*
G01X1576935Y-72369D01*
G01X1576935Y-73800D01*
G01X1577651Y-73800D01*
G01X1577651Y-75948D01*
G01X1578367Y-75948D01*
G01X1578367Y-77380D01*
G01X1579083Y-77380D01*
G01X1579083Y-79527D01*
G01X1579798Y-79527D01*
G01X1579798Y-81675D01*
G01X1580514Y-81675D01*
G01X1580514Y-83822D01*
G01X1581230Y-83822D01*
G01X1581230Y-86686D01*
G01X1581946Y-86686D01*
G01X1581946Y-89549D01*
G01X1582662Y-89549D01*
G01X1582662Y-93844D01*
G01X1581946Y-93844D01*
G01X1581946Y-95276D01*
G01X1581230Y-95276D01*
G01X1581230Y-96382D01*
G01X1580352Y-97261D01*
G01X1579473Y-98139D01*
G01X1578367Y-98139D01*
G01X1578367Y-98855D01*
G01X1571515Y-98855D01*
G01X1571004Y-99367D01*
G01X1570492Y-99878D01*
G01X1570492Y-101719D01*
G01X1571208Y-101719D01*
G01X1571208Y-103866D01*
G01X1571924Y-103866D01*
G01X1571924Y-106014D01*
G01X1572640Y-106014D01*
G01X1572640Y-108162D01*
G01X1573356Y-108162D01*
G01X1573356Y-110309D01*
G01X1574072Y-110309D01*
G01X1574072Y-113173D01*
G01X1574787Y-113173D01*
G01X1574787Y-115320D01*
G01X1575503Y-115320D01*
G01X1575503Y-117468D01*
G01X1576219Y-117468D01*
G01X1576219Y-119615D01*
G01X1576935Y-119615D01*
G01X1576935Y-122479D01*
G01X1577651Y-122479D01*
G01X1577651Y-125342D01*
G01X1578367Y-125342D01*
G01X1578367Y-127490D01*
G01X1579083Y-127490D01*
G01X1579083Y-130353D01*
G01X1579798Y-130353D01*
G01X1579798Y-133217D01*
G01X1580514Y-133217D01*
G01X1580514Y-136796D01*
G01X1581230Y-136796D01*
G01X1581230Y-140375D01*
G01X1581946Y-140375D01*
G01X1581946Y-144670D01*
G01X1582662Y-144670D01*
G01X1582662Y-149681D01*
G01X1581946Y-149681D01*
G01X1581946Y-151495D01*
G01X1580705Y-152736D01*
G01X1579464Y-153977D01*
G01X1578367Y-153977D01*
G01X1578367Y-154692D01*
G01X1576219Y-154692D01*
G01X1576219Y-155408D01*
G01X1574072Y-155408D01*
G01X1574072Y-154692D01*
G01X1571208Y-154692D01*
G01X1571208Y-153977D01*
G01X1568345Y-153977D01*
G01X1568345Y-153261D01*
G01X1564050Y-153261D01*
G01X1564050Y-156124D01*
G01X1563334Y-156124D01*
G01X1563334Y-159703D01*
G01X1562618Y-159703D01*
G01X1562618Y-162567D01*
G01X1561902Y-162567D01*
G01X1561902Y-165430D01*
G01X1561186Y-165430D01*
G01X1561186Y-167578D01*
G01X1560470Y-167578D01*
G01X1560470Y-169725D01*
G01X1559754Y-169725D01*
G01X1559754Y-171873D01*
G01X1559039Y-171873D01*
G01X1559039Y-174021D01*
G01X1558323Y-174021D01*
G01X1558323Y-176168D01*
G01X1557607Y-176168D01*
G01X1557607Y-177600D01*
G01X1558323Y-177600D01*
G01X1558323Y-178874D01*
G01X1559754Y-179905D01*
G01X1559754Y-181021D01*
G01X1561186Y-182053D01*
G01X1561186Y-183327D01*
G01X1561902Y-183327D01*
G01X1561902Y-185474D01*
G01X1562618Y-185474D01*
G01X1562618Y-186906D01*
G01X1563334Y-186906D01*
G01X1563334Y-188338D01*
G01X1564050Y-188338D01*
G01X1564050Y-189769D01*
G01X1564765Y-189769D01*
G01X1564765Y-191201D01*
G01X1565481Y-191201D01*
G01X1565481Y-193349D01*
G01X1566197Y-193349D01*
G01X1566197Y-195496D01*
G01X1566913Y-195496D01*
G01X1566913Y-196928D01*
G01X1567629Y-196928D01*
G01X1567629Y-199076D01*
G01X1568345Y-199076D01*
G01X1568345Y-201939D01*
G01X1567629Y-201939D01*
G01X1567629Y-203744D01*
G01X1565668Y-205705D01*
G01X1563707Y-207666D01*
G01X1560470Y-207666D01*
G01X1560470Y-208382D01*
G01X1558323Y-208382D01*
G01X1558323Y-210371D01*
G01X1559754Y-211403D01*
G01X1559754Y-212677D01*
G01X1560470Y-212677D01*
G01X1560470Y-213951D01*
G01X1561902Y-214983D01*
G01X1561902Y-216256D01*
G01X1562618Y-216256D01*
G01X1562618Y-217688D01*
G01X1563334Y-217688D01*
G01X1563334Y-219120D01*
G01X1564050Y-219120D01*
G01X1564050Y-220551D01*
G01X1564765Y-220551D01*
G01X1564765Y-221983D01*
G01X1565481Y-221983D01*
G01X1565481Y-223415D01*
G01X1566197Y-223415D01*
G01X1566197Y-224847D01*
G01X1566913Y-224847D01*
G01X1566913Y-226994D01*
G01X1567629Y-226994D01*
G01X1567629Y-228426D01*
G01X1568345Y-228426D01*
G01X1568345Y-230573D01*
G01X1569061Y-230573D01*
G01X1569061Y-232005D01*
G01X1569776Y-232005D01*
G01X1569776Y-234153D01*
G01X1570492Y-234153D01*
G01X1570492Y-236300D01*
G01X1571208Y-236300D01*
G01X1571208Y-239880D01*
G01X1570492Y-239880D01*
G01X1570492Y-241153D01*
G01X1569061Y-242185D01*
G01X1569061Y-243459D01*
G01X1567629Y-243459D01*
G01X1567629Y-244175D01*
G01X1566197Y-244175D01*
G01X1566197Y-244891D01*
G01X1563334Y-244891D01*
G01X1563334Y-248470D01*
G01X1564050Y-248470D01*
G01X1564050Y-249902D01*
G01X1564765Y-249902D01*
G01X1564765Y-252049D01*
G01X1565481Y-252049D01*
G01X1565481Y-254197D01*
G01X1566197Y-254197D01*
G01X1566197Y-256344D01*
G01X1566913Y-256344D01*
G01X1566913Y-258492D01*
G01X1567629Y-258492D01*
G01X1567629Y-261355D01*
G01X1568345Y-261355D01*
G01X1568345Y-262500D01*
G01X1570492Y-264506D01*
G01X1570492Y-265349D01*
G01X1573356Y-268100D01*
G01X1573356Y-268943D01*
G01X1575503Y-270949D01*
G01X1575503Y-271935D01*
G01X1576935Y-272967D01*
G01X1576935Y-274241D01*
G01X1577651Y-274241D01*
G01X1577651Y-275515D01*
G01X1579083Y-276546D01*
G01X1579083Y-277820D01*
G01X1579798Y-277820D01*
G01X1579798Y-279252D01*
G01X1580514Y-279252D01*
G01X1580514Y-280684D01*
G01X1581230Y-280684D01*
G01X1581230Y-282115D01*
G01X1581946Y-282115D01*
G01X1581946Y-283547D01*
G01X1582662Y-283547D01*
G01X1582662Y-284979D01*
G01X1583378Y-284979D01*
G01X1583378Y-287126D01*
G01X1584094Y-287126D01*
G01X1584094Y-288558D01*
G01X1584809Y-288558D01*
G01X1584809Y-290706D01*
G01X1585525Y-290706D01*
G01X1585525Y-292853D01*
G01X1586241Y-292853D01*
G01X1586241Y-295001D01*
G01X1586957Y-295001D01*
G01X1586957Y-297148D01*
G01X1587673Y-297148D01*
G01X1587673Y-299296D01*
G01X1588389Y-299296D01*
G01X1588389Y-302159D01*
G01X1589105Y-302159D01*
G01X1589105Y-305023D01*
G01X1589820Y-305023D01*
G01X1589820Y-308602D01*
G01X1590536Y-308602D01*
G01X1590536Y-312181D01*
G01X1591252Y-312181D01*
G01X1591252Y-316477D01*
G01X1591968Y-316477D01*
G01X1591968Y-322203D01*
G01X1592684Y-322203D01*
G01X1592684Y-329362D01*
G01X1593400Y-329362D01*
G01X1593400Y-330794D01*
G01X1664986Y-330794D01*
G01X1664986Y-331510D01*
G01X1666078Y-331510D01*
G01X1669281Y-334712D01*
G01X1669281Y-336521D01*
G01X1669997Y-336521D01*
G01X1669997Y-339384D01*
G01X1669281Y-339384D01*
G01X1669281Y-341192D01*
G01X1666078Y-344395D01*
G01X1664270Y-344395D01*
G01X1664270Y-345111D01*
G01X1554743Y-345111D01*
G01X1554743Y-345827D01*
G01X1553312Y-345827D01*
G01X1553312Y-346543D01*
G01X1552038Y-346543D01*
G01X1551006Y-347974D01*
G01X1549732Y-347974D01*
G01X1549732Y-348690D01*
G01X1548301Y-348690D01*
G01X1548301Y-349406D01*
G01X1546869Y-349406D01*
G01X1546869Y-350122D01*
G01X1544005Y-350122D01*
G01X1544005Y-350838D01*
G01X1541142Y-350838D01*
G01X1541142Y-351554D01*
G01X1535415Y-351554D01*
G01X1535415Y-352269D01*
G01X1532552Y-352269D01*
G01X1532552Y-351554D01*
G01X1526109Y-351554D01*
G01X1526109Y-350838D01*
G01X1523246Y-350838D01*
G01X1523246Y-350122D01*
G01X1521098Y-350122D01*
G01X1521098Y-349406D01*
G01X1519666Y-349406D01*
G01X1519666Y-348690D01*
G01X1518235Y-348690D01*
G01X1518235Y-347974D01*
G01X1515371Y-347974D01*
G01X1515371Y-348690D01*
G01X1513939Y-348690D01*
G01X1513939Y-349406D01*
G01X1512508Y-349406D01*
G01X1512508Y-350122D01*
G01X1510360Y-350122D01*
G01X1510360Y-350838D01*
G01X1508213Y-350838D01*
G01X1508213Y-351554D01*
G01X1506065Y-351554D01*
G01X1506065Y-352269D01*
G37*
G36*
G01X1435911Y-15100D02*
G01X1430900Y-15100D01*
G01X1430900Y-15816D01*
G01X1428752Y-15816D01*
G01X1428752Y-15100D01*
G01X1423741Y-15100D01*
G01X1423741Y-14384D01*
G01X1420878Y-14384D01*
G01X1420878Y-13668D01*
G01X1419446Y-13668D01*
G01X1419446Y-12952D01*
G01X1418014Y-12952D01*
G01X1418014Y-12236D01*
G01X1416025Y-12236D01*
G01X1414993Y-10805D01*
G01X1414006Y-10805D01*
G01X1412000Y-8657D01*
G01X1410856Y-8657D01*
G01X1410856Y-7225D01*
G01X1409424Y-7225D01*
G01X1409424Y-6095D01*
G01X1406561Y-3344D01*
G01X1406561Y-2214D01*
G01X1405845Y-2214D01*
G01X1405845Y-783D01*
G01X1405129Y-783D01*
G01X1405129Y649D01*
G01X1404413Y649D01*
G01X1404413Y2081D01*
G01X1403697Y2081D01*
G01X1403697Y4228D01*
G01X1402981Y4228D01*
G01X1402981Y6376D01*
G01X1402265Y6376D01*
G01X1402265Y18546D01*
G01X1402981Y18546D01*
G01X1402981Y20693D01*
G01X1403697Y20693D01*
G01X1403697Y22125D01*
G01X1404413Y22125D01*
G01X1404413Y24272D01*
G01X1405129Y24272D01*
G01X1405129Y25704D01*
G01X1405845Y25704D01*
G01X1405845Y26849D01*
G01X1406918Y27852D01*
G01X1413719Y27852D01*
G01X1413719Y22841D01*
G01X1414435Y22841D01*
G01X1414435Y21748D01*
G01X1417638Y18546D01*
G01X1417638Y18546D01*
G01X1419446Y18546D01*
G01X1419446Y17830D01*
G01X1423025Y17830D01*
G01X1423025Y18546D01*
G01X1424834Y18546D01*
G01X1428036Y21748D01*
G01X1428036Y23557D01*
G01X1428752Y23557D01*
G01X1428752Y27136D01*
G01X1428036Y27136D01*
G01X1428036Y28944D01*
G01X1424834Y32147D01*
G01X1423741Y32147D01*
G01X1423741Y32863D01*
G01X1418730Y32863D01*
G01X1418730Y32147D01*
G01X1417298Y32147D01*
G01X1417298Y31431D01*
G01X1416173Y31431D01*
G01X1415662Y30920D01*
G01X1415151Y30408D01*
G01X1415151Y29283D01*
G01X1414435Y29283D01*
G01X1414435Y27852D01*
G01X1413719Y27852D01*
G01X1406918Y27852D01*
G01X1407992Y28855D01*
G01X1407992Y29655D01*
G01X1412632Y34294D01*
G01X1413561Y34294D01*
G01X1414593Y35726D01*
G01X1415709Y35726D01*
G01X1416741Y37158D01*
G01X1418014Y37158D01*
G01X1418014Y37874D01*
G01X1419446Y37874D01*
G01X1419446Y38590D01*
G01X1421594Y38590D01*
G01X1421594Y39305D01*
G01X1424457Y39305D01*
G01X1424457Y40021D01*
G01X1435911Y40021D01*
G01X1435911Y39305D01*
G01X1438058Y39305D01*
G01X1438058Y38590D01*
G01X1440206Y38590D01*
G01X1440206Y37874D01*
G01X1441638Y37874D01*
G01X1441638Y37158D01*
G01X1443069Y37158D01*
G01X1443069Y36442D01*
G01X1444343Y36442D01*
G01X1445375Y35010D01*
G01X1446300Y35010D01*
G01X1453091Y28219D01*
G01X1453091Y27136D01*
G01X1453807Y27136D01*
G01X1453807Y25704D01*
G01X1454523Y25704D01*
G01X1454523Y24272D01*
G01X1455239Y24272D01*
G01X1455239Y22841D01*
G01X1455955Y22841D01*
G01X1455955Y20693D01*
G01X1456671Y20693D01*
G01X1456671Y18546D01*
G01X1457387Y18546D01*
G01X1457387Y12819D01*
G01X1458102Y12819D01*
G01X1458102Y11387D01*
G01X1457387Y11387D01*
G01X1457387Y6376D01*
G01X1456671Y6376D01*
G01X1456671Y3512D01*
G01X1455955Y3512D01*
G01X1455955Y1365D01*
G01X1455239Y1365D01*
G01X1455239Y-67D01*
G01X1454523Y-67D01*
G01X1454523Y-1340D01*
G01X1453091Y-2372D01*
G01X1453091Y-3488D01*
G01X1451660Y-4520D01*
G01X1451660Y-5455D01*
G01X1448457Y-8657D01*
G01X1447666Y-8657D01*
G01X1444915Y-11521D01*
G01X1443785Y-11521D01*
G01X1443785Y-12236D01*
G01X1442353Y-12236D01*
G01X1442353Y-12952D01*
G01X1440922Y-12952D01*
G01X1440922Y-13668D01*
G01X1438774Y-13668D01*
G01X1438774Y-14384D01*
G01X1435911Y-14384D01*
G01X1435911Y-15100D01*
G37*
G36*
G01X1264820Y-15816D02*
G01X1263389Y-15816D01*
G01X1263389Y-15100D01*
G01X1257662Y-15100D01*
G01X1257662Y-14384D01*
G01X1255514Y-14384D01*
G01X1255514Y-13668D01*
G01X1253367Y-13668D01*
G01X1253367Y-12952D01*
G01X1251935Y-12952D01*
G01X1251935Y-12236D01*
G01X1250503Y-12236D01*
G01X1250503Y-11521D01*
G01X1249230Y-11521D01*
G01X1248198Y-10089D01*
G01X1247270Y-10089D01*
G01X1244592Y-7410D01*
G01X1241913Y-4731D01*
G01X1241913Y-3804D01*
G01X1240481Y-2772D01*
G01X1240481Y-1499D01*
G01X1239765Y-1499D01*
G01X1239765Y-67D01*
G01X1239050Y-67D01*
G01X1239050Y1365D01*
G01X1238334Y1365D01*
G01X1238334Y2797D01*
G01X1237618Y2797D01*
G01X1237618Y4944D01*
G01X1236902Y4944D01*
G01X1236902Y9239D01*
G01X1236186Y9239D01*
G01X1236186Y15682D01*
G01X1236902Y15682D01*
G01X1236902Y19261D01*
G01X1237618Y19261D01*
G01X1237618Y21409D01*
G01X1238334Y21409D01*
G01X1238334Y23557D01*
G01X1239050Y23557D01*
G01X1239050Y24988D01*
G01X1239765Y24988D01*
G01X1239765Y26262D01*
G01X1241197Y27294D01*
G01X1241197Y28280D01*
G01X1241505Y28568D01*
G01X1248356Y28568D01*
G01X1248356Y22125D01*
G01X1249072Y22125D01*
G01X1249072Y21019D01*
G01X1249950Y20140D01*
G01X1250829Y19261D01*
G01X1251935Y19261D01*
G01X1251935Y18546D01*
G01X1253367Y18546D01*
G01X1253367Y17830D01*
G01X1253367Y17830D01*
G01X1257662Y17830D01*
G01X1257662Y18546D01*
G01X1259094Y18546D01*
G01X1259094Y19261D01*
G01X1260200Y19261D01*
G01X1261078Y20140D01*
G01X1261957Y21019D01*
G01X1261957Y22125D01*
G01X1262673Y22125D01*
G01X1262673Y28568D01*
G01X1261957Y28568D01*
G01X1261957Y29665D01*
G01X1260716Y30906D01*
G01X1259475Y32147D01*
G01X1257662Y32147D01*
G01X1257662Y32863D01*
G01X1253367Y32863D01*
G01X1253367Y32147D01*
G01X1251553Y32147D01*
G01X1250312Y30906D01*
G01X1249072Y29665D01*
G01X1249072Y28568D01*
G01X1248356Y28568D01*
G01X1241505Y28568D01*
G01X1243345Y30286D01*
G01X1243345Y31106D01*
G01X1244223Y31984D01*
G01X1245102Y32863D01*
G01X1245921Y32863D01*
G01X1247927Y35010D01*
G01X1248914Y35010D01*
G01X1249945Y36442D01*
G01X1251219Y36442D01*
G01X1251219Y37158D01*
G01X1252651Y37158D01*
G01X1252651Y37874D01*
G01X1254083Y37874D01*
G01X1254083Y38590D01*
G01X1255514Y38590D01*
G01X1255514Y39305D01*
G01X1258378Y39305D01*
G01X1258378Y40021D01*
G01X1269831Y40021D01*
G01X1269831Y39305D01*
G01X1272695Y39305D01*
G01X1272695Y38590D01*
G01X1274842Y38590D01*
G01X1274842Y37874D01*
G01X1276274Y37874D01*
G01X1276274Y37158D01*
G01X1277548Y37158D01*
G01X1278580Y35726D01*
G01X1279695Y35726D01*
G01X1280727Y34294D01*
G01X1281656Y34294D01*
G01X1286296Y29655D01*
G01X1286296Y28726D01*
G01X1287728Y27694D01*
G01X1287728Y26578D01*
G01X1289160Y25546D01*
G01X1289160Y24272D01*
G01X1289876Y24272D01*
G01X1289876Y22125D01*
G01X1290591Y22125D01*
G01X1290591Y19977D01*
G01X1291307Y19977D01*
G01X1291307Y17114D01*
G01X1292023Y17114D01*
G01X1292023Y7808D01*
G01X1291307Y7808D01*
G01X1291307Y4944D01*
G01X1290591Y4944D01*
G01X1290591Y2797D01*
G01X1289876Y2797D01*
G01X1289876Y649D01*
G01X1289160Y649D01*
G01X1289160Y-783D01*
G01X1288444Y-783D01*
G01X1288444Y-2056D01*
G01X1287012Y-3088D01*
G01X1287012Y-4013D01*
G01X1280221Y-10805D01*
G01X1279296Y-10805D01*
G01X1278264Y-12236D01*
G01X1276990Y-12236D01*
G01X1276990Y-12952D01*
G01X1274842Y-12952D01*
G01X1274842Y-13668D01*
G01X1272695Y-13668D01*
G01X1272695Y-14384D01*
G01X1270547Y-14384D01*
G01X1270547Y-15100D01*
G01X1264820Y-15100D01*
G01X1264820Y-15816D01*
G37*
G04 Image End*

G04 Text Start*
G54D10*
G01X871234Y832597D02*
G01X879870Y849615D01*
G01X896888Y866887D01*
G01X914160Y875523D01*
G01X948450Y875523D01*
G01X965722Y866887D01*
G01X982740Y849615D01*
G01X991376Y832597D01*
G01X1000012Y806689D01*
G01X1000012Y763763D01*
G01X991376Y738109D01*
G01X982740Y720837D01*
G01X965722Y703819D01*
G01X948450Y695183D01*
G01X914160Y695183D01*
G01X896888Y703819D01*
G01X879870Y720837D01*
G01X871234Y738109D01*
G01X696990Y849615D02*
G01X705626Y866887D01*
G01X731280Y875523D01*
G01X748552Y875523D01*
G01X774206Y866887D01*
G01X791478Y840979D01*
G01X800114Y798053D01*
G01X800114Y755127D01*
G01X791478Y720837D01*
G01X774206Y703819D01*
G01X748552Y695183D01*
G01X739916Y695183D01*
G01X714262Y703819D01*
G01X696990Y720837D01*
G01X688354Y746745D01*
G01X688354Y755127D01*
G01X696990Y781035D01*
G01X714262Y798053D01*
G01X739916Y806689D01*
G01X748552Y806689D01*
G01X774206Y798053D01*
G01X791478Y781035D01*
G01X800114Y755127D01*
G01X424702Y875523D02*
G01X424702Y695183D01*
G01X424702Y875523D02*
G01X356122Y695183D01*
G01X287288Y875523D02*
G01X356122Y695183D01*
G01X287288Y875523D02*
G01X287288Y695183D01*
G01X173242Y815325D02*
G01X190260Y806689D01*
G01X207532Y789671D01*
G01X216168Y763763D01*
G01X216168Y746745D01*
G01X207532Y720837D01*
G01X190260Y703819D01*
G01X173242Y695183D01*
G01X147334Y695183D01*
G01X130316Y703819D01*
G01X113044Y720837D01*
G01X104408Y746745D01*
G01X104408Y763763D01*
G01X113044Y789671D01*
G01X130316Y806689D01*
G01X147334Y815325D01*
G01X173242Y815325D01*
G01X-69836Y875523D02*
G01X-69836Y695183D01*
G01X-69836Y789671D02*
G01X-52564Y806689D01*
G01X-35546Y815325D01*
G01X-9638Y815325D01*
G01X7380Y806689D01*
G01X24652Y789671D01*
G01X33288Y763763D01*
G01X33288Y746745D01*
G01X24652Y720837D01*
G01X7380Y703819D01*
G01X-9638Y695183D01*
G01X-35546Y695183D01*
G01X-52564Y703819D01*
G01X-69836Y720837D01*
G01X-140956Y815325D02*
G01X-140956Y729473D01*
G01X-149592Y703819D01*
G01X-166864Y695183D01*
G01X-192518Y695183D01*
G01X-209790Y703819D01*
G01X-235444Y729473D01*
G01X-235444Y815325D02*
G01X-235444Y695183D01*
G01X-306564Y875523D02*
G01X-306564Y695183D01*
G01X-377938Y763763D02*
G01X-480808Y763763D01*
G01X-480808Y781035D01*
G01X-472426Y798053D01*
G01X-463790Y806689D01*
G01X-446518Y815325D01*
G01X-420864Y815325D01*
G01X-403592Y806689D01*
G01X-386574Y789671D01*
G01X-377938Y763763D01*
G01X-377938Y746745D01*
G01X-386574Y720837D01*
G01X-403592Y703819D01*
G01X-420864Y695183D01*
G01X-446518Y695183D01*
G01X-463790Y703819D01*
G01X-480808Y720837D01*
G01X-559985Y315524D02*
G01X-559985Y135184D01*
G01X-559985Y315524D02*
G01X-637201Y315524D01*
G01X-663109Y306888D01*
G01X-671745Y298252D01*
G01X-680127Y280980D01*
G01X-680127Y263962D01*
G01X-671745Y246690D01*
G01X-663109Y238054D01*
G01X-637201Y229672D01*
G01X-559985Y229672D01*
G01X-620183Y229672D02*
G01X-680127Y135184D01*
G01X-751247Y212400D02*
G01X-905933Y212400D01*
G01X-1062905Y315524D02*
G01X-977053Y195128D01*
G01X-1106085Y195128D01*
G01X-1062905Y315524D02*
G01X-1062905Y135184D01*
G04 Text End*

G04 PolygonModel Start*
G54D11*
G01X-1069579Y-308060D02*
G01X-997775Y-308060D01*
G01X-997775Y-308060D02*
G01X-997775Y-208340D01*
G01X-997775Y-208340D02*
G01X-1069579Y-208340D01*
G01X-1114821Y-308060D02*
G01X-1186624Y-308060D01*
G01X-1186624Y-308060D02*
G01X-1186624Y-208340D01*
G01X-1186624Y-208340D02*
G01X-1114821Y-208340D01*
G01X-1067377Y-194860D02*
G01X-995573Y-194860D01*
G01X-995573Y-194860D02*
G01X-995573Y-95140D01*
G01X-995573Y-95140D02*
G01X-1067377Y-95140D01*
G01X-1112619Y-194860D02*
G01X-1184422Y-194860D01*
G01X-1184422Y-194860D02*
G01X-1184422Y-95140D01*
G01X-1184422Y-95140D02*
G01X-1112619Y-95140D01*
G01X-531630Y-325139D02*
G01X-452620Y-325139D01*
G01X-452620Y-424859D02*
G01X-531630Y-424859D01*
G01X-546870Y-409619D02*
G01X-546870Y-340379D01*
G01X-328369Y-325139D02*
G01X-407378Y-325139D01*
G01X-407378Y-424859D02*
G01X-328369Y-424859D01*
G01X-313129Y-409619D02*
G01X-313129Y-340379D01*
G01X-531630Y-424859D02*
G02X-546870Y-409619I0J15240D01*
G01X-546870Y-340379D02*
G02X-531630Y-325139I15240J0D01*
G01X-328369Y-424859D02*
G03X-313129Y-409619I0J15240D01*
G01X-313129Y-340379D02*
G03X-328369Y-325139I-15240J0D01*
G54D12*
G01X-814998Y-744990D02*
G01X-634996Y-744990D01*
G01X-814998Y-434988D02*
G01X-634996Y-434988D01*
G54D11*
G01X-496630Y-95140D02*
G01X-417620Y-95140D01*
G01X-417620Y-194860D02*
G01X-496630Y-194860D01*
G01X-511870Y-179620D02*
G01X-511870Y-110380D01*
G01X-293369Y-95140D02*
G01X-372378Y-95140D01*
G01X-372378Y-194860D02*
G01X-293369Y-194860D01*
G01X-278129Y-179620D02*
G01X-278129Y-110380D01*
G01X-496630Y-194860D02*
G02X-511870Y-179620I0J15240D01*
G01X-511870Y-110380D02*
G02X-496630Y-95140I15240J0D01*
G01X-293369Y-194860D02*
G03X-278129Y-179620I0J15240D01*
G01X-278129Y-110380D02*
G03X-293369Y-95140I-15240J0D01*
G01X-101630Y278460D02*
G01X-22621Y278460D01*
G01X-22621Y178740D02*
G01X-101630Y178740D01*
G01X-116870Y193980D02*
G01X-116870Y263220D01*
G01X101630Y278460D02*
G01X22621Y278460D01*
G01X22621Y178740D02*
G01X101630Y178740D01*
G01X116870Y193980D02*
G01X116870Y263220D01*
G01X-101630Y178740D02*
G02X-116870Y193980I0J15240D01*
G01X-116870Y263220D02*
G02X-101630Y278460I15240J0D01*
G01X101630Y178740D02*
G03X116870Y193980I0J15240D01*
G01X116870Y263220D02*
G03X101630Y278460I-15240J0D01*
G01X-1277376Y-399859D02*
G01X-1205573Y-399859D01*
G01X-1205573Y-399859D02*
G01X-1205573Y-300139D01*
G01X-1205573Y-300139D02*
G01X-1277376Y-300139D01*
G01X-1322619Y-399859D02*
G01X-1394422Y-399859D01*
G01X-1394422Y-399859D02*
G01X-1394422Y-300139D01*
G01X-1394422Y-300139D02*
G01X-1322619Y-300139D01*
G01X-417620Y14860D02*
G01X-489424Y14860D01*
G01X-489424Y14860D02*
G01X-489424Y-84860D01*
G01X-489424Y-84860D02*
G01X-417620Y-84860D01*
G01X-372378Y14860D02*
G01X-300575Y14860D01*
G01X-300575Y14860D02*
G01X-300575Y-84860D01*
G01X-300575Y-84860D02*
G01X-372378Y-84860D01*
G01X-705457Y-145842D02*
G01X-920697Y-145842D01*
G01X-705457Y-361081D02*
G01X-920697Y-361081D01*
G01X-492362Y122225D02*
G01X-492362Y337617D01*
G54D13*
G01X-481682Y122301D02*
G01X-492362Y122301D01*
G01X-416693Y122301D02*
G01X-417653Y122301D01*
G01X-351680Y122301D02*
G01X-352665Y122301D01*
G01X-277047Y122301D02*
G01X-287651Y122301D01*
G01X-481682Y337541D02*
G01X-492362Y337541D01*
G01X-416681Y337541D02*
G01X-417653Y337541D01*
G01X-351680Y337541D02*
G01X-352652Y337541D01*
G01X-277047Y337541D02*
G01X-287651Y337541D01*
G54D11*
G01X-277047Y122301D02*
G01X-277047Y337541D01*
G01X-1701830Y162563D02*
G01X-1622821Y162563D01*
G01X-1622821Y62842D02*
G01X-1701830Y62842D01*
G01X-1717070Y78082D02*
G01X-1717070Y147323D01*
G01X-1498570Y162563D02*
G01X-1577579Y162563D01*
G01X-1577579Y62842D02*
G01X-1498570Y62842D01*
G01X-1483330Y78082D02*
G01X-1483330Y147323D01*
G01X-1701830Y62842D02*
G02X-1717070Y78082I0J15240D01*
G01X-1717070Y147323D02*
G02X-1701830Y162563I15240J0D01*
G01X-1498570Y62842D02*
G03X-1483330Y78082I0J15240D01*
G01X-1483330Y147323D02*
G03X-1498570Y162563I-15240J0D01*
G01X-1498570Y178740D02*
G01X-1577579Y178740D01*
G01X-1577579Y278460D02*
G01X-1498570Y278460D01*
G01X-1483330Y263220D02*
G01X-1483330Y193980D01*
G01X-1701830Y178740D02*
G01X-1622821Y178740D01*
G01X-1622821Y278460D02*
G01X-1701830Y278460D01*
G01X-1717070Y263220D02*
G01X-1717070Y193980D01*
G01X-1498570Y278460D02*
G02X-1483330Y263220I0J-15240D01*
G01X-1483330Y193980D02*
G02X-1498570Y178740I-15240J0D01*
G01X-1701830Y278460D02*
G03X-1717070Y263220I0J-15240D01*
G01X-1717070Y193980D02*
G03X-1701830Y178740I15240J0D01*
G01X-1447830Y24460D02*
G01X-1368821Y24460D01*
G01X-1368821Y-75260D02*
G01X-1447830Y-75260D01*
G01X-1463070Y-60020D02*
G01X-1463070Y9220D01*
G01X-1244570Y24460D02*
G01X-1323579Y24460D01*
G01X-1323579Y-75260D02*
G01X-1244570Y-75260D01*
G01X-1229330Y-60020D02*
G01X-1229330Y9220D01*
G01X-1447830Y-75260D02*
G02X-1463070Y-60020I0J15240D01*
G01X-1463070Y9220D02*
G02X-1447830Y24460I15240J0D01*
G01X-1244570Y-75260D02*
G03X-1229330Y-60020I0J15240D01*
G01X-1229330Y9220D02*
G03X-1244570Y24460I-15240J0D01*
G01X515540Y342870D02*
G01X515540Y421879D01*
G01X615260Y421879D02*
G01X615260Y342870D01*
G01X600020Y327630D02*
G01X530780Y327630D01*
G01X515540Y546130D02*
G01X515540Y467121D01*
G01X615260Y467121D02*
G01X615260Y546130D01*
G01X600020Y561370D02*
G01X530780Y561370D01*
G01X615260Y342870D02*
G02X600020Y327630I-15240J0D01*
G01X530780Y327630D02*
G02X515540Y342870I0J15240D01*
G01X615260Y546130D02*
G03X600020Y561370I-15240J0D01*
G01X530780Y561370D02*
G03X515540Y546130I0J-15240D01*
G01X629840Y342870D02*
G01X629840Y421879D01*
G01X729560Y421879D02*
G01X729560Y342870D01*
G01X714320Y327630D02*
G01X645080Y327630D01*
G01X629840Y546130D02*
G01X629840Y467121D01*
G01X729560Y467121D02*
G01X729560Y546130D01*
G01X714320Y561370D02*
G01X645080Y561370D01*
G01X729560Y342870D02*
G02X714320Y327630I-15240J0D01*
G01X645080Y327630D02*
G02X629840Y342870I0J15240D01*
G01X729560Y546130D02*
G03X714320Y561370I-15240J0D01*
G01X645080Y561370D02*
G03X629840Y546130I0J-15240D01*
G01X-1102136Y-714752D02*
G01X-1052137Y-714752D01*
G01X-1117379Y-630274D02*
G01X-1117379Y-699515D01*
G01X-1052137Y-615034D02*
G01X-1102136Y-615034D01*
G01X-957859Y-615248D02*
G01X-1007859Y-615248D01*
G01X-1007859Y-714960D02*
G01X-957859Y-714960D01*
G01X-942617Y-699726D02*
G01X-942617Y-630483D01*
G01X-957859Y-714963D02*
G03X-942619Y-699723I0J15240D01*
G01X-942619Y-630483D02*
G03X-957859Y-615243I-15240J0D01*
G01X-1102136Y-615034D02*
G03X-1117376Y-630274I0J-15240D01*
G01X-1117376Y-699515D02*
G03X-1102136Y-714755I15240J0D01*
G01X609859Y811629D02*
G01X609859Y732620D01*
G01X510139Y732620D02*
G01X510139Y811629D01*
G01X525379Y826869D02*
G01X594619Y826869D01*
G01X609859Y608368D02*
G01X609859Y687377D01*
G01X510139Y687377D02*
G01X510139Y608368D01*
G01X525379Y593128D02*
G01X594619Y593128D01*
G01X510139Y811629D02*
G02X525379Y826869I15240J0D01*
G01X594619Y826869D02*
G02X609859Y811629I0J-15240D01*
G01X510139Y608368D02*
G03X525379Y593128I15240J0D01*
G01X594619Y593128D02*
G03X609859Y608368I0J15240D01*
G01X-1577579Y-76718D02*
G01X-1505775Y-76718D01*
G01X-1505775Y-76718D02*
G01X-1505775Y23002D01*
G01X-1505775Y23002D02*
G01X-1577579Y23002D01*
G01X-1622821Y-76718D02*
G01X-1694624Y-76718D01*
G01X-1694624Y-76718D02*
G01X-1694624Y23002D01*
G01X-1694624Y23002D02*
G01X-1622821Y23002D01*
G01X-1069579Y-481660D02*
G01X-997775Y-481660D01*
G01X-997775Y-481660D02*
G01X-997775Y-381940D01*
G01X-997775Y-381940D02*
G01X-1069579Y-381940D01*
G01X-1114821Y-481660D02*
G01X-1186624Y-481660D01*
G01X-1186624Y-481660D02*
G01X-1186624Y-381940D01*
G01X-1186624Y-381940D02*
G01X-1114821Y-381940D01*
G01X704019Y-2720D02*
G01X523781Y-2720D01*
G01X704019Y307520D02*
G01X523781Y307520D01*
G01X523781Y106860D02*
G01X523781Y197940D01*
G54D12*
G01X619999Y-666399D02*
G01X619999Y-579999D01*
G01X619999Y-579999D02*
G01X519996Y-579999D01*
G01X479999Y-761395D02*
G01X479999Y-698602D01*
G01X619999Y-879998D02*
G01X619999Y-793598D01*
G01X619999Y-879998D02*
G01X519996Y-879998D01*
G54D13*
G01X995122Y-547378D02*
G01X995122Y-568000D01*
G01X995122Y-692620D02*
G01X995122Y-672998D01*
G54D11*
G01X819878Y-692620D02*
G01X995122Y-692620D01*
G01X819878Y-547378D02*
G01X995122Y-547378D01*
G01X860322Y-692620D02*
G01X860322Y-547378D01*
G36*
G01X827500Y-700240D02*
G01X797020Y-700240D01*
G01X797020Y-665000D01*
G01X827500Y-665000D01*
G01X827500Y-700240D01*
G37*
G36*
G01X827500Y-539758D02*
G01X827500Y-574998D01*
G01X797020Y-574998D01*
G01X797020Y-539758D01*
G01X827500Y-539758D01*
G37*
G01X252607Y-883618D02*
G01X77367Y-883618D01*
G01X77367Y-883618D02*
G01X77367Y-779457D01*
G01X252607Y-576379D02*
G01X77367Y-576379D01*
G01X77367Y-576379D02*
G01X77367Y-680540D01*
G01X252607Y-775538D02*
G01X252607Y-684459D01*
G01X52379Y-292621D02*
G01X52379Y-147378D01*
G01X52379Y-147378D02*
G01X155541Y-147378D01*
G01X357621Y-292621D02*
G01X357621Y-147378D01*
G01X357621Y-147378D02*
G01X254458Y-147378D01*
G01X159460Y-292621D02*
G01X250539Y-292621D01*
G01X952377Y-720138D02*
G01X880574Y-720138D01*
G01X880574Y-720138D02*
G01X880574Y-819859D01*
G01X880574Y-819859D02*
G01X952377Y-819859D01*
G01X997619Y-720138D02*
G01X1069423Y-720138D01*
G01X1069423Y-720138D02*
G01X1069423Y-819859D01*
G01X1069423Y-819859D02*
G01X997619Y-819859D01*
G01X-82621Y-780138D02*
G01X-154424Y-780138D01*
G01X-154424Y-780138D02*
G01X-154424Y-879859D01*
G01X-154424Y-879859D02*
G01X-82621Y-879859D01*
G01X-37379Y-780138D02*
G01X34425Y-780138D01*
G01X34425Y-780138D02*
G01X34425Y-879859D01*
G01X34425Y-879859D02*
G01X-37379Y-879859D01*
G01X-37379Y-689859D02*
G01X34425Y-689859D01*
G01X34425Y-689859D02*
G01X34425Y-590139D01*
G01X34425Y-590139D02*
G01X-37379Y-590139D01*
G01X-82621Y-689859D02*
G01X-154424Y-689859D01*
G01X-154424Y-689859D02*
G01X-154424Y-590139D01*
G01X-154424Y-590139D02*
G01X-82621Y-590139D01*

G04 Circle Start*
G54D12*
G01X-597999Y-424899D02*
G03X-572599Y-424899I12700J0D01*
G03X-597999Y-424899I-12700J0D01*
G54D14*
G01X-672564Y-178455D02*
G03X-657578Y-178455I7493J0D01*
G03X-672564Y-178455I-7493J0D01*
G01X-342172Y84912D02*
G03X-327186Y84912I7493J0D01*
G03X-342172Y84912I-7493J0D01*
G54D10*
G01X728886Y319227D02*
G03X758909Y319227I15011J0D01*
G03X728886Y319227I-15011J0D01*
G04 Circle End*

M02*

