G04 Layer: TopLayer*
G04 EasyEDA Pro v3.2.149.88089769, 2026-08-12 00:03:06*
G04 Gerber Generator version 0.3*
G04 Scale: 100 percent, Rotated: No, Reflected: No*
G04 Dimensions in millimeters*
G04 Leading zeros omitted, absolute positions, 4 integers and 5 decimals*
G04 Generated by one-click*
G04 Object Configs: Pad,Via,Track,Text,Image,Dimension,BoardOutline,BoardCutout,CopperFilled,SolidRegion,FPCStiffener,Line,PlaneZone,ComponentProperty,ComponentSilkscreen,TearDrop*
G04 Layer Configs: 1,15,16,2,3,4,5,6,7,8,9,10,11,13,14,56*
G04 Copper Areas: 6*
%FSLAX45Y45*%
%MOMM*%
%ADD10C,0.2032*%
%ADD11R,0.54X0.79009*%
%ADD12R,0.54X0.56566*%
%ADD13R,1.23X1.35999*%
%ADD14R,1.1X0.6*%
%ADD15R,2.0039X1.6*%
%ADD16R,2.0X1.6*%
%ADD17R,0.3X1.3*%
%ADD18C,1.6*%
%ADD19R,0.79009X0.54*%
%ADD20R,0.9X0.7*%
%ADD21R,0.56566X0.54*%
%ADD22R,0.8X0.4*%
%ADD23R,0.4X0.8*%
%ADD24R,1.45001X1.45001*%
%ADD25R,0.7X0.7*%
%ADD26R,1.1X0.3*%
%ADD27O,2.0X1.2*%
%ADD28O,1.8X1.2*%
%ADD29C,0.508*%
%ADD30C,0.1524*%
%ADD31C,0.254*%
%ADD32C,0.152*%
G75*


G04 Copper Start*
G36*
G01X-1843786Y109413D02*
G01X-1843786Y357886D01*
G01X-533796Y357886D01*
G01X-522729Y359639D01*
G01X-512745Y364726D01*
G01X-504822Y372649D01*
G01X-499735Y382633D01*
G01X-497982Y393700D01*
G01X-497982Y513497D01*
G01X-305892Y513497D01*
G01X-294825Y515249D01*
G01X-284841Y520336D01*
G01X-276918Y528260D01*
G01X-271831Y538243D01*
G01X-270078Y549311D01*
G01X-270078Y709310D01*
G01X-271831Y720377D01*
G01X-276918Y730361D01*
G01X-284841Y738284D01*
G01X-294825Y743371D01*
G01X-305892Y745124D01*
G01X-497982Y745124D01*
G01X-497982Y891286D01*
G01X1152187Y891286D01*
G01X1139429Y886029D01*
G01X1128173Y878049D01*
G01X1118990Y867750D01*
G01X1112346Y855656D01*
G01X1108581Y842381D01*
G01X1107884Y828600D01*
G01X1110292Y815014D01*
G01X1091609Y815014D01*
G01X1080948Y813390D01*
G01X1071253Y808666D01*
G01X1063404Y801270D01*
G01X1060866Y811425D01*
G01X1056208Y820800D01*
G01X1049648Y828958D01*
G01X1024303Y854303D01*
G01X1016728Y860484D01*
G01X1008068Y865022D01*
G01X1002737Y874292D01*
G01X994908Y881574D01*
G01X985277Y886221D01*
G01X974703Y887818D01*
G01X884704Y887818D01*
G01X873636Y886065D01*
G01X863653Y880978D01*
G01X855729Y873055D01*
G01X850642Y863071D01*
G01X848890Y852004D01*
G01X848890Y782004D01*
G01X850450Y771546D01*
G01X854997Y762000D01*
G01X850450Y752454D01*
G01X848890Y741996D01*
G01X848890Y673513D01*
G01X744999Y673513D01*
G01X731748Y671668D01*
G01X719506Y666275D01*
G01X719506Y709310D01*
G01X717753Y720377D01*
G01X712666Y730361D01*
G01X704743Y738284D01*
G01X694759Y743371D01*
G01X683692Y745124D01*
G01X483692Y745124D01*
G01X472625Y743371D01*
G01X462641Y738284D01*
G01X454718Y730361D01*
G01X449631Y720377D01*
G01X447878Y709310D01*
G01X447878Y549311D01*
G01X449631Y538243D01*
G01X454718Y528260D01*
G01X462641Y520336D01*
G01X472625Y515249D01*
G01X483692Y513497D01*
G01X673524Y513497D01*
G01X673524Y512960D01*
G01X675177Y500403D01*
G01X680024Y488703D01*
G01X687733Y478655D01*
G01X697079Y469310D01*
G01X689992Y463595D01*
G01X684575Y456277D01*
G01X681179Y447830D01*
G01X680022Y438800D01*
G01X680022Y384800D01*
G01X681774Y373733D01*
G01X686861Y363749D01*
G01X694785Y355826D01*
G01X704768Y350739D01*
G01X715836Y348986D01*
G01X737403Y348986D01*
G01X764297Y322091D01*
G01X767919Y307884D01*
G01X774815Y294946D01*
G01X784589Y284018D01*
G01X796682Y275728D01*
G01X810399Y270552D01*
G01X824953Y268785D01*
G01X839510Y270530D01*
G01X853235Y275687D01*
G01X852783Y270017D01*
G01X852783Y218453D01*
G01X717718Y218453D01*
G01X706476Y216973D01*
G01X696001Y212634D01*
G01X687005Y205731D01*
G01X685542Y204267D01*
G01X690125Y218509D01*
G01X691116Y233437D01*
G01X688457Y248160D01*
G01X682306Y261798D01*
G01X673030Y273537D01*
G01X661183Y282675D01*
G01X647474Y288666D01*
G01X632721Y291153D01*
G01X617806Y289987D01*
G01X603619Y285238D01*
G01X591007Y277189D01*
G01X580725Y266321D01*
G01X573386Y253284D01*
G01X569429Y238855D01*
G01X569090Y223898D01*
G01X572389Y209305D01*
G01X579129Y195949D01*
G01X588909Y184626D01*
G01X601142Y176014D01*
G01X615100Y170626D01*
G01X614185Y162583D01*
G01X614185Y108582D01*
G01X616159Y96856D01*
G01X621863Y86423D01*
G01X630669Y78432D01*
G01X621863Y70442D01*
G01X616159Y60009D01*
G01X614185Y48283D01*
G01X614185Y-5718D01*
G01X615748Y-16184D01*
G01X620302Y-25737D01*
G01X627449Y-33541D01*
G01X636565Y-38917D01*
G01X636565Y-58503D01*
G01X629140Y-52790D01*
G01X620488Y-49198D01*
G01X611200Y-47973D01*
G01X589995Y-47973D01*
G01X456917Y85105D01*
G01X446870Y92814D01*
G01X435169Y97661D01*
G01X422613Y99314D01*
G01X408363Y99314D01*
G01X398570Y116507D01*
G01X385992Y131783D01*
G01X370999Y144694D01*
G01X354026Y154865D01*
G01X335569Y161998D01*
G01X316168Y165885D01*
G01X296388Y166413D01*
G01X276807Y163567D01*
G01X257997Y157428D01*
G01X175416Y240008D01*
G01X166421Y246911D01*
G01X155945Y251250D01*
G01X144704Y252730D01*
G01X-99291Y252730D01*
G01X-103678Y260568D01*
G01X-101106Y260476D01*
G01X-71106Y260476D01*
G01X-61100Y261902D01*
G01X-51093Y260476D01*
G01X-21093Y260476D01*
G01X-11100Y261898D01*
G01X-1106Y260476D01*
G01X28894Y260476D01*
G01X38900Y261902D01*
G01X48906Y260476D01*
G01X78906Y260476D01*
G01X88900Y261898D01*
G01X98894Y260476D01*
G01X128894Y260476D01*
G01X138900Y261902D01*
G01X148906Y260476D01*
G01X178906Y260476D01*
G01X188900Y261898D01*
G01X198893Y260476D01*
G01X228893Y260476D01*
G01X238900Y261902D01*
G01X248906Y260476D01*
G01X278906Y260476D01*
G01X288900Y261898D01*
G01X298893Y260476D01*
G01X328893Y260476D01*
G01X339161Y261979D01*
G01X348906Y260628D01*
G01X378906Y260628D01*
G01X388637Y261976D01*
G01X398893Y260476D01*
G01X428893Y260476D01*
G01X439960Y262229D01*
G01X449944Y267316D01*
G01X457867Y275239D01*
G01X462954Y285223D01*
G01X464707Y296290D01*
G01X464707Y424274D01*
G01X472170Y438122D01*
G01X475858Y453415D01*
G01X475526Y469143D01*
G01X471197Y484267D01*
G01X463157Y497788D01*
G01X451936Y508813D01*
G01X438275Y516615D01*
G01X423078Y520678D01*
G01X417296Y534943D01*
G01X408138Y547316D01*
G01X396183Y557012D01*
G01X382187Y563420D01*
G01X367035Y566133D01*
G01X351685Y564981D01*
G01X337108Y560036D01*
G01X324225Y551610D01*
G01X313852Y540238D01*
G01X304065Y551047D01*
G01X291999Y559234D01*
G01X278338Y564335D01*
G01X263859Y566061D01*
G01X249383Y564313D01*
G01X235731Y559191D01*
G01X223677Y550985D01*
G01X213906Y540162D01*
G01X205487Y549770D01*
G01X195258Y557423D01*
G01X183663Y562785D01*
G01X171207Y565624D01*
G01X158434Y565815D01*
G01X158434Y577008D01*
G01X315211Y733785D01*
G01X329474Y735520D01*
G01X342940Y740533D01*
G01X354867Y748547D01*
G01X364597Y759120D01*
G01X371594Y771670D01*
G01X374491Y782004D01*
G01X665883Y782004D01*
G01X667635Y770937D01*
G01X672722Y760953D01*
G01X680646Y753030D01*
G01X690629Y747943D01*
G01X701697Y746190D01*
G01X791696Y746190D01*
G01X802764Y747943D01*
G01X812747Y753030D01*
G01X820671Y760953D01*
G01X825758Y770937D01*
G01X827510Y782004D01*
G01X827510Y852004D01*
G01X825758Y863071D01*
G01X820671Y873055D01*
G01X812747Y880978D01*
G01X802764Y886065D01*
G01X791696Y887818D01*
G01X701697Y887818D01*
G01X690629Y886065D01*
G01X680646Y880978D01*
G01X672722Y873055D01*
G01X667635Y863071D01*
G01X665883Y852004D01*
G01X665883Y782004D01*
G01X665883Y782004D01*
G01X374491Y782004D01*
G01X375473Y785506D01*
G01X376020Y799864D01*
G01X373204Y813955D01*
G01X367182Y827001D01*
G01X358284Y838283D01*
G01X347002Y847181D01*
G01X333956Y853203D01*
G01X319865Y856019D01*
G01X305507Y855472D01*
G01X291671Y851593D01*
G01X279121Y844596D01*
G01X268548Y834866D01*
G01X260534Y822940D01*
G01X255521Y809473D01*
G01X253786Y795210D01*
G01X84287Y625711D01*
G01X77385Y616716D01*
G01X73046Y606240D01*
G01X71566Y594999D01*
G01X71566Y565580D01*
G01X58355Y565808D01*
G01X45404Y563197D01*
G01X33314Y557868D01*
G01X22649Y550068D01*
G01X13907Y540162D01*
G01X4127Y550993D01*
G01X-7939Y559202D01*
G01X-21604Y564321D01*
G01X-36093Y566061D01*
G01X-50582Y564321D01*
G01X-64248Y559202D01*
G01X-76314Y550993D01*
G01X-86093Y540162D01*
G01X-96507Y551538D01*
G01X-109432Y559950D01*
G01X-124051Y564864D01*
G01X-139433Y565969D01*
G01X-154604Y563195D01*
G01X-168599Y556717D01*
G01X-180532Y546946D01*
G01X-189643Y534503D01*
G01X-195356Y520178D01*
G01X-209678Y515866D01*
G01X-222526Y508209D01*
G01X-233134Y497665D01*
G01X-240868Y484863D01*
G01X-245267Y470568D01*
G01X-246068Y455633D01*
G01X-243224Y440949D01*
G01X-236903Y427393D01*
G01X-236920Y426289D01*
G01X-236920Y296290D01*
G01X-235142Y285147D01*
G01X-229986Y275110D01*
G01X-242490Y275110D01*
G01X-253557Y273357D01*
G01X-263541Y268270D01*
G01X-271464Y260347D01*
G01X-276551Y250363D01*
G01X-278304Y239296D01*
G01X-278304Y219729D01*
G01X-298583Y240008D01*
G01X-307579Y246911D01*
G01X-318054Y251250D01*
G01X-329296Y252730D01*
G01X-359311Y252730D01*
G01X-364686Y261846D01*
G01X-372491Y268992D01*
G01X-382044Y273546D01*
G01X-392510Y275110D01*
G01X-502510Y275110D01*
G01X-511545Y273952D01*
G01X-519995Y270552D01*
G01X-527314Y265130D01*
G01X-533029Y258037D01*
G01X-538734Y265291D01*
G01X-546103Y270847D01*
G01X-554647Y274335D01*
G01X-563799Y275524D01*
G01X-643799Y275524D01*
G01X-654866Y273771D01*
G01X-664850Y268684D01*
G01X-672773Y260761D01*
G01X-677860Y250777D01*
G01X-679613Y239710D01*
G01X-679613Y199710D01*
G01X-678052Y189252D01*
G01X-673504Y179705D01*
G01X-678052Y170158D01*
G01X-679613Y159700D01*
G01X-679613Y119700D01*
G01X-678052Y109242D01*
G01X-673504Y99695D01*
G01X-678052Y90148D01*
G01X-679613Y79690D01*
G01X-679613Y39690D01*
G01X-678158Y29585D01*
G01X-673911Y20302D01*
G01X-689477Y21006D01*
G01X-704717Y17758D01*
G01X-718643Y10767D01*
G01X-730352Y486D01*
G01X-739086Y-12418D01*
G01X-744280Y-27109D01*
G01X-751797Y-19592D01*
G01X-755085Y-6266D01*
G01X-761259Y5992D01*
G01X-770009Y16566D01*
G01X-780895Y24925D01*
G01X-793369Y30649D01*
G01X-806806Y33449D01*
G01X-820528Y33185D01*
G01X-833847Y29871D01*
G01X-846093Y23672D01*
G01X-856650Y14901D01*
G01X-864987Y3998D01*
G01X-870685Y-8488D01*
G01X-873458Y-21930D01*
G01X-873167Y-35652D01*
G01X-885892Y-44449D01*
G01X-896005Y-56155D01*
G01X-902860Y-70022D01*
G01X-906021Y-85165D01*
G01X-905285Y-100616D01*
G01X-900698Y-115390D01*
G01X-892555Y-128543D01*
G01X-881374Y-139233D01*
G01X-867871Y-146780D01*
G01X-852906Y-150701D01*
G01X-788988Y-214619D01*
G01X-778941Y-222329D01*
G01X-767240Y-227176D01*
G01X-754684Y-228829D01*
G01X-677726Y-228829D01*
G01X-679613Y-240299D01*
G01X-679613Y-280299D01*
G01X-678052Y-290758D01*
G01X-673504Y-300304D01*
G01X-678052Y-309851D01*
G01X-679613Y-320309D01*
G01X-679613Y-360309D01*
G01X-678054Y-370760D01*
G01X-673513Y-380301D01*
G01X-678054Y-389843D01*
G01X-679613Y-400294D01*
G01X-679613Y-440294D01*
G01X-678052Y-450752D01*
G01X-673504Y-460299D01*
G01X-678052Y-469845D01*
G01X-679613Y-480304D01*
G01X-679613Y-520304D01*
G01X-678052Y-530762D01*
G01X-673504Y-540309D01*
G01X-678052Y-549855D01*
G01X-679613Y-560314D01*
G01X-679613Y-594910D01*
G01X-686559Y-592718D01*
G01X-693806Y-591977D01*
G01X-716510Y-591977D01*
G01X-716510Y-579831D01*
G01X-709371Y-567994D01*
G01X-705070Y-554856D01*
G01X-703826Y-541089D01*
G01X-705704Y-527393D01*
G01X-710606Y-514468D01*
G01X-718284Y-502973D01*
G01X-728345Y-493493D01*
G01X-740276Y-486512D01*
G01X-753470Y-482387D01*
G01X-767253Y-481327D01*
G01X-780922Y-483387D01*
G01X-793781Y-488462D01*
G01X-805173Y-496292D01*
G01X-814517Y-506479D01*
G01X-821338Y-518503D01*
G01X-825287Y-531750D01*
G01X-825287Y-446138D01*
G01X-810875Y-441959D01*
G01X-797912Y-434400D01*
G01X-787178Y-423914D01*
G01X-779318Y-411132D01*
G01X-774803Y-396822D01*
G01X-773906Y-381843D01*
G01X-776680Y-367096D01*
G01X-782958Y-353467D01*
G01X-792363Y-341775D01*
G01X-804330Y-332722D01*
G01X-818140Y-326852D01*
G01X-832963Y-324519D01*
G01X-847908Y-325862D01*
G01X-862078Y-330800D01*
G01X-874620Y-339038D01*
G01X-884782Y-350079D01*
G01X-891952Y-363261D01*
G01X-895699Y-377791D01*
G01X-908105Y-390197D01*
G01X-915815Y-400244D01*
G01X-920662Y-411945D01*
G01X-922315Y-424501D01*
G01X-922315Y-593873D01*
G01X-933811Y-591977D01*
G01X-972801Y-591977D01*
G01X-966952Y-579435D01*
G01X-964069Y-565900D01*
G01X-964301Y-552062D01*
G01X-967635Y-538631D01*
G01X-973901Y-526291D01*
G01X-982778Y-515675D01*
G01X-993814Y-507323D01*
G01X-1006443Y-501665D01*
G01X-1020021Y-498988D01*
G01X-1033853Y-499429D01*
G01X-1047233Y-502966D01*
G01X-1059476Y-509418D01*
G01X-1069957Y-518455D01*
G01X-1078140Y-529616D01*
G01X-1088124Y-521042D01*
G01X-1099711Y-514800D01*
G01X-1112364Y-511179D01*
G01X-1125499Y-510346D01*
G01X-1138508Y-512341D01*
G01X-1150791Y-517070D01*
G01X-1161778Y-524315D01*
G01X-1170963Y-533741D01*
G01X-1183841Y-530134D01*
G01X-1197195Y-529409D01*
G01X-1210387Y-531602D01*
G01X-1222789Y-536607D01*
G01X-1233808Y-544186D01*
G01X-1245826Y-536081D01*
G01X-1259414Y-531030D01*
G01X-1273808Y-529316D01*
G01X-1288202Y-531034D01*
G01X-1301788Y-536089D01*
G01X-1313805Y-544197D01*
G01X-1325821Y-536089D01*
G01X-1339408Y-531034D01*
G01X-1353801Y-529316D01*
G01X-1368196Y-531030D01*
G01X-1381783Y-536081D01*
G01X-1393802Y-544186D01*
G01X-1405394Y-536303D01*
G01X-1418475Y-531264D01*
G01X-1432360Y-529333D01*
G01X-1446319Y-530611D01*
G01X-1459622Y-535031D01*
G01X-1471571Y-542362D01*
G01X-1481538Y-552219D01*
G01X-1489002Y-564085D01*
G01X-1493570Y-577338D01*
G01X-1495004Y-591283D01*
G01X-1493228Y-605188D01*
G01X-1488334Y-618324D01*
G01X-1489608Y-627791D01*
G01X-1489608Y-707791D01*
G01X-1487856Y-718858D01*
G01X-1482769Y-728842D01*
G01X-1474845Y-736765D01*
G01X-1464862Y-741852D01*
G01X-1453794Y-743605D01*
G01X-1413794Y-743605D01*
G01X-1403343Y-742047D01*
G01X-1393802Y-737506D01*
G01X-1384261Y-742047D01*
G01X-1373810Y-743605D01*
G01X-1333810Y-743605D01*
G01X-1323352Y-742044D01*
G01X-1313805Y-737497D01*
G01X-1304258Y-742044D01*
G01X-1293800Y-743605D01*
G01X-1253800Y-743605D01*
G01X-1243349Y-742047D01*
G01X-1233808Y-737506D01*
G01X-1224266Y-742047D01*
G01X-1213815Y-743605D01*
G01X-1173858Y-743605D01*
G01X-1173604Y-743605D01*
G01X-1174878Y-752531D01*
G01X-1174826Y-761548D01*
G01X-1551563Y-761518D01*
G01X-1551563Y-735854D01*
G01X-1544261Y-728021D01*
G01X-1539601Y-718379D01*
G01X-1538000Y-707791D01*
G01X-1538000Y-627791D01*
G01X-1538988Y-619440D01*
G01X-1541895Y-611549D01*
G01X-1546563Y-604554D01*
G01X-1546563Y-555764D01*
G01X-1466024Y-475225D01*
G01X-1459122Y-466230D01*
G01X-1454783Y-455755D01*
G01X-1453303Y-444513D01*
G01X-1453303Y-403259D01*
G01X-1454783Y-392018D01*
G01X-1459122Y-381542D01*
G01X-1466024Y-372547D01*
G01X-1471888Y-366684D01*
G01X-1459010Y-359518D01*
G01X-1448218Y-349482D01*
G01X-1440137Y-337157D01*
G01X-1435236Y-323258D01*
G01X-1433799Y-308591D01*
G01X-1435909Y-294006D01*
G01X-1441444Y-280347D01*
G01X-1450083Y-268407D01*
G01X-1461326Y-258878D01*
G01X-1474519Y-252312D01*
G01X-1488900Y-249090D01*
G01X-1503635Y-249398D01*
G01X-1517868Y-253219D01*
G01X-1530776Y-260330D01*
G01X-1541610Y-270321D01*
G01X-1549742Y-282612D01*
G01X-1554702Y-296490D01*
G01X-1556200Y-311151D01*
G01X-1569371Y-312159D01*
G01X-1582020Y-315969D01*
G01X-1593556Y-322405D01*
G01X-1603443Y-331165D01*
G01X-1611220Y-341843D01*
G01X-1616526Y-353940D01*
G01X-1619112Y-366894D01*
G01X-1618860Y-380102D01*
G01X-1615779Y-392947D01*
G01X-1610015Y-404833D01*
G01X-1615437Y-415199D01*
G01X-1618788Y-426407D01*
G01X-1619946Y-438047D01*
G01X-1652835Y-470936D01*
G01X-1658517Y-462350D01*
G01X-1649230Y-449772D01*
G01X-1643432Y-435252D01*
G01X-1641502Y-419736D01*
G01X-1643565Y-404238D01*
G01X-1649488Y-389768D01*
G01X-1658882Y-377270D01*
G01X-1656002Y-374614D01*
G01X-1499589Y-218201D01*
G01X-1484965Y-214416D01*
G01X-1471712Y-207165D01*
G01X-1460640Y-196889D01*
G01X-1452420Y-184215D01*
G01X-1447555Y-169914D01*
G01X-1446340Y-154857D01*
G01X-1448849Y-139961D01*
G01X-1454930Y-126133D01*
G01X-1464212Y-114215D01*
G01X-1476130Y-104933D01*
G01X-1489958Y-98852D01*
G01X-1504854Y-96343D01*
G01X-1519911Y-97558D01*
G01X-1534212Y-102423D01*
G01X-1546887Y-110642D01*
G01X-1557162Y-121715D01*
G01X-1564413Y-134967D01*
G01X-1568198Y-149591D01*
G01X-1709639Y-291032D01*
G01X-1707993Y-280299D01*
G01X-1707993Y-241032D01*
G01X-1693907Y-239834D01*
G01X-1680472Y-235437D01*
G01X-1668404Y-228076D01*
G01X-1658347Y-218142D01*
G01X-1650836Y-206167D01*
G01X-1646272Y-192788D01*
G01X-1644899Y-178719D01*
G01X-1646790Y-164710D01*
G01X-1651844Y-151508D01*
G01X-1659791Y-139817D01*
G01X-1652025Y-128139D01*
G01X-1647121Y-115000D01*
G01X-1645336Y-101090D01*
G01X-1646763Y-87138D01*
G01X-1651329Y-73877D01*
G01X-1658793Y-62004D01*
G01X-1668763Y-52141D01*
G01X-1680717Y-44806D01*
G01X-1694026Y-40384D01*
G01X-1707993Y-39108D01*
G01X-1707993Y-295D01*
G01X-1709879Y11176D01*
G01X-1693179Y11176D01*
G01X-1683582Y666D01*
G01X-1671818Y-7344D01*
G01X-1658522Y-12421D01*
G01X-1644413Y-14291D01*
G01X-1630254Y-12851D01*
G01X-1616810Y-8182D01*
G01X-1604808Y-533D01*
G01X-1594896Y9680D01*
G01X-1587610Y21906D01*
G01X-1583345Y35483D01*
G01X-1582330Y49679D01*
G01X-1584621Y63726D01*
G01X-1590093Y76864D01*
G01X-1598452Y88383D01*
G01X-1609244Y97660D01*
G01X-1621888Y104195D01*
G01X-1635698Y107633D01*
G01X-1649929Y107790D01*
G01X-1656255Y108204D01*
G01X-1722136Y108204D01*
G01X-1732373Y113630D01*
G01X-1743807Y115504D01*
G01X-1823806Y115504D01*
G01X-1834250Y113947D01*
G01X-1843786Y109413D01*
G37*
G36*
G01X-1843786Y-727100D02*
G01X-1843786Y-550027D01*
G01X-1834250Y-554561D01*
G01X-1823806Y-556118D01*
G01X-1743807Y-556118D01*
G01X-1734339Y-554844D01*
G01X-1726575Y-558148D01*
G01X-1718431Y-560353D01*
G01X-1718431Y-601793D01*
G01X-1724488Y-609329D01*
G01X-1728308Y-618211D01*
G01X-1729613Y-627791D01*
G01X-1729613Y-707791D01*
G01X-1728305Y-717380D01*
G01X-1724478Y-726269D01*
G01X-1718411Y-733809D01*
G01X-1718411Y-809998D01*
G01X-1716931Y-821235D01*
G01X-1712594Y-831705D01*
G01X-1705695Y-840697D01*
G01X-1685360Y-861032D01*
G01X-1676368Y-867933D01*
G01X-1665897Y-872271D01*
G01X-1654660Y-873751D01*
G01X-963669Y-873793D01*
G01X-952432Y-872315D01*
G01X-941960Y-867977D01*
G01X-932968Y-861078D01*
G01X-925683Y-853792D01*
G01X-903526Y-853792D01*
G01X-905965Y-866236D01*
G01X-905789Y-878915D01*
G01X-903004Y-891286D01*
G01X-1679600Y-891286D01*
G01X-1705284Y-889265D01*
G01X-1730336Y-883250D01*
G01X-1754139Y-873391D01*
G01X-1776106Y-859929D01*
G01X-1795697Y-843197D01*
G01X-1812429Y-823606D01*
G01X-1825891Y-801639D01*
G01X-1835750Y-777836D01*
G01X-1841765Y-752784D01*
G01X-1843786Y-727100D01*
G37*
G36*
G01X-657992Y-707791D02*
G01X-657992Y-633195D01*
G01X-651045Y-635387D01*
G01X-643799Y-636128D01*
G01X-563799Y-636128D01*
G01X-552113Y-634168D01*
G01X-541706Y-628501D01*
G01X-541706Y-709310D01*
G01X-540821Y-717220D01*
G01X-538212Y-724740D01*
G01X-543314Y-736385D01*
G01X-545902Y-748832D01*
G01X-545862Y-761546D01*
G01X-654859Y-761559D01*
G01X-652611Y-746578D01*
G01X-654111Y-731503D01*
G01X-659266Y-717258D01*
G01X-657992Y-707791D01*
G37*
G36*
G01X-502510Y-46510D02*
G01X-490944Y-46510D01*
G01X-490944Y-54584D01*
G01X-500616Y-59784D01*
G01X-508257Y-67671D01*
G01X-513149Y-77502D01*
G01X-514833Y-88354D01*
G01X-514833Y-144920D01*
G01X-513080Y-155987D01*
G01X-507993Y-165971D01*
G01X-500070Y-173894D01*
G01X-490086Y-178981D01*
G01X-479019Y-180734D01*
G01X-425018Y-180734D01*
G01X-413951Y-178981D01*
G01X-403967Y-173894D01*
G01X-396044Y-165971D01*
G01X-390957Y-155987D01*
G01X-389204Y-144920D01*
G01X-389204Y-88354D01*
G01X-390971Y-77244D01*
G01X-396097Y-67231D01*
G01X-404076Y-59301D01*
G01X-404076Y-46510D01*
G01X-392510Y-46510D01*
G01X-382699Y-45140D01*
G01X-373638Y-41134D01*
G01X-366021Y-34799D01*
G01X-360431Y-26621D01*
G01X-357296Y-17223D01*
G01X-344238Y-21804D01*
G01X-330485Y-23334D01*
G01X-316739Y-21736D01*
G01X-303704Y-17092D01*
G01X-303704Y-156061D01*
G01X-304574Y-156050D01*
G01X-358574Y-156050D01*
G01X-369641Y-157803D01*
G01X-379625Y-162890D01*
G01X-387548Y-170813D01*
G01X-392635Y-180797D01*
G01X-394388Y-191864D01*
G01X-394388Y-225809D01*
G01X-409729Y-223786D01*
G01X-425087Y-225674D01*
G01X-439481Y-231353D01*
G01X-451991Y-240459D01*
G01X-461818Y-252412D01*
G01X-468334Y-266447D01*
G01X-471122Y-281667D01*
G01X-470005Y-297100D01*
G01X-465054Y-311760D01*
G01X-456585Y-324710D01*
G01X-445139Y-335123D01*
G01X-431447Y-342333D01*
G01X-416386Y-345879D01*
G01X-400916Y-345536D01*
G01X-386027Y-341324D01*
G01X-372669Y-333513D01*
G01X-344999Y-333513D01*
G01X-332443Y-331860D01*
G01X-320742Y-327014D01*
G01X-310695Y-319304D01*
G01X-297340Y-305949D01*
G01X-286907Y-302026D01*
G01X-286907Y-350679D01*
G01X-339339Y-403111D01*
G01X-346242Y-412107D01*
G01X-350581Y-422582D01*
G01X-352061Y-433824D01*
G01X-352061Y-440646D01*
G01X-360257Y-450896D01*
G01X-366080Y-462657D01*
G01X-369263Y-475388D01*
G01X-369658Y-488506D01*
G01X-367249Y-501406D01*
G01X-362145Y-513497D01*
G01X-505892Y-513497D01*
G01X-517584Y-515459D01*
G01X-527994Y-521130D01*
G01X-527985Y-520304D01*
G01X-527985Y-480304D01*
G01X-529546Y-469845D01*
G01X-534093Y-460299D01*
G01X-529546Y-450752D01*
G01X-527985Y-440294D01*
G01X-527985Y-400294D01*
G01X-529544Y-389843D01*
G01X-534084Y-380301D01*
G01X-529544Y-370760D01*
G01X-527985Y-360309D01*
G01X-527985Y-320309D01*
G01X-529546Y-309851D01*
G01X-534093Y-300304D01*
G01X-529546Y-290758D01*
G01X-527985Y-280299D01*
G01X-527985Y-240299D01*
G01X-529544Y-229848D01*
G01X-534084Y-220307D01*
G01X-529544Y-210766D01*
G01X-527985Y-200315D01*
G01X-527985Y-160315D01*
G01X-529546Y-149856D01*
G01X-534093Y-140310D01*
G01X-529546Y-130763D01*
G01X-527985Y-120305D01*
G01X-527985Y-80305D01*
G01X-529546Y-69846D01*
G01X-534093Y-60300D01*
G01X-529546Y-50753D01*
G01X-527985Y-40295D01*
G01X-527985Y-35869D01*
G01X-520540Y-41640D01*
G01X-511848Y-45271D01*
G01X-502510Y-46510D01*
G37*
G36*
G01X1226968Y812813D02*
G01X1229918Y826628D01*
G01X1229624Y840751D01*
G01X1226099Y854430D01*
G01X1219533Y866938D01*
G01X1210275Y877607D01*
G01X1198818Y885869D01*
G01X1185771Y891286D01*
G01X1501800Y891286D01*
G01X1527484Y889265D01*
G01X1552536Y883250D01*
G01X1576339Y873391D01*
G01X1598306Y859929D01*
G01X1617897Y843197D01*
G01X1634629Y823606D01*
G01X1648091Y801639D01*
G01X1657950Y777836D01*
G01X1663965Y752784D01*
G01X1665986Y727100D01*
G01X1665986Y-727100D01*
G01X1663965Y-752784D01*
G01X1657950Y-777836D01*
G01X1648091Y-801639D01*
G01X1634629Y-823606D01*
G01X1617897Y-843197D01*
G01X1598306Y-859929D01*
G01X1576339Y-873391D01*
G01X1552536Y-883250D01*
G01X1527484Y-889265D01*
G01X1501800Y-891286D01*
G01X1182612Y-891286D01*
G01X1187590Y-880743D01*
G01X1190478Y-869447D01*
G01X1191173Y-857808D01*
G01X1195179Y-847687D01*
G01X1196543Y-836887D01*
G01X1196543Y-815014D01*
G01X1214609Y-815014D01*
G01X1225676Y-813261D01*
G01X1235660Y-808174D01*
G01X1243583Y-800251D01*
G01X1248670Y-790267D01*
G01X1250423Y-779200D01*
G01X1250423Y-643200D01*
G01X1248670Y-632133D01*
G01X1243583Y-622149D01*
G01X1235660Y-614226D01*
G01X1225676Y-609139D01*
G01X1214609Y-607386D01*
G01X1091609Y-607386D01*
G01X1080542Y-609139D01*
G01X1070559Y-614226D01*
G01X1062635Y-622149D01*
G01X1057548Y-632133D01*
G01X1055795Y-643200D01*
G01X1055795Y-779200D01*
G01X1057368Y-789696D01*
G01X1061948Y-799270D01*
G01X1069132Y-807082D01*
G01X1078290Y-812445D01*
G01X1088618Y-814888D01*
G01X1079510Y-825384D01*
G01X1073004Y-837662D01*
G01X1069435Y-851092D01*
G01X1068987Y-864981D01*
G01X1071683Y-878613D01*
G01X1077384Y-891286D01*
G01X-110503Y-891286D01*
G01X214656Y-566128D01*
G01X228984Y-564383D01*
G01X242505Y-559332D01*
G01X254468Y-551255D01*
G01X264207Y-540602D01*
G01X270459Y-547982D01*
G01X270459Y-658114D01*
G01X244788Y-683785D01*
G01X230525Y-685521D01*
G01X217058Y-690533D01*
G01X205132Y-698547D01*
G01X195402Y-709120D01*
G01X188405Y-721671D01*
G01X184526Y-735506D01*
G01X183979Y-749865D01*
G01X186795Y-763955D01*
G01X192817Y-777001D01*
G01X201715Y-788283D01*
G01X212997Y-797181D01*
G01X226043Y-803203D01*
G01X240134Y-806019D01*
G01X254492Y-805472D01*
G01X268327Y-801593D01*
G01X280878Y-794596D01*
G01X291451Y-784866D01*
G01X299465Y-772940D01*
G01X304477Y-759473D01*
G01X306213Y-745210D01*
G01X342113Y-709310D01*
G01X447878Y-709310D01*
G01X449631Y-720377D01*
G01X454718Y-730361D01*
G01X462641Y-738284D01*
G01X472625Y-743371D01*
G01X483692Y-745124D01*
G01X683692Y-745124D01*
G01X683692Y-745124D01*
G01X694759Y-743371D01*
G01X704743Y-738284D01*
G01X712666Y-730361D01*
G01X717753Y-720377D01*
G01X719506Y-709310D01*
G01X719506Y-549311D01*
G01X717753Y-538243D01*
G01X712666Y-528260D01*
G01X704743Y-520336D01*
G01X694759Y-515249D01*
G01X683692Y-513497D01*
G01X483692Y-513497D01*
G01X472625Y-515249D01*
G01X462641Y-520336D01*
G01X454718Y-528260D01*
G01X449631Y-538243D01*
G01X447878Y-549311D01*
G01X447878Y-709310D01*
G01X342113Y-709310D01*
G01X344606Y-706817D01*
G01X351508Y-697822D01*
G01X355847Y-687346D01*
G01X357327Y-676105D01*
G01X357327Y-547982D01*
G01X364218Y-539697D01*
G01X369549Y-530333D01*
G01X373156Y-520178D01*
G01X387478Y-515866D01*
G01X400326Y-508209D01*
G01X410934Y-497665D01*
G01X418668Y-484863D01*
G01X423067Y-470568D01*
G01X423868Y-455633D01*
G01X421024Y-440949D01*
G01X414703Y-427393D01*
G01X414720Y-426289D01*
G01X414720Y-296290D01*
G01X412967Y-285223D01*
G01X407880Y-275239D01*
G01X399957Y-267316D01*
G01X389973Y-262229D01*
G01X378906Y-260476D01*
G01X348906Y-260476D01*
G01X338900Y-261902D01*
G01X328893Y-260476D01*
G01X298893Y-260476D01*
G01X288900Y-261898D01*
G01X278906Y-260476D01*
G01X248906Y-260476D01*
G01X238900Y-261902D01*
G01X228893Y-260476D01*
G01X198893Y-260476D01*
G01X188900Y-261898D01*
G01X178906Y-260476D01*
G01X148906Y-260476D01*
G01X138900Y-261902D01*
G01X128894Y-260476D01*
G01X98894Y-260476D01*
G01X88900Y-261898D01*
G01X78906Y-260476D01*
G01X48906Y-260476D01*
G01X38900Y-261902D01*
G01X28894Y-260476D01*
G01X-1106Y-260476D01*
G01X-11100Y-261898D01*
G01X-21093Y-260476D01*
G01X-51093Y-260476D01*
G01X-61100Y-261902D01*
G01X-71106Y-260476D01*
G01X-101106Y-260476D01*
G01X-111100Y-261898D01*
G01X-121093Y-260476D01*
G01X-151093Y-260476D01*
G01X-153861Y-260583D01*
G01X-146154Y-254922D01*
G01X-140220Y-247424D01*
G01X-136481Y-238623D01*
G01X-135204Y-229146D01*
G01X-135204Y-172580D01*
G01X-136037Y-164902D01*
G01X-138496Y-157582D01*
G01X-136037Y-150261D01*
G01X-135204Y-142583D01*
G01X-135204Y-86017D01*
G01X-136226Y-77522D01*
G01X-139234Y-69512D01*
G01X-144056Y-62444D01*
G01X-144056Y-46510D01*
G01X-132490Y-46510D01*
G01X-121423Y-44757D01*
G01X-111439Y-39670D01*
G01X-103516Y-31747D01*
G01X-98429Y-21763D01*
G01X-96676Y-10696D01*
G01X-96676Y49304D01*
G01X-98429Y60371D01*
G01X-103516Y70355D01*
G01X-111439Y78278D01*
G01X-121423Y83365D01*
G01X-132490Y85118D01*
G01X-216836Y85118D01*
G01X-216836Y140270D01*
G01X-216955Y143482D01*
G01X-132490Y143482D01*
G01X-122024Y145046D01*
G01X-112471Y149600D01*
G01X-104667Y156746D01*
G01X-99291Y165862D01*
G01X90025Y165862D01*
G01X69086Y161476D01*
G01X49312Y153313D01*
G01X31376Y141652D01*
G01X15891Y126891D01*
G01X3385Y109534D01*
G01X-5715Y90173D01*
G01X-11099Y69468D01*
G01X-12583Y48126D01*
G01X-10116Y26876D01*
G01X-3782Y6442D01*
G01X6202Y-12479D01*
G01X19496Y-29240D01*
G01X35646Y-43271D01*
G01X54101Y-54091D01*
G01X74231Y-61332D01*
G01X95350Y-64748D01*
G01X116737Y-64220D01*
G01X137662Y-59768D01*
G01X157411Y-51543D01*
G01X175310Y-39826D01*
G01X190749Y-25016D01*
G01X203200Y-7620D01*
G01X215167Y-24453D01*
G01X229934Y-38893D01*
G01X247030Y-50481D01*
G01X265914Y-58848D01*
G01X285983Y-63727D01*
G01X306599Y-64964D01*
G01X327108Y-62519D01*
G01X346856Y-56471D01*
G01X365215Y-47011D01*
G01X381603Y-34440D01*
G01X395497Y-19158D01*
G01X406455Y-1652D01*
G01X521386Y-116582D01*
G01X521386Y-162796D01*
G01X523139Y-173863D01*
G01X528226Y-183847D01*
G01X536149Y-191770D01*
G01X546133Y-196857D01*
G01X557200Y-198610D01*
G01X611200Y-198610D01*
G01X622267Y-196857D01*
G01X632251Y-191770D01*
G01X640174Y-183847D01*
G01X645261Y-173863D01*
G01X647014Y-162796D01*
G01X647014Y-118258D01*
G01X649286Y-120712D01*
G01X684267Y-155693D01*
G01X693263Y-162596D01*
G01X703738Y-166935D01*
G01X714980Y-168415D01*
G01X852783Y-168415D01*
G01X852783Y-189993D01*
G01X852814Y-191478D01*
G01X805006Y-191478D01*
G01X792450Y-193131D01*
G01X780749Y-197978D01*
G01X770701Y-205687D01*
G01X752637Y-223752D01*
G01X744350Y-212808D01*
G01X733833Y-203986D01*
G01X721615Y-197729D01*
G01X708309Y-194352D01*
G01X694586Y-194025D01*
G01X681134Y-196765D01*
G01X668632Y-202433D01*
G01X657707Y-210744D01*
G01X648908Y-221281D01*
G01X642679Y-233513D01*
G01X639333Y-246827D01*
G01X639037Y-260551D01*
G01X641807Y-273996D01*
G01X647503Y-286485D01*
G01X562329Y-286485D01*
G01X549312Y-278821D01*
G01X534814Y-274577D01*
G01X519719Y-274013D01*
G01X504945Y-277164D01*
G01X491392Y-283836D01*
G01X479886Y-293623D01*
G01X471127Y-305931D01*
G01X465649Y-320009D01*
G01X463785Y-334999D01*
G01X465649Y-349990D01*
G01X471127Y-364068D01*
G01X479886Y-376375D01*
G01X491392Y-386163D01*
G01X504945Y-392835D01*
G01X519719Y-395985D01*
G01X534814Y-395421D01*
G01X549312Y-391178D01*
G01X562329Y-383513D01*
G01X647503Y-383513D01*
G01X641360Y-397429D01*
G01X638839Y-412429D01*
G01X640093Y-427588D01*
G01X645046Y-441969D01*
G01X653393Y-454686D01*
G01X664617Y-464952D01*
G01X678025Y-472133D01*
G01X692791Y-475787D01*
G01X708001Y-475688D01*
G01X722717Y-471841D01*
G01X736031Y-464485D01*
G01X747120Y-454073D01*
G01X755299Y-441249D01*
G01X760064Y-426803D01*
G01X761120Y-411629D01*
G01X758402Y-396663D01*
G01X752078Y-382830D01*
G01X742539Y-370982D01*
G01X744303Y-369304D01*
G01X825101Y-288506D01*
G01X857940Y-288506D01*
G01X863650Y-295687D01*
G01X870997Y-301182D01*
G01X879498Y-304631D01*
G01X888597Y-305806D01*
G01X981818Y-305806D01*
G01X987609Y-321331D01*
G01X996849Y-335085D01*
G01X1009033Y-346315D01*
G01X1023492Y-354407D01*
G01X1039436Y-358917D01*
G01X1055992Y-359599D01*
G01X1072253Y-356414D01*
G01X1087329Y-349539D01*
G01X1100394Y-339348D01*
G01X1110734Y-326400D01*
G01X1117781Y-311404D01*
G01X1121151Y-295181D01*
G01X1120659Y-278618D01*
G01X1116332Y-262623D01*
G01X1108406Y-248072D01*
G01X1097316Y-235761D01*
G01X1083668Y-226364D01*
G01X1068211Y-220396D01*
G01X1129302Y-159304D01*
G01X1137012Y-149257D01*
G01X1141859Y-137556D01*
G01X1143512Y-125000D01*
G01X1143512Y-104784D01*
G01X1146010Y-96095D01*
G01X1146852Y-87094D01*
G01X1146852Y-42906D01*
G01X1146010Y-33905D01*
G01X1143512Y-25216D01*
G01X1143512Y40216D01*
G01X1146010Y48904D01*
G01X1146852Y57906D01*
G01X1146852Y102094D01*
G01X1146010Y111095D01*
G01X1143512Y119784D01*
G01X1143512Y135000D01*
G01X1141859Y147556D01*
G01X1137012Y159257D01*
G01X1129302Y169304D01*
G01X1075782Y222825D01*
G01X1090108Y230239D01*
G01X1102385Y240703D01*
G01X1111975Y253674D01*
G01X1118380Y268479D01*
G01X1121269Y284350D01*
G01X1120491Y300462D01*
G01X1116087Y315980D01*
G01X1108286Y330099D01*
G01X1097491Y342087D01*
G01X1084264Y351320D01*
G01X1069290Y357320D01*
G01X1053347Y359776D01*
G01X1037262Y358560D01*
G01X1021869Y353736D01*
G01X1007968Y345553D01*
G01X996279Y334436D01*
G01X987409Y320963D01*
G01X981818Y305831D01*
G01X888597Y305831D01*
G01X880869Y304987D01*
G01X884923Y317502D01*
G01X886209Y330593D01*
G01X884669Y343656D01*
G01X880374Y356090D01*
G01X888112Y363990D01*
G01X893071Y373874D01*
G01X894779Y384800D01*
G01X894779Y438800D01*
G01X892981Y450003D01*
G01X887769Y460082D01*
G01X879666Y468025D01*
G01X869485Y473034D01*
G01X864986Y478220D01*
G01X854396Y488810D01*
G01X860504Y488286D01*
G01X939513Y488286D01*
G01X949934Y489835D01*
G01X959453Y494350D01*
G01X967247Y501440D01*
G01X972640Y510490D01*
G01X980404Y516795D01*
G01X1049648Y586040D01*
G01X1057358Y596087D01*
G01X1062204Y607788D01*
G01X1063857Y620344D01*
G01X1063857Y620598D01*
G01X1071650Y613486D01*
G01X1081176Y608951D01*
G01X1091609Y607386D01*
G01X1214609Y607386D01*
G01X1225676Y609139D01*
G01X1235660Y614226D01*
G01X1243583Y622149D01*
G01X1248670Y632133D01*
G01X1250423Y643200D01*
G01X1250423Y779200D01*
G01X1248774Y789941D01*
G01X1243980Y799694D01*
G01X1236481Y807559D01*
G01X1226968Y812813D01*
G37*
G36*
G01X770552Y576485D02*
G01X824690Y576485D01*
G01X824690Y524100D01*
G01X826466Y512960D01*
G01X816150Y516597D01*
G01X805282Y517830D01*
G01X785777Y517830D01*
G01X770552Y533055D01*
G01X770552Y576485D01*
G37*
G54D10*
G01X-1843786Y109413D02*
G01X-1843786Y357886D01*
G01X-533796Y357886D01*
G03X-497982Y393700I0J35814D01*
G01X-497982Y513497D01*
G01X-305892Y513497D01*
G03X-270078Y549311I0J35814D01*
G01X-270078Y709310D01*
G03X-305892Y745124I-35814J0D01*
G01X-497982Y745124D01*
G01X-497982Y891286D01*
G01X1152187Y891286D01*
G03X1110292Y815014I16792J-58866D01*
G01X1091609Y815014D01*
G03X1063404Y801270I0J-35814D01*
G03X1049648Y828958I-48061J-6617D01*
G01X1024303Y854303D01*
G03X1008068Y865022I-34305J-34305D01*
G03X974703Y887818I-33364J-13018D01*
G01X884704Y887818D01*
G03X848890Y852004I0J-35814D01*
G01X848890Y782004D01*
G03X854997Y762000I35814J0D01*
G03X848890Y741996I29707J-20004D01*
G01X848890Y673513D01*
G01X744999Y673513D01*
G03X719506Y666275I0J-48514D01*
G01X719506Y709310D01*
G03X683692Y745124I-35814J0D01*
G01X483692Y745124D01*
G03X447878Y709310I0J-35814D01*
G01X447878Y549311D01*
G03X483692Y513497I35814J0D01*
G01X673524Y513497D01*
G01X673524Y512960D01*
G03X687733Y478655I48514J0D01*
G01X697079Y469310D01*
G03X680022Y438800I18757J-30509D01*
G01X680022Y384800D01*
G03X715836Y348986I35814J0D01*
G01X737403Y348986D01*
G01X764297Y322091D01*
G03X796682Y275728I60701J7908D01*
G03X853235Y275687I28317J54271D01*
G03X852783Y270017I35362J-5670D01*
G01X852783Y218453D01*
G01X717718Y218453D01*
G03X687005Y205731I0J-43434D01*
G01X685542Y204267D01*
G03X603619Y285238I-55543J25732D01*
G03X615100Y170626I26380J-55238D01*
G03X614185Y162583I34899J-8044D01*
G01X614185Y108582D01*
G03X630669Y78432I35814J0D01*
G03X614185Y48283I19330J-30150D01*
G01X614185Y-5718D01*
G03X636565Y-38917I35814J0D01*
G01X636565Y-58503D01*
G03X611200Y-47973I-25364J-25284D01*
G01X589995Y-47973D01*
G01X456917Y85105D01*
G03X422613Y99314I-34305J-34305D01*
G01X408363Y99314D01*
G03X257997Y157428I-105163J-48514D01*
G01X175416Y240008D01*
G03X144704Y252730I-30712J-30712D01*
G01X-99291Y252730D01*
G03X-103678Y260568I-33199J-13434D01*
G03X-101106Y260476I2572J35722D01*
G01X-71106Y260476D01*
G03X-61100Y261902I0J35814D01*
G03X-51093Y260476I10006J34388D01*
G01X-21093Y260476D01*
G03X-11100Y261898I0J35814D01*
G03X-1106Y260476I9994J34391D01*
G01X28894Y260476D01*
G03X38900Y261902I0J35814D01*
G03X48906Y260476I10006J34388D01*
G01X78906Y260476D01*
G03X88900Y261898I0J35814D01*
G03X98894Y260476I9994J34391D01*
G01X128894Y260476D01*
G03X138900Y261902I0J35814D01*
G03X148906Y260476I10006J34388D01*
G01X178906Y260476D01*
G03X188900Y261898I0J35814D01*
G03X198893Y260476I9994J34391D01*
G01X228893Y260476D01*
G03X238900Y261902I0J35814D01*
G03X248906Y260476I10006J34388D01*
G01X278906Y260476D01*
G03X288900Y261898I0J35814D01*
G03X298893Y260476I9994J34391D01*
G01X328893Y260476D01*
G03X339161Y261979I0J35814D01*
G03X348906Y260628I9744J34463D01*
G01X378906Y260628D01*
G03X388637Y261976I0J35814D01*
G03X398893Y260476I10256J34314D01*
G01X428893Y260476D01*
G03X464707Y296290I0J35814D01*
G01X464707Y424274D01*
G03X471197Y484267I-49708J35725D01*
G03X423078Y520678I-56198J-24268D01*
G03X313852Y540238I-59172J-15679D01*
G03X213906Y540162I-49946J-35391D01*
G03X158434Y565815I-50000J-35315D01*
G01X158434Y577008D01*
G01X315211Y733785D01*
G03X358284Y838283I-211J61214D01*
G03X253786Y795210I-43285J-43285D01*
G01X84287Y625711D01*
G03X71566Y594999I30712J-30712D01*
G01X71566Y565580D01*
G03X13907Y540162I-7659J-60733D01*
G03X-86093Y540162I-50000J-35315D01*
G03X-195356Y520178I-50000J-35315D01*
G03X-240868Y484863I10356J-60332D01*
G03X-236903Y427393I55869J-25017D01*
G01X-236920Y426289D01*
G01X-236920Y296290D01*
G03X-229986Y275110I35814J0D01*
G01X-242490Y275110D01*
G03X-278304Y239296I0J-35814D01*
G01X-278304Y219729D01*
G01X-298583Y240008D01*
G03X-329296Y252730I-30712J-30712D01*
G01X-359311Y252730D01*
G03X-392510Y275110I-33199J-13434D01*
G01X-502510Y275110D01*
G03X-533029Y258037I0J-35814D01*
G03X-563799Y275524I-30770J-18327D01*
G01X-643799Y275524D01*
G03X-679613Y239710I0J-35814D01*
G01X-679613Y199710D01*
G03X-673504Y179705I35814J0D01*
G03X-679613Y159700I29706J-20005D01*
G01X-679613Y119700D01*
G03X-673504Y99695I35814J0D01*
G03X-679613Y79690I29706J-20005D01*
G01X-679613Y39690D01*
G03X-673911Y20302I35814J0D01*
G03X-744280Y-27109I-10528J-60302D01*
G01X-751797Y-19592D01*
G03X-820528Y33185I-60701J-7908D01*
G03X-873167Y-35652I8030J-60685D01*
G03X-905285Y-100616I28169J-54348D01*
G03X-852906Y-150701I60286J10617D01*
G01X-788988Y-214619D01*
G03X-754684Y-228829I34305J34305D01*
G01X-677726Y-228829D01*
G03X-679613Y-240299I33927J-11471D01*
G01X-679613Y-280299D01*
G03X-673504Y-300304I35814J0D01*
G03X-679613Y-320309I29706J-20005D01*
G01X-679613Y-360309D01*
G03X-673513Y-380301I35814J0D01*
G03X-679613Y-400294I29714J-19992D01*
G01X-679613Y-440294D01*
G03X-673504Y-460299I35814J0D01*
G03X-679613Y-480304I29706J-20005D01*
G01X-679613Y-520304D01*
G03X-673504Y-540309I35814J0D01*
G03X-679613Y-560314I29706J-20005D01*
G01X-679613Y-594910D01*
G03X-693806Y-591977I-14194J-32881D01*
G01X-716510Y-591977D01*
G01X-716510Y-579831D01*
G03X-740276Y-486512I-48514J37330D01*
G03X-825287Y-531750I-24748J-55988D01*
G01X-825287Y-446138D01*
G03X-792363Y-341775I-9712J60439D01*
G03X-895699Y-377791I-42636J-43924D01*
G01X-908105Y-390197D01*
G03X-922315Y-424501I34305J-34305D01*
G01X-922315Y-593873D01*
G03X-933811Y-591977I-11496J-33919D01*
G01X-972801Y-591977D01*
G03X-993814Y-507323I-52197J31979D01*
G03X-1078140Y-529616I-31184J-52675D01*
G03X-1125499Y-510346I-44642J-41884D01*
G03X-1170963Y-533741I2718J-61154D01*
G03X-1233808Y-544186I-22852J-56788D01*
G03X-1273808Y-529316I-39992J-46344D01*
G03X-1313805Y-544197I8J-61214D01*
G03X-1353801Y-529316I-40005J-46333D01*
G03X-1393802Y-544186I-8J-61214D01*
G03X-1471571Y-542362I-39992J-46344D01*
G03X-1488334Y-618324I37776J-48168D01*
G03X-1489608Y-627791I34540J-9467D01*
G01X-1489608Y-707791D01*
G03X-1453794Y-743605I35814J0D01*
G01X-1413794Y-743605D01*
G03X-1393802Y-737506I0J35814D01*
G03X-1373810Y-743605I19992J29714D01*
G01X-1333810Y-743605D01*
G03X-1313805Y-737497I0J35814D01*
G03X-1293800Y-743605I20005J29706D01*
G01X-1253800Y-743605D01*
G03X-1233808Y-737506I0J35814D01*
G03X-1213815Y-743605I19992J29714D01*
G01X-1173858Y-743605D01*
G01X-1173604Y-743605D01*
G03X-1174826Y-761548I59799J-13085D01*
G01X-1551563Y-761518D01*
G01X-1551563Y-735854D01*
G03X-1538000Y-707791I-22252J28063D01*
G01X-1538000Y-627791D01*
G03X-1546563Y-604554I-35814J0D01*
G01X-1546563Y-555764D01*
G01X-1466024Y-475225D01*
G03X-1453303Y-444513I-30712J30712D01*
G01X-1453303Y-403259D01*
G03X-1466024Y-372547I-43434J0D01*
G01X-1471888Y-366684D01*
G03X-1461326Y-258878I-23109J56684D01*
G03X-1556200Y-311151I-33671J-51121D01*
G03X-1611220Y-341843I-1940J-61183D01*
G03X-1610015Y-404833I53080J-30491D01*
G03X-1619946Y-438047I51282J-33426D01*
G01X-1652835Y-470936D01*
G03X-1658517Y-462350I-53709J-29367D01*
G03X-1641502Y-419736I-44199J42351D01*
G03X-1658882Y-377270I-61213J-263D01*
G03X-1656002Y-374614I-31424J36961D01*
G01X-1499589Y-218201D01*
G03X-1464212Y-114215I-7908J60701D01*
G03X-1568198Y-149591I-43285J-43285D01*
G01X-1709639Y-291032D01*
G03X-1707993Y-280299I-34168J10733D01*
G01X-1707993Y-241032D01*
G03X-1650836Y-206167I1890J61185D01*
G03X-1659791Y-139817I-55267J26320D01*
G03X-1651329Y-73877I-46754J39513D01*
G03X-1707993Y-39108I-55216J-26427D01*
G01X-1707993Y-295D01*
G03X-1709879Y11176I-35814J0D01*
G01X-1693179Y11176D01*
G03X-1587610Y21906I49697J35740D01*
G03X-1649929Y107790I-55871J25011D01*
G03X-1656255Y108204I-6326J-48100D01*
G01X-1722136Y108204D01*
G03X-1743807Y115504I-21670J-28514D01*
G01X-1823806Y115504D01*
G03X-1843786Y109413I0J-35814D01*
G01X665883Y782004D02*
G03X701697Y746190I35814J0D01*
G01X791696Y746190D01*
G03X827510Y782004I0J35814D01*
G01X827510Y852004D01*
G03X791696Y887818I-35814J0D01*
G01X701697Y887818D01*
G03X665883Y852004I0J-35814D01*
G01X665883Y782004D01*
G01X-1843786Y-727100D02*
G01X-1843786Y-550027D01*
G03X-1823806Y-556118I19980J29723D01*
G01X-1743807Y-556118D01*
G03X-1734339Y-554844I0J35814D01*
G03X-1718431Y-560353I27795J54540D01*
G01X-1718431Y-601793D01*
G03X-1729613Y-627791I24632J-25999D01*
G01X-1729613Y-707791D01*
G03X-1718411Y-733809I35814J0D01*
G01X-1718411Y-809998D01*
G03X-1705695Y-840697I43414J0D01*
G01X-1685360Y-861032D01*
G03X-1654660Y-873751I30702J30695D01*
G01X-963669Y-873793D01*
G03X-932968Y-861078I3J43414D01*
G01X-925683Y-853792D01*
G01X-903526Y-853792D01*
G03X-903004Y-891286I58528J-17936D01*
G01X-1679600Y-891286D01*
G02X-1843786Y-727100I0J164186D01*
G01X-657992Y-707791D02*
G01X-657992Y-633195D01*
G03X-643799Y-636128I14194J32881D01*
G01X-563799Y-636128D01*
G03X-541706Y-628501I0J35814D01*
G01X-541706Y-709310D01*
G03X-538212Y-724740I35814J0D01*
G03X-545862Y-761546I53213J-30259D01*
G01X-654859Y-761559D01*
G03X-659266Y-717258I-58947J16505D01*
G03X-657992Y-707791I-34540J9467D01*
G01X-502510Y-46510D02*
G01X-490944Y-46510D01*
G01X-490944Y-54584D01*
G03X-514833Y-88354I11925J-33770D01*
G01X-514833Y-144920D01*
G03X-479019Y-180734I35814J0D01*
G01X-425018Y-180734D01*
G03X-389204Y-144920I0J35814D01*
G01X-389204Y-88354D01*
G03X-404076Y-59301I-35814J0D01*
G01X-404076Y-46510D01*
G01X-392510Y-46510D01*
G03X-357296Y-17223I0J35814D01*
G03X-303704Y-17092I26661J55103D01*
G01X-303704Y-156061D01*
G01X-304574Y-156050D01*
G01X-358574Y-156050D01*
G03X-394388Y-191864I0J-35814D01*
G01X-394388Y-225809D01*
G03X-470005Y-297100I-15611J-59190D01*
G03X-372669Y-333513I60006J12101D01*
G01X-344999Y-333513D01*
G03X-310695Y-319304I0J48514D01*
G01X-297340Y-305949D01*
G03X-286907Y-302026I-7234J35076D01*
G01X-286907Y-350679D01*
G01X-339339Y-403111D01*
G03X-352061Y-433824I30712J-30712D01*
G01X-352061Y-440646D01*
G03X-369263Y-475388I43434J-43135D01*
G03X-362145Y-513497I60636J-8393D01*
G01X-505892Y-513497D01*
G03X-527994Y-521130I0J-35814D01*
G01X-527985Y-520304D01*
G01X-527985Y-480304D01*
G03X-534093Y-460299I-35814J0D01*
G03X-527985Y-440294I-29706J20005D01*
G01X-527985Y-400294D01*
G03X-534084Y-380301I-35814J0D01*
G03X-527985Y-360309I-29714J19992D01*
G01X-527985Y-320309D01*
G03X-534093Y-300304I-35814J0D01*
G03X-527985Y-280299I-29706J20005D01*
G01X-527985Y-240299D01*
G03X-534084Y-220307I-35814J0D01*
G03X-527985Y-200315I-29714J19992D01*
G01X-527985Y-160315D01*
G03X-534093Y-140310I-35814J0D01*
G03X-527985Y-120305I-29706J20005D01*
G01X-527985Y-80305D01*
G03X-534093Y-60300I-35814J0D01*
G03X-527985Y-40295I-29706J20005D01*
G01X-527985Y-35869D01*
G03X-502510Y-46510I25475J25173D01*
G01X1226968Y812813D02*
G03X1185771Y891286I-57989J19607D01*
G01X1501800Y891286D01*
G02X1665986Y727100I0J-164186D01*
G01X1665986Y-727100D01*
G02X1501800Y-891286I-164186J0D01*
G01X1182612Y-891286D01*
G03X1191173Y-857808I-52614J31288D01*
G03X1196543Y-836887I-38063J20921D01*
G01X1196543Y-815014D01*
G01X1214609Y-815014D01*
G03X1250423Y-779200I0J35814D01*
G01X1250423Y-643200D01*
G03X1214609Y-607386I-35814J0D01*
G01X1091609Y-607386D01*
G03X1055795Y-643200I0J-35814D01*
G01X1055795Y-779200D01*
G03X1088618Y-814888I35814J0D01*
G03X1077384Y-891286I41379J-45110D01*
G01X-110503Y-891286D01*
G01X214656Y-566128D01*
G03X264207Y-540602I-183J61214D01*
G03X270459Y-547982I49686J35755D01*
G01X270459Y-658114D01*
G01X244788Y-683785D01*
G03X201715Y-788283I211J-61214D01*
G03X306213Y-745210I43285J43285D01*
G01X344606Y-706817D01*
G03X357327Y-676105I-30712J30712D01*
G01X357327Y-547982D01*
G03X373156Y-520178I-43434J43135D01*
G03X414703Y-427393I-10356J60332D01*
G01X414720Y-426289D01*
G01X414720Y-296290D01*
G03X378906Y-260476I-35814J0D01*
G01X348906Y-260476D01*
G03X338900Y-261902I0J-35814D01*
G03X328893Y-260476I-10006J-34388D01*
G01X298893Y-260476D01*
G03X288900Y-261898I0J-35814D01*
G03X278906Y-260476I-9994J-34391D01*
G01X248906Y-260476D01*
G03X238900Y-261902I0J-35814D01*
G03X228893Y-260476I-10006J-34388D01*
G01X198893Y-260476D01*
G03X188900Y-261898I0J-35814D01*
G03X178906Y-260476I-9994J-34391D01*
G01X148906Y-260476D01*
G03X138900Y-261902I0J-35814D01*
G03X128894Y-260476I-10006J-34388D01*
G01X98894Y-260476D01*
G03X88900Y-261898I0J-35814D01*
G03X78906Y-260476I-9994J-34391D01*
G01X48906Y-260476D01*
G03X38900Y-261902I0J-35814D01*
G03X28894Y-260476I-10006J-34388D01*
G01X-1106Y-260476D01*
G03X-11100Y-261898I0J-35814D01*
G03X-21093Y-260476I-9994J-34391D01*
G01X-51093Y-260476D01*
G03X-61100Y-261902I0J-35814D01*
G03X-71106Y-260476I-10006J-34388D01*
G01X-101106Y-260476D01*
G03X-111100Y-261898I0J-35814D01*
G03X-121093Y-260476I-9994J-34391D01*
G01X-151093Y-260476D01*
G03X-153861Y-260583I0J-35814D01*
G03X-135204Y-229146I-17157J31437D01*
G01X-135204Y-172580D01*
G03X-138496Y-157582I-35814J0D01*
G03X-135204Y-142583I-32522J14999D01*
G01X-135204Y-86017D01*
G03X-144056Y-62444I-35814J0D01*
G01X-144056Y-46510D01*
G01X-132490Y-46510D01*
G03X-96676Y-10696I0J35814D01*
G01X-96676Y49304D01*
G03X-132490Y85118I-35814J0D01*
G01X-216836Y85118D01*
G01X-216836Y140270D01*
G03X-216955Y143482I-43434J0D01*
G01X-132490Y143482D01*
G03X-99291Y165862I0J35814D01*
G01X90025Y165862D01*
G03X6202Y-12479I13175J-115062D01*
G03X203200Y-7620I96998J63279D01*
G03X406455Y-1652I100000J58420D01*
G01X521386Y-116582D01*
G01X521386Y-162796D01*
G03X557200Y-198610I35814J0D01*
G01X611200Y-198610D01*
G03X647014Y-162796I0J35814D01*
G01X647014Y-118258D01*
G03X649286Y-120712I32984J28258D01*
G01X684267Y-155693D01*
G03X714980Y-168415I30712J30712D01*
G01X852783Y-168415D01*
G01X852783Y-189993D01*
G01X852814Y-191478D01*
G01X805006Y-191478D01*
G03X770701Y-205687I0J-48514D01*
G01X752637Y-223752D01*
G03X668632Y-202433I-52638J-31247D01*
G03X647503Y-286485I31367J-52567D01*
G01X562329Y-286485D01*
G03X463785Y-334999I-37330J-48514D01*
G03X562329Y-383513I61214J0D01*
G01X647503Y-383513D01*
G03X708001Y-475688I52496J-31486D01*
G03X742539Y-370982I-8002J60689D01*
G01X744303Y-369304D01*
G01X825101Y-288506D01*
G01X857940Y-288506D01*
G03X888597Y-305806I30657J18514D01*
G01X981818Y-305806D01*
G03X1100394Y-339348I68789J16817D01*
G03X1068211Y-220396I-49787J50360D01*
G01X1129302Y-159304D01*
G03X1143512Y-125000I-34305J34305D01*
G01X1143512Y-104784D01*
G03X1146852Y-87094I-45174J17690D01*
G01X1146852Y-42906D01*
G03X1143512Y-25216I-48514J0D01*
G01X1143512Y40216D01*
G03X1146852Y57906I-45174J17690D01*
G01X1146852Y102094D01*
G03X1143512Y119784I-48514J0D01*
G01X1143512Y135000D01*
G03X1129302Y169304I-48514J0D01*
G01X1075782Y222825D01*
G03X1097491Y342087I-25175J66189D01*
G03X981818Y305831I-46884J-53073D01*
G01X888597Y305831D01*
G03X880869Y304987I0J-35814D01*
G03X880374Y356090I-55871J25012D01*
G03X894779Y384800I-21409J28710D01*
G01X894779Y438800D01*
G03X869485Y473034I-35814J0D01*
G03X864986Y478220I-38804J-29118D01*
G01X854396Y488810D01*
G03X860504Y488286I6108J35289D01*
G01X939513Y488286D01*
G03X972640Y510490I0J35814D01*
G03X980404Y516795I-26541J40610D01*
G01X1049648Y586040D01*
G03X1063857Y620344I-34305J34305D01*
G01X1063857Y620598D01*
G03X1091609Y607386I27789J22620D01*
G01X1214609Y607386D01*
G03X1250423Y643200I0J35814D01*
G01X1250423Y779200D01*
G03X1226968Y812813I-35814J0D01*
G01X683692Y-745124D02*
G03X719506Y-709310I0J35814D01*
G01X719506Y-549311D01*
G03X683692Y-513497I-35814J0D01*
G01X483692Y-513497D01*
G03X447878Y-549311I0J-35814D01*
G01X447878Y-709310D01*
G03X483692Y-745124I35814J0D01*
G01X683692Y-745124D01*
G01X770552Y576485D02*
G01X824690Y576485D01*
G01X824690Y524100D01*
G03X826466Y512960I35814J0D01*
G03X805282Y517830I-21185J-43644D01*
G01X785777Y517830D01*
G01X770552Y533055D01*
G01X770552Y576485D01*
G04 Copper End*

G04 Pad Start*
G54D11*
G01X584200Y-123292D03*
G01X584200Y-232308D03*
G01X-331574Y-231369D03*
G01X-331574Y-122352D03*
G54D12*
G01X-198018Y-114300D03*
G01X-198018Y-200863D03*
G54D13*
G01X1153109Y-711200D03*
G01X1590091Y-711200D03*
G54D12*
G01X-452018Y-116637D03*
G01X-452018Y-203200D03*
G54D14*
G01X-447510Y19304D03*
G01X-447510Y209296D03*
G01X-187490Y209296D03*
G01X-187490Y114300D03*
G01X-187490Y19304D03*
G54D16*
G01X-405892Y-629310D03*
G01X583692Y-629310D03*
G54D17*
G01X413893Y-361290D03*
G01X363906Y-361290D03*
G01X313893Y-361290D03*
G01X263906Y-361290D03*
G01X213893Y-361290D03*
G01X163906Y-361290D03*
G01X113894Y-361290D03*
G01X63906Y-361290D03*
G01X13894Y-361290D03*
G01X-36093Y-361290D03*
G01X-86106Y-361290D03*
G01X-136093Y-361290D03*
G01X-186106Y-361442D03*
G01X-236093Y-361290D03*
G54D16*
G01X583692Y629310D03*
G01X-405892Y629310D03*
G54D17*
G01X-236093Y361290D03*
G01X-186106Y361290D03*
G01X-136093Y361290D03*
G01X-86106Y361290D03*
G01X-36093Y361290D03*
G01X13894Y361290D03*
G01X63906Y361290D03*
G01X113894Y361290D03*
G01X163906Y361290D03*
G01X213893Y361290D03*
G01X263906Y361290D03*
G01X313893Y361290D03*
G01X363906Y361442D03*
G01X413893Y361290D03*
G54D18*
G01X303200Y50800D03*
G01X103200Y50800D03*
G54D19*
G01X790992Y551100D03*
G01X900008Y551100D03*
G54D20*
G01X746697Y817004D03*
G01X746697Y706996D03*
G01X929704Y706996D03*
G01X929704Y817004D03*
G54D21*
G01X678282Y21282D03*
G01X591718Y21282D03*
G01X678282Y135582D03*
G01X591718Y135582D03*
G01X744118Y411800D03*
G01X830682Y411800D03*
G54D13*
G01X1153109Y711200D03*
G01X1590091Y711200D03*
G54D22*
G01X-1783806Y219710D03*
G01X-1783806Y139700D03*
G01X-1783806Y59690D03*
G01X-1783806Y-20295D03*
G01X-1783806Y-100305D03*
G01X-1783806Y-180289D03*
G01X-1783806Y-260299D03*
G01X-1783806Y-340309D03*
G01X-1783806Y-420294D03*
G01X-1783806Y-500304D03*
G01X-1783806Y-580314D03*
G54D23*
G01X-1673799Y-667791D03*
G01X-1593814Y-667791D03*
G01X-1513804Y-667791D03*
G01X-1433794Y-667791D03*
G01X-1353810Y-667791D03*
G01X-1273800Y-667791D03*
G01X-1193815Y-667791D03*
G01X-1113805Y-667791D03*
G01X-1033795Y-667791D03*
G01X-953811Y-667791D03*
G01X-873801Y-667791D03*
G01X-793791Y-667791D03*
G01X-713806Y-667791D03*
G54D22*
G01X-603799Y-580314D03*
G01X-603799Y-500304D03*
G01X-603799Y-420294D03*
G01X-603799Y-340309D03*
G01X-603799Y-260299D03*
G01X-603799Y-180315D03*
G01X-603799Y-100305D03*
G01X-603799Y-20295D03*
G01X-603799Y59690D03*
G01X-603799Y139700D03*
G01X-603799Y219710D03*
G54D23*
G01X-713806Y312191D03*
G01X-793791Y312191D03*
G01X-873801Y312191D03*
G01X-953811Y312191D03*
G01X-1033795Y312191D03*
G01X-1113805Y312191D03*
G01X-1193790Y312191D03*
G01X-1273800Y312191D03*
G01X-1353810Y312191D03*
G01X-1433794Y312191D03*
G01X-1513804Y312191D03*
G01X-1593789Y312191D03*
G01X-1673799Y312191D03*
G54D24*
G01X-1191301Y-172796D03*
G54D25*
G01X-598795Y317195D03*
G01X-598795Y-672795D03*
G01X-1788810Y-672795D03*
G01X-1788810Y317195D03*
G54D24*
G01X-1371310Y-172796D03*
G01X-1371310Y7214D03*
G01X-1191301Y7214D03*
G01X-1011316Y7214D03*
G01X-1011316Y-172796D03*
G01X-1371310Y-352781D03*
G01X-1191301Y-352781D03*
G01X-1011316Y-352781D03*
G54D14*
G01X943597Y-320002D03*
G01X943597Y-239992D03*
G54D26*
G01X943597Y-174993D03*
G01X943597Y-124981D03*
G01X943597Y-74993D03*
G01X943597Y-25006D03*
G01X943597Y25006D03*
G01X943597Y74994D03*
G01X943597Y125006D03*
G01X943597Y175019D03*
G54D14*
G01X943597Y240017D03*
G01X943597Y320002D03*
G54D27*
G01X998588Y-432498D03*
G01X998588Y432499D03*
G54D28*
G01X1418603Y-432498D03*
G01X1418603Y432499D03*
G04 Pad End*

G04 Via Start*
G54D29*
G01X-1558141Y-372334D03*
G01X-1122782Y-571500D03*
G01X-324090Y-749950D03*
G01X-1558733Y-438259D03*
G01X-1494997Y-309999D03*
G01X-484999Y-754998D03*
G01X-1024998Y-559999D03*
G01X363906Y504999D03*
G01X414999Y459999D03*
G01X314999Y459847D03*
G01X263906Y504847D03*
G01X212167Y459847D03*
G01X163906Y504847D03*
G01X115000Y459847D03*
G01X63906Y504847D03*
G01X15000Y459847D03*
G01X-36093Y504847D03*
G01X-85000Y459847D03*
G01X-136093Y504847D03*
G01X-185000Y459847D03*
G01X-236093Y504847D03*
G01X-244566Y-512919D03*
G01X-308627Y-483782D03*
G01X-149198Y-462007D03*
G01X-38503Y-489673D03*
G01X21806Y-522759D03*
G01X66398Y-463445D03*
G01X114540Y-530807D03*
G01X162800Y-459847D03*
G01X214473Y-504914D03*
G01X262800Y-459847D03*
G01X313893Y-504847D03*
G01X362800Y-459847D03*
G01X413893Y-504847D03*
G01X-1769996Y-804998D03*
G01X-105099Y-511303D03*
G01X-369999Y849998D03*
G01X561802Y-793598D03*
G01X907500Y-652389D03*
G01X-1643482Y46916D03*
G01X-330635Y37880D03*
G01X-684439Y-40000D03*
G01X-1706103Y-179847D03*
G01X-1706545Y-100305D03*
G01X-1706545Y-500304D03*
G01X-1433794Y-590530D03*
G01X-1353810Y-590530D03*
G01X-1273800Y-590530D03*
G01X-1193815Y-590530D03*
G01X-1113805Y-756690D03*
G01X-765024Y-542501D03*
G01X-713806Y-745053D03*
G01X-812498Y-27500D03*
G01X-844998Y-90000D03*
G01X-834998Y-385699D03*
G01X-1702716Y-419999D03*
G01X-254999Y-578959D03*
G01X-259999Y-644999D03*
G01X-844998Y-871728D03*
G01X245000Y-744999D03*
G01X1044998Y80000D03*
G01X1044998Y-65000D03*
G01X524999Y-334999D03*
G01X-409999Y-284999D03*
G01X1129998Y-859998D03*
G01X699999Y-414999D03*
G01X699999Y-254999D03*
G01X-1507497Y-157500D03*
G01X824998Y329999D03*
G01X1168979Y832420D03*
G01X629999Y230000D03*
G01X-1443786Y108715D03*
G01X-43785Y708715D03*
G01X356215Y-91286D03*
G01X556215Y-491286D03*
G01X1156216Y-491286D03*
G01X1156216Y-291286D03*
G01X1156216Y-91286D03*
G01X1156216Y108715D03*
G01X1356216Y-691286D03*
G01X1356216Y-291286D03*
G01X1356216Y-91286D03*
G01X1356216Y108715D03*
G01X1356216Y308715D03*
G01X1356216Y708715D03*
G01X1556216Y-491286D03*
G01X1556216Y-291286D03*
G01X1556216Y-91286D03*
G01X1556216Y108715D03*
G01X1556216Y308715D03*
G01X1556216Y508715D03*
G01X110000Y-110000D03*
G01X444500Y-192902D03*
G01X-1319997Y185000D03*
G01X-1419997Y210000D03*
G01X-1364997Y-444999D03*
G01X414999Y122007D03*
G01X-955639Y-587151D03*
G01X-1225540Y-751019D03*
G01X-426659Y-482382D03*
G01X-572481Y-755635D03*
G01X165926Y-815848D03*
G01X314999Y794998D03*
G01X1015343Y755419D03*
G04 Via End*

G04 Track Start*
G54D30*
G01X363906Y361442D02*
G01X363906Y504999D01*
G01X414999Y459999D02*
G01X414999Y362396D01*
G01X413893Y361290D01*
G01X-36093Y-361290D02*
G01X-36093Y-487263D01*
G01X-38503Y-489673D01*
G01X-186106Y-361442D02*
G01X-186106Y-426105D01*
G54D31*
G01X-793791Y-667791D02*
G01X-765024Y-639025D01*
G01X-765024Y-542501D01*
G54D30*
G01X-1589997Y-663974D02*
G01X-1593814Y-667791D01*
G54D32*
G01X-254999Y-578959D02*
G01X-195000Y-638959D01*
G01X-195000Y-749998D01*
G54D30*
G01X-193959Y-578959D02*
G01X-254999Y-578959D01*
G01X-190000Y-574999D02*
G01X-193959Y-578959D01*
G01X-1558141Y-372334D02*
G01X-1527662Y-372334D01*
G01X-1496737Y-403259D01*
G01X-1558733Y-438259D02*
G01X-1674997Y-554523D01*
G01X-1674997Y-666594D01*
G01X-236093Y-361290D02*
G01X-308627Y-433824D01*
G01X-308627Y-483782D01*
G01X-186106Y-426105D02*
G01X-249999Y-489999D01*
G01X163906Y361290D02*
G01X163906Y504847D01*
G01X115000Y362243D02*
G01X115000Y459847D01*
G01X113894Y361137D02*
G01X115000Y362243D01*
G01X63906Y361290D02*
G01X63906Y504847D01*
G01X15000Y362243D02*
G01X15000Y459847D01*
G01X13894Y361137D02*
G01X15000Y362243D01*
G01X-36093Y361290D02*
G01X-36093Y504847D01*
G01X-85000Y362243D02*
G01X-85000Y459847D01*
G01X-86106Y361137D02*
G01X-85000Y362243D01*
G01X-136093Y361290D02*
G01X-136093Y504847D01*
G01X-185000Y362243D02*
G01X-185000Y459847D01*
G01X-186106Y361137D02*
G01X-185000Y362243D01*
G01X-236093Y361290D02*
G01X-236093Y504847D01*
G01X-1496737Y-403259D02*
G01X-1496737Y-444513D01*
G01X-136093Y-361290D02*
G01X-136093Y-416574D01*
G01X-1496737Y-444513D02*
G01X-1589997Y-537773D01*
G01X-1589997Y-663974D01*
G01X162800Y-362243D02*
G01X162800Y-459847D01*
G01X163906Y-361137D02*
G01X162800Y-362243D01*
G01X262800Y-362243D02*
G01X262800Y-459847D01*
G01X263906Y-361137D02*
G01X262800Y-362243D01*
G01X313893Y-361290D02*
G01X313893Y-504847D01*
G01X362800Y-362243D02*
G01X362800Y-459847D01*
G01X363906Y-361137D02*
G01X362800Y-362243D01*
G01X413893Y-361290D02*
G01X413893Y-504847D01*
G54D31*
G01X-86106Y-441105D02*
G01X-86106Y-361290D01*
G54D32*
G01X-152988Y-871728D02*
G01X-152342Y-871728D01*
G01X214473Y-504914D01*
G54D30*
G01X213893Y-361290D02*
G01X214473Y-361869D01*
G01X214473Y-504914D01*
G01X113894Y-361290D02*
G01X114540Y-361936D01*
G01X114540Y-530807D01*
G01X63906Y-361137D02*
G01X66398Y-363629D01*
G01X66398Y-463445D01*
G01X213893Y361290D02*
G01X213893Y458121D01*
G01X212167Y459847D01*
G01X-249999Y-489999D02*
G01X-249999Y-507485D01*
G54D31*
G01X313893Y361290D02*
G01X314999Y362396D01*
G01X314999Y459847D01*
G54D30*
G01X-249999Y-507485D02*
G01X-244566Y-512919D01*
G01X263906Y361290D02*
G01X263906Y504847D01*
G01X115000Y594999D02*
G01X314999Y794998D01*
G01X115000Y459847D02*
G01X115000Y594999D01*
G54D31*
G01X-105099Y-511303D02*
G01X-91843Y-498047D01*
G01X-91843Y-446842D01*
G01X-86106Y-441105D01*
G54D30*
G01X-149198Y-462007D02*
G01X-190000Y-502809D01*
G01X-190000Y-574999D01*
G01X-136093Y-416574D02*
G01X-149198Y-429679D01*
G01X-149198Y-462007D01*
G01X-187490Y209296D02*
G01X144704Y209296D01*
G01X303200Y50800D01*
G01X-187490Y19304D02*
G01X-187490Y-103772D01*
G01X-198018Y-114300D01*
G01X-447510Y19304D02*
G01X-447510Y-112128D01*
G01X-452018Y-116637D01*
G01X-331574Y-231369D02*
G01X-259641Y-231369D01*
G01X-229136Y-200863D01*
G01X-228405Y-200132D01*
G01X-198749Y-200132D01*
G01X-198018Y-200863D01*
G01X-229136Y-195863D02*
G01X-229136Y-200863D01*
G54D31*
G01X-1643482Y46916D02*
G01X-1656255Y59690D01*
G01X-1783806Y59690D01*
G54D30*
G01X-447510Y209296D02*
G01X-329296Y209296D01*
G01X-260270Y140270D01*
G01X-260270Y-164729D01*
G01X-229136Y-195863D01*
G54D31*
G01X-1783806Y-180289D02*
G01X-1783364Y-179847D01*
G01X-1706103Y-179847D01*
G01X-1783806Y-100305D02*
G01X-1706545Y-100305D01*
G01X-1784248Y-100747D02*
G01X-1783806Y-100305D01*
G01X-1783806Y-500304D02*
G01X-1706545Y-500304D01*
G01X-1784248Y-500746D02*
G01X-1783806Y-500304D01*
G01X-1673357Y-668233D02*
G01X-1673799Y-667791D01*
G01X-1593372Y-668233D02*
G01X-1593814Y-667791D01*
G01X-1433794Y-667791D02*
G01X-1433794Y-590530D01*
G01X-1433352Y-668233D02*
G01X-1433794Y-667791D01*
G01X-1353810Y-667791D02*
G01X-1353810Y-590530D01*
G01X-1353368Y-668233D02*
G01X-1353810Y-667791D01*
G01X-1273800Y-667791D02*
G01X-1273800Y-590530D01*
G01X-1273358Y-668233D02*
G01X-1273800Y-667791D01*
G01X-1193815Y-667791D02*
G01X-1193815Y-590530D01*
G01X-1193373Y-668233D02*
G01X-1193815Y-667791D01*
G01X-1114247Y-667349D02*
G01X-1113805Y-667791D01*
G01X-1113805Y-756690D01*
G01X-1034237Y-667349D02*
G01X-1033795Y-667791D01*
G01X-793349Y-668233D02*
G01X-793791Y-667791D01*
G01X-713806Y-667791D02*
G01X-713806Y-745053D01*
G01X-714248Y-667349D02*
G01X-713806Y-667791D01*
G01X-603799Y-100305D02*
G01X-613494Y-110000D01*
G01X-603799Y-180315D02*
G01X-754684Y-180315D01*
G01X-844998Y-90000D01*
G01X-873801Y-667791D02*
G01X-873801Y-424501D01*
G01X-834998Y-385699D01*
G01X-1779977Y-419999D02*
G01X-1702716Y-419999D01*
G54D30*
G01X-259999Y-644999D02*
G01X-259999Y-774998D01*
G54D32*
G01X-1674997Y-809998D02*
G01X-1674997Y-724229D01*
G01X-1673799Y-723031D01*
G01X-1673799Y-667791D01*
G54D30*
G01X-1594997Y-724656D02*
G01X-1593372Y-723031D01*
G01X-1593372Y-668233D01*
G01X-259999Y-774998D02*
G01X-289951Y-804950D01*
G01X-1579757Y-804950D02*
G01X-1594997Y-789710D01*
G01X-1594997Y-724656D01*
G54D32*
G01X-195000Y-749998D02*
G01X-275331Y-830330D01*
G01X-1654665Y-830330D02*
G01X-1674997Y-809998D01*
G54D30*
G01X-974179Y-804998D02*
G01X-1579757Y-804950D01*
G01X-289951Y-804950D02*
G01X-734995Y-805002D01*
G01X-754998Y-784998D01*
G01X-954179Y-784998D01*
G01X-974179Y-804998D01*
G54D32*
G01X-275331Y-830330D02*
G01X-754667Y-830330D01*
G01X-774618Y-810378D01*
G01X-943666Y-810378D02*
G01X-963667Y-830379D01*
G01X-774618Y-810378D02*
G01X-943666Y-810378D01*
G01X-963667Y-830379D02*
G01X-1654658Y-830337D01*
G54D30*
G01X-844998Y-871728D02*
G01X-152988Y-871728D01*
G01X313893Y-504847D02*
G01X313893Y-676105D01*
G01X245000Y-744999D01*
G01X943597Y25006D02*
G01X860005Y25006D01*
G01X849998Y15000D01*
G01X849998Y-50000D01*
G01X874992Y-74993D01*
G01X943597Y-74993D01*
G01X943597Y-25006D02*
G01X1009758Y-25006D01*
G54D31*
G01X943597Y-320002D02*
G01X998588Y-374993D01*
G01X998588Y-432498D01*
G01X943597Y320002D02*
G01X998588Y374993D01*
G01X998588Y432499D01*
G54D30*
G01X1009758Y-25006D02*
G01X1049998Y15234D01*
G01X1049998Y75000D01*
G01X943604Y75000D01*
G01X1044998Y-65000D02*
G01X1035004Y-74993D01*
G01X943597Y-74993D01*
G01X943597Y-124981D02*
G01X714980Y-124981D01*
G01X679999Y-90000D01*
G01X679999Y-22675D01*
G01X678282Y-20958D01*
G01X678282Y21282D01*
G01X943597Y175019D02*
G01X717718Y175019D01*
G01X678282Y135582D01*
G54D31*
G01X584200Y-123292D02*
G01X584200Y-110787D01*
G01X422613Y50800D01*
G01X303200Y50800D01*
G01X943597Y240017D02*
G01X989757Y240017D01*
G01X1018434Y211341D01*
G01X1018657Y211341D02*
G01X1094998Y135000D01*
G01X1094998Y105434D01*
G01X1098338Y102094D01*
G01X1098338Y57906D01*
G01X1094998Y54566D01*
G01X1094998Y-39566D01*
G01X1098338Y-42906D01*
G01X1098338Y-87094D01*
G01X1094998Y-90434D01*
G01X1094998Y-125000D01*
G01X1021457Y-198540D01*
G01X1021457Y-199462D01*
G01X980927Y-239992D01*
G01X943597Y-239992D01*
G01X805006Y-239992D01*
G01X709999Y-334999D02*
G01X524999Y-334999D01*
G01X805006Y-239992D02*
G01X709999Y-334999D01*
G54D30*
G01X13894Y-361290D02*
G01X23894Y-371290D01*
G01X23894Y-430503D01*
G01X14540Y-439857D01*
G01X14540Y-479837D01*
G01X21806Y-487102D01*
G01X21806Y-522759D01*
G54D31*
G01X-409999Y-284999D02*
G01X-344999Y-284999D01*
G01X-331574Y-271574D01*
G01X-331574Y-231369D01*
G54D30*
G01X1129998Y-859998D02*
G01X1153109Y-836887D01*
G01X1153109Y-711200D01*
G54D31*
G01X722038Y602038D02*
G01X744999Y624999D01*
G01X904998Y624999D01*
G01X929704Y649704D02*
G01X929704Y706996D01*
G01X722038Y512960D02*
G01X722038Y602038D01*
G01X904998Y624999D02*
G01X929704Y649704D01*
G01X-1690306Y-340309D02*
G01X-1783806Y-340309D01*
G01X-1507497Y-157500D02*
G01X-1690306Y-340309D01*
G01X824998Y329999D02*
G01X744118Y410879D01*
G01X744118Y431800D01*
G01X1168979Y832420D02*
G01X1168979Y727070D01*
G01X1153109Y711200D01*
G01X830682Y431800D02*
G01X830682Y443916D01*
G01X805282Y469316D01*
G01X765682Y469316D01*
G01X722038Y512960D01*
G01X790992Y551100D02*
G01X867093Y474999D01*
G01X956088Y474999D02*
G01X998588Y432499D01*
G01X867093Y474999D02*
G01X956088Y474999D01*
G01X-613494Y-110000D02*
G01X-729999Y-110000D01*
G01X-812498Y-27500D01*
G01X900008Y551100D02*
G01X946099Y551100D01*
G01X989998Y819998D02*
G01X932698Y819998D01*
G01X929704Y817004D01*
G01X946099Y551100D02*
G01X1015343Y620344D01*
G01X1015343Y755419D01*
G01X1015343Y794653D01*
G01X989998Y819998D01*
G04 Track End*

M02*

